  0
SECTION
  2
HEADER
  9
$ACADVER
  1
AC1014
  9
$HANDSEED
  5
FFFF
  9
$MEASUREMENT
 70
     1
  0
ENDSEC
  0
SECTION
  2
TABLES
  0
TABLE
  2
VPORT
  5
8
330
0
100
AcDbSymbolTable
 70
     4
  0
VPORT
  5
2E
330
8
100
AcDbSymbolTableRecord
100
AcDbViewportTableRecord
  2
*ACTIVE
 70
     0
 10
0.0
 20
0.0
 11
1.0
 21
1.0
 12
210.0
 22
148.5
 13
0.0
 23
0.0
 14
10.0
 24
10.0
 15
10.0
 25
10.0
 16
0.0
 26
0.0
 36
1.0
 17
0.0
 27
0.0
 37
0.0
 40
341.0
 41
1.24
 42
50.0
 43
0.0
 44
0.0
 50
0.0
 51
0.0
 71
     0
 72
   100
 73
     1
 74
     3
 75
     0
 76
     0
 77
     0
 78
     0
  0
ENDTAB
  0
TABLE
  2
LTYPE
  5
5
330
0
100
AcDbSymbolTable
 70
     1
  0
LTYPE
  5
14
330
5
100
AcDbSymbolTableRecord
100
AcDbLinetypeTableRecord
  2
BYBLOCK
 70
     0
  3

 72
    65
 73
     0
 40
0.0
  0
LTYPE
  5
15
330
5
100
AcDbSymbolTableRecord
100
AcDbLinetypeTableRecord
  2
BYLAYER
 70
     0
  3

 72
    65
 73
     0
 40
0.0
  0
LTYPE
  5
16
330
5
100
AcDbSymbolTableRecord
100
AcDbLinetypeTableRecord
  2
CONTINUOUS
 70
     0
  3
Solid line
 72
    65
 73
     0
 40
0.0
  0
ENDTAB
  0
TABLE
  2
LAYER
  5
2
100
AcDbSymbolTable
 70
2
  0
LAYER
  5
50
100
AcDbSymbolTableRecord
100
AcDbLayerTableRecord
  2
0
 70
0
  6
CONTINUOUS
  0
LAYER
  5
51
100
AcDbSymbolTableRecord
100
AcDbLayerTableRecord
  2
Layer_1
 70
0
  6
CONTINUOUS
  0
ENDTAB
  0
TABLE
  2
STYLE
  5
3
330
0
100
AcDbSymbolTable
 70
     1
  0
STYLE
  5
11
330
3
100
AcDbSymbolTableRecord
100
AcDbTextStyleTableRecord
  2
STANDARD
 70
     0
 40
0.0
 41
1.0
 50
0.0
 71
     0
 42
2.5
  3
txt
  4

  0
ENDTAB
  0
TABLE
  2
VIEW
  5
6
330
0
100
AcDbSymbolTable
 70
     0
  0
ENDTAB
  0
TABLE
  2
UCS
  5
7
330
0
100
AcDbSymbolTable
 70
     0
  0
ENDTAB
  0
TABLE
  2
APPID
  5
9
330
0
100
AcDbSymbolTable
 70
     2
  0
APPID
  5
12
330
9
100
AcDbSymbolTableRecord
100
AcDbRegAppTableRecord
  2
ACAD
 70
     0
  0
ENDTAB
  0
TABLE
  2
DIMSTYLE
  5
A
330
0
100
AcDbSymbolTable
 70
     1
  0
DIMSTYLE
105
27
330
A
100
AcDbSymbolTableRecord
100
AcDbDimStyleTableRecord
  2
ISO-25
 70
     0
  3

  4

  5

  6

  7

 40
1.0
 41
2.5
 42
0.625
 43
3.75
 44
1.25
 45
0.0
 46
0.0
 47
0.0
 48
0.0
140
2.5
141
2.5
142
0.0
143
0.03937007874016
144
1.0
145
0.0
146
1.0
147
0.625
 71
     0
 72
     0
 73
     0
 74
     0
 75
     0
 76
     0
 77
     1
 78
     8
170
     0
171
     3
172
     1
173
     0
174
     0
175
     0
176
     0
177
     0
178
     0
270
     2
271
     2
272
     2
273
     2
274
     3
340
11
275
     0
280
     0
281
     0
282
     0
283
     0
284
     8
285
     0
286
     0
287
     3
288
     0
  0
ENDTAB
  0
TABLE
  2
BLOCK_RECORD
  5
1
330
0
100
AcDbSymbolTable
 70
     1
  0
BLOCK_RECORD
  5
1F
330
1
100
AcDbSymbolTableRecord
100
AcDbBlockTableRecord
  2
*MODEL_SPACE
  0
BLOCK_RECORD
  5
1B
330
1
100
AcDbSymbolTableRecord
100
AcDbBlockTableRecord
  2
*PAPER_SPACE
  0
ENDTAB
  0
ENDSEC
  0
SECTION
  2
BLOCKS
  0
BLOCK
  5
20
330
1F
100
AcDbEntity
  8
0
100
AcDbBlockBegin
  2
*MODEL_SPACE
 70
     0
 10
0.0
 20
0.0
 30
0.0
  3
*MODEL_SPACE
  1

  0
ENDBLK
  5
21
330
1F
100
AcDbEntity
  8
0
100
AcDbBlockEnd
  0
BLOCK
  5
1C
330
1B
100
AcDbEntity
 67
     1
  8
0
100
AcDbBlockBegin
  2
*PAPER_SPACE
  1

  0
ENDBLK
  5
1D
330
1B
100
AcDbEntity
 67
     1
  8
0
100
AcDbBlockEnd
  0
ENDSEC
  0
SECTION
  2
ENTITIES
  0
LINE
  5
100
100
AcDbEntity
  8
Layer_1
 62
7
100
AcDbLine
 10
86.461906
 20
168.914797
 30
0.0
 11
86.461906
 21
164.764662
 31
0.0
  0
LINE
  5
101
100
AcDbEntity
  8
Layer_1
 62
7
100
AcDbLine
 10
86.461906
 20
164.764662
 30
0.0
 11
89.704602
 21
164.764662
 31
0.0
  0
LINE
  5
102
100
AcDbEntity
  8
Layer_1
 62
7
100
AcDbLine
 10
89.704602
 20
164.764662
 30
0.0
 11
97.352195
 21
164.764662
 31
0.0
  0
LINE
  5
103
100
AcDbEntity
  8
Layer_1
 62
7
100
AcDbLine
 10
97.352195
 20
164.764662
 30
0.0
 11
104.999791
 21
164.764662
 31
0.0
  0
LINE
  5
104
100
AcDbEntity
  8
Layer_1
 62
7
100
AcDbLine
 10
104.999791
 20
164.764662
 30
0.0
 11
112.647387
 21
164.764662
 31
0.0
  0
LINE
  5
105
100
AcDbEntity
  8
Layer_1
 62
7
100
AcDbLine
 10
112.647387
 20
164.764662
 30
0.0
 11
120.137884
 21
164.764662
 31
0.0
  0
LINE
  5
106
100
AcDbEntity
  8
Layer_1
 62
7
100
AcDbLine
 10
120.137884
 20
164.764662
 30
0.0
 11
120.137884
 21
168.914797
 31
0.0
  0
LINE
  5
107
100
AcDbEntity
  8
Layer_1
 62
7
100
AcDbLine
 10
120.137884
 20
168.914797
 30
0.0
 11
112.789498
 21
168.914797
 31
0.0
  0
LINE
  5
108
100
AcDbEntity
  8
Layer_1
 62
7
100
AcDbLine
 10
112.789498
 20
168.914797
 30
0.0
 11
104.999791
 21
168.914797
 31
0.0
  0
LINE
  5
109
100
AcDbEntity
  8
Layer_1
 62
7
100
AcDbLine
 10
104.999791
 20
168.914797
 30
0.0
 11
97.210604
 21
168.914797
 31
0.0
  0
LINE
  5
10a
100
AcDbEntity
  8
Layer_1
 62
7
100
AcDbLine
 10
97.210604
 20
168.914797
 30
0.0
 11
89.420897
 21
168.914797
 31
0.0
  0
LINE
  5
10b
100
AcDbEntity
  8
Layer_1
 62
7
100
AcDbLine
 10
89.420897
 20
168.914797
 30
0.0
 11
86.461906
 21
168.914797
 31
0.0
  0
LINE
  5
10c
100
AcDbEntity
  8
Layer_1
 62
7
100
AcDbLine
 10
86.461906
 20
168.914797
 30
0.0
 11
86.461906
 21
168.914797
 31
0.0
  0
LINE
  5
10d
100
AcDbEntity
  8
Layer_1
 62
7
100
AcDbLine
 10
30.238464
 20
156.753783
 30
0.0
 11
30.223478
 21
156.454057
 31
0.0
  0
LINE
  5
10e
100
AcDbEntity
  8
Layer_1
 62
7
100
AcDbLine
 10
30.223478
 20
156.454057
 30
0.0
 11
30.223478
 21
155.459804
 31
0.0
  0
LINE
  5
10f
100
AcDbEntity
  8
Layer_1
 62
7
100
AcDbLine
 10
30.223478
 20
155.459804
 30
0.0
 11
30.223478
 21
154.465550
 31
0.0
  0
LINE
  5
110
100
AcDbEntity
  8
Layer_1
 62
7
100
AcDbLine
 10
30.223478
 20
154.465550
 30
0.0
 11
30.223478
 21
153.471296
 31
0.0
  0
LINE
  5
111
100
AcDbEntity
  8
Layer_1
 62
7
100
AcDbLine
 10
30.223478
 20
153.471296
 30
0.0
 11
30.223478
 21
152.477039
 31
0.0
  0
LINE
  5
112
100
AcDbEntity
  8
Layer_1
 62
7
100
AcDbLine
 10
30.223478
 20
152.477039
 30
0.0
 11
30.223478
 21
151.482785
 31
0.0
  0
LINE
  5
113
100
AcDbEntity
  8
Layer_1
 62
7
100
AcDbLine
 10
30.223478
 20
151.482785
 30
0.0
 11
30.223478
 21
150.488531
 31
0.0
  0
LINE
  5
114
100
AcDbEntity
  8
Layer_1
 62
7
100
AcDbLine
 10
30.223478
 20
150.488531
 30
0.0
 11
30.223478
 21
149.494278
 31
0.0
  0
LINE
  5
115
100
AcDbEntity
  8
Layer_1
 62
7
100
AcDbLine
 10
30.223478
 20
149.494278
 30
0.0
 11
30.223478
 21
148.500021
 31
0.0
  0
LINE
  5
116
100
AcDbEntity
  8
Layer_1
 62
7
100
AcDbLine
 10
30.223478
 20
148.500021
 30
0.0
 11
30.223478
 21
147.505767
 31
0.0
  0
LINE
  5
117
100
AcDbEntity
  8
Layer_1
 62
7
100
AcDbLine
 10
30.223478
 20
147.505767
 30
0.0
 11
30.223478
 21
146.511513
 31
0.0
  0
LINE
  5
118
100
AcDbEntity
  8
Layer_1
 62
7
100
AcDbLine
 10
30.223478
 20
146.511513
 30
0.0
 11
30.223478
 21
145.517259
 31
0.0
  0
LINE
  5
119
100
AcDbEntity
  8
Layer_1
 62
7
100
AcDbLine
 10
30.223478
 20
145.517259
 30
0.0
 11
30.223478
 21
144.523003
 31
0.0
  0
LINE
  5
11a
100
AcDbEntity
  8
Layer_1
 62
7
100
AcDbLine
 10
30.223478
 20
144.523003
 30
0.0
 11
30.223478
 21
143.528749
 31
0.0
  0
LINE
  5
11b
100
AcDbEntity
  8
Layer_1
 62
7
100
AcDbLine
 10
30.223478
 20
143.528749
 30
0.0
 11
30.223478
 21
142.534495
 31
0.0
  0
LINE
  5
11c
100
AcDbEntity
  8
Layer_1
 62
7
100
AcDbLine
 10
30.223478
 20
142.534495
 30
0.0
 11
30.223478
 21
141.540241
 31
0.0
  0
LINE
  5
11d
100
AcDbEntity
  8
Layer_1
 62
7
100
AcDbLine
 10
30.223478
 20
141.540241
 30
0.0
 11
30.223478
 21
140.984719
 31
0.0
  0
LINE
  5
11e
100
AcDbEntity
  8
Layer_1
 62
7
100
AcDbLine
 10
30.223478
 20
140.984719
 30
0.0
 11
34.740514
 21
140.984719
 31
0.0
  0
LINE
  5
11f
100
AcDbEntity
  8
Layer_1
 62
7
100
AcDbLine
 10
34.740514
 20
140.984719
 30
0.0
 11
34.725528
 21
141.285993
 31
0.0
  0
LINE
  5
120
100
AcDbEntity
  8
Layer_1
 62
7
100
AcDbLine
 10
34.725528
 20
141.285993
 30
0.0
 11
34.725528
 21
142.185163
 31
0.0
  0
LINE
  5
121
100
AcDbEntity
  8
Layer_1
 62
7
100
AcDbLine
 10
34.725528
 20
142.185163
 30
0.0
 11
34.725528
 21
143.084331
 31
0.0
  0
LINE
  5
122
100
AcDbEntity
  8
Layer_1
 62
7
100
AcDbLine
 10
34.725528
 20
143.084331
 30
0.0
 11
34.725528
 21
143.983502
 31
0.0
  0
LINE
  5
123
100
AcDbEntity
  8
Layer_1
 62
7
100
AcDbLine
 10
34.725528
 20
143.983502
 30
0.0
 11
34.725528
 21
144.882156
 31
0.0
  0
LINE
  5
124
100
AcDbEntity
  8
Layer_1
 62
7
100
AcDbLine
 10
34.725528
 20
144.882156
 30
0.0
 11
34.725528
 21
145.781324
 31
0.0
  0
LINE
  5
125
100
AcDbEntity
  8
Layer_1
 62
7
100
AcDbLine
 10
34.725528
 20
145.781324
 30
0.0
 11
34.725528
 21
146.680495
 31
0.0
  0
LINE
  5
126
100
AcDbEntity
  8
Layer_1
 62
7
100
AcDbLine
 10
34.725528
 20
146.680495
 30
0.0
 11
34.725528
 21
147.579665
 31
0.0
  0
LINE
  5
127
100
AcDbEntity
  8
Layer_1
 62
7
100
AcDbLine
 10
34.725528
 20
147.579665
 30
0.0
 11
34.725528
 21
148.478317
 31
0.0
  0
LINE
  5
128
100
AcDbEntity
  8
Layer_1
 62
7
100
AcDbLine
 10
34.725528
 20
148.478317
 30
0.0
 11
34.725528
 21
149.377488
 31
0.0
  0
LINE
  5
129
100
AcDbEntity
  8
Layer_1
 62
7
100
AcDbLine
 10
34.725528
 20
149.377488
 30
0.0
 11
34.725528
 21
150.276658
 31
0.0
  0
LINE
  5
12a
100
AcDbEntity
  8
Layer_1
 62
7
100
AcDbLine
 10
34.725528
 20
150.276658
 30
0.0
 11
34.725528
 21
151.175829
 31
0.0
  0
LINE
  5
12b
100
AcDbEntity
  8
Layer_1
 62
7
100
AcDbLine
 10
34.725528
 20
151.175829
 30
0.0
 11
34.725528
 21
152.074481
 31
0.0
  0
LINE
  5
12c
100
AcDbEntity
  8
Layer_1
 62
7
100
AcDbLine
 10
34.725528
 20
152.074481
 30
0.0
 11
34.725528
 21
152.973652
 31
0.0
  0
LINE
  5
12d
100
AcDbEntity
  8
Layer_1
 62
7
100
AcDbLine
 10
34.725528
 20
152.973652
 30
0.0
 11
34.725528
 21
153.872822
 31
0.0
  0
LINE
  5
12e
100
AcDbEntity
  8
Layer_1
 62
7
100
AcDbLine
 10
34.725528
 20
153.872822
 30
0.0
 11
34.725528
 21
154.771990
 31
0.0
  0
LINE
  5
12f
100
AcDbEntity
  8
Layer_1
 62
7
100
AcDbLine
 10
34.725528
 20
154.771990
 30
0.0
 11
34.725528
 21
155.670645
 31
0.0
  0
LINE
  5
130
100
AcDbEntity
  8
Layer_1
 62
7
100
AcDbLine
 10
34.725528
 20
155.670645
 30
0.0
 11
34.772555
 21
156.606505
 31
0.0
  0
LINE
  5
131
100
AcDbEntity
  8
Layer_1
 62
7
100
AcDbLine
 10
34.772555
 20
156.606505
 30
0.0
 11
34.794774
 21
156.753783
 31
0.0
  0
LINE
  5
132
100
AcDbEntity
  8
Layer_1
 62
7
100
AcDbLine
 10
34.794774
 20
156.753783
 30
0.0
 11
30.238464
 21
156.753783
 31
0.0
  0
LINE
  5
133
100
AcDbEntity
  8
Layer_1
 62
7
100
AcDbLine
 10
30.238464
 20
156.753783
 30
0.0
 11
30.238464
 21
156.753783
 31
0.0
  0
LINE
  5
134
100
AcDbEntity
  8
Layer_1
 62
7
100
AcDbLine
 10
175.203774
 20
156.753783
 30
0.0
 11
175.225994
 21
156.606505
 31
0.0
  0
LINE
  5
135
100
AcDbEntity
  8
Layer_1
 62
7
100
AcDbLine
 10
175.225994
 20
156.606505
 30
0.0
 11
175.272505
 21
155.670645
 31
0.0
  0
LINE
  5
136
100
AcDbEntity
  8
Layer_1
 62
7
100
AcDbLine
 10
175.272505
 20
155.670645
 30
0.0
 11
175.272505
 21
154.771990
 31
0.0
  0
LINE
  5
137
100
AcDbEntity
  8
Layer_1
 62
7
100
AcDbLine
 10
175.272505
 20
154.771990
 30
0.0
 11
175.272505
 21
153.872822
 31
0.0
  0
LINE
  5
138
100
AcDbEntity
  8
Layer_1
 62
7
100
AcDbLine
 10
175.272505
 20
153.872822
 30
0.0
 11
175.272505
 21
152.973652
 31
0.0
  0
LINE
  5
139
100
AcDbEntity
  8
Layer_1
 62
7
100
AcDbLine
 10
175.272505
 20
152.973652
 30
0.0
 11
175.272505
 21
152.074481
 31
0.0
  0
LINE
  5
13a
100
AcDbEntity
  8
Layer_1
 62
7
100
AcDbLine
 10
175.272505
 20
152.074481
 30
0.0
 11
175.272505
 21
151.175829
 31
0.0
  0
LINE
  5
13b
100
AcDbEntity
  8
Layer_1
 62
7
100
AcDbLine
 10
175.272505
 20
151.175829
 30
0.0
 11
175.272505
 21
150.276658
 31
0.0
  0
LINE
  5
13c
100
AcDbEntity
  8
Layer_1
 62
7
100
AcDbLine
 10
175.272505
 20
150.276658
 30
0.0
 11
175.272505
 21
149.377488
 31
0.0
  0
LINE
  5
13d
100
AcDbEntity
  8
Layer_1
 62
7
100
AcDbLine
 10
175.272505
 20
149.377488
 30
0.0
 11
175.272505
 21
148.478317
 31
0.0
  0
LINE
  5
13e
100
AcDbEntity
  8
Layer_1
 62
7
100
AcDbLine
 10
175.272505
 20
148.478317
 30
0.0
 11
175.272505
 21
147.579665
 31
0.0
  0
LINE
  5
13f
100
AcDbEntity
  8
Layer_1
 62
7
100
AcDbLine
 10
175.272505
 20
147.579665
 30
0.0
 11
175.272505
 21
146.680495
 31
0.0
  0
LINE
  5
140
100
AcDbEntity
  8
Layer_1
 62
7
100
AcDbLine
 10
175.272505
 20
146.680495
 30
0.0
 11
175.272505
 21
145.781324
 31
0.0
  0
LINE
  5
141
100
AcDbEntity
  8
Layer_1
 62
7
100
AcDbLine
 10
175.272505
 20
145.781324
 30
0.0
 11
175.272505
 21
144.882156
 31
0.0
  0
LINE
  5
142
100
AcDbEntity
  8
Layer_1
 62
7
100
AcDbLine
 10
175.272505
 20
144.882156
 30
0.0
 11
175.272505
 21
143.983502
 31
0.0
  0
LINE
  5
143
100
AcDbEntity
  8
Layer_1
 62
7
100
AcDbLine
 10
175.272505
 20
143.983502
 30
0.0
 11
175.272505
 21
143.084331
 31
0.0
  0
LINE
  5
144
100
AcDbEntity
  8
Layer_1
 62
7
100
AcDbLine
 10
175.272505
 20
143.084331
 30
0.0
 11
175.272505
 21
142.185163
 31
0.0
  0
LINE
  5
145
100
AcDbEntity
  8
Layer_1
 62
7
100
AcDbLine
 10
175.272505
 20
142.185163
 30
0.0
 11
175.272505
 21
141.285993
 31
0.0
  0
LINE
  5
146
100
AcDbEntity
  8
Layer_1
 62
7
100
AcDbLine
 10
175.272505
 20
141.285993
 30
0.0
 11
175.257516
 21
140.984719
 31
0.0
  0
LINE
  5
147
100
AcDbEntity
  8
Layer_1
 62
7
100
AcDbLine
 10
175.257516
 20
140.984719
 30
0.0
 11
179.776105
 21
140.984719
 31
0.0
  0
LINE
  5
148
100
AcDbEntity
  8
Layer_1
 62
7
100
AcDbLine
 10
179.776105
 20
140.984719
 30
0.0
 11
179.776105
 21
141.540241
 31
0.0
  0
LINE
  5
149
100
AcDbEntity
  8
Layer_1
 62
7
100
AcDbLine
 10
179.776105
 20
141.540241
 30
0.0
 11
179.776105
 21
142.534495
 31
0.0
  0
LINE
  5
14a
100
AcDbEntity
  8
Layer_1
 62
7
100
AcDbLine
 10
179.776105
 20
142.534495
 30
0.0
 11
179.776105
 21
143.528749
 31
0.0
  0
LINE
  5
14b
100
AcDbEntity
  8
Layer_1
 62
7
100
AcDbLine
 10
179.776105
 20
143.528749
 30
0.0
 11
179.776105
 21
144.523003
 31
0.0
  0
LINE
  5
14c
100
AcDbEntity
  8
Layer_1
 62
7
100
AcDbLine
 10
179.776105
 20
144.523003
 30
0.0
 11
179.776105
 21
145.517259
 31
0.0
  0
LINE
  5
14d
100
AcDbEntity
  8
Layer_1
 62
7
100
AcDbLine
 10
179.776105
 20
145.517259
 30
0.0
 11
179.776105
 21
146.511513
 31
0.0
  0
LINE
  5
14e
100
AcDbEntity
  8
Layer_1
 62
7
100
AcDbLine
 10
179.776105
 20
146.511513
 30
0.0
 11
179.776105
 21
147.505767
 31
0.0
  0
LINE
  5
14f
100
AcDbEntity
  8
Layer_1
 62
7
100
AcDbLine
 10
179.776105
 20
147.505767
 30
0.0
 11
179.776105
 21
148.500021
 31
0.0
  0
LINE
  5
150
100
AcDbEntity
  8
Layer_1
 62
7
100
AcDbLine
 10
179.776105
 20
148.500021
 30
0.0
 11
179.776105
 21
149.494278
 31
0.0
  0
LINE
  5
151
100
AcDbEntity
  8
Layer_1
 62
7
100
AcDbLine
 10
179.776105
 20
149.494278
 30
0.0
 11
179.776105
 21
150.488531
 31
0.0
  0
LINE
  5
152
100
AcDbEntity
  8
Layer_1
 62
7
100
AcDbLine
 10
179.776105
 20
150.488531
 30
0.0
 11
179.776105
 21
151.482785
 31
0.0
  0
LINE
  5
153
100
AcDbEntity
  8
Layer_1
 62
7
100
AcDbLine
 10
179.776105
 20
151.482785
 30
0.0
 11
179.776105
 21
152.477039
 31
0.0
  0
LINE
  5
154
100
AcDbEntity
  8
Layer_1
 62
7
100
AcDbLine
 10
179.776105
 20
152.477039
 30
0.0
 11
179.776105
 21
153.471296
 31
0.0
  0
LINE
  5
155
100
AcDbEntity
  8
Layer_1
 62
7
100
AcDbLine
 10
179.776105
 20
153.471296
 30
0.0
 11
179.776105
 21
154.465550
 31
0.0
  0
LINE
  5
156
100
AcDbEntity
  8
Layer_1
 62
7
100
AcDbLine
 10
179.776105
 20
154.465550
 30
0.0
 11
179.776105
 21
155.459804
 31
0.0
  0
LINE
  5
157
100
AcDbEntity
  8
Layer_1
 62
7
100
AcDbLine
 10
179.776105
 20
155.459804
 30
0.0
 11
179.776105
 21
156.454057
 31
0.0
  0
LINE
  5
158
100
AcDbEntity
  8
Layer_1
 62
7
100
AcDbLine
 10
179.776105
 20
156.454057
 30
0.0
 11
179.761119
 21
156.753783
 31
0.0
  0
LINE
  5
159
100
AcDbEntity
  8
Layer_1
 62
7
100
AcDbLine
 10
179.761119
 20
156.753783
 30
0.0
 11
175.203774
 21
156.753783
 31
0.0
  0
LINE
  5
15a
100
AcDbEntity
  8
Layer_1
 62
7
100
AcDbLine
 10
175.203774
 20
156.753783
 30
0.0
 11
175.203774
 21
156.753783
 31
0.0
  0
LINE
  5
15b
100
AcDbEntity
  8
Layer_1
 62
7
100
AcDbLine
 10
86.461906
 20
132.194041
 30
0.0
 11
86.461906
 21
128.085248
 31
0.0
  0
LINE
  5
15c
100
AcDbEntity
  8
Layer_1
 62
7
100
AcDbLine
 10
86.461906
 20
128.085248
 30
0.0
 11
89.420897
 21
128.085248
 31
0.0
  0
LINE
  5
15d
100
AcDbEntity
  8
Layer_1
 62
7
100
AcDbLine
 10
89.420897
 20
128.085248
 30
0.0
 11
97.210604
 21
128.085248
 31
0.0
  0
LINE
  5
15e
100
AcDbEntity
  8
Layer_1
 62
7
100
AcDbLine
 10
97.210604
 20
128.085248
 30
0.0
 11
104.999791
 21
128.085248
 31
0.0
  0
LINE
  5
15f
100
AcDbEntity
  8
Layer_1
 62
7
100
AcDbLine
 10
104.999791
 20
128.085248
 30
0.0
 11
112.789498
 21
128.085248
 31
0.0
  0
LINE
  5
160
100
AcDbEntity
  8
Layer_1
 62
7
100
AcDbLine
 10
112.789498
 20
128.085248
 30
0.0
 11
120.137884
 21
128.085248
 31
0.0
  0
LINE
  5
161
100
AcDbEntity
  8
Layer_1
 62
7
100
AcDbLine
 10
120.137884
 20
128.085248
 30
0.0
 11
120.137884
 21
132.194041
 31
0.0
  0
LINE
  5
162
100
AcDbEntity
  8
Layer_1
 62
7
100
AcDbLine
 10
120.137884
 20
132.194041
 30
0.0
 11
112.647387
 21
132.194041
 31
0.0
  0
LINE
  5
163
100
AcDbEntity
  8
Layer_1
 62
7
100
AcDbLine
 10
112.647387
 20
132.194041
 30
0.0
 11
104.999791
 21
132.194041
 31
0.0
  0
LINE
  5
164
100
AcDbEntity
  8
Layer_1
 62
7
100
AcDbLine
 10
104.999791
 20
132.194041
 30
0.0
 11
97.352195
 21
132.194041
 31
0.0
  0
LINE
  5
165
100
AcDbEntity
  8
Layer_1
 62
7
100
AcDbLine
 10
97.352195
 20
132.194041
 30
0.0
 11
89.704602
 21
132.194041
 31
0.0
  0
LINE
  5
166
100
AcDbEntity
  8
Layer_1
 62
7
100
AcDbLine
 10
89.704602
 20
132.194041
 30
0.0
 11
86.461906
 21
132.194041
 31
0.0
  0
LINE
  5
167
100
AcDbEntity
  8
Layer_1
 62
7
100
AcDbLine
 10
86.461906
 20
132.194041
 30
0.0
 11
86.461906
 21
132.194041
 31
0.0
  0
ENDSEC
  0
SECTION
  2
OBJECTS
  0
DICTIONARY
  5
C
330
0
100
AcDbDictionary
  3
ACAD_GROUP
350
D
  3
ACAD_MLINESTYLE
350
17
  0
DICTIONARY
  5
D
330
C
100
AcDbDictionary
  0
DICTIONARY
  5
1A
330
C
100
AcDbDictionary
  0
DICTIONARY
  5
17
330
C
100
AcDbDictionary
  3
STANDARD
350
18
  0
DICTIONARY
  5
19
330
C
100
AcDbDictionary
  0
ENDSEC
  0
EOF
