<?xml version="1.0" encoding="UTF-8" standalone="no"?>
<!-- Created with Inkscape (http://www.inkscape.org/) -->

<svg
   xmlns:dc="http://purl.org/dc/elements/1.1/"
   xmlns:cc="http://creativecommons.org/ns#"
   xmlns:rdf="http://www.w3.org/1999/02/22-rdf-syntax-ns#"
   xmlns:svg="http://www.w3.org/2000/svg"
   xmlns="http://www.w3.org/2000/svg"
   xmlns:sodipodi="http://sodipodi.sourceforge.net/DTD/sodipodi-0.dtd"
   xmlns:inkscape="http://www.inkscape.org/namespaces/inkscape"
   width="210mm"
   height="297mm"
   viewBox="0 0 210 297"
   version="1.1"
   id="svg1958"
   sodipodi:docname="2d_randli.svg"
   inkscape:version="0.92.5 (0.92.5+68)">
  <defs
     id="defs1952" />
  <sodipodi:namedview
     id="base"
     pagecolor="#ffffff"
     bordercolor="#666666"
     borderopacity="1.0"
     inkscape:pageopacity="0.0"
     inkscape:pageshadow="2"
     inkscape:zoom="0.98994949"
     inkscape:cx="397.95913"
     inkscape:cy="476.20566"
     inkscape:document-units="mm"
     inkscape:current-layer="layer1"
     showgrid="false"
     inkscape:window-width="1855"
     inkscape:window-height="1056"
     inkscape:window-x="65"
     inkscape:window-y="24"
     inkscape:window-maximized="1"
     inkscape:snap-global="false" />
  <metadata
     id="metadata1955">
    <rdf:RDF>
      <cc:Work
         rdf:about="">
        <dc:format>image/svg+xml</dc:format>
        <dc:type
           rdf:resource="http://purl.org/dc/dcmitype/StillImage" />
        <dc:title></dc:title>
      </cc:Work>
    </rdf:RDF>
  </metadata>
  <g
     inkscape:label="Layer 1"
     inkscape:groupmode="layer"
     id="layer1">
    <path
       style="color:#000000;font-style:normal;font-variant:normal;font-weight:normal;font-stretch:normal;font-size:medium;line-height:normal;font-family:sans-serif;font-variant-ligatures:normal;font-variant-position:normal;font-variant-caps:normal;font-variant-numeric:normal;font-variant-alternates:normal;font-feature-settings:normal;text-indent:0;text-align:start;text-decoration:none;text-decoration-line:none;text-decoration-style:solid;text-decoration-color:#000000;letter-spacing:normal;word-spacing:normal;text-transform:none;writing-mode:lr-tb;direction:ltr;text-orientation:mixed;dominant-baseline:auto;baseline-shift:baseline;text-anchor:start;white-space:normal;shape-padding:0;clip-rule:nonzero;display:inline;overflow:visible;visibility:visible;opacity:1;isolation:auto;mix-blend-mode:normal;color-interpolation:sRGB;color-interpolation-filters:linearRGB;solid-color:#000000;solid-opacity:1;vector-effect:none;fill:#000000;fill-opacity:1;fill-rule:nonzero;stroke:none;stroke-width:8.92623425;stroke-linecap:round;stroke-linejoin:miter;stroke-miterlimit:4;stroke-dasharray:none;stroke-dashoffset:0;stroke-opacity:1;paint-order:normal;color-rendering:auto;image-rendering:auto;shape-rendering:auto;text-rendering:auto;enable-background:accumulate"
       d="M 326.78516 484.10156 L 326.78516 499.78711 L 339.04102 499.78711 L 367.94531 499.78711 L 396.84961 499.78711 L 425.75391 499.78711 L 454.06445 499.78711 L 454.06445 484.10156 L 426.29102 484.10156 L 396.84961 484.10156 L 367.41016 484.10156 L 337.96875 484.10156 L 326.78516 484.10156 z M 114.28711 530.06445 L 114.23047 531.19727 L 114.23047 534.95508 L 114.23047 538.71289 L 114.23047 542.4707 L 114.23047 546.22852 L 114.23047 549.98633 L 114.23047 553.74414 L 114.23047 557.50195 L 114.23047 561.25977 L 114.23047 565.01758 L 114.23047 568.77539 L 114.23047 572.5332 L 114.23047 576.29102 L 114.23047 580.04883 L 114.23047 583.80664 L 114.23047 587.56445 L 114.23047 589.66406 L 131.30273 589.66406 L 131.24609 588.52539 L 131.24609 585.12695 L 131.24609 581.72852 L 131.24609 578.33008 L 131.24609 574.93359 L 131.24609 571.53516 L 131.24609 568.13672 L 131.24609 564.73828 L 131.24609 561.3418 L 131.24609 557.94336 L 131.24609 554.54492 L 131.24609 551.14648 L 131.24609 547.75 L 131.24609 544.35156 L 131.24609 540.95312 L 131.24609 537.55469 L 131.24609 534.1582 L 131.42383 530.62109 L 131.50781 530.06445 L 114.28711 530.06445 z M 662.1875 530.06445 L 662.27148 530.62109 L 662.44727 534.1582 L 662.44727 537.55469 L 662.44727 540.95312 L 662.44727 544.35156 L 662.44727 547.75 L 662.44727 551.14648 L 662.44727 554.54492 L 662.44727 557.94336 L 662.44727 561.3418 L 662.44727 564.73828 L 662.44727 568.13672 L 662.44727 571.53516 L 662.44727 574.93359 L 662.44727 578.33008 L 662.44727 581.72852 L 662.44727 585.12695 L 662.44727 588.52539 L 662.39062 589.66406 L 679.46875 589.66406 L 679.46875 587.56445 L 679.46875 583.80664 L 679.46875 580.04883 L 679.46875 576.29102 L 679.46875 572.5332 L 679.46875 568.77539 L 679.46875 565.01758 L 679.46875 561.25977 L 679.46875 557.50195 L 679.46875 553.74414 L 679.46875 549.98633 L 679.46875 546.22852 L 679.46875 542.4707 L 679.46875 538.71289 L 679.46875 534.95508 L 679.46875 531.19727 L 679.41211 530.06445 L 662.1875 530.06445 z M 326.78516 622.88867 L 326.78516 638.41797 L 337.96875 638.41797 L 367.41016 638.41797 L 396.84961 638.41797 L 426.29102 638.41797 L 454.06445 638.41797 L 454.06445 622.88867 L 425.75391 622.88867 L 396.84961 622.88867 L 367.94531 622.88867 L 339.04102 622.88867 L 326.78516 622.88867 z "
       transform="scale(0.26458333)"
       id="rect2701" />
  </g>
</svg>
