<?xml version="1.0" encoding="UTF-8" standalone="no"?>
<!-- Created with Inkscape (http://www.inkscape.org/) -->

<svg
   xmlns:dc="http://purl.org/dc/elements/1.1/"
   xmlns:cc="http://creativecommons.org/ns#"
   xmlns:rdf="http://www.w3.org/1999/02/22-rdf-syntax-ns#"
   xmlns:svg="http://www.w3.org/2000/svg"
   xmlns="http://www.w3.org/2000/svg"
   xmlns:sodipodi="http://sodipodi.sourceforge.net/DTD/sodipodi-0.dtd"
   xmlns:inkscape="http://www.inkscape.org/namespaces/inkscape"
   width="210mm"
   height="297mm"
   viewBox="0 0 210 297"
   version="1.1"
   id="svg1958"
   sodipodi:docname="2d_top.svg"
   inkscape:version="0.92.5 (0.92.5+68)">
  <defs
     id="defs1952" />
  <sodipodi:namedview
     id="base"
     pagecolor="#ffffff"
     bordercolor="#666666"
     borderopacity="1.0"
     inkscape:pageopacity="0.0"
     inkscape:pageshadow="2"
     inkscape:zoom="0.7"
     inkscape:cx="528.08793"
     inkscape:cy="375.52964"
     inkscape:document-units="mm"
     inkscape:current-layer="layer1"
     showgrid="false"
     inkscape:window-width="1855"
     inkscape:window-height="1056"
     inkscape:window-x="65"
     inkscape:window-y="24"
     inkscape:window-maximized="1"
     inkscape:snap-global="false" />
  <metadata
     id="metadata1955">
    <rdf:RDF>
      <cc:Work
         rdf:about="">
        <dc:format>image/svg+xml</dc:format>
        <dc:type
           rdf:resource="http://purl.org/dc/dcmitype/StillImage" />
        <dc:title></dc:title>
      </cc:Work>
    </rdf:RDF>
  </metadata>
  <g
     inkscape:label="Layer 1"
     inkscape:groupmode="layer"
     id="layer1">
    <path
       style="color:#000000;font-style:normal;font-variant:normal;font-weight:normal;font-stretch:normal;font-size:medium;line-height:normal;font-family:sans-serif;font-variant-ligatures:normal;font-variant-position:normal;font-variant-caps:normal;font-variant-numeric:normal;font-variant-alternates:normal;font-feature-settings:normal;text-indent:0;text-align:start;text-decoration:none;text-decoration-line:none;text-decoration-style:solid;text-decoration-color:#000000;letter-spacing:normal;word-spacing:normal;text-transform:none;writing-mode:lr-tb;direction:ltr;text-orientation:mixed;dominant-baseline:auto;baseline-shift:baseline;text-anchor:start;white-space:normal;shape-padding:0;clip-rule:nonzero;display:inline;overflow:visible;visibility:visible;opacity:1;isolation:auto;mix-blend-mode:normal;color-interpolation:sRGB;color-interpolation-filters:linearRGB;solid-color:#000000;solid-opacity:1;vector-effect:none;fill:#000000;fill-opacity:1;fill-rule:nonzero;stroke:none;stroke-width:2.36173272;stroke-linecap:round;stroke-linejoin:miter;stroke-miterlimit:4;stroke-dasharray:none;stroke-dashoffset:0;stroke-opacity:1;paint-order:normal;color-rendering:auto;image-rendering:auto;shape-rendering:auto;text-rendering:auto;enable-background:accumulate"
       d="m 42.684432,128.08499 -1.274154,0.0643 -1.237321,0.18881 -1.194229,0.30702 -1.144876,0.41897 -1.08926,0.52468 -1.027387,0.62411 -0.959252,0.71729 -0.884857,0.8042 -0.804202,0.88485 -0.717287,0.95926 -0.62411,1.02738 -0.524674,1.08926 -0.418978,1.14488 -0.30702,1.19423 -0.188804,1.23732 -0.06433,1.27416 v 0.99428 0.99429 0.99429 0.99428 0.99429 0.99429 0.99428 0.99429 0.99429 0.99428 0.99429 0.99429 0.99429 0.99428 0.99429 0.99429 l 0.06433,1.27415 0.188804,1.23732 0.30702,1.19423 0.418978,1.14487 0.524674,1.08927 0.62411,1.02738 0.717287,0.95925 0.804202,0.88486 0.884857,0.8042 0.959252,0.71729 1.027387,0.62411 1.08926,0.52467 1.144876,0.41898 1.194229,0.30702 1.237321,0.18881 1.274154,0.0643 h 7.789447 7.789447 7.789447 7.789447 7.789447 7.789447 7.789447 7.789449 7.78945 7.78944 7.78945 7.78945 7.78944 7.78945 7.78945 7.78944 l 1.27416,-0.0643 1.23732,-0.18881 1.19423,-0.30702 1.14488,-0.41898 1.08926,-0.52467 1.02738,-0.62411 0.95926,-0.71729 0.88485,-0.8042 0.8042,-0.88486 0.71729,-0.95925 0.62411,-1.02738 0.52468,-1.08927 0.41897,-1.14487 0.30702,-1.19423 0.18881,-1.23732 0.0643,-1.27415 v -0.99429 -0.99429 -0.99428 -0.99429 -0.99429 -0.99429 -0.99428 -0.99429 -0.99429 -0.99428 -0.99429 -0.99429 -0.99428 -0.99429 -0.99429 -0.99428 l -0.0643,-1.27416 -0.18881,-1.23732 -0.30702,-1.19423 -0.41897,-1.14488 -0.52468,-1.08926 -0.62411,-1.02738 -0.71729,-0.95926 -0.8042,-0.88485 -0.88485,-0.8042 -0.95926,-0.71729 -1.02738,-0.62411 -1.08926,-0.52468 -1.14488,-0.41897 -1.19423,-0.30702 -1.23732,-0.18881 -1.27416,-0.0643 h -7.78944 -7.78945 -7.78945 -7.78944 -7.78945 -7.78945 -7.78945 -7.78944 -7.789449 -7.789447 -7.789447 -7.789447 -7.789447 -7.789447 -7.789447 z m 1.134817,4.15013 h 7.647596 7.647593 7.647596 7.647596 7.647593 7.647596 7.647596 7.647595 7.64759 7.6476 7.6476 7.64759 7.6476 7.64759 7.64759 7.6476 l 0.93541,0.0466 0.90705,0.13678 0.8743,0.22257 0.83711,0.30393 0.79551,0.38087 0.7495,0.45339 0.69908,0.5215 0.64424,0.58517 0.58497,0.64443 0.52131,0.69926 0.45322,0.74968 0.38072,0.79567 0.3038,0.83724 0.22246,0.8744 0.13672,0.90712 0.0465,0.93543 v 0.89904 0.89904 0.89904 0.89904 0.89904 0.89904 0.89905 0.89904 0.89904 0.89904 0.89904 0.89904 0.89904 0.89904 0.89904 0.89904 l -0.0465,0.93541 -0.13672,0.90706 -0.22246,0.87429 -0.3038,0.83711 -0.38072,0.79551 -0.45322,0.74951 -0.52131,0.69907 -0.58497,0.64424 -0.64424,0.58498 -0.69908,0.5213 -0.7495,0.45322 -0.79551,0.38072 -0.83711,0.3038 -0.8743,0.22246 -0.90705,0.13672 -0.93541,0.0465 h -7.6476 -7.64759 -7.64759 -7.6476 -7.64759 -7.6476 -7.6476 -7.64759 -7.647595 -7.647596 -7.647596 -7.647593 -7.647596 -7.647596 -7.647593 -7.647596 l -0.935427,-0.0465 -0.907105,-0.13672 -0.874369,-0.22246 -0.83721,-0.3038 -0.795631,-0.38072 -0.749636,-0.45322 -0.699217,-0.5213 -0.644379,-0.585 -0.585124,-0.64424 -0.521446,-0.69907 -0.453349,-0.74951 -0.380834,-0.79551 -0.303897,-0.83711 -0.222542,-0.87429 -0.136766,-0.90706 -0.04657,-0.93541 v -0.89904 -0.89904 -0.89904 -0.89904 -0.89904 -0.89904 -0.89904 -0.89904 -0.89904 -0.89905 -0.89904 -0.89904 -0.89904 -0.89904 -0.89904 -0.89904 l 0.04657,-0.93543 0.136766,-0.90712 0.222542,-0.8744 0.303897,-0.83724 0.380834,-0.79567 0.453349,-0.74968 0.521446,-0.69926 0.585124,-0.64443 0.644379,-0.58517 0.699217,-0.5215 0.749636,-0.45339 0.795631,-0.38087 0.83721,-0.30393 0.874369,-0.22257 0.907105,-0.13678 z"
       id="rect2701"
       inkscape:connector-curvature="0"
       sodipodi:nodetypes="cccccccccccccccccccccccccccccccccccccccccccccccccccccccccccccccccccccccccccccccccccccccccccccccccccccccccccccccccccccccccccccccccccccccccccccccccccccccccccccccccccccccccccccccccccccccccccccccccccccccccccccccccccccccccccccccccccccccccccccccccccccccccccccccccc" />
  </g>
</svg>
