  0
SECTION
  2
HEADER
  9
$ACADVER
  1
AC1014
  9
$HANDSEED
  5
FFFF
  9
$MEASUREMENT
 70
     1
  0
ENDSEC
  0
SECTION
  2
TABLES
  0
TABLE
  2
VPORT
  5
8
330
0
100
AcDbSymbolTable
 70
     4
  0
VPORT
  5
2E
330
8
100
AcDbSymbolTableRecord
100
AcDbViewportTableRecord
  2
*ACTIVE
 70
     0
 10
0.0
 20
0.0
 11
1.0
 21
1.0
 12
210.0
 22
148.5
 13
0.0
 23
0.0
 14
10.0
 24
10.0
 15
10.0
 25
10.0
 16
0.0
 26
0.0
 36
1.0
 17
0.0
 27
0.0
 37
0.0
 40
341.0
 41
1.24
 42
50.0
 43
0.0
 44
0.0
 50
0.0
 51
0.0
 71
     0
 72
   100
 73
     1
 74
     3
 75
     0
 76
     0
 77
     0
 78
     0
  0
ENDTAB
  0
TABLE
  2
LTYPE
  5
5
330
0
100
AcDbSymbolTable
 70
     1
  0
LTYPE
  5
14
330
5
100
AcDbSymbolTableRecord
100
AcDbLinetypeTableRecord
  2
BYBLOCK
 70
     0
  3

 72
    65
 73
     0
 40
0.0
  0
LTYPE
  5
15
330
5
100
AcDbSymbolTableRecord
100
AcDbLinetypeTableRecord
  2
BYLAYER
 70
     0
  3

 72
    65
 73
     0
 40
0.0
  0
LTYPE
  5
16
330
5
100
AcDbSymbolTableRecord
100
AcDbLinetypeTableRecord
  2
CONTINUOUS
 70
     0
  3
Solid line
 72
    65
 73
     0
 40
0.0
  0
ENDTAB
  0
TABLE
  2
LAYER
  5
2
100
AcDbSymbolTable
 70
2
  0
LAYER
  5
50
100
AcDbSymbolTableRecord
100
AcDbLayerTableRecord
  2
0
 70
0
  6
CONTINUOUS
  0
LAYER
  5
51
100
AcDbSymbolTableRecord
100
AcDbLayerTableRecord
  2
Layer_1
 70
0
  6
CONTINUOUS
  0
ENDTAB
  0
TABLE
  2
STYLE
  5
3
330
0
100
AcDbSymbolTable
 70
     1
  0
STYLE
  5
11
330
3
100
AcDbSymbolTableRecord
100
AcDbTextStyleTableRecord
  2
STANDARD
 70
     0
 40
0.0
 41
1.0
 50
0.0
 71
     0
 42
2.5
  3
txt
  4

  0
ENDTAB
  0
TABLE
  2
VIEW
  5
6
330
0
100
AcDbSymbolTable
 70
     0
  0
ENDTAB
  0
TABLE
  2
UCS
  5
7
330
0
100
AcDbSymbolTable
 70
     0
  0
ENDTAB
  0
TABLE
  2
APPID
  5
9
330
0
100
AcDbSymbolTable
 70
     2
  0
APPID
  5
12
330
9
100
AcDbSymbolTableRecord
100
AcDbRegAppTableRecord
  2
ACAD
 70
     0
  0
ENDTAB
  0
TABLE
  2
DIMSTYLE
  5
A
330
0
100
AcDbSymbolTable
 70
     1
  0
DIMSTYLE
105
27
330
A
100
AcDbSymbolTableRecord
100
AcDbDimStyleTableRecord
  2
ISO-25
 70
     0
  3

  4

  5

  6

  7

 40
1.0
 41
2.5
 42
0.625
 43
3.75
 44
1.25
 45
0.0
 46
0.0
 47
0.0
 48
0.0
140
2.5
141
2.5
142
0.0
143
0.03937007874016
144
1.0
145
0.0
146
1.0
147
0.625
 71
     0
 72
     0
 73
     0
 74
     0
 75
     0
 76
     0
 77
     1
 78
     8
170
     0
171
     3
172
     1
173
     0
174
     0
175
     0
176
     0
177
     0
178
     0
270
     2
271
     2
272
     2
273
     2
274
     3
340
11
275
     0
280
     0
281
     0
282
     0
283
     0
284
     8
285
     0
286
     0
287
     3
288
     0
  0
ENDTAB
  0
TABLE
  2
BLOCK_RECORD
  5
1
330
0
100
AcDbSymbolTable
 70
     1
  0
BLOCK_RECORD
  5
1F
330
1
100
AcDbSymbolTableRecord
100
AcDbBlockTableRecord
  2
*MODEL_SPACE
  0
BLOCK_RECORD
  5
1B
330
1
100
AcDbSymbolTableRecord
100
AcDbBlockTableRecord
  2
*PAPER_SPACE
  0
ENDTAB
  0
ENDSEC
  0
SECTION
  2
BLOCKS
  0
BLOCK
  5
20
330
1F
100
AcDbEntity
  8
0
100
AcDbBlockBegin
  2
*MODEL_SPACE
 70
     0
 10
0.0
 20
0.0
 30
0.0
  3
*MODEL_SPACE
  1

  0
ENDBLK
  5
21
330
1F
100
AcDbEntity
  8
0
100
AcDbBlockEnd
  0
BLOCK
  5
1C
330
1B
100
AcDbEntity
 67
     1
  8
0
100
AcDbBlockBegin
  2
*PAPER_SPACE
  1

  0
ENDBLK
  5
1D
330
1B
100
AcDbEntity
 67
     1
  8
0
100
AcDbBlockEnd
  0
ENDSEC
  0
SECTION
  2
ENTITIES
  0
LINE
  5
100
100
AcDbEntity
  8
Layer_1
 62
7
100
AcDbLine
 10
42.684432
 20
168.915010
 30
0.0
 11
41.410278
 21
168.850710
 31
0.0
  0
LINE
  5
101
100
AcDbEntity
  8
Layer_1
 62
7
100
AcDbLine
 10
41.410278
 20
168.850710
 30
0.0
 11
40.172957
 21
168.661900
 31
0.0
  0
LINE
  5
102
100
AcDbEntity
  8
Layer_1
 62
7
100
AcDbLine
 10
40.172957
 20
168.661900
 30
0.0
 11
38.978728
 21
168.354880
 31
0.0
  0
LINE
  5
103
100
AcDbEntity
  8
Layer_1
 62
7
100
AcDbLine
 10
38.978728
 20
168.354880
 30
0.0
 11
37.833852
 21
167.935910
 31
0.0
  0
LINE
  5
104
100
AcDbEntity
  8
Layer_1
 62
7
100
AcDbLine
 10
37.833852
 20
167.935910
 30
0.0
 11
36.744592
 21
167.411230
 31
0.0
  0
LINE
  5
105
100
AcDbEntity
  8
Layer_1
 62
7
100
AcDbLine
 10
36.744592
 20
167.411230
 30
0.0
 11
35.717205
 21
166.787120
 31
0.0
  0
LINE
  5
106
100
AcDbEntity
  8
Layer_1
 62
7
100
AcDbLine
 10
35.717205
 20
166.787120
 30
0.0
 11
34.757953
 21
166.069830
 31
0.0
  0
LINE
  5
107
100
AcDbEntity
  8
Layer_1
 62
7
100
AcDbLine
 10
34.757953
 20
166.069830
 30
0.0
 11
33.873096
 21
165.265630
 31
0.0
  0
LINE
  5
108
100
AcDbEntity
  8
Layer_1
 62
7
100
AcDbLine
 10
33.873096
 20
165.265630
 30
0.0
 11
33.068894
 21
164.380780
 31
0.0
  0
LINE
  5
109
100
AcDbEntity
  8
Layer_1
 62
7
100
AcDbLine
 10
33.068894
 20
164.380780
 30
0.0
 11
32.351607
 21
163.421520
 31
0.0
  0
LINE
  5
10a
100
AcDbEntity
  8
Layer_1
 62
7
100
AcDbLine
 10
32.351607
 20
163.421520
 30
0.0
 11
31.727497
 21
162.394140
 31
0.0
  0
LINE
  5
10b
100
AcDbEntity
  8
Layer_1
 62
7
100
AcDbLine
 10
31.727497
 20
162.394140
 30
0.0
 11
31.202823
 21
161.304880
 31
0.0
  0
LINE
  5
10c
100
AcDbEntity
  8
Layer_1
 62
7
100
AcDbLine
 10
31.202823
 20
161.304880
 30
0.0
 11
30.783845
 21
160.160000
 31
0.0
  0
LINE
  5
10d
100
AcDbEntity
  8
Layer_1
 62
7
100
AcDbLine
 10
30.783845
 20
160.160000
 30
0.0
 11
30.476825
 21
158.965770
 31
0.0
  0
LINE
  5
10e
100
AcDbEntity
  8
Layer_1
 62
7
100
AcDbLine
 10
30.476825
 20
158.965770
 30
0.0
 11
30.288021
 21
157.728450
 31
0.0
  0
LINE
  5
10f
100
AcDbEntity
  8
Layer_1
 62
7
100
AcDbLine
 10
30.288021
 20
157.728450
 30
0.0
 11
30.223691
 21
156.454290
 31
0.0
  0
LINE
  5
110
100
AcDbEntity
  8
Layer_1
 62
7
100
AcDbLine
 10
30.223691
 20
156.454290
 30
0.0
 11
30.223691
 21
155.460010
 31
0.0
  0
LINE
  5
111
100
AcDbEntity
  8
Layer_1
 62
7
100
AcDbLine
 10
30.223691
 20
155.460010
 30
0.0
 11
30.223691
 21
154.465720
 31
0.0
  0
LINE
  5
112
100
AcDbEntity
  8
Layer_1
 62
7
100
AcDbLine
 10
30.223691
 20
154.465720
 30
0.0
 11
30.223691
 21
153.471430
 31
0.0
  0
LINE
  5
113
100
AcDbEntity
  8
Layer_1
 62
7
100
AcDbLine
 10
30.223691
 20
153.471430
 30
0.0
 11
30.223691
 21
152.477150
 31
0.0
  0
LINE
  5
114
100
AcDbEntity
  8
Layer_1
 62
7
100
AcDbLine
 10
30.223691
 20
152.477150
 30
0.0
 11
30.223691
 21
151.482860
 31
0.0
  0
LINE
  5
115
100
AcDbEntity
  8
Layer_1
 62
7
100
AcDbLine
 10
30.223691
 20
151.482860
 30
0.0
 11
30.223691
 21
150.488570
 31
0.0
  0
LINE
  5
116
100
AcDbEntity
  8
Layer_1
 62
7
100
AcDbLine
 10
30.223691
 20
150.488570
 30
0.0
 11
30.223691
 21
149.494290
 31
0.0
  0
LINE
  5
117
100
AcDbEntity
  8
Layer_1
 62
7
100
AcDbLine
 10
30.223691
 20
149.494290
 30
0.0
 11
30.223691
 21
148.500000
 31
0.0
  0
LINE
  5
118
100
AcDbEntity
  8
Layer_1
 62
7
100
AcDbLine
 10
30.223691
 20
148.500000
 30
0.0
 11
30.223691
 21
147.505710
 31
0.0
  0
LINE
  5
119
100
AcDbEntity
  8
Layer_1
 62
7
100
AcDbLine
 10
30.223691
 20
147.505710
 30
0.0
 11
30.223691
 21
146.511430
 31
0.0
  0
LINE
  5
11a
100
AcDbEntity
  8
Layer_1
 62
7
100
AcDbLine
 10
30.223691
 20
146.511430
 30
0.0
 11
30.223691
 21
145.517140
 31
0.0
  0
LINE
  5
11b
100
AcDbEntity
  8
Layer_1
 62
7
100
AcDbLine
 10
30.223691
 20
145.517140
 30
0.0
 11
30.223691
 21
144.522850
 31
0.0
  0
LINE
  5
11c
100
AcDbEntity
  8
Layer_1
 62
7
100
AcDbLine
 10
30.223691
 20
144.522850
 30
0.0
 11
30.223691
 21
143.528560
 31
0.0
  0
LINE
  5
11d
100
AcDbEntity
  8
Layer_1
 62
7
100
AcDbLine
 10
30.223691
 20
143.528560
 30
0.0
 11
30.223691
 21
142.534280
 31
0.0
  0
LINE
  5
11e
100
AcDbEntity
  8
Layer_1
 62
7
100
AcDbLine
 10
30.223691
 20
142.534280
 30
0.0
 11
30.223691
 21
141.539990
 31
0.0
  0
LINE
  5
11f
100
AcDbEntity
  8
Layer_1
 62
7
100
AcDbLine
 10
30.223691
 20
141.539990
 30
0.0
 11
30.223691
 21
140.545700
 31
0.0
  0
LINE
  5
120
100
AcDbEntity
  8
Layer_1
 62
7
100
AcDbLine
 10
30.223691
 20
140.545700
 30
0.0
 11
30.288021
 21
139.271550
 31
0.0
  0
LINE
  5
121
100
AcDbEntity
  8
Layer_1
 62
7
100
AcDbLine
 10
30.288021
 20
139.271550
 30
0.0
 11
30.476825
 21
138.034230
 31
0.0
  0
LINE
  5
122
100
AcDbEntity
  8
Layer_1
 62
7
100
AcDbLine
 10
30.476825
 20
138.034230
 30
0.0
 11
30.783845
 21
136.840000
 31
0.0
  0
LINE
  5
123
100
AcDbEntity
  8
Layer_1
 62
7
100
AcDbLine
 10
30.783845
 20
136.840000
 30
0.0
 11
31.202823
 21
135.695130
 31
0.0
  0
LINE
  5
124
100
AcDbEntity
  8
Layer_1
 62
7
100
AcDbLine
 10
31.202823
 20
135.695130
 30
0.0
 11
31.727497
 21
134.605860
 31
0.0
  0
LINE
  5
125
100
AcDbEntity
  8
Layer_1
 62
7
100
AcDbLine
 10
31.727497
 20
134.605860
 30
0.0
 11
32.351607
 21
133.578480
 31
0.0
  0
LINE
  5
126
100
AcDbEntity
  8
Layer_1
 62
7
100
AcDbLine
 10
32.351607
 20
133.578480
 30
0.0
 11
33.068894
 21
132.619230
 31
0.0
  0
LINE
  5
127
100
AcDbEntity
  8
Layer_1
 62
7
100
AcDbLine
 10
33.068894
 20
132.619230
 30
0.0
 11
33.873096
 21
131.734370
 31
0.0
  0
LINE
  5
128
100
AcDbEntity
  8
Layer_1
 62
7
100
AcDbLine
 10
33.873096
 20
131.734370
 30
0.0
 11
34.757953
 21
130.930170
 31
0.0
  0
LINE
  5
129
100
AcDbEntity
  8
Layer_1
 62
7
100
AcDbLine
 10
34.757953
 20
130.930170
 30
0.0
 11
35.717205
 21
130.212880
 31
0.0
  0
LINE
  5
12a
100
AcDbEntity
  8
Layer_1
 62
7
100
AcDbLine
 10
35.717205
 20
130.212880
 30
0.0
 11
36.744592
 21
129.588770
 31
0.0
  0
LINE
  5
12b
100
AcDbEntity
  8
Layer_1
 62
7
100
AcDbLine
 10
36.744592
 20
129.588770
 30
0.0
 11
37.833852
 21
129.064100
 31
0.0
  0
LINE
  5
12c
100
AcDbEntity
  8
Layer_1
 62
7
100
AcDbLine
 10
37.833852
 20
129.064100
 30
0.0
 11
38.978728
 21
128.645120
 31
0.0
  0
LINE
  5
12d
100
AcDbEntity
  8
Layer_1
 62
7
100
AcDbLine
 10
38.978728
 20
128.645120
 30
0.0
 11
40.172957
 21
128.338100
 31
0.0
  0
LINE
  5
12e
100
AcDbEntity
  8
Layer_1
 62
7
100
AcDbLine
 10
40.172957
 20
128.338100
 30
0.0
 11
41.410278
 21
128.149290
 31
0.0
  0
LINE
  5
12f
100
AcDbEntity
  8
Layer_1
 62
7
100
AcDbLine
 10
41.410278
 20
128.149290
 30
0.0
 11
42.684432
 21
128.084990
 31
0.0
  0
LINE
  5
130
100
AcDbEntity
  8
Layer_1
 62
7
100
AcDbLine
 10
42.684432
 20
128.084990
 30
0.0
 11
50.473879
 21
128.084990
 31
0.0
  0
LINE
  5
131
100
AcDbEntity
  8
Layer_1
 62
7
100
AcDbLine
 10
50.473879
 20
128.084990
 30
0.0
 11
58.263326
 21
128.084990
 31
0.0
  0
LINE
  5
132
100
AcDbEntity
  8
Layer_1
 62
7
100
AcDbLine
 10
58.263326
 20
128.084990
 30
0.0
 11
66.052773
 21
128.084990
 31
0.0
  0
LINE
  5
133
100
AcDbEntity
  8
Layer_1
 62
7
100
AcDbLine
 10
66.052773
 20
128.084990
 30
0.0
 11
73.842220
 21
128.084990
 31
0.0
  0
LINE
  5
134
100
AcDbEntity
  8
Layer_1
 62
7
100
AcDbLine
 10
73.842220
 20
128.084990
 30
0.0
 11
81.631667
 21
128.084990
 31
0.0
  0
LINE
  5
135
100
AcDbEntity
  8
Layer_1
 62
7
100
AcDbLine
 10
81.631667
 20
128.084990
 30
0.0
 11
89.421114
 21
128.084990
 31
0.0
  0
LINE
  5
136
100
AcDbEntity
  8
Layer_1
 62
7
100
AcDbLine
 10
89.421114
 20
128.084990
 30
0.0
 11
97.210561
 21
128.084990
 31
0.0
  0
LINE
  5
137
100
AcDbEntity
  8
Layer_1
 62
7
100
AcDbLine
 10
97.210561
 20
128.084990
 30
0.0
 11
105.000010
 21
128.084990
 31
0.0
  0
LINE
  5
138
100
AcDbEntity
  8
Layer_1
 62
7
100
AcDbLine
 10
105.000010
 20
128.084990
 30
0.0
 11
112.789460
 21
128.084990
 31
0.0
  0
LINE
  5
139
100
AcDbEntity
  8
Layer_1
 62
7
100
AcDbLine
 10
112.789460
 20
128.084990
 30
0.0
 11
120.578900
 21
128.084990
 31
0.0
  0
LINE
  5
13a
100
AcDbEntity
  8
Layer_1
 62
7
100
AcDbLine
 10
120.578900
 20
128.084990
 30
0.0
 11
128.368350
 21
128.084990
 31
0.0
  0
LINE
  5
13b
100
AcDbEntity
  8
Layer_1
 62
7
100
AcDbLine
 10
128.368350
 20
128.084990
 30
0.0
 11
136.157800
 21
128.084990
 31
0.0
  0
LINE
  5
13c
100
AcDbEntity
  8
Layer_1
 62
7
100
AcDbLine
 10
136.157800
 20
128.084990
 30
0.0
 11
143.947240
 21
128.084990
 31
0.0
  0
LINE
  5
13d
100
AcDbEntity
  8
Layer_1
 62
7
100
AcDbLine
 10
143.947240
 20
128.084990
 30
0.0
 11
151.736690
 21
128.084990
 31
0.0
  0
LINE
  5
13e
100
AcDbEntity
  8
Layer_1
 62
7
100
AcDbLine
 10
151.736690
 20
128.084990
 30
0.0
 11
159.526140
 21
128.084990
 31
0.0
  0
LINE
  5
13f
100
AcDbEntity
  8
Layer_1
 62
7
100
AcDbLine
 10
159.526140
 20
128.084990
 30
0.0
 11
167.315580
 21
128.084990
 31
0.0
  0
LINE
  5
140
100
AcDbEntity
  8
Layer_1
 62
7
100
AcDbLine
 10
167.315580
 20
128.084990
 30
0.0
 11
168.589740
 21
128.149290
 31
0.0
  0
LINE
  5
141
100
AcDbEntity
  8
Layer_1
 62
7
100
AcDbLine
 10
168.589740
 20
128.149290
 30
0.0
 11
169.827060
 21
128.338100
 31
0.0
  0
LINE
  5
142
100
AcDbEntity
  8
Layer_1
 62
7
100
AcDbLine
 10
169.827060
 20
128.338100
 30
0.0
 11
171.021290
 21
128.645120
 31
0.0
  0
LINE
  5
143
100
AcDbEntity
  8
Layer_1
 62
7
100
AcDbLine
 10
171.021290
 20
128.645120
 30
0.0
 11
172.166170
 21
129.064100
 31
0.0
  0
LINE
  5
144
100
AcDbEntity
  8
Layer_1
 62
7
100
AcDbLine
 10
172.166170
 20
129.064100
 30
0.0
 11
173.255430
 21
129.588770
 31
0.0
  0
LINE
  5
145
100
AcDbEntity
  8
Layer_1
 62
7
100
AcDbLine
 10
173.255430
 20
129.588770
 30
0.0
 11
174.282810
 21
130.212880
 31
0.0
  0
LINE
  5
146
100
AcDbEntity
  8
Layer_1
 62
7
100
AcDbLine
 10
174.282810
 20
130.212880
 30
0.0
 11
175.242070
 21
130.930170
 31
0.0
  0
LINE
  5
147
100
AcDbEntity
  8
Layer_1
 62
7
100
AcDbLine
 10
175.242070
 20
130.930170
 30
0.0
 11
176.126920
 21
131.734370
 31
0.0
  0
LINE
  5
148
100
AcDbEntity
  8
Layer_1
 62
7
100
AcDbLine
 10
176.126920
 20
131.734370
 30
0.0
 11
176.931120
 21
132.619230
 31
0.0
  0
LINE
  5
149
100
AcDbEntity
  8
Layer_1
 62
7
100
AcDbLine
 10
176.931120
 20
132.619230
 30
0.0
 11
177.648410
 21
133.578480
 31
0.0
  0
LINE
  5
14a
100
AcDbEntity
  8
Layer_1
 62
7
100
AcDbLine
 10
177.648410
 20
133.578480
 30
0.0
 11
178.272520
 21
134.605860
 31
0.0
  0
LINE
  5
14b
100
AcDbEntity
  8
Layer_1
 62
7
100
AcDbLine
 10
178.272520
 20
134.605860
 30
0.0
 11
178.797200
 21
135.695130
 31
0.0
  0
LINE
  5
14c
100
AcDbEntity
  8
Layer_1
 62
7
100
AcDbLine
 10
178.797200
 20
135.695130
 30
0.0
 11
179.216170
 21
136.840000
 31
0.0
  0
LINE
  5
14d
100
AcDbEntity
  8
Layer_1
 62
7
100
AcDbLine
 10
179.216170
 20
136.840000
 30
0.0
 11
179.523190
 21
138.034230
 31
0.0
  0
LINE
  5
14e
100
AcDbEntity
  8
Layer_1
 62
7
100
AcDbLine
 10
179.523190
 20
138.034230
 30
0.0
 11
179.712000
 21
139.271550
 31
0.0
  0
LINE
  5
14f
100
AcDbEntity
  8
Layer_1
 62
7
100
AcDbLine
 10
179.712000
 20
139.271550
 30
0.0
 11
179.776300
 21
140.545700
 31
0.0
  0
LINE
  5
150
100
AcDbEntity
  8
Layer_1
 62
7
100
AcDbLine
 10
179.776300
 20
140.545700
 30
0.0
 11
179.776300
 21
141.539990
 31
0.0
  0
LINE
  5
151
100
AcDbEntity
  8
Layer_1
 62
7
100
AcDbLine
 10
179.776300
 20
141.539990
 30
0.0
 11
179.776300
 21
142.534280
 31
0.0
  0
LINE
  5
152
100
AcDbEntity
  8
Layer_1
 62
7
100
AcDbLine
 10
179.776300
 20
142.534280
 30
0.0
 11
179.776300
 21
143.528560
 31
0.0
  0
LINE
  5
153
100
AcDbEntity
  8
Layer_1
 62
7
100
AcDbLine
 10
179.776300
 20
143.528560
 30
0.0
 11
179.776300
 21
144.522850
 31
0.0
  0
LINE
  5
154
100
AcDbEntity
  8
Layer_1
 62
7
100
AcDbLine
 10
179.776300
 20
144.522850
 30
0.0
 11
179.776300
 21
145.517140
 31
0.0
  0
LINE
  5
155
100
AcDbEntity
  8
Layer_1
 62
7
100
AcDbLine
 10
179.776300
 20
145.517140
 30
0.0
 11
179.776300
 21
146.511430
 31
0.0
  0
LINE
  5
156
100
AcDbEntity
  8
Layer_1
 62
7
100
AcDbLine
 10
179.776300
 20
146.511430
 30
0.0
 11
179.776300
 21
147.505710
 31
0.0
  0
LINE
  5
157
100
AcDbEntity
  8
Layer_1
 62
7
100
AcDbLine
 10
179.776300
 20
147.505710
 30
0.0
 11
179.776300
 21
148.500000
 31
0.0
  0
LINE
  5
158
100
AcDbEntity
  8
Layer_1
 62
7
100
AcDbLine
 10
179.776300
 20
148.500000
 30
0.0
 11
179.776300
 21
149.494290
 31
0.0
  0
LINE
  5
159
100
AcDbEntity
  8
Layer_1
 62
7
100
AcDbLine
 10
179.776300
 20
149.494290
 30
0.0
 11
179.776300
 21
150.488570
 31
0.0
  0
LINE
  5
15a
100
AcDbEntity
  8
Layer_1
 62
7
100
AcDbLine
 10
179.776300
 20
150.488570
 30
0.0
 11
179.776300
 21
151.482860
 31
0.0
  0
LINE
  5
15b
100
AcDbEntity
  8
Layer_1
 62
7
100
AcDbLine
 10
179.776300
 20
151.482860
 30
0.0
 11
179.776300
 21
152.477150
 31
0.0
  0
LINE
  5
15c
100
AcDbEntity
  8
Layer_1
 62
7
100
AcDbLine
 10
179.776300
 20
152.477150
 30
0.0
 11
179.776300
 21
153.471430
 31
0.0
  0
LINE
  5
15d
100
AcDbEntity
  8
Layer_1
 62
7
100
AcDbLine
 10
179.776300
 20
153.471430
 30
0.0
 11
179.776300
 21
154.465720
 31
0.0
  0
LINE
  5
15e
100
AcDbEntity
  8
Layer_1
 62
7
100
AcDbLine
 10
179.776300
 20
154.465720
 30
0.0
 11
179.776300
 21
155.460010
 31
0.0
  0
LINE
  5
15f
100
AcDbEntity
  8
Layer_1
 62
7
100
AcDbLine
 10
179.776300
 20
155.460010
 30
0.0
 11
179.776300
 21
156.454290
 31
0.0
  0
LINE
  5
160
100
AcDbEntity
  8
Layer_1
 62
7
100
AcDbLine
 10
179.776300
 20
156.454290
 30
0.0
 11
179.712000
 21
157.728450
 31
0.0
  0
LINE
  5
161
100
AcDbEntity
  8
Layer_1
 62
7
100
AcDbLine
 10
179.712000
 20
157.728450
 30
0.0
 11
179.523190
 21
158.965770
 31
0.0
  0
LINE
  5
162
100
AcDbEntity
  8
Layer_1
 62
7
100
AcDbLine
 10
179.523190
 20
158.965770
 30
0.0
 11
179.216170
 21
160.160000
 31
0.0
  0
LINE
  5
163
100
AcDbEntity
  8
Layer_1
 62
7
100
AcDbLine
 10
179.216170
 20
160.160000
 30
0.0
 11
178.797200
 21
161.304880
 31
0.0
  0
LINE
  5
164
100
AcDbEntity
  8
Layer_1
 62
7
100
AcDbLine
 10
178.797200
 20
161.304880
 30
0.0
 11
178.272520
 21
162.394140
 31
0.0
  0
LINE
  5
165
100
AcDbEntity
  8
Layer_1
 62
7
100
AcDbLine
 10
178.272520
 20
162.394140
 30
0.0
 11
177.648410
 21
163.421520
 31
0.0
  0
LINE
  5
166
100
AcDbEntity
  8
Layer_1
 62
7
100
AcDbLine
 10
177.648410
 20
163.421520
 30
0.0
 11
176.931120
 21
164.380780
 31
0.0
  0
LINE
  5
167
100
AcDbEntity
  8
Layer_1
 62
7
100
AcDbLine
 10
176.931120
 20
164.380780
 30
0.0
 11
176.126920
 21
165.265630
 31
0.0
  0
LINE
  5
168
100
AcDbEntity
  8
Layer_1
 62
7
100
AcDbLine
 10
176.126920
 20
165.265630
 30
0.0
 11
175.242070
 21
166.069830
 31
0.0
  0
LINE
  5
169
100
AcDbEntity
  8
Layer_1
 62
7
100
AcDbLine
 10
175.242070
 20
166.069830
 30
0.0
 11
174.282810
 21
166.787120
 31
0.0
  0
LINE
  5
16a
100
AcDbEntity
  8
Layer_1
 62
7
100
AcDbLine
 10
174.282810
 20
166.787120
 30
0.0
 11
173.255430
 21
167.411230
 31
0.0
  0
LINE
  5
16b
100
AcDbEntity
  8
Layer_1
 62
7
100
AcDbLine
 10
173.255430
 20
167.411230
 30
0.0
 11
172.166170
 21
167.935910
 31
0.0
  0
LINE
  5
16c
100
AcDbEntity
  8
Layer_1
 62
7
100
AcDbLine
 10
172.166170
 20
167.935910
 30
0.0
 11
171.021290
 21
168.354880
 31
0.0
  0
LINE
  5
16d
100
AcDbEntity
  8
Layer_1
 62
7
100
AcDbLine
 10
171.021290
 20
168.354880
 30
0.0
 11
169.827060
 21
168.661900
 31
0.0
  0
LINE
  5
16e
100
AcDbEntity
  8
Layer_1
 62
7
100
AcDbLine
 10
169.827060
 20
168.661900
 30
0.0
 11
168.589740
 21
168.850710
 31
0.0
  0
LINE
  5
16f
100
AcDbEntity
  8
Layer_1
 62
7
100
AcDbLine
 10
168.589740
 20
168.850710
 30
0.0
 11
167.315580
 21
168.915010
 31
0.0
  0
LINE
  5
170
100
AcDbEntity
  8
Layer_1
 62
7
100
AcDbLine
 10
167.315580
 20
168.915010
 30
0.0
 11
159.526140
 21
168.915010
 31
0.0
  0
LINE
  5
171
100
AcDbEntity
  8
Layer_1
 62
7
100
AcDbLine
 10
159.526140
 20
168.915010
 30
0.0
 11
151.736690
 21
168.915010
 31
0.0
  0
LINE
  5
172
100
AcDbEntity
  8
Layer_1
 62
7
100
AcDbLine
 10
151.736690
 20
168.915010
 30
0.0
 11
143.947240
 21
168.915010
 31
0.0
  0
LINE
  5
173
100
AcDbEntity
  8
Layer_1
 62
7
100
AcDbLine
 10
143.947240
 20
168.915010
 30
0.0
 11
136.157800
 21
168.915010
 31
0.0
  0
LINE
  5
174
100
AcDbEntity
  8
Layer_1
 62
7
100
AcDbLine
 10
136.157800
 20
168.915010
 30
0.0
 11
128.368350
 21
168.915010
 31
0.0
  0
LINE
  5
175
100
AcDbEntity
  8
Layer_1
 62
7
100
AcDbLine
 10
128.368350
 20
168.915010
 30
0.0
 11
120.578900
 21
168.915010
 31
0.0
  0
LINE
  5
176
100
AcDbEntity
  8
Layer_1
 62
7
100
AcDbLine
 10
120.578900
 20
168.915010
 30
0.0
 11
112.789450
 21
168.915010
 31
0.0
  0
LINE
  5
177
100
AcDbEntity
  8
Layer_1
 62
7
100
AcDbLine
 10
112.789450
 20
168.915010
 30
0.0
 11
105.000010
 21
168.915010
 31
0.0
  0
LINE
  5
178
100
AcDbEntity
  8
Layer_1
 62
7
100
AcDbLine
 10
105.000010
 20
168.915010
 30
0.0
 11
97.210561
 21
168.915010
 31
0.0
  0
LINE
  5
179
100
AcDbEntity
  8
Layer_1
 62
7
100
AcDbLine
 10
97.210561
 20
168.915010
 30
0.0
 11
89.421114
 21
168.915010
 31
0.0
  0
LINE
  5
17a
100
AcDbEntity
  8
Layer_1
 62
7
100
AcDbLine
 10
89.421114
 20
168.915010
 30
0.0
 11
81.631667
 21
168.915010
 31
0.0
  0
LINE
  5
17b
100
AcDbEntity
  8
Layer_1
 62
7
100
AcDbLine
 10
81.631667
 20
168.915010
 30
0.0
 11
73.842220
 21
168.915010
 31
0.0
  0
LINE
  5
17c
100
AcDbEntity
  8
Layer_1
 62
7
100
AcDbLine
 10
73.842220
 20
168.915010
 30
0.0
 11
66.052773
 21
168.915010
 31
0.0
  0
LINE
  5
17d
100
AcDbEntity
  8
Layer_1
 62
7
100
AcDbLine
 10
66.052773
 20
168.915010
 30
0.0
 11
58.263326
 21
168.915010
 31
0.0
  0
LINE
  5
17e
100
AcDbEntity
  8
Layer_1
 62
7
100
AcDbLine
 10
58.263326
 20
168.915010
 30
0.0
 11
50.473879
 21
168.915010
 31
0.0
  0
LINE
  5
17f
100
AcDbEntity
  8
Layer_1
 62
7
100
AcDbLine
 10
50.473879
 20
168.915010
 30
0.0
 11
42.684432
 21
168.915010
 31
0.0
  0
LINE
  5
180
100
AcDbEntity
  8
Layer_1
 62
7
100
AcDbLine
 10
43.819249
 20
164.764880
 30
0.0
 11
51.466845
 21
164.764880
 31
0.0
  0
LINE
  5
181
100
AcDbEntity
  8
Layer_1
 62
7
100
AcDbLine
 10
51.466845
 20
164.764880
 30
0.0
 11
59.114438
 21
164.764880
 31
0.0
  0
LINE
  5
182
100
AcDbEntity
  8
Layer_1
 62
7
100
AcDbLine
 10
59.114438
 20
164.764880
 30
0.0
 11
66.762034
 21
164.764880
 31
0.0
  0
LINE
  5
183
100
AcDbEntity
  8
Layer_1
 62
7
100
AcDbLine
 10
66.762034
 20
164.764880
 30
0.0
 11
74.409630
 21
164.764880
 31
0.0
  0
LINE
  5
184
100
AcDbEntity
  8
Layer_1
 62
7
100
AcDbLine
 10
74.409630
 20
164.764880
 30
0.0
 11
82.057223
 21
164.764880
 31
0.0
  0
LINE
  5
185
100
AcDbEntity
  8
Layer_1
 62
7
100
AcDbLine
 10
82.057223
 20
164.764880
 30
0.0
 11
89.704819
 21
164.764880
 31
0.0
  0
LINE
  5
186
100
AcDbEntity
  8
Layer_1
 62
7
100
AcDbLine
 10
89.704819
 20
164.764880
 30
0.0
 11
97.352415
 21
164.764880
 31
0.0
  0
LINE
  5
187
100
AcDbEntity
  8
Layer_1
 62
7
100
AcDbLine
 10
97.352415
 20
164.764880
 30
0.0
 11
105.000010
 21
164.764880
 31
0.0
  0
LINE
  5
188
100
AcDbEntity
  8
Layer_1
 62
7
100
AcDbLine
 10
105.000010
 20
164.764880
 30
0.0
 11
112.647600
 21
164.764880
 31
0.0
  0
LINE
  5
189
100
AcDbEntity
  8
Layer_1
 62
7
100
AcDbLine
 10
112.647600
 20
164.764880
 30
0.0
 11
120.295200
 21
164.764880
 31
0.0
  0
LINE
  5
18a
100
AcDbEntity
  8
Layer_1
 62
7
100
AcDbLine
 10
120.295200
 20
164.764880
 30
0.0
 11
127.942800
 21
164.764880
 31
0.0
  0
LINE
  5
18b
100
AcDbEntity
  8
Layer_1
 62
7
100
AcDbLine
 10
127.942800
 20
164.764880
 30
0.0
 11
135.590390
 21
164.764880
 31
0.0
  0
LINE
  5
18c
100
AcDbEntity
  8
Layer_1
 62
7
100
AcDbLine
 10
135.590390
 20
164.764880
 30
0.0
 11
143.237990
 21
164.764880
 31
0.0
  0
LINE
  5
18d
100
AcDbEntity
  8
Layer_1
 62
7
100
AcDbLine
 10
143.237990
 20
164.764880
 30
0.0
 11
150.885580
 21
164.764880
 31
0.0
  0
LINE
  5
18e
100
AcDbEntity
  8
Layer_1
 62
7
100
AcDbLine
 10
150.885580
 20
164.764880
 30
0.0
 11
158.533170
 21
164.764880
 31
0.0
  0
LINE
  5
18f
100
AcDbEntity
  8
Layer_1
 62
7
100
AcDbLine
 10
158.533170
 20
164.764880
 30
0.0
 11
166.180770
 21
164.764880
 31
0.0
  0
LINE
  5
190
100
AcDbEntity
  8
Layer_1
 62
7
100
AcDbLine
 10
166.180770
 20
164.764880
 30
0.0
 11
167.116180
 21
164.718280
 31
0.0
  0
LINE
  5
191
100
AcDbEntity
  8
Layer_1
 62
7
100
AcDbLine
 10
167.116180
 20
164.718280
 30
0.0
 11
168.023230
 21
164.581500
 31
0.0
  0
LINE
  5
192
100
AcDbEntity
  8
Layer_1
 62
7
100
AcDbLine
 10
168.023230
 20
164.581500
 30
0.0
 11
168.897530
 21
164.358930
 31
0.0
  0
LINE
  5
193
100
AcDbEntity
  8
Layer_1
 62
7
100
AcDbLine
 10
168.897530
 20
164.358930
 30
0.0
 11
169.734640
 21
164.055000
 31
0.0
  0
LINE
  5
194
100
AcDbEntity
  8
Layer_1
 62
7
100
AcDbLine
 10
169.734640
 20
164.055000
 30
0.0
 11
170.530150
 21
163.674130
 31
0.0
  0
LINE
  5
195
100
AcDbEntity
  8
Layer_1
 62
7
100
AcDbLine
 10
170.530150
 20
163.674130
 30
0.0
 11
171.279650
 21
163.220740
 31
0.0
  0
LINE
  5
196
100
AcDbEntity
  8
Layer_1
 62
7
100
AcDbLine
 10
171.279650
 20
163.220740
 30
0.0
 11
171.978730
 21
162.699240
 31
0.0
  0
LINE
  5
197
100
AcDbEntity
  8
Layer_1
 62
7
100
AcDbLine
 10
171.978730
 20
162.699240
 30
0.0
 11
172.622970
 21
162.114070
 31
0.0
  0
LINE
  5
198
100
AcDbEntity
  8
Layer_1
 62
7
100
AcDbLine
 10
172.622970
 20
162.114070
 30
0.0
 11
173.207940
 21
161.469640
 31
0.0
  0
LINE
  5
199
100
AcDbEntity
  8
Layer_1
 62
7
100
AcDbLine
 10
173.207940
 20
161.469640
 30
0.0
 11
173.729250
 21
160.770380
 31
0.0
  0
LINE
  5
19a
100
AcDbEntity
  8
Layer_1
 62
7
100
AcDbLine
 10
173.729250
 20
160.770380
 30
0.0
 11
174.182470
 21
160.020700
 31
0.0
  0
LINE
  5
19b
100
AcDbEntity
  8
Layer_1
 62
7
100
AcDbLine
 10
174.182470
 20
160.020700
 30
0.0
 11
174.563190
 21
159.225030
 31
0.0
  0
LINE
  5
19c
100
AcDbEntity
  8
Layer_1
 62
7
100
AcDbLine
 10
174.563190
 20
159.225030
 30
0.0
 11
174.866990
 21
158.387790
 31
0.0
  0
LINE
  5
19d
100
AcDbEntity
  8
Layer_1
 62
7
100
AcDbLine
 10
174.866990
 20
158.387790
 30
0.0
 11
175.089450
 21
157.513390
 31
0.0
  0
LINE
  5
19e
100
AcDbEntity
  8
Layer_1
 62
7
100
AcDbLine
 10
175.089450
 20
157.513390
 30
0.0
 11
175.226170
 21
156.606270
 31
0.0
  0
LINE
  5
19f
100
AcDbEntity
  8
Layer_1
 62
7
100
AcDbLine
 10
175.226170
 20
156.606270
 30
0.0
 11
175.272670
 21
155.670840
 31
0.0
  0
LINE
  5
1a0
100
AcDbEntity
  8
Layer_1
 62
7
100
AcDbLine
 10
175.272670
 20
155.670840
 30
0.0
 11
175.272670
 21
154.771800
 31
0.0
  0
LINE
  5
1a1
100
AcDbEntity
  8
Layer_1
 62
7
100
AcDbLine
 10
175.272670
 20
154.771800
 30
0.0
 11
175.272670
 21
153.872760
 31
0.0
  0
LINE
  5
1a2
100
AcDbEntity
  8
Layer_1
 62
7
100
AcDbLine
 10
175.272670
 20
153.872760
 30
0.0
 11
175.272670
 21
152.973720
 31
0.0
  0
LINE
  5
1a3
100
AcDbEntity
  8
Layer_1
 62
7
100
AcDbLine
 10
175.272670
 20
152.973720
 30
0.0
 11
175.272670
 21
152.074680
 31
0.0
  0
LINE
  5
1a4
100
AcDbEntity
  8
Layer_1
 62
7
100
AcDbLine
 10
175.272670
 20
152.074680
 30
0.0
 11
175.272670
 21
151.175640
 31
0.0
  0
LINE
  5
1a5
100
AcDbEntity
  8
Layer_1
 62
7
100
AcDbLine
 10
175.272670
 20
151.175640
 30
0.0
 11
175.272670
 21
150.276600
 31
0.0
  0
LINE
  5
1a6
100
AcDbEntity
  8
Layer_1
 62
7
100
AcDbLine
 10
175.272670
 20
150.276600
 30
0.0
 11
175.272670
 21
149.377550
 31
0.0
  0
LINE
  5
1a7
100
AcDbEntity
  8
Layer_1
 62
7
100
AcDbLine
 10
175.272670
 20
149.377550
 30
0.0
 11
175.272670
 21
148.478510
 31
0.0
  0
LINE
  5
1a8
100
AcDbEntity
  8
Layer_1
 62
7
100
AcDbLine
 10
175.272670
 20
148.478510
 30
0.0
 11
175.272670
 21
147.579470
 31
0.0
  0
LINE
  5
1a9
100
AcDbEntity
  8
Layer_1
 62
7
100
AcDbLine
 10
175.272670
 20
147.579470
 30
0.0
 11
175.272670
 21
146.680430
 31
0.0
  0
LINE
  5
1aa
100
AcDbEntity
  8
Layer_1
 62
7
100
AcDbLine
 10
175.272670
 20
146.680430
 30
0.0
 11
175.272670
 21
145.781390
 31
0.0
  0
LINE
  5
1ab
100
AcDbEntity
  8
Layer_1
 62
7
100
AcDbLine
 10
175.272670
 20
145.781390
 30
0.0
 11
175.272670
 21
144.882350
 31
0.0
  0
LINE
  5
1ac
100
AcDbEntity
  8
Layer_1
 62
7
100
AcDbLine
 10
175.272670
 20
144.882350
 30
0.0
 11
175.272670
 21
143.983310
 31
0.0
  0
LINE
  5
1ad
100
AcDbEntity
  8
Layer_1
 62
7
100
AcDbLine
 10
175.272670
 20
143.983310
 30
0.0
 11
175.272670
 21
143.084270
 31
0.0
  0
LINE
  5
1ae
100
AcDbEntity
  8
Layer_1
 62
7
100
AcDbLine
 10
175.272670
 20
143.084270
 30
0.0
 11
175.272670
 21
142.185230
 31
0.0
  0
LINE
  5
1af
100
AcDbEntity
  8
Layer_1
 62
7
100
AcDbLine
 10
175.272670
 20
142.185230
 30
0.0
 11
175.272670
 21
141.286190
 31
0.0
  0
LINE
  5
1b0
100
AcDbEntity
  8
Layer_1
 62
7
100
AcDbLine
 10
175.272670
 20
141.286190
 30
0.0
 11
175.226170
 21
140.350780
 31
0.0
  0
LINE
  5
1b1
100
AcDbEntity
  8
Layer_1
 62
7
100
AcDbLine
 10
175.226170
 20
140.350780
 30
0.0
 11
175.089450
 21
139.443720
 31
0.0
  0
LINE
  5
1b2
100
AcDbEntity
  8
Layer_1
 62
7
100
AcDbLine
 10
175.089450
 20
139.443720
 30
0.0
 11
174.866990
 21
138.569430
 31
0.0
  0
LINE
  5
1b3
100
AcDbEntity
  8
Layer_1
 62
7
100
AcDbLine
 10
174.866990
 20
138.569430
 30
0.0
 11
174.563190
 21
137.732320
 31
0.0
  0
LINE
  5
1b4
100
AcDbEntity
  8
Layer_1
 62
7
100
AcDbLine
 10
174.563190
 20
137.732320
 30
0.0
 11
174.182470
 21
136.936810
 31
0.0
  0
LINE
  5
1b5
100
AcDbEntity
  8
Layer_1
 62
7
100
AcDbLine
 10
174.182470
 20
136.936810
 30
0.0
 11
173.729250
 21
136.187300
 31
0.0
  0
LINE
  5
1b6
100
AcDbEntity
  8
Layer_1
 62
7
100
AcDbLine
 10
173.729250
 20
136.187300
 30
0.0
 11
173.207940
 21
135.488230
 31
0.0
  0
LINE
  5
1b7
100
AcDbEntity
  8
Layer_1
 62
7
100
AcDbLine
 10
173.207940
 20
135.488230
 30
0.0
 11
172.622970
 21
134.843990
 31
0.0
  0
LINE
  5
1b8
100
AcDbEntity
  8
Layer_1
 62
7
100
AcDbLine
 10
172.622970
 20
134.843990
 30
0.0
 11
171.978730
 21
134.259010
 31
0.0
  0
LINE
  5
1b9
100
AcDbEntity
  8
Layer_1
 62
7
100
AcDbLine
 10
171.978730
 20
134.259010
 30
0.0
 11
171.279650
 21
133.737710
 31
0.0
  0
LINE
  5
1ba
100
AcDbEntity
  8
Layer_1
 62
7
100
AcDbLine
 10
171.279650
 20
133.737710
 30
0.0
 11
170.530150
 21
133.284490
 31
0.0
  0
LINE
  5
1bb
100
AcDbEntity
  8
Layer_1
 62
7
100
AcDbLine
 10
170.530150
 20
133.284490
 30
0.0
 11
169.734640
 21
132.903770
 31
0.0
  0
LINE
  5
1bc
100
AcDbEntity
  8
Layer_1
 62
7
100
AcDbLine
 10
169.734640
 20
132.903770
 30
0.0
 11
168.897530
 21
132.599970
 31
0.0
  0
LINE
  5
1bd
100
AcDbEntity
  8
Layer_1
 62
7
100
AcDbLine
 10
168.897530
 20
132.599970
 30
0.0
 11
168.023230
 21
132.377510
 31
0.0
  0
LINE
  5
1be
100
AcDbEntity
  8
Layer_1
 62
7
100
AcDbLine
 10
168.023230
 20
132.377510
 30
0.0
 11
167.116180
 21
132.240790
 31
0.0
  0
LINE
  5
1bf
100
AcDbEntity
  8
Layer_1
 62
7
100
AcDbLine
 10
167.116180
 20
132.240790
 30
0.0
 11
166.180770
 21
132.194290
 31
0.0
  0
LINE
  5
1c0
100
AcDbEntity
  8
Layer_1
 62
7
100
AcDbLine
 10
166.180770
 20
132.194290
 30
0.0
 11
158.533170
 21
132.194290
 31
0.0
  0
LINE
  5
1c1
100
AcDbEntity
  8
Layer_1
 62
7
100
AcDbLine
 10
158.533170
 20
132.194290
 30
0.0
 11
150.885580
 21
132.194290
 31
0.0
  0
LINE
  5
1c2
100
AcDbEntity
  8
Layer_1
 62
7
100
AcDbLine
 10
150.885580
 20
132.194290
 30
0.0
 11
143.237990
 21
132.194290
 31
0.0
  0
LINE
  5
1c3
100
AcDbEntity
  8
Layer_1
 62
7
100
AcDbLine
 10
143.237990
 20
132.194290
 30
0.0
 11
135.590390
 21
132.194290
 31
0.0
  0
LINE
  5
1c4
100
AcDbEntity
  8
Layer_1
 62
7
100
AcDbLine
 10
135.590390
 20
132.194290
 30
0.0
 11
127.942800
 21
132.194290
 31
0.0
  0
LINE
  5
1c5
100
AcDbEntity
  8
Layer_1
 62
7
100
AcDbLine
 10
127.942800
 20
132.194290
 30
0.0
 11
120.295200
 21
132.194290
 31
0.0
  0
LINE
  5
1c6
100
AcDbEntity
  8
Layer_1
 62
7
100
AcDbLine
 10
120.295200
 20
132.194290
 30
0.0
 11
112.647600
 21
132.194290
 31
0.0
  0
LINE
  5
1c7
100
AcDbEntity
  8
Layer_1
 62
7
100
AcDbLine
 10
112.647600
 20
132.194290
 30
0.0
 11
105.000010
 21
132.194290
 31
0.0
  0
LINE
  5
1c8
100
AcDbEntity
  8
Layer_1
 62
7
100
AcDbLine
 10
105.000010
 20
132.194290
 30
0.0
 11
97.352415
 21
132.194290
 31
0.0
  0
LINE
  5
1c9
100
AcDbEntity
  8
Layer_1
 62
7
100
AcDbLine
 10
97.352415
 20
132.194290
 30
0.0
 11
89.704819
 21
132.194290
 31
0.0
  0
LINE
  5
1ca
100
AcDbEntity
  8
Layer_1
 62
7
100
AcDbLine
 10
89.704819
 20
132.194290
 30
0.0
 11
82.057223
 21
132.194290
 31
0.0
  0
LINE
  5
1cb
100
AcDbEntity
  8
Layer_1
 62
7
100
AcDbLine
 10
82.057223
 20
132.194290
 30
0.0
 11
74.409630
 21
132.194290
 31
0.0
  0
LINE
  5
1cc
100
AcDbEntity
  8
Layer_1
 62
7
100
AcDbLine
 10
74.409630
 20
132.194290
 30
0.0
 11
66.762034
 21
132.194290
 31
0.0
  0
LINE
  5
1cd
100
AcDbEntity
  8
Layer_1
 62
7
100
AcDbLine
 10
66.762034
 20
132.194290
 30
0.0
 11
59.114438
 21
132.194290
 31
0.0
  0
LINE
  5
1ce
100
AcDbEntity
  8
Layer_1
 62
7
100
AcDbLine
 10
59.114438
 20
132.194290
 30
0.0
 11
51.466845
 21
132.194290
 31
0.0
  0
LINE
  5
1cf
100
AcDbEntity
  8
Layer_1
 62
7
100
AcDbLine
 10
51.466845
 20
132.194290
 30
0.0
 11
43.819249
 21
132.194290
 31
0.0
  0
LINE
  5
1d0
100
AcDbEntity
  8
Layer_1
 62
7
100
AcDbLine
 10
43.819249
 20
132.194290
 30
0.0
 11
42.883822
 21
132.240790
 31
0.0
  0
LINE
  5
1d1
100
AcDbEntity
  8
Layer_1
 62
7
100
AcDbLine
 10
42.883822
 20
132.240790
 30
0.0
 11
41.976717
 21
132.377510
 31
0.0
  0
LINE
  5
1d2
100
AcDbEntity
  8
Layer_1
 62
7
100
AcDbLine
 10
41.976717
 20
132.377510
 30
0.0
 11
41.102348
 21
132.599970
 31
0.0
  0
LINE
  5
1d3
100
AcDbEntity
  8
Layer_1
 62
7
100
AcDbLine
 10
41.102348
 20
132.599970
 30
0.0
 11
40.265138
 21
132.903770
 31
0.0
  0
LINE
  5
1d4
100
AcDbEntity
  8
Layer_1
 62
7
100
AcDbLine
 10
40.265138
 20
132.903770
 30
0.0
 11
39.469507
 21
133.284490
 31
0.0
  0
LINE
  5
1d5
100
AcDbEntity
  8
Layer_1
 62
7
100
AcDbLine
 10
39.469507
 20
133.284490
 30
0.0
 11
38.719871
 21
133.737710
 31
0.0
  0
LINE
  5
1d6
100
AcDbEntity
  8
Layer_1
 62
7
100
AcDbLine
 10
38.719871
 20
133.737710
 30
0.0
 11
38.020654
 21
134.259010
 31
0.0
  0
LINE
  5
1d7
100
AcDbEntity
  8
Layer_1
 62
7
100
AcDbLine
 10
38.020654
 20
134.259010
 30
0.0
 11
37.376275
 21
134.844010
 31
0.0
  0
LINE
  5
1d8
100
AcDbEntity
  8
Layer_1
 62
7
100
AcDbLine
 10
37.376275
 20
134.844010
 30
0.0
 11
36.791151
 21
135.488250
 31
0.0
  0
LINE
  5
1d9
100
AcDbEntity
  8
Layer_1
 62
7
100
AcDbLine
 10
36.791151
 20
135.488250
 30
0.0
 11
36.269705
 21
136.187320
 31
0.0
  0
LINE
  5
1da
100
AcDbEntity
  8
Layer_1
 62
7
100
AcDbLine
 10
36.269705
 20
136.187320
 30
0.0
 11
35.816356
 21
136.936830
 31
0.0
  0
LINE
  5
1db
100
AcDbEntity
  8
Layer_1
 62
7
100
AcDbLine
 10
35.816356
 20
136.936830
 30
0.0
 11
35.435522
 21
137.732340
 31
0.0
  0
LINE
  5
1dc
100
AcDbEntity
  8
Layer_1
 62
7
100
AcDbLine
 10
35.435522
 20
137.732340
 30
0.0
 11
35.131625
 21
138.569450
 31
0.0
  0
LINE
  5
1dd
100
AcDbEntity
  8
Layer_1
 62
7
100
AcDbLine
 10
35.131625
 20
138.569450
 30
0.0
 11
34.909083
 21
139.443740
 31
0.0
  0
LINE
  5
1de
100
AcDbEntity
  8
Layer_1
 62
7
100
AcDbLine
 10
34.909083
 20
139.443740
 30
0.0
 11
34.772317
 21
140.350800
 31
0.0
  0
LINE
  5
1df
100
AcDbEntity
  8
Layer_1
 62
7
100
AcDbLine
 10
34.772317
 20
140.350800
 30
0.0
 11
34.725747
 21
141.286210
 31
0.0
  0
LINE
  5
1e0
100
AcDbEntity
  8
Layer_1
 62
7
100
AcDbLine
 10
34.725747
 20
141.286210
 30
0.0
 11
34.725747
 21
142.185250
 31
0.0
  0
LINE
  5
1e1
100
AcDbEntity
  8
Layer_1
 62
7
100
AcDbLine
 10
34.725747
 20
142.185250
 30
0.0
 11
34.725747
 21
143.084290
 31
0.0
  0
LINE
  5
1e2
100
AcDbEntity
  8
Layer_1
 62
7
100
AcDbLine
 10
34.725747
 20
143.084290
 30
0.0
 11
34.725747
 21
143.983330
 31
0.0
  0
LINE
  5
1e3
100
AcDbEntity
  8
Layer_1
 62
7
100
AcDbLine
 10
34.725747
 20
143.983330
 30
0.0
 11
34.725747
 21
144.882370
 31
0.0
  0
LINE
  5
1e4
100
AcDbEntity
  8
Layer_1
 62
7
100
AcDbLine
 10
34.725747
 20
144.882370
 30
0.0
 11
34.725747
 21
145.781410
 31
0.0
  0
LINE
  5
1e5
100
AcDbEntity
  8
Layer_1
 62
7
100
AcDbLine
 10
34.725747
 20
145.781410
 30
0.0
 11
34.725747
 21
146.680450
 31
0.0
  0
LINE
  5
1e6
100
AcDbEntity
  8
Layer_1
 62
7
100
AcDbLine
 10
34.725747
 20
146.680450
 30
0.0
 11
34.725747
 21
147.579490
 31
0.0
  0
LINE
  5
1e7
100
AcDbEntity
  8
Layer_1
 62
7
100
AcDbLine
 10
34.725747
 20
147.579490
 30
0.0
 11
34.725747
 21
148.478530
 31
0.0
  0
LINE
  5
1e8
100
AcDbEntity
  8
Layer_1
 62
7
100
AcDbLine
 10
34.725747
 20
148.478530
 30
0.0
 11
34.725747
 21
149.377570
 31
0.0
  0
LINE
  5
1e9
100
AcDbEntity
  8
Layer_1
 62
7
100
AcDbLine
 10
34.725747
 20
149.377570
 30
0.0
 11
34.725747
 21
150.276620
 31
0.0
  0
LINE
  5
1ea
100
AcDbEntity
  8
Layer_1
 62
7
100
AcDbLine
 10
34.725747
 20
150.276620
 30
0.0
 11
34.725747
 21
151.175660
 31
0.0
  0
LINE
  5
1eb
100
AcDbEntity
  8
Layer_1
 62
7
100
AcDbLine
 10
34.725747
 20
151.175660
 30
0.0
 11
34.725747
 21
152.074700
 31
0.0
  0
LINE
  5
1ec
100
AcDbEntity
  8
Layer_1
 62
7
100
AcDbLine
 10
34.725747
 20
152.074700
 30
0.0
 11
34.725747
 21
152.973740
 31
0.0
  0
LINE
  5
1ed
100
AcDbEntity
  8
Layer_1
 62
7
100
AcDbLine
 10
34.725747
 20
152.973740
 30
0.0
 11
34.725747
 21
153.872780
 31
0.0
  0
LINE
  5
1ee
100
AcDbEntity
  8
Layer_1
 62
7
100
AcDbLine
 10
34.725747
 20
153.872780
 30
0.0
 11
34.725747
 21
154.771820
 31
0.0
  0
LINE
  5
1ef
100
AcDbEntity
  8
Layer_1
 62
7
100
AcDbLine
 10
34.725747
 20
154.771820
 30
0.0
 11
34.725747
 21
155.670860
 31
0.0
  0
LINE
  5
1f0
100
AcDbEntity
  8
Layer_1
 62
7
100
AcDbLine
 10
34.725747
 20
155.670860
 30
0.0
 11
34.772317
 21
156.606290
 31
0.0
  0
LINE
  5
1f1
100
AcDbEntity
  8
Layer_1
 62
7
100
AcDbLine
 10
34.772317
 20
156.606290
 30
0.0
 11
34.909083
 21
157.513410
 31
0.0
  0
LINE
  5
1f2
100
AcDbEntity
  8
Layer_1
 62
7
100
AcDbLine
 10
34.909083
 20
157.513410
 30
0.0
 11
35.131625
 21
158.387810
 31
0.0
  0
LINE
  5
1f3
100
AcDbEntity
  8
Layer_1
 62
7
100
AcDbLine
 10
35.131625
 20
158.387810
 30
0.0
 11
35.435522
 21
159.225050
 31
0.0
  0
LINE
  5
1f4
100
AcDbEntity
  8
Layer_1
 62
7
100
AcDbLine
 10
35.435522
 20
159.225050
 30
0.0
 11
35.816356
 21
160.020720
 31
0.0
  0
LINE
  5
1f5
100
AcDbEntity
  8
Layer_1
 62
7
100
AcDbLine
 10
35.816356
 20
160.020720
 30
0.0
 11
36.269705
 21
160.770400
 31
0.0
  0
LINE
  5
1f6
100
AcDbEntity
  8
Layer_1
 62
7
100
AcDbLine
 10
36.269705
 20
160.770400
 30
0.0
 11
36.791151
 21
161.469660
 31
0.0
  0
LINE
  5
1f7
100
AcDbEntity
  8
Layer_1
 62
7
100
AcDbLine
 10
36.791151
 20
161.469660
 30
0.0
 11
37.376275
 21
162.114090
 31
0.0
  0
LINE
  5
1f8
100
AcDbEntity
  8
Layer_1
 62
7
100
AcDbLine
 10
37.376275
 20
162.114090
 30
0.0
 11
38.020654
 21
162.699260
 31
0.0
  0
LINE
  5
1f9
100
AcDbEntity
  8
Layer_1
 62
7
100
AcDbLine
 10
38.020654
 20
162.699260
 30
0.0
 11
38.719871
 21
163.220760
 31
0.0
  0
LINE
  5
1fa
100
AcDbEntity
  8
Layer_1
 62
7
100
AcDbLine
 10
38.719871
 20
163.220760
 30
0.0
 11
39.469507
 21
163.674150
 31
0.0
  0
LINE
  5
1fb
100
AcDbEntity
  8
Layer_1
 62
7
100
AcDbLine
 10
39.469507
 20
163.674150
 30
0.0
 11
40.265138
 21
164.055020
 31
0.0
  0
LINE
  5
1fc
100
AcDbEntity
  8
Layer_1
 62
7
100
AcDbLine
 10
40.265138
 20
164.055020
 30
0.0
 11
41.102348
 21
164.358950
 31
0.0
  0
LINE
  5
1fd
100
AcDbEntity
  8
Layer_1
 62
7
100
AcDbLine
 10
41.102348
 20
164.358950
 30
0.0
 11
41.976717
 21
164.581520
 31
0.0
  0
LINE
  5
1fe
100
AcDbEntity
  8
Layer_1
 62
7
100
AcDbLine
 10
41.976717
 20
164.581520
 30
0.0
 11
42.883822
 21
164.718300
 31
0.0
  0
LINE
  5
1ff
100
AcDbEntity
  8
Layer_1
 62
7
100
AcDbLine
 10
42.883822
 20
164.718300
 30
0.0
 11
43.819249
 21
164.764880
 31
0.0
  0
ENDSEC
  0
SECTION
  2
OBJECTS
  0
DICTIONARY
  5
C
330
0
100
AcDbDictionary
  3
ACAD_GROUP
350
D
  3
ACAD_MLINESTYLE
350
17
  0
DICTIONARY
  5
D
330
C
100
AcDbDictionary
  0
DICTIONARY
  5
1A
330
C
100
AcDbDictionary
  0
DICTIONARY
  5
17
330
C
100
AcDbDictionary
  3
STANDARD
350
18
  0
DICTIONARY
  5
19
330
C
100
AcDbDictionary
  0
ENDSEC
  0
EOF
