  0
SECTION
  2
HEADER
  9
$ACADVER
  1
AC1014
  9
$HANDSEED
  5
FFFF
  9
$MEASUREMENT
 70
     1
  0
ENDSEC
  0
SECTION
  2
TABLES
  0
TABLE
  2
VPORT
  5
8
330
0
100
AcDbSymbolTable
 70
     4
  0
VPORT
  5
2E
330
8
100
AcDbSymbolTableRecord
100
AcDbViewportTableRecord
  2
*ACTIVE
 70
     0
 10
0.0
 20
0.0
 11
1.0
 21
1.0
 12
210.0
 22
148.5
 13
0.0
 23
0.0
 14
10.0
 24
10.0
 15
10.0
 25
10.0
 16
0.0
 26
0.0
 36
1.0
 17
0.0
 27
0.0
 37
0.0
 40
341.0
 41
1.24
 42
50.0
 43
0.0
 44
0.0
 50
0.0
 51
0.0
 71
     0
 72
   100
 73
     1
 74
     3
 75
     0
 76
     0
 77
     0
 78
     0
  0
ENDTAB
  0
TABLE
  2
LTYPE
  5
5
330
0
100
AcDbSymbolTable
 70
     1
  0
LTYPE
  5
14
330
5
100
AcDbSymbolTableRecord
100
AcDbLinetypeTableRecord
  2
BYBLOCK
 70
     0
  3

 72
    65
 73
     0
 40
0.0
  0
LTYPE
  5
15
330
5
100
AcDbSymbolTableRecord
100
AcDbLinetypeTableRecord
  2
BYLAYER
 70
     0
  3

 72
    65
 73
     0
 40
0.0
  0
LTYPE
  5
16
330
5
100
AcDbSymbolTableRecord
100
AcDbLinetypeTableRecord
  2
CONTINUOUS
 70
     0
  3
Solid line
 72
    65
 73
     0
 40
0.0
  0
ENDTAB
  0
TABLE
  2
LAYER
  5
2
100
AcDbSymbolTable
 70
2
  0
LAYER
  5
50
100
AcDbSymbolTableRecord
100
AcDbLayerTableRecord
  2
0
 70
0
  6
CONTINUOUS
  0
LAYER
  5
51
100
AcDbSymbolTableRecord
100
AcDbLayerTableRecord
  2
Layer_1
 70
0
  6
CONTINUOUS
  0
ENDTAB
  0
TABLE
  2
STYLE
  5
3
330
0
100
AcDbSymbolTable
 70
     1
  0
STYLE
  5
11
330
3
100
AcDbSymbolTableRecord
100
AcDbTextStyleTableRecord
  2
STANDARD
 70
     0
 40
0.0
 41
1.0
 50
0.0
 71
     0
 42
2.5
  3
txt
  4

  0
ENDTAB
  0
TABLE
  2
VIEW
  5
6
330
0
100
AcDbSymbolTable
 70
     0
  0
ENDTAB
  0
TABLE
  2
UCS
  5
7
330
0
100
AcDbSymbolTable
 70
     0
  0
ENDTAB
  0
TABLE
  2
APPID
  5
9
330
0
100
AcDbSymbolTable
 70
     2
  0
APPID
  5
12
330
9
100
AcDbSymbolTableRecord
100
AcDbRegAppTableRecord
  2
ACAD
 70
     0
  0
ENDTAB
  0
TABLE
  2
DIMSTYLE
  5
A
330
0
100
AcDbSymbolTable
 70
     1
  0
DIMSTYLE
105
27
330
A
100
AcDbSymbolTableRecord
100
AcDbDimStyleTableRecord
  2
ISO-25
 70
     0
  3

  4

  5

  6

  7

 40
1.0
 41
2.5
 42
0.625
 43
3.75
 44
1.25
 45
0.0
 46
0.0
 47
0.0
 48
0.0
140
2.5
141
2.5
142
0.0
143
0.03937007874016
144
1.0
145
0.0
146
1.0
147
0.625
 71
     0
 72
     0
 73
     0
 74
     0
 75
     0
 76
     0
 77
     1
 78
     8
170
     0
171
     3
172
     1
173
     0
174
     0
175
     0
176
     0
177
     0
178
     0
270
     2
271
     2
272
     2
273
     2
274
     3
340
11
275
     0
280
     0
281
     0
282
     0
283
     0
284
     8
285
     0
286
     0
287
     3
288
     0
  0
ENDTAB
  0
TABLE
  2
BLOCK_RECORD
  5
1
330
0
100
AcDbSymbolTable
 70
     1
  0
BLOCK_RECORD
  5
1F
330
1
100
AcDbSymbolTableRecord
100
AcDbBlockTableRecord
  2
*MODEL_SPACE
  0
BLOCK_RECORD
  5
1B
330
1
100
AcDbSymbolTableRecord
100
AcDbBlockTableRecord
  2
*PAPER_SPACE
  0
ENDTAB
  0
ENDSEC
  0
SECTION
  2
BLOCKS
  0
BLOCK
  5
20
330
1F
100
AcDbEntity
  8
0
100
AcDbBlockBegin
  2
*MODEL_SPACE
 70
     0
 10
0.0
 20
0.0
 30
0.0
  3
*MODEL_SPACE
  1

  0
ENDBLK
  5
21
330
1F
100
AcDbEntity
  8
0
100
AcDbBlockEnd
  0
BLOCK
  5
1C
330
1B
100
AcDbEntity
 67
     1
  8
0
100
AcDbBlockBegin
  2
*PAPER_SPACE
  1

  0
ENDBLK
  5
1D
330
1B
100
AcDbEntity
 67
     1
  8
0
100
AcDbBlockEnd
  0
ENDSEC
  0
SECTION
  2
ENTITIES
  0
LINE
  5
100
100
AcDbEntity
  8
Layer_1
 62
7
100
AcDbLine
 10
42.155257
 20
168.915030
 30
0.0
 11
39.643782
 21
168.661900
 31
0.0
  0
LINE
  5
101
100
AcDbEntity
  8
Layer_1
 62
7
100
AcDbLine
 10
39.643782
 20
168.661900
 30
0.0
 11
37.304677
 21
167.935900
 31
0.0
  0
LINE
  5
102
100
AcDbEntity
  8
Layer_1
 62
7
100
AcDbLine
 10
37.304677
 20
167.935900
 30
0.0
 11
35.188029
 21
166.787120
 31
0.0
  0
LINE
  5
103
100
AcDbEntity
  8
Layer_1
 62
7
100
AcDbLine
 10
35.188029
 20
166.787120
 30
0.0
 11
33.343920
 21
165.265630
 31
0.0
  0
LINE
  5
104
100
AcDbEntity
  8
Layer_1
 62
7
100
AcDbLine
 10
33.343920
 20
165.265630
 30
0.0
 11
31.822431
 21
163.421520
 31
0.0
  0
LINE
  5
105
100
AcDbEntity
  8
Layer_1
 62
7
100
AcDbLine
 10
31.822431
 20
163.421520
 30
0.0
 11
30.673647
 21
161.304870
 31
0.0
  0
LINE
  5
106
100
AcDbEntity
  8
Layer_1
 62
7
100
AcDbLine
 10
30.673647
 20
161.304870
 30
0.0
 11
29.947649
 21
158.965770
 31
0.0
  0
LINE
  5
107
100
AcDbEntity
  8
Layer_1
 62
7
100
AcDbLine
 10
29.947649
 20
158.965770
 30
0.0
 11
29.694520
 21
156.454290
 31
0.0
  0
LINE
  5
108
100
AcDbEntity
  8
Layer_1
 62
7
100
AcDbLine
 10
29.694520
 20
156.454290
 30
0.0
 11
29.694520
 21
154.465720
 31
0.0
  0
LINE
  5
109
100
AcDbEntity
  8
Layer_1
 62
7
100
AcDbLine
 10
29.694520
 20
154.465720
 30
0.0
 11
29.694520
 21
152.477140
 31
0.0
  0
LINE
  5
10a
100
AcDbEntity
  8
Layer_1
 62
7
100
AcDbLine
 10
29.694520
 20
152.477140
 30
0.0
 11
29.694520
 21
150.488570
 31
0.0
  0
LINE
  5
10b
100
AcDbEntity
  8
Layer_1
 62
7
100
AcDbLine
 10
29.694520
 20
150.488570
 30
0.0
 11
29.694520
 21
147.970830
 31
0.0
  0
LINE
  5
10c
100
AcDbEntity
  8
Layer_1
 62
7
100
AcDbLine
 10
29.694520
 20
147.970830
 30
0.0
 11
29.694520
 21
145.982260
 31
0.0
  0
LINE
  5
10d
100
AcDbEntity
  8
Layer_1
 62
7
100
AcDbLine
 10
29.694520
 20
145.982260
 30
0.0
 11
29.694520
 21
143.993680
 31
0.0
  0
LINE
  5
10e
100
AcDbEntity
  8
Layer_1
 62
7
100
AcDbLine
 10
29.694520
 20
143.993680
 30
0.0
 11
29.694520
 21
142.005110
 31
0.0
  0
LINE
  5
10f
100
AcDbEntity
  8
Layer_1
 62
7
100
AcDbLine
 10
29.694520
 20
142.005110
 30
0.0
 11
29.694520
 21
140.016530
 31
0.0
  0
LINE
  5
110
100
AcDbEntity
  8
Layer_1
 62
7
100
AcDbLine
 10
29.694520
 20
140.016530
 30
0.0
 11
29.947649
 21
137.505060
 31
0.0
  0
LINE
  5
111
100
AcDbEntity
  8
Layer_1
 62
7
100
AcDbLine
 10
29.947649
 20
137.505060
 30
0.0
 11
30.673647
 21
135.165960
 31
0.0
  0
LINE
  5
112
100
AcDbEntity
  8
Layer_1
 62
7
100
AcDbLine
 10
30.673647
 20
135.165960
 30
0.0
 11
31.822431
 21
133.049310
 31
0.0
  0
LINE
  5
113
100
AcDbEntity
  8
Layer_1
 62
7
100
AcDbLine
 10
31.822431
 20
133.049310
 30
0.0
 11
33.343920
 21
131.205200
 31
0.0
  0
LINE
  5
114
100
AcDbEntity
  8
Layer_1
 62
7
100
AcDbLine
 10
33.343920
 20
131.205200
 30
0.0
 11
35.188029
 21
129.683710
 31
0.0
  0
LINE
  5
115
100
AcDbEntity
  8
Layer_1
 62
7
100
AcDbLine
 10
35.188029
 20
129.683710
 30
0.0
 11
37.304677
 21
128.534930
 31
0.0
  0
LINE
  5
116
100
AcDbEntity
  8
Layer_1
 62
7
100
AcDbLine
 10
37.304677
 20
128.534930
 30
0.0
 11
39.643782
 21
127.808930
 31
0.0
  0
LINE
  5
117
100
AcDbEntity
  8
Layer_1
 62
7
100
AcDbLine
 10
39.643782
 20
127.808930
 30
0.0
 11
42.155257
 21
127.555800
 31
0.0
  0
LINE
  5
118
100
AcDbEntity
  8
Layer_1
 62
7
100
AcDbLine
 10
42.155257
 20
127.555800
 30
0.0
 11
57.734151
 21
127.555800
 31
0.0
  0
LINE
  5
119
100
AcDbEntity
  8
Layer_1
 62
7
100
AcDbLine
 10
57.734151
 20
127.555800
 30
0.0
 11
73.313045
 21
127.555800
 31
0.0
  0
LINE
  5
11a
100
AcDbEntity
  8
Layer_1
 62
7
100
AcDbLine
 10
73.313045
 20
127.555800
 30
0.0
 11
88.891939
 21
127.555800
 31
0.0
  0
LINE
  5
11b
100
AcDbEntity
  8
Layer_1
 62
7
100
AcDbLine
 10
88.891939
 20
127.555800
 30
0.0
 11
105.000000
 21
127.555800
 31
0.0
  0
LINE
  5
11c
100
AcDbEntity
  8
Layer_1
 62
7
100
AcDbLine
 10
105.000000
 20
127.555800
 30
0.0
 11
120.578890
 21
127.555800
 31
0.0
  0
LINE
  5
11d
100
AcDbEntity
  8
Layer_1
 62
7
100
AcDbLine
 10
120.578890
 20
127.555800
 30
0.0
 11
136.686960
 21
127.555800
 31
0.0
  0
LINE
  5
11e
100
AcDbEntity
  8
Layer_1
 62
7
100
AcDbLine
 10
136.686960
 20
127.555800
 30
0.0
 11
152.265850
 21
127.555800
 31
0.0
  0
LINE
  5
11f
100
AcDbEntity
  8
Layer_1
 62
7
100
AcDbLine
 10
152.265850
 20
127.555800
 30
0.0
 11
167.844750
 21
127.555800
 31
0.0
  0
LINE
  5
120
100
AcDbEntity
  8
Layer_1
 62
7
100
AcDbLine
 10
167.844750
 20
127.555800
 30
0.0
 11
170.356220
 21
127.808930
 31
0.0
  0
LINE
  5
121
100
AcDbEntity
  8
Layer_1
 62
7
100
AcDbLine
 10
170.356220
 20
127.808930
 30
0.0
 11
172.695330
 21
128.534930
 31
0.0
  0
LINE
  5
122
100
AcDbEntity
  8
Layer_1
 62
7
100
AcDbLine
 10
172.695330
 20
128.534930
 30
0.0
 11
174.811980
 21
129.683710
 31
0.0
  0
LINE
  5
123
100
AcDbEntity
  8
Layer_1
 62
7
100
AcDbLine
 10
174.811980
 20
129.683710
 30
0.0
 11
176.656090
 21
131.205200
 31
0.0
  0
LINE
  5
124
100
AcDbEntity
  8
Layer_1
 62
7
100
AcDbLine
 10
176.656090
 20
131.205200
 30
0.0
 11
178.177570
 21
133.049310
 31
0.0
  0
LINE
  5
125
100
AcDbEntity
  8
Layer_1
 62
7
100
AcDbLine
 10
178.177570
 20
133.049310
 30
0.0
 11
179.326360
 21
135.165960
 31
0.0
  0
LINE
  5
126
100
AcDbEntity
  8
Layer_1
 62
7
100
AcDbLine
 10
179.326360
 20
135.165960
 30
0.0
 11
180.052350
 21
137.505060
 31
0.0
  0
LINE
  5
127
100
AcDbEntity
  8
Layer_1
 62
7
100
AcDbLine
 10
180.052350
 20
137.505060
 30
0.0
 11
180.305480
 21
140.016530
 31
0.0
  0
LINE
  5
128
100
AcDbEntity
  8
Layer_1
 62
7
100
AcDbLine
 10
180.305480
 20
140.016530
 30
0.0
 11
180.305480
 21
142.005110
 31
0.0
  0
LINE
  5
129
100
AcDbEntity
  8
Layer_1
 62
7
100
AcDbLine
 10
180.305480
 20
142.005110
 30
0.0
 11
180.305480
 21
143.993680
 31
0.0
  0
LINE
  5
12a
100
AcDbEntity
  8
Layer_1
 62
7
100
AcDbLine
 10
180.305480
 20
143.993680
 30
0.0
 11
180.305480
 21
145.982260
 31
0.0
  0
LINE
  5
12b
100
AcDbEntity
  8
Layer_1
 62
7
100
AcDbLine
 10
180.305480
 20
145.982260
 30
0.0
 11
180.305480
 21
147.970830
 31
0.0
  0
LINE
  5
12c
100
AcDbEntity
  8
Layer_1
 62
7
100
AcDbLine
 10
180.305480
 20
147.970830
 30
0.0
 11
180.305480
 21
150.488570
 31
0.0
  0
LINE
  5
12d
100
AcDbEntity
  8
Layer_1
 62
7
100
AcDbLine
 10
180.305480
 20
150.488570
 30
0.0
 11
180.305480
 21
152.477140
 31
0.0
  0
LINE
  5
12e
100
AcDbEntity
  8
Layer_1
 62
7
100
AcDbLine
 10
180.305480
 20
152.477140
 30
0.0
 11
180.305480
 21
154.465720
 31
0.0
  0
LINE
  5
12f
100
AcDbEntity
  8
Layer_1
 62
7
100
AcDbLine
 10
180.305480
 20
154.465720
 30
0.0
 11
180.305480
 21
156.454290
 31
0.0
  0
LINE
  5
130
100
AcDbEntity
  8
Layer_1
 62
7
100
AcDbLine
 10
180.305480
 20
156.454290
 30
0.0
 11
180.052350
 21
158.965770
 31
0.0
  0
LINE
  5
131
100
AcDbEntity
  8
Layer_1
 62
7
100
AcDbLine
 10
180.052350
 20
158.965770
 30
0.0
 11
179.326360
 21
161.304870
 31
0.0
  0
LINE
  5
132
100
AcDbEntity
  8
Layer_1
 62
7
100
AcDbLine
 10
179.326360
 20
161.304870
 30
0.0
 11
178.177570
 21
163.421520
 31
0.0
  0
LINE
  5
133
100
AcDbEntity
  8
Layer_1
 62
7
100
AcDbLine
 10
178.177570
 20
163.421520
 30
0.0
 11
176.656090
 21
165.265630
 31
0.0
  0
LINE
  5
134
100
AcDbEntity
  8
Layer_1
 62
7
100
AcDbLine
 10
176.656090
 20
165.265630
 30
0.0
 11
174.811980
 21
166.787120
 31
0.0
  0
LINE
  5
135
100
AcDbEntity
  8
Layer_1
 62
7
100
AcDbLine
 10
174.811980
 20
166.787120
 30
0.0
 11
172.695330
 21
167.935900
 31
0.0
  0
LINE
  5
136
100
AcDbEntity
  8
Layer_1
 62
7
100
AcDbLine
 10
172.695330
 20
167.935900
 30
0.0
 11
170.356220
 21
168.661900
 31
0.0
  0
LINE
  5
137
100
AcDbEntity
  8
Layer_1
 62
7
100
AcDbLine
 10
170.356220
 20
168.661900
 30
0.0
 11
167.844750
 21
168.915030
 31
0.0
  0
LINE
  5
138
100
AcDbEntity
  8
Layer_1
 62
7
100
AcDbLine
 10
167.844750
 20
168.915030
 30
0.0
 11
152.265850
 21
168.915030
 31
0.0
  0
LINE
  5
139
100
AcDbEntity
  8
Layer_1
 62
7
100
AcDbLine
 10
152.265850
 20
168.915030
 30
0.0
 11
136.686960
 21
168.915030
 31
0.0
  0
LINE
  5
13a
100
AcDbEntity
  8
Layer_1
 62
7
100
AcDbLine
 10
136.686960
 20
168.915030
 30
0.0
 11
120.578890
 21
168.915030
 31
0.0
  0
LINE
  5
13b
100
AcDbEntity
  8
Layer_1
 62
7
100
AcDbLine
 10
120.578890
 20
168.915030
 30
0.0
 11
105.000000
 21
168.915030
 31
0.0
  0
LINE
  5
13c
100
AcDbEntity
  8
Layer_1
 62
7
100
AcDbLine
 10
105.000000
 20
168.915030
 30
0.0
 11
88.891939
 21
168.915030
 31
0.0
  0
LINE
  5
13d
100
AcDbEntity
  8
Layer_1
 62
7
100
AcDbLine
 10
88.891939
 20
168.915030
 30
0.0
 11
73.313045
 21
168.915030
 31
0.0
  0
LINE
  5
13e
100
AcDbEntity
  8
Layer_1
 62
7
100
AcDbLine
 10
73.313045
 20
168.915030
 30
0.0
 11
57.734151
 21
168.915030
 31
0.0
  0
LINE
  5
13f
100
AcDbEntity
  8
Layer_1
 62
7
100
AcDbLine
 10
57.734151
 20
168.915030
 30
0.0
 11
42.155257
 21
168.915030
 31
0.0
  0
LINE
  5
140
100
AcDbEntity
  8
Layer_1
 62
7
100
AcDbLine
 10
42.155257
 20
166.553940
 30
0.0
 11
57.734151
 21
166.553940
 31
0.0
  0
LINE
  5
141
100
AcDbEntity
  8
Layer_1
 62
7
100
AcDbLine
 10
57.734151
 20
166.553940
 30
0.0
 11
73.313045
 21
166.553940
 31
0.0
  0
LINE
  5
142
100
AcDbEntity
  8
Layer_1
 62
7
100
AcDbLine
 10
73.313045
 20
166.553940
 30
0.0
 11
88.891939
 21
166.553940
 31
0.0
  0
LINE
  5
143
100
AcDbEntity
  8
Layer_1
 62
7
100
AcDbLine
 10
88.891939
 20
166.553940
 30
0.0
 11
105.000000
 21
166.553940
 31
0.0
  0
LINE
  5
144
100
AcDbEntity
  8
Layer_1
 62
7
100
AcDbLine
 10
105.000000
 20
166.553940
 30
0.0
 11
120.578890
 21
166.553940
 31
0.0
  0
LINE
  5
145
100
AcDbEntity
  8
Layer_1
 62
7
100
AcDbLine
 10
120.578890
 20
166.553940
 30
0.0
 11
136.686960
 21
166.553940
 31
0.0
  0
LINE
  5
146
100
AcDbEntity
  8
Layer_1
 62
7
100
AcDbLine
 10
136.686960
 20
166.553940
 30
0.0
 11
152.265850
 21
166.553940
 31
0.0
  0
LINE
  5
147
100
AcDbEntity
  8
Layer_1
 62
7
100
AcDbLine
 10
152.265850
 20
166.553940
 30
0.0
 11
167.844750
 21
166.553940
 31
0.0
  0
LINE
  5
148
100
AcDbEntity
  8
Layer_1
 62
7
100
AcDbLine
 10
167.844750
 20
166.553940
 30
0.0
 11
169.890760
 21
166.350270
 31
0.0
  0
LINE
  5
149
100
AcDbEntity
  8
Layer_1
 62
7
100
AcDbLine
 10
169.890760
 20
166.350270
 30
0.0
 11
171.791340
 21
165.765480
 31
0.0
  0
LINE
  5
14a
100
AcDbEntity
  8
Layer_1
 62
7
100
AcDbLine
 10
171.791340
 20
165.765480
 30
0.0
 11
173.507230
 21
164.838870
 31
0.0
  0
LINE
  5
14b
100
AcDbEntity
  8
Layer_1
 62
7
100
AcDbLine
 10
173.507230
 20
164.838870
 30
0.0
 11
174.999170
 21
163.609750
 31
0.0
  0
LINE
  5
14c
100
AcDbEntity
  8
Layer_1
 62
7
100
AcDbLine
 10
174.999170
 20
163.609750
 30
0.0
 11
176.227910
 21
162.117430
 31
0.0
  0
LINE
  5
14d
100
AcDbEntity
  8
Layer_1
 62
7
100
AcDbLine
 10
176.227910
 20
162.117430
 30
0.0
 11
177.154190
 21
160.401210
 31
0.0
  0
LINE
  5
14e
100
AcDbEntity
  8
Layer_1
 62
7
100
AcDbLine
 10
177.154190
 20
160.401210
 30
0.0
 11
177.738740
 21
158.500390
 31
0.0
  0
LINE
  5
14f
100
AcDbEntity
  8
Layer_1
 62
7
100
AcDbLine
 10
177.738740
 20
158.500390
 30
0.0
 11
177.942320
 21
156.454290
 31
0.0
  0
LINE
  5
150
100
AcDbEntity
  8
Layer_1
 62
7
100
AcDbLine
 10
177.942320
 20
156.454290
 30
0.0
 11
177.942320
 21
154.465720
 31
0.0
  0
LINE
  5
151
100
AcDbEntity
  8
Layer_1
 62
7
100
AcDbLine
 10
177.942320
 20
154.465720
 30
0.0
 11
177.942320
 21
152.477140
 31
0.0
  0
LINE
  5
152
100
AcDbEntity
  8
Layer_1
 62
7
100
AcDbLine
 10
177.942320
 20
152.477140
 30
0.0
 11
177.942320
 21
150.488570
 31
0.0
  0
LINE
  5
153
100
AcDbEntity
  8
Layer_1
 62
7
100
AcDbLine
 10
177.942320
 20
150.488570
 30
0.0
 11
177.942320
 21
147.970830
 31
0.0
  0
LINE
  5
154
100
AcDbEntity
  8
Layer_1
 62
7
100
AcDbLine
 10
177.942320
 20
147.970830
 30
0.0
 11
177.942320
 21
145.982260
 31
0.0
  0
LINE
  5
155
100
AcDbEntity
  8
Layer_1
 62
7
100
AcDbLine
 10
177.942320
 20
145.982260
 30
0.0
 11
177.942320
 21
143.993680
 31
0.0
  0
LINE
  5
156
100
AcDbEntity
  8
Layer_1
 62
7
100
AcDbLine
 10
177.942320
 20
143.993680
 30
0.0
 11
177.942320
 21
142.005110
 31
0.0
  0
LINE
  5
157
100
AcDbEntity
  8
Layer_1
 62
7
100
AcDbLine
 10
177.942320
 20
142.005110
 30
0.0
 11
177.942320
 21
140.016530
 31
0.0
  0
LINE
  5
158
100
AcDbEntity
  8
Layer_1
 62
7
100
AcDbLine
 10
177.942320
 20
140.016530
 30
0.0
 11
177.738740
 21
137.970530
 31
0.0
  0
LINE
  5
159
100
AcDbEntity
  8
Layer_1
 62
7
100
AcDbLine
 10
177.738740
 20
137.970530
 30
0.0
 11
177.154190
 21
136.069950
 31
0.0
  0
LINE
  5
15a
100
AcDbEntity
  8
Layer_1
 62
7
100
AcDbLine
 10
177.154190
 20
136.069950
 30
0.0
 11
176.227910
 21
134.354060
 31
0.0
  0
LINE
  5
15b
100
AcDbEntity
  8
Layer_1
 62
7
100
AcDbLine
 10
176.227910
 20
134.354060
 30
0.0
 11
174.999170
 21
132.862110
 31
0.0
  0
LINE
  5
15c
100
AcDbEntity
  8
Layer_1
 62
7
100
AcDbLine
 10
174.999170
 20
132.862110
 30
0.0
 11
173.507230
 21
131.633370
 31
0.0
  0
LINE
  5
15d
100
AcDbEntity
  8
Layer_1
 62
7
100
AcDbLine
 10
173.507230
 20
131.633370
 30
0.0
 11
171.791340
 21
130.707090
 31
0.0
  0
LINE
  5
15e
100
AcDbEntity
  8
Layer_1
 62
7
100
AcDbLine
 10
171.791340
 20
130.707090
 30
0.0
 11
169.890760
 21
130.122540
 31
0.0
  0
LINE
  5
15f
100
AcDbEntity
  8
Layer_1
 62
7
100
AcDbLine
 10
169.890760
 20
130.122540
 30
0.0
 11
167.844750
 21
129.918960
 31
0.0
  0
LINE
  5
160
100
AcDbEntity
  8
Layer_1
 62
7
100
AcDbLine
 10
167.844750
 20
129.918960
 30
0.0
 11
152.265850
 21
129.918960
 31
0.0
  0
LINE
  5
161
100
AcDbEntity
  8
Layer_1
 62
7
100
AcDbLine
 10
152.265850
 20
129.918960
 30
0.0
 11
136.686960
 21
129.918960
 31
0.0
  0
LINE
  5
162
100
AcDbEntity
  8
Layer_1
 62
7
100
AcDbLine
 10
136.686960
 20
129.918960
 30
0.0
 11
120.578890
 21
129.918960
 31
0.0
  0
LINE
  5
163
100
AcDbEntity
  8
Layer_1
 62
7
100
AcDbLine
 10
120.578890
 20
129.918960
 30
0.0
 11
105.000000
 21
129.918960
 31
0.0
  0
LINE
  5
164
100
AcDbEntity
  8
Layer_1
 62
7
100
AcDbLine
 10
105.000000
 20
129.918960
 30
0.0
 11
88.891939
 21
129.918960
 31
0.0
  0
LINE
  5
165
100
AcDbEntity
  8
Layer_1
 62
7
100
AcDbLine
 10
88.891939
 20
129.918960
 30
0.0
 11
73.313045
 21
129.918960
 31
0.0
  0
LINE
  5
166
100
AcDbEntity
  8
Layer_1
 62
7
100
AcDbLine
 10
73.313045
 20
129.918960
 30
0.0
 11
57.734151
 21
129.918960
 31
0.0
  0
LINE
  5
167
100
AcDbEntity
  8
Layer_1
 62
7
100
AcDbLine
 10
57.734151
 20
129.918960
 30
0.0
 11
42.155257
 21
129.918960
 31
0.0
  0
LINE
  5
168
100
AcDbEntity
  8
Layer_1
 62
7
100
AcDbLine
 10
42.155257
 20
129.918960
 30
0.0
 11
40.109160
 21
130.122540
 31
0.0
  0
LINE
  5
169
100
AcDbEntity
  8
Layer_1
 62
7
100
AcDbLine
 10
40.109160
 20
130.122540
 30
0.0
 11
38.208346
 21
130.707100
 31
0.0
  0
LINE
  5
16a
100
AcDbEntity
  8
Layer_1
 62
7
100
AcDbLine
 10
38.208346
 20
130.707100
 30
0.0
 11
36.492123
 21
131.633380
 31
0.0
  0
LINE
  5
16b
100
AcDbEntity
  8
Layer_1
 62
7
100
AcDbLine
 10
36.492123
 20
131.633380
 30
0.0
 11
34.999798
 21
132.862120
 31
0.0
  0
LINE
  5
16c
100
AcDbEntity
  8
Layer_1
 62
7
100
AcDbLine
 10
34.999798
 20
132.862120
 30
0.0
 11
33.770679
 21
134.354060
 31
0.0
  0
LINE
  5
16d
100
AcDbEntity
  8
Layer_1
 62
7
100
AcDbLine
 10
33.770679
 20
134.354060
 30
0.0
 11
32.844071
 21
136.069950
 31
0.0
  0
LINE
  5
16e
100
AcDbEntity
  8
Layer_1
 62
7
100
AcDbLine
 10
32.844071
 20
136.069950
 30
0.0
 11
32.259281
 21
137.970530
 31
0.0
  0
LINE
  5
16f
100
AcDbEntity
  8
Layer_1
 62
7
100
AcDbLine
 10
32.259281
 20
137.970530
 30
0.0
 11
32.055616
 21
140.016530
 31
0.0
  0
LINE
  5
170
100
AcDbEntity
  8
Layer_1
 62
7
100
AcDbLine
 10
32.055616
 20
140.016530
 30
0.0
 11
32.055616
 21
142.005110
 31
0.0
  0
LINE
  5
171
100
AcDbEntity
  8
Layer_1
 62
7
100
AcDbLine
 10
32.055616
 20
142.005110
 30
0.0
 11
32.055616
 21
143.993680
 31
0.0
  0
LINE
  5
172
100
AcDbEntity
  8
Layer_1
 62
7
100
AcDbLine
 10
32.055616
 20
143.993680
 30
0.0
 11
32.055616
 21
145.982260
 31
0.0
  0
LINE
  5
173
100
AcDbEntity
  8
Layer_1
 62
7
100
AcDbLine
 10
32.055616
 20
145.982260
 30
0.0
 11
32.055616
 21
147.970830
 31
0.0
  0
LINE
  5
174
100
AcDbEntity
  8
Layer_1
 62
7
100
AcDbLine
 10
32.055616
 20
147.970830
 30
0.0
 11
32.055616
 21
150.488570
 31
0.0
  0
LINE
  5
175
100
AcDbEntity
  8
Layer_1
 62
7
100
AcDbLine
 10
32.055616
 20
150.488570
 30
0.0
 11
32.055616
 21
152.477140
 31
0.0
  0
LINE
  5
176
100
AcDbEntity
  8
Layer_1
 62
7
100
AcDbLine
 10
32.055616
 20
152.477140
 30
0.0
 11
32.055616
 21
154.465720
 31
0.0
  0
LINE
  5
177
100
AcDbEntity
  8
Layer_1
 62
7
100
AcDbLine
 10
32.055616
 20
154.465720
 30
0.0
 11
32.055616
 21
156.454290
 31
0.0
  0
LINE
  5
178
100
AcDbEntity
  8
Layer_1
 62
7
100
AcDbLine
 10
32.055616
 20
156.454290
 30
0.0
 11
32.259281
 21
158.500390
 31
0.0
  0
LINE
  5
179
100
AcDbEntity
  8
Layer_1
 62
7
100
AcDbLine
 10
32.259281
 20
158.500390
 30
0.0
 11
32.844071
 21
160.401210
 31
0.0
  0
LINE
  5
17a
100
AcDbEntity
  8
Layer_1
 62
7
100
AcDbLine
 10
32.844071
 20
160.401210
 30
0.0
 11
33.770679
 21
162.117430
 31
0.0
  0
LINE
  5
17b
100
AcDbEntity
  8
Layer_1
 62
7
100
AcDbLine
 10
33.770679
 20
162.117430
 30
0.0
 11
34.999798
 21
163.609750
 31
0.0
  0
LINE
  5
17c
100
AcDbEntity
  8
Layer_1
 62
7
100
AcDbLine
 10
34.999798
 20
163.609750
 30
0.0
 11
36.492123
 21
164.838870
 31
0.0
  0
LINE
  5
17d
100
AcDbEntity
  8
Layer_1
 62
7
100
AcDbLine
 10
36.492123
 20
164.838870
 30
0.0
 11
38.208346
 21
165.765480
 31
0.0
  0
LINE
  5
17e
100
AcDbEntity
  8
Layer_1
 62
7
100
AcDbLine
 10
38.208346
 20
165.765480
 30
0.0
 11
40.109160
 21
166.350270
 31
0.0
  0
LINE
  5
17f
100
AcDbEntity
  8
Layer_1
 62
7
100
AcDbLine
 10
40.109160
 20
166.350270
 30
0.0
 11
42.155257
 21
166.553940
 31
0.0
  0
ENDSEC
  0
SECTION
  2
OBJECTS
  0
DICTIONARY
  5
C
330
0
100
AcDbDictionary
  3
ACAD_GROUP
350
D
  3
ACAD_MLINESTYLE
350
17
  0
DICTIONARY
  5
D
330
C
100
AcDbDictionary
  0
DICTIONARY
  5
1A
330
C
100
AcDbDictionary
  0
DICTIONARY
  5
17
330
C
100
AcDbDictionary
  3
STANDARD
350
18
  0
DICTIONARY
  5
19
330
C
100
AcDbDictionary
  0
ENDSEC
  0
EOF
