  0
SECTION
  2
HEADER
  9
$ACADVER
  1
AC1014
  9
$HANDSEED
  5
FFFF
  9
$MEASUREMENT
 70
     1
  0
ENDSEC
  0
SECTION
  2
TABLES
  0
TABLE
  2
VPORT
  5
8
330
0
100
AcDbSymbolTable
 70
     4
  0
VPORT
  5
2E
330
8
100
AcDbSymbolTableRecord
100
AcDbViewportTableRecord
  2
*ACTIVE
 70
     0
 10
0.0
 20
0.0
 11
1.0
 21
1.0
 12
210.0
 22
148.5
 13
0.0
 23
0.0
 14
10.0
 24
10.0
 15
10.0
 25
10.0
 16
0.0
 26
0.0
 36
1.0
 17
0.0
 27
0.0
 37
0.0
 40
341.0
 41
1.24
 42
50.0
 43
0.0
 44
0.0
 50
0.0
 51
0.0
 71
     0
 72
   100
 73
     1
 74
     3
 75
     0
 76
     0
 77
     0
 78
     0
  0
ENDTAB
  0
TABLE
  2
LTYPE
  5
5
330
0
100
AcDbSymbolTable
 70
     1
  0
LTYPE
  5
14
330
5
100
AcDbSymbolTableRecord
100
AcDbLinetypeTableRecord
  2
BYBLOCK
 70
     0
  3

 72
    65
 73
     0
 40
0.0
  0
LTYPE
  5
15
330
5
100
AcDbSymbolTableRecord
100
AcDbLinetypeTableRecord
  2
BYLAYER
 70
     0
  3

 72
    65
 73
     0
 40
0.0
  0
LTYPE
  5
16
330
5
100
AcDbSymbolTableRecord
100
AcDbLinetypeTableRecord
  2
CONTINUOUS
 70
     0
  3
Solid line
 72
    65
 73
     0
 40
0.0
  0
ENDTAB
  0
TABLE
  2
LAYER
  5
2
100
AcDbSymbolTable
 70
2
  0
LAYER
  5
50
100
AcDbSymbolTableRecord
100
AcDbLayerTableRecord
  2
0
 70
0
  6
CONTINUOUS
  0
LAYER
  5
51
100
AcDbSymbolTableRecord
100
AcDbLayerTableRecord
  2
Layer_1
 70
0
  6
CONTINUOUS
  0
ENDTAB
  0
TABLE
  2
STYLE
  5
3
330
0
100
AcDbSymbolTable
 70
     1
  0
STYLE
  5
11
330
3
100
AcDbSymbolTableRecord
100
AcDbTextStyleTableRecord
  2
STANDARD
 70
     0
 40
0.0
 41
1.0
 50
0.0
 71
     0
 42
2.5
  3
txt
  4

  0
ENDTAB
  0
TABLE
  2
VIEW
  5
6
330
0
100
AcDbSymbolTable
 70
     0
  0
ENDTAB
  0
TABLE
  2
UCS
  5
7
330
0
100
AcDbSymbolTable
 70
     0
  0
ENDTAB
  0
TABLE
  2
APPID
  5
9
330
0
100
AcDbSymbolTable
 70
     2
  0
APPID
  5
12
330
9
100
AcDbSymbolTableRecord
100
AcDbRegAppTableRecord
  2
ACAD
 70
     0
  0
ENDTAB
  0
TABLE
  2
DIMSTYLE
  5
A
330
0
100
AcDbSymbolTable
 70
     1
  0
DIMSTYLE
105
27
330
A
100
AcDbSymbolTableRecord
100
AcDbDimStyleTableRecord
  2
ISO-25
 70
     0
  3

  4

  5

  6

  7

 40
1.0
 41
2.5
 42
0.625
 43
3.75
 44
1.25
 45
0.0
 46
0.0
 47
0.0
 48
0.0
140
2.5
141
2.5
142
0.0
143
0.03937007874016
144
1.0
145
0.0
146
1.0
147
0.625
 71
     0
 72
     0
 73
     0
 74
     0
 75
     0
 76
     0
 77
     1
 78
     8
170
     0
171
     3
172
     1
173
     0
174
     0
175
     0
176
     0
177
     0
178
     0
270
     2
271
     2
272
     2
273
     2
274
     3
340
11
275
     0
280
     0
281
     0
282
     0
283
     0
284
     8
285
     0
286
     0
287
     3
288
     0
  0
ENDTAB
  0
TABLE
  2
BLOCK_RECORD
  5
1
330
0
100
AcDbSymbolTable
 70
     1
  0
BLOCK_RECORD
  5
1F
330
1
100
AcDbSymbolTableRecord
100
AcDbBlockTableRecord
  2
*MODEL_SPACE
  0
BLOCK_RECORD
  5
1B
330
1
100
AcDbSymbolTableRecord
100
AcDbBlockTableRecord
  2
*PAPER_SPACE
  0
ENDTAB
  0
ENDSEC
  0
SECTION
  2
BLOCKS
  0
BLOCK
  5
20
330
1F
100
AcDbEntity
  8
0
100
AcDbBlockBegin
  2
*MODEL_SPACE
 70
     0
 10
0.0
 20
0.0
 30
0.0
  3
*MODEL_SPACE
  1

  0
ENDBLK
  5
21
330
1F
100
AcDbEntity
  8
0
100
AcDbBlockEnd
  0
BLOCK
  5
1C
330
1B
100
AcDbEntity
 67
     1
  8
0
100
AcDbBlockBegin
  2
*PAPER_SPACE
  1

  0
ENDBLK
  5
1D
330
1B
100
AcDbEntity
 67
     1
  8
0
100
AcDbBlockEnd
  0
ENDSEC
  0
SECTION
  2
ENTITIES
  0
LINE
  5
100
100
AcDbEntity
  8
Layer_1
 62
7
100
AcDbLine
 10
140.035250
 20
43.518040
 30
0.0
 11
142.313600
 21
43.288380
 31
0.0
  0
LINE
  5
101
100
AcDbEntity
  8
Layer_1
 62
7
100
AcDbLine
 10
142.313600
 20
43.288380
 30
0.0
 11
144.435630
 21
42.629690
 31
0.0
  0
LINE
  5
102
100
AcDbEntity
  8
Layer_1
 62
7
100
AcDbLine
 10
144.435630
 20
42.629690
 30
0.0
 11
146.355890
 21
41.587430
 31
0.0
  0
LINE
  5
103
100
AcDbEntity
  8
Layer_1
 62
7
100
AcDbLine
 10
146.355890
 20
41.587430
 30
0.0
 11
148.028940
 21
40.207050
 31
0.0
  0
LINE
  5
104
100
AcDbEntity
  8
Layer_1
 62
7
100
AcDbLine
 10
148.028940
 20
40.207050
 30
0.0
 11
149.409320
 21
38.534000
 31
0.0
  0
LINE
  5
105
100
AcDbEntity
  8
Layer_1
 62
7
100
AcDbLine
 10
149.409320
 20
38.534000
 30
0.0
 11
150.451580
 21
36.613730
 31
0.0
  0
LINE
  5
106
100
AcDbEntity
  8
Layer_1
 62
7
100
AcDbLine
 10
150.451580
 20
36.613730
 30
0.0
 11
151.110270
 21
34.491700
 31
0.0
  0
LINE
  5
107
100
AcDbEntity
  8
Layer_1
 62
7
100
AcDbLine
 10
151.110270
 20
34.491700
 30
0.0
 11
151.339930
 21
32.213360
 31
0.0
  0
LINE
  5
108
100
AcDbEntity
  8
Layer_1
 62
7
100
AcDbLine
 10
151.339930
 20
32.213360
 30
0.0
 11
151.339930
 21
30.415260
 31
0.0
  0
LINE
  5
109
100
AcDbEntity
  8
Layer_1
 62
7
100
AcDbLine
 10
151.339930
 20
30.415260
 30
0.0
 11
151.339930
 21
28.617160
 31
0.0
  0
LINE
  5
10a
100
AcDbEntity
  8
Layer_1
 62
7
100
AcDbLine
 10
151.339930
 20
28.617160
 30
0.0
 11
151.339930
 21
26.819070
 31
0.0
  0
LINE
  5
10b
100
AcDbEntity
  8
Layer_1
 62
7
100
AcDbLine
 10
151.339930
 20
26.819070
 30
0.0
 11
151.339930
 21
25.020970
 31
0.0
  0
LINE
  5
10c
100
AcDbEntity
  8
Layer_1
 62
7
100
AcDbLine
 10
151.339930
 20
25.020970
 30
0.0
 11
151.339930
 21
23.222880
 31
0.0
  0
LINE
  5
10d
100
AcDbEntity
  8
Layer_1
 62
7
100
AcDbLine
 10
151.339930
 20
23.222880
 30
0.0
 11
151.339930
 21
21.424780
 31
0.0
  0
LINE
  5
10e
100
AcDbEntity
  8
Layer_1
 62
7
100
AcDbLine
 10
151.339930
 20
21.424780
 30
0.0
 11
151.339930
 21
19.626690
 31
0.0
  0
LINE
  5
10f
100
AcDbEntity
  8
Layer_1
 62
7
100
AcDbLine
 10
151.339930
 20
19.626690
 30
0.0
 11
151.339930
 21
17.828590
 31
0.0
  0
LINE
  5
110
100
AcDbEntity
  8
Layer_1
 62
7
100
AcDbLine
 10
151.339930
 20
17.828590
 30
0.0
 11
151.110270
 21
15.550240
 31
0.0
  0
LINE
  5
111
100
AcDbEntity
  8
Layer_1
 62
7
100
AcDbLine
 10
151.110270
 20
15.550240
 30
0.0
 11
150.451580
 21
13.428210
 31
0.0
  0
LINE
  5
112
100
AcDbEntity
  8
Layer_1
 62
7
100
AcDbLine
 10
150.451580
 20
13.428210
 30
0.0
 11
149.409320
 21
11.507940
 31
0.0
  0
LINE
  5
113
100
AcDbEntity
  8
Layer_1
 62
7
100
AcDbLine
 10
149.409320
 20
11.507940
 30
0.0
 11
148.028940
 21
9.834890
 31
0.0
  0
LINE
  5
114
100
AcDbEntity
  8
Layer_1
 62
7
100
AcDbLine
 10
148.028940
 20
9.834890
 30
0.0
 11
146.355890
 21
8.454510
 31
0.0
  0
LINE
  5
115
100
AcDbEntity
  8
Layer_1
 62
7
100
AcDbLine
 10
146.355890
 20
8.454510
 30
0.0
 11
144.435630
 21
7.412250
 31
0.0
  0
LINE
  5
116
100
AcDbEntity
  8
Layer_1
 62
7
100
AcDbLine
 10
144.435630
 20
7.412250
 30
0.0
 11
142.313600
 21
6.753570
 31
0.0
  0
LINE
  5
117
100
AcDbEntity
  8
Layer_1
 62
7
100
AcDbLine
 10
142.313600
 20
6.753570
 30
0.0
 11
140.035250
 21
6.523900
 31
0.0
  0
LINE
  5
118
100
AcDbEntity
  8
Layer_1
 62
7
100
AcDbLine
 10
140.035250
 20
6.523900
 30
0.0
 11
124.740090
 21
6.523900
 31
0.0
  0
LINE
  5
119
100
AcDbEntity
  8
Layer_1
 62
7
100
AcDbLine
 10
124.740090
 20
6.523900
 30
0.0
 11
109.444920
 21
6.523900
 31
0.0
  0
LINE
  5
11a
100
AcDbEntity
  8
Layer_1
 62
7
100
AcDbLine
 10
109.444920
 20
6.523900
 30
0.0
 11
94.149753
 21
6.523900
 31
0.0
  0
LINE
  5
11b
100
AcDbEntity
  8
Layer_1
 62
7
100
AcDbLine
 10
94.149753
 20
6.523900
 30
0.0
 11
78.854587
 21
6.523900
 31
0.0
  0
LINE
  5
11c
100
AcDbEntity
  8
Layer_1
 62
7
100
AcDbLine
 10
78.854587
 20
6.523900
 30
0.0
 11
63.559421
 21
6.523900
 31
0.0
  0
LINE
  5
11d
100
AcDbEntity
  8
Layer_1
 62
7
100
AcDbLine
 10
63.559421
 20
6.523900
 30
0.0
 11
48.264254
 21
6.523900
 31
0.0
  0
LINE
  5
11e
100
AcDbEntity
  8
Layer_1
 62
7
100
AcDbLine
 10
48.264254
 20
6.523900
 30
0.0
 11
32.969088
 21
6.523900
 31
0.0
  0
LINE
  5
11f
100
AcDbEntity
  8
Layer_1
 62
7
100
AcDbLine
 10
32.969088
 20
6.523900
 30
0.0
 11
17.673921
 21
6.523900
 31
0.0
  0
LINE
  5
120
100
AcDbEntity
  8
Layer_1
 62
7
100
AcDbLine
 10
17.673921
 20
6.523900
 30
0.0
 11
15.395575
 21
6.753570
 31
0.0
  0
LINE
  5
121
100
AcDbEntity
  8
Layer_1
 62
7
100
AcDbLine
 10
15.395575
 20
6.753570
 30
0.0
 11
13.273543
 21
7.412250
 31
0.0
  0
LINE
  5
122
100
AcDbEntity
  8
Layer_1
 62
7
100
AcDbLine
 10
13.273543
 20
7.412250
 30
0.0
 11
11.353275
 21
8.454510
 31
0.0
  0
LINE
  5
123
100
AcDbEntity
  8
Layer_1
 62
7
100
AcDbLine
 10
11.353275
 20
8.454510
 30
0.0
 11
9.680225
 21
9.834890
 31
0.0
  0
LINE
  5
124
100
AcDbEntity
  8
Layer_1
 62
7
100
AcDbLine
 10
9.680225
 20
9.834890
 30
0.0
 11
8.299844
 21
11.507940
 31
0.0
  0
LINE
  5
125
100
AcDbEntity
  8
Layer_1
 62
7
100
AcDbLine
 10
8.299844
 20
11.507940
 30
0.0
 11
7.257584
 21
13.428210
 31
0.0
  0
LINE
  5
126
100
AcDbEntity
  8
Layer_1
 62
7
100
AcDbLine
 10
7.257584
 20
13.428210
 30
0.0
 11
6.598896
 21
15.550240
 31
0.0
  0
LINE
  5
127
100
AcDbEntity
  8
Layer_1
 62
7
100
AcDbLine
 10
6.598896
 20
15.550240
 30
0.0
 11
6.369233
 21
17.828590
 31
0.0
  0
LINE
  5
128
100
AcDbEntity
  8
Layer_1
 62
7
100
AcDbLine
 10
6.369233
 20
17.828590
 30
0.0
 11
6.369233
 21
19.626690
 31
0.0
  0
LINE
  5
129
100
AcDbEntity
  8
Layer_1
 62
7
100
AcDbLine
 10
6.369233
 20
19.626690
 30
0.0
 11
6.369233
 21
21.424780
 31
0.0
  0
LINE
  5
12a
100
AcDbEntity
  8
Layer_1
 62
7
100
AcDbLine
 10
6.369233
 20
21.424780
 30
0.0
 11
6.369233
 21
23.222880
 31
0.0
  0
LINE
  5
12b
100
AcDbEntity
  8
Layer_1
 62
7
100
AcDbLine
 10
6.369233
 20
23.222880
 30
0.0
 11
6.369233
 21
25.020970
 31
0.0
  0
LINE
  5
12c
100
AcDbEntity
  8
Layer_1
 62
7
100
AcDbLine
 10
6.369233
 20
25.020970
 30
0.0
 11
6.369233
 21
26.819070
 31
0.0
  0
LINE
  5
12d
100
AcDbEntity
  8
Layer_1
 62
7
100
AcDbLine
 10
6.369233
 20
26.819070
 30
0.0
 11
6.369233
 21
28.617160
 31
0.0
  0
LINE
  5
12e
100
AcDbEntity
  8
Layer_1
 62
7
100
AcDbLine
 10
6.369233
 20
28.617160
 30
0.0
 11
6.369233
 21
30.415260
 31
0.0
  0
LINE
  5
12f
100
AcDbEntity
  8
Layer_1
 62
7
100
AcDbLine
 10
6.369233
 20
30.415260
 30
0.0
 11
6.369233
 21
32.213360
 31
0.0
  0
LINE
  5
130
100
AcDbEntity
  8
Layer_1
 62
7
100
AcDbLine
 10
6.369233
 20
32.213360
 30
0.0
 11
6.598896
 21
34.491700
 31
0.0
  0
LINE
  5
131
100
AcDbEntity
  8
Layer_1
 62
7
100
AcDbLine
 10
6.598896
 20
34.491700
 30
0.0
 11
7.257584
 21
36.613730
 31
0.0
  0
LINE
  5
132
100
AcDbEntity
  8
Layer_1
 62
7
100
AcDbLine
 10
7.257584
 20
36.613730
 30
0.0
 11
8.299844
 21
38.534000
 31
0.0
  0
LINE
  5
133
100
AcDbEntity
  8
Layer_1
 62
7
100
AcDbLine
 10
8.299844
 20
38.534000
 30
0.0
 11
9.680225
 21
40.207050
 31
0.0
  0
LINE
  5
134
100
AcDbEntity
  8
Layer_1
 62
7
100
AcDbLine
 10
9.680225
 20
40.207050
 30
0.0
 11
11.353275
 21
41.587430
 31
0.0
  0
LINE
  5
135
100
AcDbEntity
  8
Layer_1
 62
7
100
AcDbLine
 10
11.353275
 20
41.587430
 30
0.0
 11
13.273543
 21
42.629690
 31
0.0
  0
LINE
  5
136
100
AcDbEntity
  8
Layer_1
 62
7
100
AcDbLine
 10
13.273543
 20
42.629690
 30
0.0
 11
15.395575
 21
43.288380
 31
0.0
  0
LINE
  5
137
100
AcDbEntity
  8
Layer_1
 62
7
100
AcDbLine
 10
15.395575
 20
43.288380
 30
0.0
 11
17.673921
 21
43.518040
 31
0.0
  0
LINE
  5
138
100
AcDbEntity
  8
Layer_1
 62
7
100
AcDbLine
 10
17.673921
 20
43.518040
 30
0.0
 11
32.969088
 21
43.518040
 31
0.0
  0
LINE
  5
139
100
AcDbEntity
  8
Layer_1
 62
7
100
AcDbLine
 10
32.969088
 20
43.518040
 30
0.0
 11
48.264254
 21
43.518040
 31
0.0
  0
LINE
  5
13a
100
AcDbEntity
  8
Layer_1
 62
7
100
AcDbLine
 10
48.264254
 20
43.518040
 30
0.0
 11
63.559421
 21
43.518040
 31
0.0
  0
LINE
  5
13b
100
AcDbEntity
  8
Layer_1
 62
7
100
AcDbLine
 10
63.559421
 20
43.518040
 30
0.0
 11
78.854587
 21
43.518040
 31
0.0
  0
LINE
  5
13c
100
AcDbEntity
  8
Layer_1
 62
7
100
AcDbLine
 10
78.854587
 20
43.518040
 30
0.0
 11
94.149753
 21
43.518040
 31
0.0
  0
LINE
  5
13d
100
AcDbEntity
  8
Layer_1
 62
7
100
AcDbLine
 10
94.149753
 20
43.518040
 30
0.0
 11
109.444920
 21
43.518040
 31
0.0
  0
LINE
  5
13e
100
AcDbEntity
  8
Layer_1
 62
7
100
AcDbLine
 10
109.444920
 20
43.518040
 30
0.0
 11
124.740090
 21
43.518040
 31
0.0
  0
LINE
  5
13f
100
AcDbEntity
  8
Layer_1
 62
7
100
AcDbLine
 10
124.740090
 20
43.518040
 30
0.0
 11
140.035250
 21
43.518040
 31
0.0
  0
LINE
  5
140
100
AcDbEntity
  8
Layer_1
 62
7
100
AcDbLine
 10
140.035250
 20
41.307110
 30
0.0
 11
124.740090
 21
41.307110
 31
0.0
  0
LINE
  5
141
100
AcDbEntity
  8
Layer_1
 62
7
100
AcDbLine
 10
124.740090
 20
41.307110
 30
0.0
 11
109.444920
 21
41.307110
 31
0.0
  0
LINE
  5
142
100
AcDbEntity
  8
Layer_1
 62
7
100
AcDbLine
 10
109.444920
 20
41.307110
 30
0.0
 11
94.149753
 21
41.307110
 31
0.0
  0
LINE
  5
143
100
AcDbEntity
  8
Layer_1
 62
7
100
AcDbLine
 10
94.149753
 20
41.307110
 30
0.0
 11
78.854587
 21
41.307110
 31
0.0
  0
LINE
  5
144
100
AcDbEntity
  8
Layer_1
 62
7
100
AcDbLine
 10
78.854587
 20
41.307110
 30
0.0
 11
63.559421
 21
41.307110
 31
0.0
  0
LINE
  5
145
100
AcDbEntity
  8
Layer_1
 62
7
100
AcDbLine
 10
63.559421
 20
41.307110
 30
0.0
 11
48.264254
 21
41.307110
 31
0.0
  0
LINE
  5
146
100
AcDbEntity
  8
Layer_1
 62
7
100
AcDbLine
 10
48.264254
 20
41.307110
 30
0.0
 11
32.969088
 21
41.307110
 31
0.0
  0
LINE
  5
147
100
AcDbEntity
  8
Layer_1
 62
7
100
AcDbLine
 10
32.969088
 20
41.307110
 30
0.0
 11
17.673921
 21
41.307110
 31
0.0
  0
LINE
  5
148
100
AcDbEntity
  8
Layer_1
 62
7
100
AcDbLine
 10
17.673921
 20
41.307110
 30
0.0
 11
15.831379
 21
41.123760
 31
0.0
  0
LINE
  5
149
100
AcDbEntity
  8
Layer_1
 62
7
100
AcDbLine
 10
15.831379
 20
41.123760
 30
0.0
 11
14.119773
 21
40.597290
 31
0.0
  0
LINE
  5
14a
100
AcDbEntity
  8
Layer_1
 62
7
100
AcDbLine
 10
14.119773
 20
40.597290
 30
0.0
 11
12.574466
 21
39.763070
 31
0.0
  0
LINE
  5
14b
100
AcDbEntity
  8
Layer_1
 62
7
100
AcDbLine
 10
12.574466
 20
39.763070
 30
0.0
 11
11.230824
 21
38.656450
 31
0.0
  0
LINE
  5
14c
100
AcDbEntity
  8
Layer_1
 62
7
100
AcDbLine
 10
11.230824
 20
38.656450
 30
0.0
 11
10.124209
 21
37.312810
 31
0.0
  0
LINE
  5
14d
100
AcDbEntity
  8
Layer_1
 62
7
100
AcDbLine
 10
10.124209
 20
37.312810
 30
0.0
 11
9.289986
 21
35.767500
 31
0.0
  0
LINE
  5
14e
100
AcDbEntity
  8
Layer_1
 62
7
100
AcDbLine
 10
9.289986
 20
35.767500
 30
0.0
 11
8.763519
 21
34.055900
 31
0.0
  0
LINE
  5
14f
100
AcDbEntity
  8
Layer_1
 62
7
100
AcDbLine
 10
8.763519
 20
34.055900
 30
0.0
 11
8.580171
 21
32.213360
 31
0.0
  0
LINE
  5
150
100
AcDbEntity
  8
Layer_1
 62
7
100
AcDbLine
 10
8.580171
 20
32.213360
 30
0.0
 11
8.580171
 21
30.415260
 31
0.0
  0
LINE
  5
151
100
AcDbEntity
  8
Layer_1
 62
7
100
AcDbLine
 10
8.580171
 20
30.415260
 30
0.0
 11
8.580171
 21
28.617160
 31
0.0
  0
LINE
  5
152
100
AcDbEntity
  8
Layer_1
 62
7
100
AcDbLine
 10
8.580171
 20
28.617160
 30
0.0
 11
8.580171
 21
26.819070
 31
0.0
  0
LINE
  5
153
100
AcDbEntity
  8
Layer_1
 62
7
100
AcDbLine
 10
8.580171
 20
26.819070
 30
0.0
 11
8.580171
 21
25.020970
 31
0.0
  0
LINE
  5
154
100
AcDbEntity
  8
Layer_1
 62
7
100
AcDbLine
 10
8.580171
 20
25.020970
 30
0.0
 11
8.580171
 21
23.222880
 31
0.0
  0
LINE
  5
155
100
AcDbEntity
  8
Layer_1
 62
7
100
AcDbLine
 10
8.580171
 20
23.222880
 30
0.0
 11
8.580171
 21
21.424780
 31
0.0
  0
LINE
  5
156
100
AcDbEntity
  8
Layer_1
 62
7
100
AcDbLine
 10
8.580171
 20
21.424780
 30
0.0
 11
8.580171
 21
19.626690
 31
0.0
  0
LINE
  5
157
100
AcDbEntity
  8
Layer_1
 62
7
100
AcDbLine
 10
8.580171
 20
19.626690
 30
0.0
 11
8.580171
 21
17.828590
 31
0.0
  0
LINE
  5
158
100
AcDbEntity
  8
Layer_1
 62
7
100
AcDbLine
 10
8.580171
 20
17.828590
 30
0.0
 11
8.763519
 21
15.986130
 31
0.0
  0
LINE
  5
159
100
AcDbEntity
  8
Layer_1
 62
7
100
AcDbLine
 10
8.763519
 20
15.986130
 30
0.0
 11
9.289986
 21
14.274750
 31
0.0
  0
LINE
  5
15a
100
AcDbEntity
  8
Layer_1
 62
7
100
AcDbLine
 10
9.289986
 20
14.274750
 30
0.0
 11
10.124209
 21
12.729750
 31
0.0
  0
LINE
  5
15b
100
AcDbEntity
  8
Layer_1
 62
7
100
AcDbLine
 10
10.124209
 20
12.729750
 30
0.0
 11
11.230824
 21
11.386470
 31
0.0
  0
LINE
  5
15c
100
AcDbEntity
  8
Layer_1
 62
7
100
AcDbLine
 10
11.230824
 20
11.386470
 30
0.0
 11
12.574466
 21
10.280210
 31
0.0
  0
LINE
  5
15d
100
AcDbEntity
  8
Layer_1
 62
7
100
AcDbLine
 10
12.574466
 20
10.280210
 30
0.0
 11
14.119773
 21
9.446300
 31
0.0
  0
LINE
  5
15e
100
AcDbEntity
  8
Layer_1
 62
7
100
AcDbLine
 10
14.119773
 20
9.446300
 30
0.0
 11
15.831379
 21
8.920060
 31
0.0
  0
LINE
  5
15f
100
AcDbEntity
  8
Layer_1
 62
7
100
AcDbLine
 10
15.831379
 20
8.920060
 30
0.0
 11
17.673921
 21
8.736790
 31
0.0
  0
LINE
  5
160
100
AcDbEntity
  8
Layer_1
 62
7
100
AcDbLine
 10
17.673921
 20
8.736790
 30
0.0
 11
32.969088
 21
8.736790
 31
0.0
  0
LINE
  5
161
100
AcDbEntity
  8
Layer_1
 62
7
100
AcDbLine
 10
32.969088
 20
8.736790
 30
0.0
 11
48.264254
 21
8.736790
 31
0.0
  0
LINE
  5
162
100
AcDbEntity
  8
Layer_1
 62
7
100
AcDbLine
 10
48.264254
 20
8.736790
 30
0.0
 11
63.559421
 21
8.736790
 31
0.0
  0
LINE
  5
163
100
AcDbEntity
  8
Layer_1
 62
7
100
AcDbLine
 10
63.559421
 20
8.736790
 30
0.0
 11
78.854587
 21
8.736790
 31
0.0
  0
LINE
  5
164
100
AcDbEntity
  8
Layer_1
 62
7
100
AcDbLine
 10
78.854587
 20
8.736790
 30
0.0
 11
94.149753
 21
8.736790
 31
0.0
  0
LINE
  5
165
100
AcDbEntity
  8
Layer_1
 62
7
100
AcDbLine
 10
94.149753
 20
8.736790
 30
0.0
 11
109.444920
 21
8.736790
 31
0.0
  0
LINE
  5
166
100
AcDbEntity
  8
Layer_1
 62
7
100
AcDbLine
 10
109.444920
 20
8.736790
 30
0.0
 11
124.740090
 21
8.736790
 31
0.0
  0
LINE
  5
167
100
AcDbEntity
  8
Layer_1
 62
7
100
AcDbLine
 10
124.740090
 20
8.736790
 30
0.0
 11
140.035250
 21
8.736790
 31
0.0
  0
LINE
  5
168
100
AcDbEntity
  8
Layer_1
 62
7
100
AcDbLine
 10
140.035250
 20
8.736790
 30
0.0
 11
141.877710
 21
8.920060
 31
0.0
  0
LINE
  5
169
100
AcDbEntity
  8
Layer_1
 62
7
100
AcDbLine
 10
141.877710
 20
8.920060
 30
0.0
 11
143.589090
 21
9.446300
 31
0.0
  0
LINE
  5
16a
100
AcDbEntity
  8
Layer_1
 62
7
100
AcDbLine
 10
143.589090
 20
9.446300
 30
0.0
 11
145.134090
 21
10.280210
 31
0.0
  0
LINE
  5
16b
100
AcDbEntity
  8
Layer_1
 62
7
100
AcDbLine
 10
145.134090
 20
10.280210
 30
0.0
 11
146.477370
 21
11.386470
 31
0.0
  0
LINE
  5
16c
100
AcDbEntity
  8
Layer_1
 62
7
100
AcDbLine
 10
146.477370
 20
11.386470
 30
0.0
 11
147.583620
 21
12.729750
 31
0.0
  0
LINE
  5
16d
100
AcDbEntity
  8
Layer_1
 62
7
100
AcDbLine
 10
147.583620
 20
12.729750
 30
0.0
 11
148.417530
 21
14.274750
 31
0.0
  0
LINE
  5
16e
100
AcDbEntity
  8
Layer_1
 62
7
100
AcDbLine
 10
148.417530
 20
14.274750
 30
0.0
 11
148.943780
 21
15.986130
 31
0.0
  0
LINE
  5
16f
100
AcDbEntity
  8
Layer_1
 62
7
100
AcDbLine
 10
148.943780
 20
15.986130
 30
0.0
 11
149.127040
 21
17.828590
 31
0.0
  0
LINE
  5
170
100
AcDbEntity
  8
Layer_1
 62
7
100
AcDbLine
 10
149.127040
 20
17.828590
 30
0.0
 11
149.127040
 21
19.626690
 31
0.0
  0
LINE
  5
171
100
AcDbEntity
  8
Layer_1
 62
7
100
AcDbLine
 10
149.127040
 20
19.626690
 30
0.0
 11
149.127040
 21
21.424780
 31
0.0
  0
LINE
  5
172
100
AcDbEntity
  8
Layer_1
 62
7
100
AcDbLine
 10
149.127040
 20
21.424780
 30
0.0
 11
149.127040
 21
23.222880
 31
0.0
  0
LINE
  5
173
100
AcDbEntity
  8
Layer_1
 62
7
100
AcDbLine
 10
149.127040
 20
23.222880
 30
0.0
 11
149.127040
 21
25.020970
 31
0.0
  0
LINE
  5
174
100
AcDbEntity
  8
Layer_1
 62
7
100
AcDbLine
 10
149.127040
 20
25.020970
 30
0.0
 11
149.127040
 21
26.819070
 31
0.0
  0
LINE
  5
175
100
AcDbEntity
  8
Layer_1
 62
7
100
AcDbLine
 10
149.127040
 20
26.819070
 30
0.0
 11
149.127040
 21
28.617160
 31
0.0
  0
LINE
  5
176
100
AcDbEntity
  8
Layer_1
 62
7
100
AcDbLine
 10
149.127040
 20
28.617160
 30
0.0
 11
149.127040
 21
30.415260
 31
0.0
  0
LINE
  5
177
100
AcDbEntity
  8
Layer_1
 62
7
100
AcDbLine
 10
149.127040
 20
30.415260
 30
0.0
 11
149.127040
 21
32.213360
 31
0.0
  0
LINE
  5
178
100
AcDbEntity
  8
Layer_1
 62
7
100
AcDbLine
 10
149.127040
 20
32.213360
 30
0.0
 11
148.943780
 21
34.055900
 31
0.0
  0
LINE
  5
179
100
AcDbEntity
  8
Layer_1
 62
7
100
AcDbLine
 10
148.943780
 20
34.055900
 30
0.0
 11
148.417530
 21
35.767500
 31
0.0
  0
LINE
  5
17a
100
AcDbEntity
  8
Layer_1
 62
7
100
AcDbLine
 10
148.417530
 20
35.767500
 30
0.0
 11
147.583620
 21
37.312810
 31
0.0
  0
LINE
  5
17b
100
AcDbEntity
  8
Layer_1
 62
7
100
AcDbLine
 10
147.583620
 20
37.312810
 30
0.0
 11
146.477370
 21
38.656450
 31
0.0
  0
LINE
  5
17c
100
AcDbEntity
  8
Layer_1
 62
7
100
AcDbLine
 10
146.477370
 20
38.656450
 30
0.0
 11
145.134090
 21
39.763070
 31
0.0
  0
LINE
  5
17d
100
AcDbEntity
  8
Layer_1
 62
7
100
AcDbLine
 10
145.134090
 20
39.763070
 30
0.0
 11
143.589090
 21
40.597290
 31
0.0
  0
LINE
  5
17e
100
AcDbEntity
  8
Layer_1
 62
7
100
AcDbLine
 10
143.589090
 20
40.597290
 30
0.0
 11
141.877710
 21
41.123760
 31
0.0
  0
LINE
  5
17f
100
AcDbEntity
  8
Layer_1
 62
7
100
AcDbLine
 10
141.877710
 20
41.123760
 30
0.0
 11
140.035250
 21
41.307110
 31
0.0
  0
ENDSEC
  0
SECTION
  2
OBJECTS
  0
DICTIONARY
  5
C
330
0
100
AcDbDictionary
  3
ACAD_GROUP
350
D
  3
ACAD_MLINESTYLE
350
17
  0
DICTIONARY
  5
D
330
C
100
AcDbDictionary
  0
DICTIONARY
  5
1A
330
C
100
AcDbDictionary
  0
DICTIONARY
  5
17
330
C
100
AcDbDictionary
  3
STANDARD
350
18
  0
DICTIONARY
  5
19
330
C
100
AcDbDictionary
  0
ENDSEC
  0
EOF
