<?xml version="1.0" encoding="UTF-8" standalone="no"?>
<!-- Created with Inkscape (http://www.inkscape.org/) -->

<svg
   width="210mm"
   height="297mm"
   viewBox="0 0 210 297"
   version="1.1"
   id="svg1"
   inkscape:version="1.4.2 (ebf0e94, 2025-05-08)"
   sodipodi:docname="stencil_5050.svg"
   xmlns:inkscape="http://www.inkscape.org/namespaces/inkscape"
   xmlns:sodipodi="http://sodipodi.sourceforge.net/DTD/sodipodi-0.dtd"
   xmlns="http://www.w3.org/2000/svg"
   xmlns:svg="http://www.w3.org/2000/svg">
  <sodipodi:namedview
     id="namedview1"
     pagecolor="#ffffff"
     bordercolor="#666666"
     borderopacity="1.0"
     inkscape:showpageshadow="2"
     inkscape:pageopacity="0.0"
     inkscape:pagecheckerboard="0"
     inkscape:deskcolor="#d1d1d1"
     inkscape:document-units="mm"
     inkscape:zoom="2.043487"
     inkscape:cx="300.95616"
     inkscape:cy="391.73237"
     inkscape:window-width="1863"
     inkscape:window-height="1016"
     inkscape:window-x="0"
     inkscape:window-y="0"
     inkscape:window-maximized="1"
     inkscape:current-layer="g120" />
  <defs
     id="defs1" />
  <g
     inkscape:label="Layer 1"
     inkscape:groupmode="layer"
     id="layer1">
    <g
       style="fill:#1a1a1a;fill-opacity:1;stroke:#000000;stroke-linecap:round;stroke-linejoin:round;stroke-opacity:1"
       id="g120"
       transform="translate(0.249166,39.61125)">
      <path
         style="fill:#1a1a1a;fill-opacity:1;fill-rule:evenodd;stroke:none"
         d="m 63.096,52.8143 -0.0196,0.0986 -0.0559,0.0836 -0.0836,0.0559 -0.0986,0.0196 H 62.0137 L 61.9151,53.0524 61.8315,52.9965 61.7756,52.9129 61.756,52.8143 v -1.2346 l 0.0196,-0.0986 0.0559,-0.0836 0.0836,-0.0559 0.0986,-0.0196 h 0.8246 l 0.0986,0.0196 0.0836,0.0559 0.0559,0.0836 0.0196,0.0986 z"
         id="path1" />
      <path
         style="fill:#1a1a1a;fill-opacity:1;fill-rule:evenodd;stroke:none"
         d="m 59.656,52.8143 -0.0196,0.0986 -0.0559,0.0836 -0.0836,0.0559 -0.0986,0.0196 H 58.5737 L 58.4751,53.0524 58.3915,52.9965 58.3356,52.9129 58.316,52.8143 v -1.2346 l 0.0196,-0.0986 0.0559,-0.0836 0.0836,-0.0559 0.0986,-0.0196 h 0.8246 l 0.0986,0.0196 0.0836,0.0559 0.0559,0.0836 0.0196,0.0986 z"
         id="path2-3" />
      <path
         style="fill:#1a1a1a;fill-opacity:1;fill-rule:evenodd;stroke:none"
         d="m 56.873,52.8143 -0.0196,0.0986 -0.0559,0.0836 -0.0836,0.0559 -0.0986,0.0196 H 55.7907 L 55.6921,53.0524 55.6085,52.9965 55.5526,52.9129 55.533,52.8143 v -1.2346 l 0.0196,-0.0986 0.0559,-0.0836 0.0836,-0.0559 0.0986,-0.0196 h 0.8246 l 0.0986,0.0196 0.0836,0.0559 0.0559,0.0836 0.0196,0.0986 z"
         id="path3-6" />
      <path
         style="fill:#1a1a1a;fill-opacity:1;fill-rule:evenodd;stroke:none"
         d="m 53.433,52.8143 -0.0196,0.0986 -0.0559,0.0836 -0.0836,0.0559 -0.0986,0.0196 H 52.3507 L 52.2521,53.0524 52.1685,52.9965 52.1126,52.9129 52.093,52.8143 v -1.2346 l 0.0196,-0.0986 0.0559,-0.0836 0.0836,-0.0559 0.0986,-0.0196 h 0.8246 l 0.0986,0.0196 0.0836,0.0559 0.0559,0.0836 0.0196,0.0986 z"
         id="path4-7" />
      <path
         style="fill:#1a1a1a;fill-opacity:1;fill-rule:evenodd;stroke:none"
         d="M 58.6917,45.131 58.5931,45.1114 58.5095,45.0555 58.4536,44.9719 58.434,44.8733 v -0.8246 l 0.0196,-0.0986 0.0559,-0.0836 0.0836,-0.0559 0.0986,-0.0196 h 1.2346 l 0.0986,0.0196 0.0836,0.0559 0.0559,0.0836 0.0196,0.0986 v 0.8246 l -0.0196,0.0986 -0.0559,0.0836 -0.0836,0.0559 -0.0986,0.0196 z"
         id="path5-5" />
      <path
         style="fill:#1a1a1a;fill-opacity:1;fill-rule:evenodd;stroke:none"
         d="M 58.6917,41.691 58.5931,41.6714 58.5095,41.6155 58.4536,41.5319 58.434,41.4333 v -0.8246 l 0.0196,-0.0986 0.0559,-0.0836 0.0836,-0.0559 0.0986,-0.0196 h 1.2346 l 0.0986,0.0196 0.0836,0.0559 0.0559,0.0836 0.0196,0.0986 v 0.8246 l -0.0196,0.0986 -0.0559,0.0836 -0.0836,0.0559 -0.0986,0.0196 z"
         id="path6-3" />
      <path
         style="fill:#1a1a1a;fill-opacity:1;fill-rule:evenodd;stroke:none"
         d="M 61.3587,45.131 61.2601,45.1114 61.1765,45.0555 61.1206,44.9719 61.101,44.8733 v -0.8246 l 0.0196,-0.0986 0.0559,-0.0836 0.0836,-0.0559 0.0986,-0.0196 h 1.2346 l 0.0986,0.0196 0.0836,0.0559 0.0559,0.0836 0.0196,0.0986 v 0.8246 l -0.0196,0.0986 -0.0559,0.0836 -0.0836,0.0559 -0.0986,0.0196 z"
         id="path7-5" />
      <path
         style="fill:#1a1a1a;fill-opacity:1;fill-rule:evenodd;stroke:none"
         d="M 61.3587,41.691 61.2601,41.6714 61.1765,41.6155 61.1206,41.5319 61.101,41.4333 v -0.8246 l 0.0196,-0.0986 0.0559,-0.0836 0.0836,-0.0559 0.0986,-0.0196 h 1.2346 l 0.0986,0.0196 0.0836,0.0559 0.0559,0.0836 0.0196,0.0986 v 0.8246 l -0.0196,0.0986 -0.0559,0.0836 -0.0836,0.0559 -0.0986,0.0196 z"
         id="path8-6" />
      <path
         style="fill:#1a1a1a;fill-opacity:1;fill-rule:evenodd;stroke:none"
         d="m 63.096,50.4013 -0.0196,0.0986 -0.0559,0.0836 -0.0836,0.0559 -0.0986,0.0196 H 62.0137 L 61.9151,50.6394 61.8315,50.5835 61.7756,50.4999 61.756,50.4013 v -1.2346 l 0.0196,-0.0986 0.0559,-0.0836 0.0836,-0.0559 0.0986,-0.0196 h 0.8246 l 0.0986,0.0196 0.0836,0.0559 0.0559,0.0836 0.0196,0.0986 z"
         id="path9-2" />
      <path
         style="fill:#1a1a1a;fill-opacity:1;fill-rule:evenodd;stroke:none"
         d="m 59.656,50.4013 -0.0196,0.0986 -0.0559,0.0836 -0.0836,0.0559 -0.0986,0.0196 H 58.5737 L 58.4751,50.6394 58.3915,50.5835 58.3356,50.4999 58.316,50.4013 v -1.2346 l 0.0196,-0.0986 0.0559,-0.0836 0.0836,-0.0559 0.0986,-0.0196 h 0.8246 l 0.0986,0.0196 0.0836,0.0559 0.0559,0.0836 0.0196,0.0986 z"
         id="path10-9" />
      <path
         style="fill:#1a1a1a;fill-opacity:1;fill-rule:evenodd;stroke:none"
         d="m 73.096,48.5127 -8e-4,0.0038 -0.0021,0.0032 -0.0033,0.0022 -0.0038,8e-4 h -1.9 l -0.0038,-8e-4 -0.0033,-0.0022 -0.0021,-0.0032 -8e-4,-0.0038 v -1.2 l 8e-4,-0.0039 0.0021,-0.0032 0.0033,-0.0022 0.0038,-7e-4 h 1.9 l 0.0038,7e-4 0.0033,0.0022 0.0021,0.0032 8e-4,0.0039 z"
         id="path11-1" />
      <path
         style="fill:#1a1a1a;fill-opacity:1;fill-rule:evenodd;stroke:none"
         d="m 73.096,45.3127 -8e-4,0.0038 -0.0021,0.0032 -0.0033,0.0022 -0.0038,8e-4 h -1.9 l -0.0038,-8e-4 -0.0033,-0.0022 -0.0021,-0.0032 -8e-4,-0.0038 v -1.2 l 8e-4,-0.0039 0.0021,-0.0032 0.0033,-0.0022 0.0038,-7e-4 h 1.9 l 0.0038,7e-4 0.0033,0.0022 0.0021,0.0032 8e-4,0.0039 z"
         id="path12-2" />
      <path
         style="fill:#1a1a1a;fill-opacity:1;fill-rule:evenodd;stroke:none"
         d="m 67.508,45.3127 -8e-4,0.0038 -0.0021,0.0032 -0.0033,0.0022 -0.0038,8e-4 h -1.9 l -0.0038,-8e-4 -0.0033,-0.0022 -0.0021,-0.0032 -8e-4,-0.0038 v -1.2 l 8e-4,-0.0039 0.0021,-0.0032 0.0033,-0.0022 0.0038,-7e-4 h 1.9 l 0.0038,7e-4 0.0033,0.0022 0.0021,0.0032 8e-4,0.0039 z"
         id="path13-7" />
      <path
         style="fill:#1a1a1a;fill-opacity:1;fill-rule:evenodd;stroke:none"
         d="m 67.508,48.5127 -8e-4,0.0038 -0.0021,0.0032 -0.0033,0.0022 -0.0038,8e-4 h -1.9 l -0.0038,-8e-4 -0.0033,-0.0022 -0.0021,-0.0032 -8e-4,-0.0038 v -1.2 l 8e-4,-0.0039 0.0021,-0.0032 0.0033,-0.0022 0.0038,-7e-4 h 1.9 l 0.0038,7e-4 0.0033,0.0022 0.0021,0.0032 8e-4,0.0039 z"
         id="path14-0" />
      <path
         style="fill:#1a1a1a;fill-opacity:1;fill-rule:evenodd;stroke:none"
         d="m 108.783,56.4713 -8e-4,0.0039 -0.002,0.0032 -0.003,0.0022 -0.004,7e-4 h -1.9 l -0.004,-7e-4 -0.003,-0.0022 -0.002,-0.0032 -8e-4,-0.0039 v -1.2 l 8e-4,-0.0038 0.002,-0.0032 0.003,-0.0022 0.004,-8e-4 h 1.9 l 0.004,8e-4 0.003,0.0022 0.002,0.0032 8e-4,0.0038 z"
         id="path15-9" />
      <path
         style="fill:#1a1a1a;fill-opacity:1;fill-rule:evenodd;stroke:none"
         d="m 108.783,53.2713 -8e-4,0.0039 -0.002,0.0032 -0.003,0.0022 -0.004,7e-4 h -1.9 l -0.004,-7e-4 -0.003,-0.0022 -0.002,-0.0032 -8e-4,-0.0039 v -1.2 l 8e-4,-0.0038 0.002,-0.0032 0.003,-0.0022 0.004,-8e-4 h 1.9 l 0.004,8e-4 0.003,0.0022 0.002,0.0032 8e-4,0.0038 z"
         id="path16-3" />
      <path
         style="fill:#1a1a1a;fill-opacity:1;fill-rule:evenodd;stroke:none"
         d="m 103.195,53.2713 -8e-4,0.0039 -0.002,0.0032 -0.003,0.0022 -0.004,7e-4 h -1.9 l -0.004,-7e-4 -0.003,-0.0022 -0.002,-0.0032 -8e-4,-0.0039 v -1.2 l 8e-4,-0.0038 0.002,-0.0032 0.003,-0.0022 0.004,-8e-4 h 1.9 l 0.004,8e-4 0.003,0.0022 0.002,0.0032 8e-4,0.0038 z"
         id="path17-6" />
      <path
         style="fill:#1a1a1a;fill-opacity:1;fill-rule:evenodd;stroke:none"
         d="m 103.195,56.4713 -8e-4,0.0039 -0.002,0.0032 -0.003,0.0022 -0.004,7e-4 h -1.9 l -0.004,-7e-4 -0.003,-0.0022 -0.002,-0.0032 -8e-4,-0.0039 v -1.2 l 8e-4,-0.0038 0.002,-0.0032 0.003,-0.0022 0.004,-8e-4 h 1.9 l 0.004,8e-4 0.003,0.0022 0.002,0.0032 8e-4,0.0038 z"
         id="path18-0" />
      <path
         style="fill:#1a1a1a;fill-opacity:1;fill-rule:evenodd;stroke:none"
         d="m 82.0177,56.4713 -7e-4,0.0039 -0.0022,0.0032 -0.0032,0.0022 -0.0038,7e-4 h -1.9001 l -0.0038,-7e-4 -0.0032,-0.0022 -0.0022,-0.0032 -8e-4,-0.0039 v -1.2 l 8e-4,-0.0038 0.0022,-0.0032 0.0032,-0.0022 0.0038,-8e-4 h 1.9001 l 0.0038,8e-4 0.0032,0.0022 0.0022,0.0032 7e-4,0.0038 z"
         id="path19-6" />
      <path
         style="fill:#1a1a1a;fill-opacity:1;fill-rule:evenodd;stroke:none"
         d="m 82.0177,53.2713 -7e-4,0.0039 -0.0022,0.0032 -0.0032,0.0022 -0.0038,7e-4 h -1.9001 l -0.0038,-7e-4 -0.0032,-0.0022 -0.0022,-0.0032 -8e-4,-0.0039 v -1.2 l 8e-4,-0.0038 0.0022,-0.0032 0.0032,-0.0022 0.0038,-8e-4 h 1.9001 l 0.0038,8e-4 0.0032,0.0022 0.0022,0.0032 7e-4,0.0038 z"
         id="path20-2" />
      <path
         style="fill:#1a1a1a;fill-opacity:1;fill-rule:evenodd;stroke:none"
         d="m 76.4297,53.2713 -7e-4,0.0039 -0.0022,0.0032 -0.0032,0.0022 -0.0039,7e-4 h -1.8999 l -0.0039,-7e-4 -0.0032,-0.0022 -0.0022,-0.0032 -8e-4,-0.0039 v -1.2 l 8e-4,-0.0038 0.0022,-0.0032 0.0032,-0.0022 0.0039,-8e-4 h 1.8999 l 0.0039,8e-4 0.0032,0.0022 0.0022,0.0032 7e-4,0.0038 z"
         id="path21-6" />
      <path
         style="fill:#1a1a1a;fill-opacity:1;fill-rule:evenodd;stroke:none"
         d="m 76.4297,56.4713 -7e-4,0.0039 -0.0022,0.0032 -0.0032,0.0022 -0.0039,7e-4 h -1.8999 l -0.0039,-7e-4 -0.0032,-0.0022 -0.0022,-0.0032 -8e-4,-0.0039 v -1.2 l 8e-4,-0.0038 0.0022,-0.0032 0.0032,-0.0022 0.0039,-8e-4 h 1.8999 l 0.0039,8e-4 0.0032,0.0022 0.0022,0.0032 7e-4,0.0038 z"
         id="path22-1" />
      <path
         style="fill:#1a1a1a;fill-opacity:1;fill-rule:evenodd;stroke:none"
         d="m 90.9395,56.4713 -8e-4,0.0039 -0.0021,0.0032 -0.0033,0.0022 -0.0038,7e-4 h -1.9 l -0.0038,-7e-4 -0.0033,-0.0022 -0.0021,-0.0032 -8e-4,-0.0039 v -1.2 l 8e-4,-0.0038 0.0021,-0.0032 0.0033,-0.0022 0.0038,-8e-4 h 1.9 l 0.0038,8e-4 0.0033,0.0022 0.0021,0.0032 8e-4,0.0038 z"
         id="path23-8" />
      <path
         style="fill:#1a1a1a;fill-opacity:1;fill-rule:evenodd;stroke:none"
         d="m 90.9395,53.2713 -8e-4,0.0039 -0.0021,0.0032 -0.0033,0.0022 -0.0038,7e-4 h -1.9 l -0.0038,-7e-4 -0.0033,-0.0022 -0.0021,-0.0032 -8e-4,-0.0039 v -1.2 l 8e-4,-0.0038 0.0021,-0.0032 0.0033,-0.0022 0.0038,-8e-4 h 1.9 l 0.0038,8e-4 0.0033,0.0022 0.0021,0.0032 8e-4,0.0038 z"
         id="path24-7" />
      <path
         style="fill:#1a1a1a;fill-opacity:1;fill-rule:evenodd;stroke:none"
         d="m 85.3515,53.2713 -8e-4,0.0039 -0.0021,0.0032 -0.0033,0.0022 -0.0038,7e-4 h -1.9 l -0.0038,-7e-4 -0.0033,-0.0022 -0.0021,-0.0032 -8e-4,-0.0039 v -1.2 l 8e-4,-0.0038 0.0021,-0.0032 0.0033,-0.0022 0.0038,-8e-4 h 1.9 l 0.0038,8e-4 0.0033,0.0022 0.0021,0.0032 8e-4,0.0038 z"
         id="path25-9" />
      <path
         style="fill:#1a1a1a;fill-opacity:1;fill-rule:evenodd;stroke:none"
         d="m 85.3515,56.4713 -8e-4,0.0039 -0.0021,0.0032 -0.0033,0.0022 -0.0038,7e-4 h -1.9 l -0.0038,-7e-4 -0.0033,-0.0022 -0.0021,-0.0032 -8e-4,-0.0039 v -1.2 l 8e-4,-0.0038 0.0021,-0.0032 0.0033,-0.0022 0.0038,-8e-4 h 1.9 l 0.0038,8e-4 0.0033,0.0022 0.0021,0.0032 8e-4,0.0038 z"
         id="path26-2" />
      <path
         style="fill:#1a1a1a;fill-opacity:1;fill-rule:evenodd;stroke:none"
         d="m 99.8612,56.4713 -7e-4,0.0039 -0.0022,0.0032 -0.0032,0.0022 -0.0039,7e-4 h -1.8999 l -0.0039,-7e-4 -0.0032,-0.0022 -0.0022,-0.0032 -8e-4,-0.0039 v -1.2 l 8e-4,-0.0038 0.0022,-0.0032 0.0032,-0.0022 0.0039,-8e-4 h 1.8999 l 0.0039,8e-4 0.0032,0.0022 0.0022,0.0032 7e-4,0.0038 z"
         id="path27-0" />
      <path
         style="fill:#1a1a1a;fill-opacity:1;fill-rule:evenodd;stroke:none"
         d="m 99.8612,53.2713 -7e-4,0.0039 -0.0022,0.0032 -0.0032,0.0022 -0.0039,7e-4 h -1.8999 l -0.0039,-7e-4 -0.0032,-0.0022 -0.0022,-0.0032 -8e-4,-0.0039 v -1.2 l 8e-4,-0.0038 0.0022,-0.0032 0.0032,-0.0022 0.0039,-8e-4 h 1.8999 l 0.0039,8e-4 0.0032,0.0022 0.0022,0.0032 7e-4,0.0038 z"
         id="path28-2" />
      <path
         style="fill:#1a1a1a;fill-opacity:1;fill-rule:evenodd;stroke:none"
         d="m 94.2732,53.2713 -7e-4,0.0039 -0.0022,0.0032 -0.0032,0.0022 -0.0039,7e-4 h -1.9 l -0.0038,-7e-4 -0.0032,-0.0022 -0.0022,-0.0032 -7e-4,-0.0039 v -1.2 l 7e-4,-0.0038 0.0022,-0.0032 0.0032,-0.0022 0.0038,-8e-4 h 1.9 l 0.0039,8e-4 0.0032,0.0022 0.0022,0.0032 7e-4,0.0038 z"
         id="path29-3" />
      <path
         style="fill:#1a1a1a;fill-opacity:1;fill-rule:evenodd;stroke:none"
         d="m 94.2732,56.4713 -7e-4,0.0039 -0.0022,0.0032 -0.0032,0.0022 -0.0039,7e-4 h -1.9 l -0.0038,-7e-4 -0.0032,-0.0022 -0.0022,-0.0032 -7e-4,-0.0039 v -1.2 l 7e-4,-0.0038 0.0022,-0.0032 0.0032,-0.0022 0.0038,-8e-4 h 1.9 l 0.0039,8e-4 0.0032,0.0022 0.0022,0.0032 7e-4,0.0038 z"
         id="path30-7" />
      <path
         style="fill:#1a1a1a;fill-opacity:1;fill-rule:evenodd;stroke:none"
         d="m 73.096,56.4713 -8e-4,0.0039 -0.0021,0.0032 -0.0033,0.0022 -0.0038,7e-4 h -1.9 l -0.0038,-7e-4 -0.0033,-0.0022 -0.0021,-0.0032 -8e-4,-0.0039 v -1.2 l 8e-4,-0.0038 0.0021,-0.0032 0.0033,-0.0022 0.0038,-8e-4 h 1.9 l 0.0038,8e-4 0.0033,0.0022 0.0021,0.0032 8e-4,0.0038 z"
         id="path31-5" />
      <path
         style="fill:#1a1a1a;fill-opacity:1;fill-rule:evenodd;stroke:none"
         d="m 73.096,53.2713 -8e-4,0.0039 -0.0021,0.0032 -0.0033,0.0022 -0.0038,7e-4 h -1.9 l -0.0038,-7e-4 -0.0033,-0.0022 -0.0021,-0.0032 -8e-4,-0.0039 v -1.2 l 8e-4,-0.0038 0.0021,-0.0032 0.0033,-0.0022 0.0038,-8e-4 h 1.9 l 0.0038,8e-4 0.0033,0.0022 0.0021,0.0032 8e-4,0.0038 z"
         id="path32-9" />
      <path
         style="fill:#1a1a1a;fill-opacity:1;fill-rule:evenodd;stroke:none"
         d="m 67.508,53.2713 -8e-4,0.0039 -0.0021,0.0032 -0.0033,0.0022 -0.0038,7e-4 h -1.9 l -0.0038,-7e-4 -0.0033,-0.0022 -0.0021,-0.0032 -8e-4,-0.0039 v -1.2 l 8e-4,-0.0038 0.0021,-0.0032 0.0033,-0.0022 0.0038,-8e-4 h 1.9 l 0.0038,8e-4 0.0033,0.0022 0.0021,0.0032 8e-4,0.0038 z"
         id="path33-2" />
      <path
         style="fill:#1a1a1a;fill-opacity:1;fill-rule:evenodd;stroke:none"
         d="m 67.508,56.4713 -8e-4,0.0039 -0.0021,0.0032 -0.0033,0.0022 -0.0038,7e-4 h -1.9 l -0.0038,-7e-4 -0.0033,-0.0022 -0.0021,-0.0032 -8e-4,-0.0039 v -1.2 l 8e-4,-0.0038 0.0021,-0.0032 0.0033,-0.0022 0.0038,-8e-4 h 1.9 l 0.0038,8e-4 0.0033,0.0022 0.0021,0.0032 8e-4,0.0038 z"
         id="path34-2" />
      <path
         style="fill:#1a1a1a;fill-opacity:1;fill-rule:evenodd;stroke:none"
         d="m 108.783,48.5127 -8e-4,0.0038 -0.002,0.0032 -0.003,0.0022 -0.004,8e-4 h -1.9 l -0.004,-8e-4 -0.003,-0.0022 -0.002,-0.0032 -8e-4,-0.0038 v -1.2 l 8e-4,-0.0039 0.002,-0.0032 0.003,-0.0022 0.004,-7e-4 h 1.9 l 0.004,7e-4 0.003,0.0022 0.002,0.0032 8e-4,0.0039 z"
         id="path35-8" />
      <path
         style="fill:#1a1a1a;fill-opacity:1;fill-rule:evenodd;stroke:none"
         d="m 108.783,45.3127 -8e-4,0.0038 -0.002,0.0032 -0.003,0.0022 -0.004,8e-4 h -1.9 l -0.004,-8e-4 -0.003,-0.0022 -0.002,-0.0032 -8e-4,-0.0038 v -1.2 l 8e-4,-0.0039 0.002,-0.0032 0.003,-0.0022 0.004,-7e-4 h 1.9 l 0.004,7e-4 0.003,0.0022 0.002,0.0032 8e-4,0.0039 z"
         id="path36-9" />
      <path
         style="fill:#1a1a1a;fill-opacity:1;fill-rule:evenodd;stroke:none"
         d="m 103.195,45.3127 -8e-4,0.0038 -0.002,0.0032 -0.003,0.0022 -0.004,8e-4 h -1.9 l -0.004,-8e-4 -0.003,-0.0022 -0.002,-0.0032 -8e-4,-0.0038 v -1.2 l 8e-4,-0.0039 0.002,-0.0032 0.003,-0.0022 0.004,-7e-4 h 1.9 l 0.004,7e-4 0.003,0.0022 0.002,0.0032 8e-4,0.0039 z"
         id="path37-7" />
      <path
         style="fill:#1a1a1a;fill-opacity:1;fill-rule:evenodd;stroke:none"
         d="m 103.195,48.5127 -8e-4,0.0038 -0.002,0.0032 -0.003,0.0022 -0.004,8e-4 h -1.9 l -0.004,-8e-4 -0.003,-0.0022 -0.002,-0.0032 -8e-4,-0.0038 v -1.2 l 8e-4,-0.0039 0.002,-0.0032 0.003,-0.0022 0.004,-7e-4 h 1.9 l 0.004,7e-4 0.003,0.0022 0.002,0.0032 8e-4,0.0039 z"
         id="path38-3" />
      <path
         style="fill:#1a1a1a;fill-opacity:1;fill-rule:evenodd;stroke:none"
         d="m 90.9395,48.5127 -8e-4,0.0038 -0.0021,0.0032 -0.0033,0.0022 -0.0038,8e-4 h -1.9 l -0.0038,-8e-4 -0.0033,-0.0022 -0.0021,-0.0032 -8e-4,-0.0038 v -1.2 l 8e-4,-0.0039 0.0021,-0.0032 0.0033,-0.0022 0.0038,-7e-4 h 1.9 l 0.0038,7e-4 0.0033,0.0022 0.0021,0.0032 8e-4,0.0039 z"
         id="path39-6" />
      <path
         style="fill:#1a1a1a;fill-opacity:1;fill-rule:evenodd;stroke:none"
         d="m 90.9395,45.3127 -8e-4,0.0038 -0.0021,0.0032 -0.0033,0.0022 -0.0038,8e-4 h -1.9 l -0.0038,-8e-4 -0.0033,-0.0022 -0.0021,-0.0032 -8e-4,-0.0038 v -1.2 l 8e-4,-0.0039 0.0021,-0.0032 0.0033,-0.0022 0.0038,-7e-4 h 1.9 l 0.0038,7e-4 0.0033,0.0022 0.0021,0.0032 8e-4,0.0039 z"
         id="path40-1" />
      <path
         style="fill:#1a1a1a;fill-opacity:1;fill-rule:evenodd;stroke:none"
         d="m 85.3515,45.3127 -8e-4,0.0038 -0.0021,0.0032 -0.0033,0.0022 -0.0038,8e-4 h -1.9 l -0.0038,-8e-4 -0.0033,-0.0022 -0.0021,-0.0032 -8e-4,-0.0038 v -1.2 l 8e-4,-0.0039 0.0021,-0.0032 0.0033,-0.0022 0.0038,-7e-4 h 1.9 l 0.0038,7e-4 0.0033,0.0022 0.0021,0.0032 8e-4,0.0039 z"
         id="path41-2" />
      <path
         style="fill:#1a1a1a;fill-opacity:1;fill-rule:evenodd;stroke:none"
         d="m 85.3515,48.5127 -8e-4,0.0038 -0.0021,0.0032 -0.0033,0.0022 -0.0038,8e-4 h -1.9 l -0.0038,-8e-4 -0.0033,-0.0022 -0.0021,-0.0032 -8e-4,-0.0038 v -1.2 l 8e-4,-0.0039 0.0021,-0.0032 0.0033,-0.0022 0.0038,-7e-4 h 1.9 l 0.0038,7e-4 0.0033,0.0022 0.0021,0.0032 8e-4,0.0039 z"
         id="path42-9" />
      <path
         style="fill:#1a1a1a;fill-opacity:1;fill-rule:evenodd;stroke:none"
         d="m 82.0177,48.5127 -7e-4,0.0038 -0.0022,0.0032 -0.0032,0.0022 -0.0038,8e-4 h -1.9001 l -0.0038,-8e-4 -0.0032,-0.0022 -0.0022,-0.0032 -8e-4,-0.0038 v -1.2 l 8e-4,-0.0039 0.0022,-0.0032 0.0032,-0.0022 0.0038,-7e-4 h 1.9001 l 0.0038,7e-4 0.0032,0.0022 0.0022,0.0032 7e-4,0.0039 z"
         id="path43-3" />
      <path
         style="fill:#1a1a1a;fill-opacity:1;fill-rule:evenodd;stroke:none"
         d="m 82.0177,45.3127 -7e-4,0.0038 -0.0022,0.0032 -0.0032,0.0022 -0.0038,8e-4 h -1.9001 l -0.0038,-8e-4 -0.0032,-0.0022 -0.0022,-0.0032 -8e-4,-0.0038 v -1.2 l 8e-4,-0.0039 0.0022,-0.0032 0.0032,-0.0022 0.0038,-7e-4 h 1.9001 l 0.0038,7e-4 0.0032,0.0022 0.0022,0.0032 7e-4,0.0039 z"
         id="path44-1" />
      <path
         style="fill:#1a1a1a;fill-opacity:1;fill-rule:evenodd;stroke:none"
         d="m 76.4297,45.3127 -7e-4,0.0038 -0.0022,0.0032 -0.0032,0.0022 -0.0039,8e-4 h -1.8999 l -0.0039,-8e-4 -0.0032,-0.0022 -0.0022,-0.0032 -8e-4,-0.0038 v -1.2 l 8e-4,-0.0039 0.0022,-0.0032 0.0032,-0.0022 0.0039,-7e-4 h 1.8999 l 0.0039,7e-4 0.0032,0.0022 0.0022,0.0032 7e-4,0.0039 z"
         id="path45-9" />
      <path
         style="fill:#1a1a1a;fill-opacity:1;fill-rule:evenodd;stroke:none"
         d="m 76.4297,48.5127 -7e-4,0.0038 -0.0022,0.0032 -0.0032,0.0022 -0.0039,8e-4 h -1.8999 l -0.0039,-8e-4 -0.0032,-0.0022 -0.0022,-0.0032 -8e-4,-0.0038 v -1.2 l 8e-4,-0.0039 0.0022,-0.0032 0.0032,-0.0022 0.0039,-7e-4 h 1.8999 l 0.0039,7e-4 0.0032,0.0022 0.0022,0.0032 7e-4,0.0039 z"
         id="path46-4" />
      <path
         style="fill:#1a1a1a;fill-opacity:1;fill-rule:evenodd;stroke:none"
         d="m 99.8612,48.5127 -7e-4,0.0038 -0.0022,0.0032 -0.0032,0.0022 -0.0039,8e-4 h -1.8999 l -0.0039,-8e-4 -0.0032,-0.0022 -0.0022,-0.0032 -8e-4,-0.0038 v -1.2 l 8e-4,-0.0039 0.0022,-0.0032 0.0032,-0.0022 0.0039,-7e-4 h 1.8999 l 0.0039,7e-4 0.0032,0.0022 0.0022,0.0032 7e-4,0.0039 z"
         id="path47-7" />
      <path
         style="fill:#1a1a1a;fill-opacity:1;fill-rule:evenodd;stroke:none"
         d="m 99.8612,45.3127 -7e-4,0.0038 -0.0022,0.0032 -0.0032,0.0022 -0.0039,8e-4 h -1.8999 l -0.0039,-8e-4 -0.0032,-0.0022 -0.0022,-0.0032 -8e-4,-0.0038 v -1.2 l 8e-4,-0.0039 0.0022,-0.0032 0.0032,-0.0022 0.0039,-7e-4 h 1.8999 l 0.0039,7e-4 0.0032,0.0022 0.0022,0.0032 7e-4,0.0039 z"
         id="path48-8" />
      <path
         style="fill:#1a1a1a;fill-opacity:1;fill-rule:evenodd;stroke:none"
         d="m 94.2732,45.3127 -7e-4,0.0038 -0.0022,0.0032 -0.0032,0.0022 -0.0039,8e-4 h -1.9 l -0.0038,-8e-4 -0.0032,-0.0022 -0.0022,-0.0032 -7e-4,-0.0038 v -1.2 l 7e-4,-0.0039 0.0022,-0.0032 0.0032,-0.0022 0.0038,-7e-4 h 1.9 l 0.0039,7e-4 0.0032,0.0022 0.0022,0.0032 7e-4,0.0039 z"
         id="path49-4" />
      <path
         style="fill:#1a1a1a;fill-opacity:1;fill-rule:evenodd;stroke:none"
         d="m 94.2732,48.5127 -7e-4,0.0038 -0.0022,0.0032 -0.0032,0.0022 -0.0039,8e-4 h -1.9 l -0.0038,-8e-4 -0.0032,-0.0022 -0.0022,-0.0032 -7e-4,-0.0038 v -1.2 l 7e-4,-0.0039 0.0022,-0.0032 0.0032,-0.0022 0.0038,-7e-4 h 1.9 l 0.0039,7e-4 0.0032,0.0022 0.0022,0.0032 7e-4,0.0039 z"
         id="path50-5" />
      <path
         style="fill:#1a1a1a;fill-opacity:1;fill-rule:evenodd;stroke:none"
         d="m 73.096,64.43 -8e-4,0.0038 -0.0021,0.0033 -0.0033,0.0021 -0.0038,8e-4 h -1.9 l -0.0038,-8e-4 -0.0033,-0.0021 -0.0021,-0.0033 -8e-4,-0.0038 v -1.2 l 8e-4,-0.0038 0.0021,-0.0033 0.0033,-0.0021 0.0038,-8e-4 h 1.9 l 0.0038,8e-4 0.0033,0.0021 0.0021,0.0033 8e-4,0.0038 z"
         id="path51-0" />
      <path
         style="fill:#1a1a1a;fill-opacity:1;fill-rule:evenodd;stroke:none"
         d="m 73.096,61.23 -8e-4,0.0038 -0.0021,0.0033 -0.0033,0.0021 -0.0038,8e-4 h -1.9 l -0.0038,-8e-4 -0.0033,-0.0021 -0.0021,-0.0033 -8e-4,-0.0038 v -1.2 l 8e-4,-0.0038 0.0021,-0.0033 0.0033,-0.0021 0.0038,-8e-4 h 1.9 l 0.0038,8e-4 0.0033,0.0021 0.0021,0.0033 8e-4,0.0038 z"
         id="path52-3" />
      <path
         style="fill:#1a1a1a;fill-opacity:1;fill-rule:evenodd;stroke:none"
         d="m 67.508,61.23 -8e-4,0.0038 -0.0021,0.0033 -0.0033,0.0021 -0.0038,8e-4 h -1.9 l -0.0038,-8e-4 -0.0033,-0.0021 -0.0021,-0.0033 -8e-4,-0.0038 v -1.2 l 8e-4,-0.0038 0.0021,-0.0033 0.0033,-0.0021 0.0038,-8e-4 h 1.9 l 0.0038,8e-4 0.0033,0.0021 0.0021,0.0033 8e-4,0.0038 z"
         id="path53-6" />
      <path
         style="fill:#1a1a1a;fill-opacity:1;fill-rule:evenodd;stroke:none"
         d="m 67.508,64.43 -8e-4,0.0038 -0.0021,0.0033 -0.0033,0.0021 -0.0038,8e-4 h -1.9 l -0.0038,-8e-4 -0.0033,-0.0021 -0.0021,-0.0033 -8e-4,-0.0038 v -1.2 l 8e-4,-0.0038 0.0021,-0.0033 0.0033,-0.0021 0.0038,-8e-4 h 1.9 l 0.0038,8e-4 0.0033,0.0021 0.0021,0.0033 8e-4,0.0038 z"
         id="path54-1" />
      <path
         style="fill:#1a1a1a;fill-opacity:1;fill-rule:evenodd;stroke:none"
         d="m 73.096,40.554 -8e-4,0.0038 -0.0021,0.0033 -0.0033,0.0021 -0.0038,8e-4 h -1.9 l -0.0038,-8e-4 -0.0033,-0.0021 -0.0021,-0.0033 -8e-4,-0.0038 v -1.2 l 8e-4,-0.0038 0.0021,-0.0033 0.0033,-0.0021 0.0038,-8e-4 h 1.9 l 0.0038,8e-4 0.0033,0.0021 0.0021,0.0033 8e-4,0.0038 z"
         id="path55-0" />
      <path
         style="fill:#1a1a1a;fill-opacity:1;fill-rule:evenodd;stroke:none"
         d="m 73.096,37.354 -8e-4,0.0038 -0.0021,0.0033 -0.0033,0.0021 -0.0038,8e-4 h -1.9 l -0.0038,-8e-4 -0.0033,-0.0021 -0.0021,-0.0033 -8e-4,-0.0038 v -1.2 l 8e-4,-0.0038 0.0021,-0.0033 0.0033,-0.0021 0.0038,-8e-4 h 1.9 l 0.0038,8e-4 0.0033,0.0021 0.0021,0.0033 8e-4,0.0038 z"
         id="path56-6" />
      <path
         style="fill:#1a1a1a;fill-opacity:1;fill-rule:evenodd;stroke:none"
         d="m 67.508,37.354 -8e-4,0.0038 -0.0021,0.0033 -0.0033,0.0021 -0.0038,8e-4 h -1.9 l -0.0038,-8e-4 -0.0033,-0.0021 -0.0021,-0.0033 -8e-4,-0.0038 v -1.2 l 8e-4,-0.0038 0.0021,-0.0033 0.0033,-0.0021 0.0038,-8e-4 h 1.9 l 0.0038,8e-4 0.0033,0.0021 0.0021,0.0033 8e-4,0.0038 z"
         id="path57-3" />
      <path
         style="fill:#1a1a1a;fill-opacity:1;fill-rule:evenodd;stroke:none"
         d="m 67.508,40.554 -8e-4,0.0038 -0.0021,0.0033 -0.0033,0.0021 -0.0038,8e-4 h -1.9 l -0.0038,-8e-4 -0.0033,-0.0021 -0.0021,-0.0033 -8e-4,-0.0038 v -1.2 l 8e-4,-0.0038 0.0021,-0.0033 0.0033,-0.0021 0.0038,-8e-4 h 1.9 l 0.0038,8e-4 0.0033,0.0021 0.0021,0.0033 8e-4,0.0038 z"
         id="path58-2" />
      <path
         style="fill:#1a1a1a;fill-opacity:1;fill-rule:evenodd;stroke:none"
         d="m 108.783,40.554 -8e-4,0.0038 -0.002,0.0033 -0.003,0.0021 -0.004,8e-4 h -1.9 l -0.004,-8e-4 -0.003,-0.0021 -0.002,-0.0033 -8e-4,-0.0038 v -1.2 l 8e-4,-0.0038 0.002,-0.0033 0.003,-0.0021 0.004,-8e-4 h 1.9 l 0.004,8e-4 0.003,0.0021 0.002,0.0033 8e-4,0.0038 z"
         id="path59-0" />
      <path
         style="fill:#1a1a1a;fill-opacity:1;fill-rule:evenodd;stroke:none"
         d="m 108.783,37.354 -8e-4,0.0038 -0.002,0.0033 -0.003,0.0021 -0.004,8e-4 h -1.9 l -0.004,-8e-4 -0.003,-0.0021 -0.002,-0.0033 -8e-4,-0.0038 v -1.2 l 8e-4,-0.0038 0.002,-0.0033 0.003,-0.0021 0.004,-8e-4 h 1.9 l 0.004,8e-4 0.003,0.0021 0.002,0.0033 8e-4,0.0038 z"
         id="path60-6" />
      <path
         style="fill:#1a1a1a;fill-opacity:1;fill-rule:evenodd;stroke:none"
         d="m 103.195,37.354 -8e-4,0.0038 -0.002,0.0033 -0.003,0.0021 -0.004,8e-4 h -1.9 l -0.004,-8e-4 -0.003,-0.0021 -0.002,-0.0033 -8e-4,-0.0038 v -1.2 l 8e-4,-0.0038 0.002,-0.0033 0.003,-0.0021 0.004,-8e-4 h 1.9 l 0.004,8e-4 0.003,0.0021 0.002,0.0033 8e-4,0.0038 z"
         id="path61-1" />
      <path
         style="fill:#1a1a1a;fill-opacity:1;fill-rule:evenodd;stroke:none"
         d="m 103.195,40.554 -8e-4,0.0038 -0.002,0.0033 -0.003,0.0021 -0.004,8e-4 h -1.9 l -0.004,-8e-4 -0.003,-0.0021 -0.002,-0.0033 -8e-4,-0.0038 v -1.2 l 8e-4,-0.0038 0.002,-0.0033 0.003,-0.0021 0.004,-8e-4 h 1.9 l 0.004,8e-4 0.003,0.0021 0.002,0.0033 8e-4,0.0038 z"
         id="path62-5" />
      <path
         style="fill:#1a1a1a;fill-opacity:1;fill-rule:evenodd;stroke:none"
         d="m 108.783,64.43 -8e-4,0.0038 -0.002,0.0033 -0.003,0.0021 -0.004,8e-4 h -1.9 l -0.004,-8e-4 -0.003,-0.0021 -0.002,-0.0033 -8e-4,-0.0038 v -1.2 l 8e-4,-0.0038 0.002,-0.0033 0.003,-0.0021 0.004,-8e-4 h 1.9 l 0.004,8e-4 0.003,0.0021 0.002,0.0033 8e-4,0.0038 z"
         id="path63-5" />
      <path
         style="fill:#1a1a1a;fill-opacity:1;fill-rule:evenodd;stroke:none"
         d="m 108.783,61.23 -8e-4,0.0038 -0.002,0.0033 -0.003,0.0021 -0.004,8e-4 h -1.9 l -0.004,-8e-4 -0.003,-0.0021 -0.002,-0.0033 -8e-4,-0.0038 v -1.2 l 8e-4,-0.0038 0.002,-0.0033 0.003,-0.0021 0.004,-8e-4 h 1.9 l 0.004,8e-4 0.003,0.0021 0.002,0.0033 8e-4,0.0038 z"
         id="path64-4" />
      <path
         style="fill:#1a1a1a;fill-opacity:1;fill-rule:evenodd;stroke:none"
         d="m 103.195,61.23 -8e-4,0.0038 -0.002,0.0033 -0.003,0.0021 -0.004,8e-4 h -1.9 l -0.004,-8e-4 -0.003,-0.0021 -0.002,-0.0033 -8e-4,-0.0038 v -1.2 l 8e-4,-0.0038 0.002,-0.0033 0.003,-0.0021 0.004,-8e-4 h 1.9 l 0.004,8e-4 0.003,0.0021 0.002,0.0033 8e-4,0.0038 z"
         id="path65-7" />
      <path
         style="fill:#1a1a1a;fill-opacity:1;fill-rule:evenodd;stroke:none"
         d="m 103.195,64.43 -8e-4,0.0038 -0.002,0.0033 -0.003,0.0021 -0.004,8e-4 h -1.9 l -0.004,-8e-4 -0.003,-0.0021 -0.002,-0.0033 -8e-4,-0.0038 v -1.2 l 8e-4,-0.0038 0.002,-0.0033 0.003,-0.0021 0.004,-8e-4 h 1.9 l 0.004,8e-4 0.003,0.0021 0.002,0.0033 8e-4,0.0038 z"
         id="path66-6" />
      <path
         style="fill:#1a1a1a;fill-opacity:1;fill-rule:evenodd;stroke:none"
         d="m 99.8612,64.43 -7e-4,0.0038 -0.0022,0.0033 -0.0032,0.0021 -0.0039,8e-4 h -1.8999 l -0.0039,-8e-4 -0.0032,-0.0021 -0.0022,-0.0033 -8e-4,-0.0038 v -1.2 l 8e-4,-0.0038 0.0022,-0.0033 0.0032,-0.0021 0.0039,-8e-4 h 1.8999 l 0.0039,8e-4 0.0032,0.0021 0.0022,0.0033 7e-4,0.0038 z"
         id="path67-5" />
      <path
         style="fill:#1a1a1a;fill-opacity:1;fill-rule:evenodd;stroke:none"
         d="m 99.8612,61.23 -7e-4,0.0038 -0.0022,0.0033 -0.0032,0.0021 -0.0039,8e-4 h -1.8999 l -0.0039,-8e-4 -0.0032,-0.0021 -0.0022,-0.0033 -8e-4,-0.0038 v -1.2 l 8e-4,-0.0038 0.0022,-0.0033 0.0032,-0.0021 0.0039,-8e-4 h 1.8999 l 0.0039,8e-4 0.0032,0.0021 0.0022,0.0033 7e-4,0.0038 z"
         id="path68-6" />
      <path
         style="fill:#1a1a1a;fill-opacity:1;fill-rule:evenodd;stroke:none"
         d="m 94.2732,61.23 -7e-4,0.0038 -0.0022,0.0033 -0.0032,0.0021 -0.0039,8e-4 h -1.9 l -0.0038,-8e-4 -0.0032,-0.0021 -0.0022,-0.0033 -7e-4,-0.0038 v -1.2 l 7e-4,-0.0038 0.0022,-0.0033 0.0032,-0.0021 0.0038,-8e-4 h 1.9 l 0.0039,8e-4 0.0032,0.0021 0.0022,0.0033 7e-4,0.0038 z"
         id="path69-9" />
      <path
         style="fill:#1a1a1a;fill-opacity:1;fill-rule:evenodd;stroke:none"
         d="m 94.2732,64.43 -7e-4,0.0038 -0.0022,0.0033 -0.0032,0.0021 -0.0039,8e-4 h -1.9 l -0.0038,-8e-4 -0.0032,-0.0021 -0.0022,-0.0033 -7e-4,-0.0038 v -1.2 l 7e-4,-0.0038 0.0022,-0.0033 0.0032,-0.0021 0.0038,-8e-4 h 1.9 l 0.0039,8e-4 0.0032,0.0021 0.0022,0.0033 7e-4,0.0038 z"
         id="path70-3" />
      <path
         style="fill:#1a1a1a;fill-opacity:1;fill-rule:evenodd;stroke:none"
         d="m 90.9395,64.43 -8e-4,0.0038 -0.0021,0.0033 -0.0033,0.0021 -0.0038,8e-4 h -1.9 l -0.0038,-8e-4 -0.0033,-0.0021 -0.0021,-0.0033 -8e-4,-0.0038 v -1.2 l 8e-4,-0.0038 0.0021,-0.0033 0.0033,-0.0021 0.0038,-8e-4 h 1.9 l 0.0038,8e-4 0.0033,0.0021 0.0021,0.0033 8e-4,0.0038 z"
         id="path71-7" />
      <path
         style="fill:#1a1a1a;fill-opacity:1;fill-rule:evenodd;stroke:none"
         d="m 90.9395,61.23 -8e-4,0.0038 -0.0021,0.0033 -0.0033,0.0021 -0.0038,8e-4 h -1.9 l -0.0038,-8e-4 -0.0033,-0.0021 -0.0021,-0.0033 -8e-4,-0.0038 v -1.2 l 8e-4,-0.0038 0.0021,-0.0033 0.0033,-0.0021 0.0038,-8e-4 h 1.9 l 0.0038,8e-4 0.0033,0.0021 0.0021,0.0033 8e-4,0.0038 z"
         id="path72-4" />
      <path
         style="fill:#1a1a1a;fill-opacity:1;fill-rule:evenodd;stroke:none"
         d="m 85.3515,61.23 -8e-4,0.0038 -0.0021,0.0033 -0.0033,0.0021 -0.0038,8e-4 h -1.9 l -0.0038,-8e-4 -0.0033,-0.0021 -0.0021,-0.0033 -8e-4,-0.0038 v -1.2 l 8e-4,-0.0038 0.0021,-0.0033 0.0033,-0.0021 0.0038,-8e-4 h 1.9 l 0.0038,8e-4 0.0033,0.0021 0.0021,0.0033 8e-4,0.0038 z"
         id="path73-5" />
      <path
         style="fill:#1a1a1a;fill-opacity:1;fill-rule:evenodd;stroke:none"
         d="m 85.3515,64.43 -8e-4,0.0038 -0.0021,0.0033 -0.0033,0.0021 -0.0038,8e-4 h -1.9 l -0.0038,-8e-4 -0.0033,-0.0021 -0.0021,-0.0033 -8e-4,-0.0038 v -1.2 l 8e-4,-0.0038 0.0021,-0.0033 0.0033,-0.0021 0.0038,-8e-4 h 1.9 l 0.0038,8e-4 0.0033,0.0021 0.0021,0.0033 8e-4,0.0038 z"
         id="path74-2" />
      <path
         style="fill:#1a1a1a;fill-opacity:1;fill-rule:evenodd;stroke:none"
         d="m 82.0177,64.43 -7e-4,0.0038 -0.0022,0.0033 -0.0032,0.0021 -0.0038,8e-4 h -1.9001 l -0.0038,-8e-4 -0.0032,-0.0021 -0.0022,-0.0033 -8e-4,-0.0038 v -1.2 l 8e-4,-0.0038 0.0022,-0.0033 0.0032,-0.0021 0.0038,-8e-4 h 1.9001 l 0.0038,8e-4 0.0032,0.0021 0.0022,0.0033 7e-4,0.0038 z"
         id="path75-5" />
      <path
         style="fill:#1a1a1a;fill-opacity:1;fill-rule:evenodd;stroke:none"
         d="m 82.0177,61.23 -7e-4,0.0038 -0.0022,0.0033 -0.0032,0.0021 -0.0038,8e-4 h -1.9001 l -0.0038,-8e-4 -0.0032,-0.0021 -0.0022,-0.0033 -8e-4,-0.0038 v -1.2 l 8e-4,-0.0038 0.0022,-0.0033 0.0032,-0.0021 0.0038,-8e-4 h 1.9001 l 0.0038,8e-4 0.0032,0.0021 0.0022,0.0033 7e-4,0.0038 z"
         id="path76-4" />
      <path
         style="fill:#1a1a1a;fill-opacity:1;fill-rule:evenodd;stroke:none"
         d="m 76.4297,61.23 -7e-4,0.0038 -0.0022,0.0033 -0.0032,0.0021 -0.0039,8e-4 h -1.8999 l -0.0039,-8e-4 -0.0032,-0.0021 -0.0022,-0.0033 -8e-4,-0.0038 v -1.2 l 8e-4,-0.0038 0.0022,-0.0033 0.0032,-0.0021 0.0039,-8e-4 h 1.8999 l 0.0039,8e-4 0.0032,0.0021 0.0022,0.0033 7e-4,0.0038 z"
         id="path77-7" />
      <path
         style="fill:#1a1a1a;fill-opacity:1;fill-rule:evenodd;stroke:none"
         d="m 76.4297,64.43 -7e-4,0.0038 -0.0022,0.0033 -0.0032,0.0021 -0.0039,8e-4 h -1.8999 l -0.0039,-8e-4 -0.0032,-0.0021 -0.0022,-0.0033 -8e-4,-0.0038 v -1.2 l 8e-4,-0.0038 0.0022,-0.0033 0.0032,-0.0021 0.0039,-8e-4 h 1.8999 l 0.0039,8e-4 0.0032,0.0021 0.0022,0.0033 7e-4,0.0038 z"
         id="path78-4" />
      <path
         style="fill:#1a1a1a;fill-opacity:1;fill-rule:evenodd;stroke:none"
         d="m 99.8612,40.554 -7e-4,0.0038 -0.0022,0.0033 -0.0032,0.0021 -0.0039,8e-4 h -1.8999 l -0.0039,-8e-4 -0.0032,-0.0021 -0.0022,-0.0033 -8e-4,-0.0038 v -1.2 l 8e-4,-0.0038 0.0022,-0.0033 0.0032,-0.0021 0.0039,-8e-4 h 1.8999 l 0.0039,8e-4 0.0032,0.0021 0.0022,0.0033 7e-4,0.0038 z"
         id="path79-4" />
      <path
         style="fill:#1a1a1a;fill-opacity:1;fill-rule:evenodd;stroke:none"
         d="m 99.8612,37.354 -7e-4,0.0038 -0.0022,0.0033 -0.0032,0.0021 -0.0039,8e-4 h -1.8999 l -0.0039,-8e-4 -0.0032,-0.0021 -0.0022,-0.0033 -8e-4,-0.0038 v -1.2 l 8e-4,-0.0038 0.0022,-0.0033 0.0032,-0.0021 0.0039,-8e-4 h 1.8999 l 0.0039,8e-4 0.0032,0.0021 0.0022,0.0033 7e-4,0.0038 z"
         id="path80-3" />
      <path
         style="fill:#1a1a1a;fill-opacity:1;fill-rule:evenodd;stroke:none"
         d="m 94.2732,37.354 -7e-4,0.0038 -0.0022,0.0033 -0.0032,0.0021 -0.0039,8e-4 h -1.9 l -0.0038,-8e-4 -0.0032,-0.0021 -0.0022,-0.0033 -7e-4,-0.0038 v -1.2 l 7e-4,-0.0038 0.0022,-0.0033 0.0032,-0.0021 0.0038,-8e-4 h 1.9 l 0.0039,8e-4 0.0032,0.0021 0.0022,0.0033 7e-4,0.0038 z"
         id="path81-0" />
      <path
         style="fill:#1a1a1a;fill-opacity:1;fill-rule:evenodd;stroke:none"
         d="m 94.2732,40.554 -7e-4,0.0038 -0.0022,0.0033 -0.0032,0.0021 -0.0039,8e-4 h -1.9 l -0.0038,-8e-4 -0.0032,-0.0021 -0.0022,-0.0033 -7e-4,-0.0038 v -1.2 l 7e-4,-0.0038 0.0022,-0.0033 0.0032,-0.0021 0.0038,-8e-4 h 1.9 l 0.0039,8e-4 0.0032,0.0021 0.0022,0.0033 7e-4,0.0038 z"
         id="path82-7" />
      <path
         style="fill:#1a1a1a;fill-opacity:1;fill-rule:evenodd;stroke:none"
         d="m 90.9395,40.554 -8e-4,0.0038 -0.0021,0.0033 -0.0033,0.0021 -0.0038,8e-4 h -1.9 l -0.0038,-8e-4 -0.0033,-0.0021 -0.0021,-0.0033 -8e-4,-0.0038 v -1.2 l 8e-4,-0.0038 0.0021,-0.0033 0.0033,-0.0021 0.0038,-8e-4 h 1.9 l 0.0038,8e-4 0.0033,0.0021 0.0021,0.0033 8e-4,0.0038 z"
         id="path83-8" />
      <path
         style="fill:#1a1a1a;fill-opacity:1;fill-rule:evenodd;stroke:none"
         d="m 90.9395,37.354 -8e-4,0.0038 -0.0021,0.0033 -0.0033,0.0021 -0.0038,8e-4 h -1.9 l -0.0038,-8e-4 -0.0033,-0.0021 -0.0021,-0.0033 -8e-4,-0.0038 v -1.2 l 8e-4,-0.0038 0.0021,-0.0033 0.0033,-0.0021 0.0038,-8e-4 h 1.9 l 0.0038,8e-4 0.0033,0.0021 0.0021,0.0033 8e-4,0.0038 z"
         id="path84-6" />
      <path
         style="fill:#1a1a1a;fill-opacity:1;fill-rule:evenodd;stroke:none"
         d="m 85.3515,37.354 -8e-4,0.0038 -0.0021,0.0033 -0.0033,0.0021 -0.0038,8e-4 h -1.9 l -0.0038,-8e-4 -0.0033,-0.0021 -0.0021,-0.0033 -8e-4,-0.0038 v -1.2 l 8e-4,-0.0038 0.0021,-0.0033 0.0033,-0.0021 0.0038,-8e-4 h 1.9 l 0.0038,8e-4 0.0033,0.0021 0.0021,0.0033 8e-4,0.0038 z"
         id="path85-8" />
      <path
         style="fill:#1a1a1a;fill-opacity:1;fill-rule:evenodd;stroke:none"
         d="m 85.3515,40.554 -8e-4,0.0038 -0.0021,0.0033 -0.0033,0.0021 -0.0038,8e-4 h -1.9 l -0.0038,-8e-4 -0.0033,-0.0021 -0.0021,-0.0033 -8e-4,-0.0038 v -1.2 l 8e-4,-0.0038 0.0021,-0.0033 0.0033,-0.0021 0.0038,-8e-4 h 1.9 l 0.0038,8e-4 0.0033,0.0021 0.0021,0.0033 8e-4,0.0038 z"
         id="path86-8" />
      <path
         style="fill:#1a1a1a;fill-opacity:1;fill-rule:evenodd;stroke:none"
         d="m 82.0177,40.554 -7e-4,0.0038 -0.0022,0.0033 -0.0032,0.0021 -0.0038,8e-4 h -1.9001 l -0.0038,-8e-4 -0.0032,-0.0021 -0.0022,-0.0033 -8e-4,-0.0038 v -1.2 l 8e-4,-0.0038 0.0022,-0.0033 0.0032,-0.0021 0.0038,-8e-4 h 1.9001 l 0.0038,8e-4 0.0032,0.0021 0.0022,0.0033 7e-4,0.0038 z"
         id="path87-4" />
      <path
         style="fill:#1a1a1a;fill-opacity:1;fill-rule:evenodd;stroke:none"
         d="m 82.0177,37.354 -7e-4,0.0038 -0.0022,0.0033 -0.0032,0.0021 -0.0038,8e-4 h -1.9001 l -0.0038,-8e-4 -0.0032,-0.0021 -0.0022,-0.0033 -8e-4,-0.0038 v -1.2 l 8e-4,-0.0038 0.0022,-0.0033 0.0032,-0.0021 0.0038,-8e-4 h 1.9001 l 0.0038,8e-4 0.0032,0.0021 0.0022,0.0033 7e-4,0.0038 z"
         id="path88-3" />
      <path
         style="fill:#1a1a1a;fill-opacity:1;fill-rule:evenodd;stroke:none"
         d="m 76.4297,37.354 -7e-4,0.0038 -0.0022,0.0033 -0.0032,0.0021 -0.0039,8e-4 h -1.8999 l -0.0039,-8e-4 -0.0032,-0.0021 -0.0022,-0.0033 -8e-4,-0.0038 v -1.2 l 8e-4,-0.0038 0.0022,-0.0033 0.0032,-0.0021 0.0039,-8e-4 h 1.8999 l 0.0039,8e-4 0.0032,0.0021 0.0022,0.0033 7e-4,0.0038 z"
         id="path89-1" />
      <path
         style="fill:#1a1a1a;fill-opacity:1;fill-rule:evenodd;stroke:none"
         d="m 76.4297,40.554 -7e-4,0.0038 -0.0022,0.0033 -0.0032,0.0021 -0.0039,8e-4 h -1.8999 l -0.0039,-8e-4 -0.0032,-0.0021 -0.0022,-0.0033 -8e-4,-0.0038 v -1.2 l 8e-4,-0.0038 0.0022,-0.0033 0.0032,-0.0021 0.0039,-8e-4 h 1.8999 l 0.0039,8e-4 0.0032,0.0021 0.0022,0.0033 7e-4,0.0038 z"
         id="path90-4" />
      <path
         style="fill:#1a1a1a;fill-opacity:1;fill-rule:evenodd;stroke:none"
         d="m 61.42,45.967 8e-4,-0.0038 0.0021,-0.0033 0.0033,-0.0021 0.0038,-8e-4 h 1.6 l 0.0038,8e-4 0.0033,0.0021 0.0021,0.0033 8e-4,0.0038 v 2.3 l -8e-4,0.0038 -0.0021,0.0033 -0.0033,0.0021 -0.0038,8e-4 h -1.6 l -0.0038,-8e-4 -0.0033,-0.0021 -0.0021,-0.0033 -8e-4,-0.0038 z"
         id="path91-9" />
      <path
         style="fill:#1a1a1a;fill-opacity:1;fill-rule:evenodd;stroke:none"
         d="m 58.168,46.067 8e-4,-0.0038 0.0021,-0.0033 0.0033,-0.0021 0.0038,-8e-4 h 1.5 l 0.0038,8e-4 0.0033,0.0021 0.0021,0.0033 8e-4,0.0038 v 2.1 l -8e-4,0.0038 -0.0021,0.0033 -0.0033,0.0021 -0.0038,8e-4 h -1.5 l -0.0038,-8e-4 -0.0033,-0.0021 -0.0021,-0.0033 -8e-4,-0.0038 z"
         id="path92-2" />
      <path
         style="fill:#1a1a1a;fill-opacity:1;fill-rule:evenodd;stroke:none;stroke-width:0.952637"
         d="m 57.922631,39.0175 -0.01207,0.067 -0.03449,0.0567 -0.05146,0.038 -0.0608,0.0133 h -0.31763 l -0.0608,-0.0133 -0.05146,-0.038 -0.03449,-0.0567 -0.01207,-0.067 v -0.85 l 0.01207,-0.067 0.03449,-0.0567 0.05146,-0.038 0.0608,-0.0133 h 0.31763 l 0.0608,0.0133 0.05146,0.038 0.03449,0.0567 0.01207,0.067 z"
         id="path93-0" />
      <path
         style="fill:#1a1a1a;fill-opacity:1;fill-rule:evenodd;stroke:none;stroke-width:0.921639"
         d="m 55.262221,38.1825 0.01232,-0.0727 0.03491,-0.0617 0.05241,-0.0411 0.06175,-0.0145 h 0.322778 l 0.06175,0.0145 0.05232,0.0411 0.035,0.0617 0.01232,0.0727 v 0.82 l -0.01232,0.0727 -0.035,0.0616 -0.05232,0.0412 -0.06175,0.0145 h -0.322778 l -0.06175,-0.0145 -0.05241,-0.0412 -0.03491,-0.0616 -0.01232,-0.0727 z"
         id="path94-6" />
      <path
         style="fill:#1a1a1a;fill-opacity:1;fill-rule:evenodd;stroke:none"
         d="m 53.955,38.1925 0.0152,-0.0765 0.0434,-0.0649 0.0649,-0.0434 0.0765,-0.0152 h 0.4 l 0.0765,0.0152 0.0649,0.0434 0.0434,0.0649 0.0152,0.0765 v 0.8 l -0.0152,0.0765 -0.0434,0.0649 -0.0649,0.0434 -0.0765,0.0152 h -0.4 L 54.0785,39.1773 54.0136,39.1339 53.9702,39.069 53.955,38.9925 Z"
         id="path95-8" />
      <path
         style="fill:#1a1a1a;fill-opacity:1;fill-rule:evenodd;stroke:none;stroke-width:0.952637"
         d="m 56.287369,38.1675 0.01207,-0.067 0.03449,-0.0567 0.05146,-0.038 0.0608,-0.0133 h 0.31763 l 0.0608,0.0133 0.05146,0.038 0.03449,0.0567 0.01207,0.067 v 0.85 l -0.01207,0.067 -0.03449,0.0567 -0.05146,0.038 -0.0608,0.0133 h -0.31763 l -0.0608,-0.0133 -0.05146,-0.038 -0.03449,-0.0567 -0.01207,-0.067 z"
         id="path96-9" />
      <path
         style="fill:#1a1a1a;fill-opacity:1;fill-rule:evenodd;stroke:none;stroke-width:0.933931"
         d="m 58.956446,39.0025 -0.01265,0.0727 -0.03594,0.0616 -0.05373,0.0412 -0.06341,0.0145 H 58.45927 L 58.39586,39.178 58.34204,39.1368 58.30619,39.0752 58.29354,39.0025 v -0.82 l 0.01265,-0.0727 0.03585,-0.0617 0.05382,-0.0411 0.06341,-0.0145 h 0.331446 l 0.06341,0.0145 0.05373,0.0411 0.03594,0.0617 0.01265,0.0727 z"
         id="path97-2" />
      <path
         style="fill:#1a1a1a;fill-opacity:1;fill-rule:evenodd;stroke:none"
         d="m 60.255,38.9925 -0.0152,0.0765 -0.0434,0.0649 -0.0649,0.0434 -0.0765,0.0152 h -0.4 L 59.5785,39.1773 59.5136,39.1339 59.4702,39.069 59.455,38.9925 v -0.8 l 0.0152,-0.0765 0.0434,-0.0649 0.0649,-0.0434 0.0765,-0.0152 h 0.4 l 0.0765,0.0152 0.0649,0.0434 0.0434,0.0649 0.0152,0.0765 z"
         id="path98-6" />
      <path
         style="fill:#1a1a1a;fill-opacity:1;fill-rule:evenodd;stroke:none"
         d="m 63.13,38.9625 -0.019,0.0957 -0.0542,0.0811 -0.0811,0.0542 -0.0957,0.019 h -1.3 L 61.4843,39.1935 61.4032,39.1393 61.349,39.0582 61.33,38.9625 v -0.85 l 0.019,-0.0957 0.0542,-0.0811 0.0811,-0.0542 0.0957,-0.019 h 1.3 l 0.0957,0.019 0.0811,0.0542 0.0542,0.0811 0.019,0.0957 z"
         id="path99-6" />
      <path
         style="fill:#1a1a1a;fill-opacity:1;fill-rule:evenodd;stroke:none"
         d="m 63.13,35.4575 -0.019,0.0957 -0.0542,0.0811 -0.0811,0.0542 -0.0957,0.019 h -1.3 L 61.4843,35.6885 61.4032,35.6343 61.349,35.5532 61.33,35.4575 v -1 l 0.019,-0.0957 0.0542,-0.0811 0.0811,-0.0542 0.0957,-0.019 h 1.3 l 0.0957,0.019 0.0811,0.0542 0.0542,0.0811 0.019,0.0957 z"
         id="path100-4" />
      <path
         style="fill:#1a1a1a;fill-opacity:1;fill-rule:evenodd;stroke:none"
         d="m 52.88,38.9625 -0.019,0.0957 -0.0542,0.0811 -0.0811,0.0542 -0.0957,0.019 h -1.3 L 51.2343,39.1935 51.1532,39.1393 51.099,39.0582 51.08,38.9625 v -0.85 l 0.019,-0.0957 0.0542,-0.0811 0.0811,-0.0542 0.0957,-0.019 h 1.3 l 0.0957,0.019 0.0811,0.0542 0.0542,0.0811 0.019,0.0957 z"
         id="path101-9" />
      <path
         style="fill:#1a1a1a;fill-opacity:1;fill-rule:evenodd;stroke:none"
         d="m 52.88,35.4575 -0.019,0.0957 -0.0542,0.0811 -0.0811,0.0542 -0.0957,0.019 h -1.3 L 51.2343,35.6885 51.1532,35.6343 51.099,35.5532 51.08,35.4575 v -1 l 0.019,-0.0957 0.0542,-0.0811 0.0811,-0.0542 0.0957,-0.019 h 1.3 l 0.0957,0.019 0.0811,0.0542 0.0542,0.0811 0.019,0.0957 z"
         id="path102-5" />
      <path
         style="fill:#1a1a1a;fill-opacity:1;fill-rule:evenodd;stroke:none"
         d="m 53.157,50.38 h -0.65 v -1.7 h 0.65 z"
         id="path103-0" />
      <path
         style="fill:#1a1a1a;fill-opacity:1;fill-rule:evenodd;stroke:none"
         d="m 54.427,50.38 h -0.65 v -1.7 h 0.65 z"
         id="path104-4" />
      <path
         style="fill:#1a1a1a;fill-opacity:1;fill-rule:evenodd;stroke:none"
         d="m 55.697,50.38 h -0.65 v -1.7 h 0.65 z"
         id="path105-8" />
      <path
         style="fill:#1a1a1a;fill-opacity:1;fill-rule:evenodd;stroke:none"
         d="m 56.967,50.38 h -0.65 v -1.7 h 0.65 z"
         id="path106-7" />
      <path
         style="fill:#1a1a1a;fill-opacity:1;fill-rule:evenodd;stroke:none"
         d="m 56.967,43.08 h -0.65 v -1.7 h 0.65 z"
         id="path107-1" />
      <path
         style="fill:#1a1a1a;fill-opacity:1;fill-rule:evenodd;stroke:none"
         d="m 55.697,43.08 h -0.65 v -1.7 h 0.65 z"
         id="path108-7" />
      <path
         style="fill:#1a1a1a;fill-opacity:1;fill-rule:evenodd;stroke:none"
         d="m 54.427,43.08 h -0.65 v -1.7 h 0.65 z"
         id="path109-2" />
      <path
         style="fill:#1a1a1a;fill-opacity:1;fill-rule:evenodd;stroke:none"
         d="m 53.157,43.08 h -0.65 v -1.7 h 0.65 z"
         id="path110-7" />
      <path
         style="fill:#1a1a1a;fill-opacity:1;fill-rule:evenodd;stroke:none"
         d="m 61.606,54.1464 0.0082,-0.0708 0.046,-0.104 0.0804,-0.0804 0.104,-0.046 0.0708,-0.0082 h 1.0212 l 0.0708,0.0082 0.104,0.046 0.0804,0.0804 0.046,0.104 0.0082,0.0708 v 1.1812 l -0.0082,0.0708 -0.046,0.104 -0.0804,0.0804 -0.104,0.046 -0.0708,0.0082 h -1.0212 l -0.0708,-0.0082 -0.104,-0.046 -0.0804,-0.0804 -0.046,-0.104 -0.0082,-0.0708 z"
         id="path111-2" />
      <path
         style="fill:#1a1a1a;fill-opacity:1;fill-rule:evenodd;stroke:none"
         d="m 58.166,54.1464 0.0082,-0.0708 0.046,-0.104 0.0804,-0.0804 0.104,-0.046 0.0708,-0.0082 h 1.0212 l 0.0708,0.0082 0.104,0.046 0.0804,0.0804 0.046,0.104 0.0082,0.0708 v 1.1812 l -0.0082,0.0708 -0.046,0.104 -0.0804,0.0804 -0.104,0.046 -0.0708,0.0082 h -1.0212 l -0.0708,-0.0082 -0.104,-0.046 -0.0804,-0.0804 -0.046,-0.104 -0.0082,-0.0708 z"
         id="path112-2" />
      <path
         style="fill:#1a1a1a;fill-opacity:1;fill-rule:evenodd;stroke:none"
         d="m 57.023,55.2006 -0.0082,0.0708 -0.046,0.104 -0.0804,0.0804 -0.104,0.046 -0.0708,0.0082 h -1.0212 l -0.0708,-0.0082 -0.104,-0.046 -0.0804,-0.0804 -0.046,-0.104 -0.0082,-0.0708 v -1.1812 l 0.0082,-0.0708 0.046,-0.104 0.0804,-0.0804 0.104,-0.046 0.0708,-0.0082 h 1.0212 l 0.0708,0.0082 0.104,0.046 0.0804,0.0804 0.046,0.104 0.0082,0.0708 z"
         id="path113-6" />
      <path
         style="fill:#1a1a1a;fill-opacity:1;fill-rule:evenodd;stroke:none"
         d="m 53.583,55.2006 -0.0082,0.0708 -0.046,0.104 -0.0804,0.0804 -0.104,0.046 -0.0708,0.0082 h -1.0212 l -0.0708,-0.0082 -0.104,-0.046 -0.0804,-0.0804 -0.046,-0.104 -0.0082,-0.0708 v -1.1812 l 0.0082,-0.0708 0.046,-0.104 0.0804,-0.0804 0.104,-0.046 0.0708,-0.0082 h 1.0212 l 0.0708,0.0082 0.104,0.046 0.0804,0.0804 0.046,0.104 0.0082,0.0708 z"
         id="path114-1" />
      <path
         style="fill:#1a1a1a;fill-opacity:1;fill-rule:evenodd;stroke:none"
         d="m 62.4525,67.5195 h -3 v -1.8 h 3 z"
         id="path115-0" />
      <path
         style="fill:#1a1a1a;fill-opacity:1;fill-rule:evenodd;stroke:none"
         d="m 54.6085,60.3045 h -3 v -1.8 h 3 z"
         id="path116-6" />
      <path
         style="fill:#1a1a1a;fill-opacity:1;fill-rule:evenodd;stroke:none"
         d="m 62.4525,64.1145 h -3 v -1.8 h 3 z"
         id="path117-1" />
      <path
         style="fill:#1a1a1a;fill-opacity:1;fill-rule:evenodd;stroke:none"
         d="m 54.7355,67.5195 h -3 v -1.8 h 3 z"
         id="path118-5" />
      <path
         style="fill:#1a1a1a;fill-opacity:1;fill-rule:evenodd;stroke:none"
         d="m 54.5935,57.7645 h -3 v -1.8 h 3 z"
         id="path119-9" />
      <path
         style="fill:#1a1a1a;fill-opacity:1;fill-rule:evenodd;stroke:none"
         d="m 62.4525,58.3995 h -3 v -1.8 h 3 z"
         id="path120-4" />
    </g>
  </g>
</svg>
