<?xml version="1.0" standalone="no"?>
 <!DOCTYPE svg PUBLIC "-//W3C//DTD SVG 1.1//EN" 
 "http://www.w3.org/Graphics/SVG/1.1/DTD/svg11.dtd"> 
<svg
  xmlns:svg="http://www.w3.org/2000/svg"
  xmlns="http://www.w3.org/2000/svg"
  xmlns:xlink="http://www.w3.org/1999/xlink"
  version="1.1"
  width="297.0022mm" height="210.0072mm" viewBox="0.0000 0.0000 297.0022 210.0072">
<title>SVG Image created as ATTiny_BlinkeShit_5050-F_Courtyard.svg date 2026/01/01 15:56:30 </title>
  <desc>Image generated by PCBNEW </desc>
<g style="fill:#000000; fill-opacity:1.0000;stroke:#000000; stroke-opacity:1.0000;
stroke-linecap:round; stroke-linejoin:round;"
 transform="translate(0 0) scale(1 1)">
</g>
<g style="fill:none; 
stroke:#000000; stroke-width:0.0500; stroke-opacity:1; 
stroke-linecap:round; stroke-linejoin:round;">
<path d="M63.1560 53.3170
L58.2560 53.3170
" />
<path d="M63.1560 51.0770
L63.1560 53.3170
" />
<path d="M58.2560 53.3170
L58.2560 51.0770
" />
<path d="M58.2560 51.0770
L63.1560 51.0770
" />
<path d="M56.9330 53.3170
L52.0330 53.3170
" />
<path d="M56.9330 51.0770
L56.9330 53.3170
" />
<path d="M52.0330 53.3170
L52.0330 51.0770
" />
<path d="M52.0330 51.0770
L56.9330 51.0770
" />
<path d="M58.1890 45.1910
L58.1890 40.2910
" />
<path d="M60.4290 45.1910
L58.1890 45.1910
" />
<path d="M58.1890 40.2910
L60.4290 40.2910
" />
<path d="M60.4290 40.2910
L60.4290 45.1910
" />
<path d="M60.8560 45.1910
L60.8560 40.2910
" />
<path d="M63.0960 45.1910
L60.8560 45.1910
" />
<path d="M60.8560 40.2910
L63.0960 40.2910
" />
<path d="M63.0960 40.2910
L63.0960 45.1910
" />
<path d="M63.1560 50.9040
L58.2560 50.9040
" />
<path d="M63.1560 48.6640
L63.1560 50.9040
" />
<path d="M58.2560 50.9040
L58.2560 48.6640
" />
<path d="M58.2560 48.6640
L63.1560 48.6640
" />
<path d="M73.0920 49.1627
L73.0920 43.4627
" />
<path d="M73.0920 43.4627
L65.5920 43.4627
" />
<path d="M65.5920 49.1627
L73.0920 49.1627
" />
<path d="M65.5920 43.4627
L65.5920 49.1627
" />
<path d="M108.7790 57.1213
L108.7790 51.4213
" />
<path d="M108.7790 51.4213
L101.2790 51.4213
" />
<path d="M101.2790 57.1213
L108.7790 57.1213
" />
<path d="M101.2790 51.4213
L101.2790 57.1213
" />
<path d="M82.0138 57.1213
L82.0138 51.4213
" />
<path d="M82.0138 51.4213
L74.5138 51.4213
" />
<path d="M74.5138 57.1213
L82.0138 57.1213
" />
<path d="M74.5138 51.4213
L74.5138 57.1213
" />
<path d="M90.9355 57.1213
L90.9355 51.4213
" />
<path d="M90.9355 51.4213
L83.4355 51.4213
" />
<path d="M83.4355 57.1213
L90.9355 57.1213
" />
<path d="M83.4355 51.4213
L83.4355 57.1213
" />
<path d="M99.8572 57.1213
L99.8572 51.4213
" />
<path d="M99.8572 51.4213
L92.3572 51.4213
" />
<path d="M92.3572 57.1213
L99.8572 57.1213
" />
<path d="M92.3572 51.4213
L92.3572 57.1213
" />
<path d="M73.0920 57.1213
L73.0920 51.4213
" />
<path d="M73.0920 51.4213
L65.5920 51.4213
" />
<path d="M65.5920 57.1213
L73.0920 57.1213
" />
<path d="M65.5920 51.4213
L65.5920 57.1213
" />
<path d="M108.7790 49.1627
L108.7790 43.4627
" />
<path d="M108.7790 43.4627
L101.2790 43.4627
" />
<path d="M101.2790 49.1627
L108.7790 49.1627
" />
<path d="M101.2790 43.4627
L101.2790 49.1627
" />
<path d="M90.9355 49.1627
L90.9355 43.4627
" />
<path d="M90.9355 43.4627
L83.4355 43.4627
" />
<path d="M83.4355 49.1627
L90.9355 49.1627
" />
<path d="M83.4355 43.4627
L83.4355 49.1627
" />
<path d="M82.0138 49.1627
L82.0138 43.4627
" />
<path d="M82.0138 43.4627
L74.5138 43.4627
" />
<path d="M74.5138 49.1627
L82.0138 49.1627
" />
<path d="M74.5138 43.4627
L74.5138 49.1627
" />
<path d="M99.8572 49.1627
L99.8572 43.4627
" />
<path d="M99.8572 43.4627
L92.3572 43.4627
" />
<path d="M92.3572 49.1627
L99.8572 49.1627
" />
<path d="M92.3572 43.4627
L92.3572 49.1627
" />
<path d="M73.0920 65.0800
L73.0920 59.3800
" />
<path d="M73.0920 59.3800
L65.5920 59.3800
" />
<path d="M65.5920 65.0800
L73.0920 65.0800
" />
<path d="M65.5920 59.3800
L65.5920 65.0800
" />
<path d="M73.0920 41.2040
L73.0920 35.5040
" />
<path d="M73.0920 35.5040
L65.5920 35.5040
" />
<path d="M65.5920 41.2040
L73.0920 41.2040
" />
<path d="M65.5920 35.5040
L65.5920 41.2040
" />
<path d="M108.7790 41.2040
L108.7790 35.5040
" />
<path d="M108.7790 35.5040
L101.2790 35.5040
" />
<path d="M101.2790 41.2040
L108.7790 41.2040
" />
<path d="M101.2790 35.5040
L101.2790 41.2040
" />
<path d="M108.7790 65.0800
L108.7790 59.3800
" />
<path d="M108.7790 59.3800
L101.2790 59.3800
" />
<path d="M101.2790 65.0800
L108.7790 65.0800
" />
<path d="M101.2790 59.3800
L101.2790 65.0800
" />
<path d="M99.8572 65.0800
L99.8572 59.3800
" />
<path d="M99.8572 59.3800
L92.3572 59.3800
" />
<path d="M92.3572 65.0800
L99.8572 65.0800
" />
<path d="M92.3572 59.3800
L92.3572 65.0800
" />
<path d="M90.9355 65.0800
L90.9355 59.3800
" />
<path d="M90.9355 59.3800
L83.4355 59.3800
" />
<path d="M83.4355 65.0800
L90.9355 65.0800
" />
<path d="M83.4355 59.3800
L83.4355 65.0800
" />
<path d="M82.0138 65.0800
L82.0138 59.3800
" />
<path d="M82.0138 59.3800
L74.5138 59.3800
" />
<path d="M74.5138 65.0800
L82.0138 65.0800
" />
<path d="M74.5138 59.3800
L74.5138 65.0800
" />
<path d="M99.8572 41.2040
L99.8572 35.5040
" />
<path d="M99.8572 35.5040
L92.3572 35.5040
" />
<path d="M92.3572 41.2040
L99.8572 41.2040
" />
<path d="M92.3572 35.5040
L92.3572 41.2040
" />
<path d="M90.9355 41.2040
L90.9355 35.5040
" />
<path d="M90.9355 35.5040
L83.4355 35.5040
" />
<path d="M83.4355 41.2040
L90.9355 41.2040
" />
<path d="M83.4355 35.5040
L83.4355 41.2040
" />
<path d="M82.0138 41.2040
L82.0138 35.5040
" />
<path d="M82.0138 35.5040
L74.5138 35.5040
" />
<path d="M74.5138 41.2040
L82.0138 41.2040
" />
<path d="M74.5138 35.5040
L74.5138 41.2040
" />
<path d="M63.2520 48.8670
L58.1520 48.8670
" />
<path d="M63.2520 45.3670
L63.2520 48.8670
" />
<path d="M58.1520 48.8670
L58.1520 45.3670
" />
<path d="M58.1520 45.3670
L63.2520 45.3670
" />
<path d="M63.6550 39.7600
L63.6550 37.3600
" />
<path d="M63.6550 37.3600
L62.1050 37.3600
" />
<path d="M63.6550 36.2100
L63.6550 33.6600
" />
<path d="M62.1050 37.3600
L62.1050 36.2100
" />
<path d="M62.1050 36.2100
L63.6550 36.2100
" />
<path d="M62.1050 33.6600
L63.6550 33.6600
" />
<path d="M62.1050 33.6600
L62.1050 31.5600
" />
<path d="M62.1050 31.5600
L52.1050 31.5600
" />
<path d="M52.1050 37.3600
L52.1050 36.2100
" />
<path d="M52.1050 37.3600
L50.5550 37.3600
" />
<path d="M52.1050 33.6600
L52.1050 31.5600
" />
<path d="M50.5550 39.7600
L63.6550 39.7600
" />
<path d="M50.5550 39.7600
L50.5550 37.3600
" />
<path d="M50.5550 36.2100
L52.1050 36.2100
" />
<path d="M50.5550 36.2100
L50.5550 33.6600
" />
<path d="M50.5550 33.6600
L52.1050 33.6600
" />
<path d="M51.7870 41.1300
L57.6870 41.1300
" />
<path d="M51.7870 50.6300
L51.7870 41.1300
" />
<path d="M51.7870 50.6300
L57.6870 50.6300
" />
<path d="M57.6870 50.6300
L57.6870 41.1300
" />
<path d="M63.1860 55.8870
L58.2260 55.8870
" />
<path d="M63.1860 53.5870
L63.1860 55.8870
" />
<path d="M58.2260 55.8870
L58.2260 53.5870
" />
<path d="M58.2260 53.5870
L63.1860 53.5870
" />
<path d="M56.9630 55.7600
L52.0030 55.7600
" />
<path d="M56.9630 53.4600
L56.9630 55.7600
" />
<path d="M52.0030 55.7600
L52.0030 53.4600
" />
<path d="M52.0030 53.4600
L56.9630 53.4600
" />
</g>
<g style="fill:none; 
stroke:#000000; stroke-width:0.1500; stroke-opacity:1; 
stroke-linecap:round; stroke-linejoin:round;">
<path d="M54.5305 68.7065
L54.5305 70.7065
" />
<path d="M54.5305 70.7065
L59.5305 70.7065
" />
<path d="M59.5305 68.7065
L54.5305 68.7065
" />
<path d="M59.5305 70.7065
L59.5305 68.7065
" />
</g> 
</svg>
