<?xml version="1.0" standalone="no"?>
 <!DOCTYPE svg PUBLIC "-//W3C//DTD SVG 1.1//EN" 
 "http://www.w3.org/Graphics/SVG/1.1/DTD/svg11.dtd"> 
<svg
  xmlns:svg="http://www.w3.org/2000/svg"
  xmlns="http://www.w3.org/2000/svg"
  xmlns:xlink="http://www.w3.org/1999/xlink"
  version="1.1"
  width="297.0022mm" height="210.0072mm" viewBox="0.0000 0.0000 297.0022 210.0072">
<title>SVG Image created as ATTiny_BlinkeShit_5050-F_Mask.svg date 2025/12/31 22:41:54 </title>
  <desc>Image generated by PCBNEW </desc>
<g style="fill:#000000; fill-opacity:1.0000;stroke:#000000; stroke-opacity:1.0000;
stroke-linecap:round; stroke-linejoin:round;"
 transform="translate(0 0) scale(1 1)">
<path style="fill:#000000; fill-opacity:1.0000; stroke:none;fill-rule:evenodd;"
d="M 63.0960,52.8143
63.0764,52.9129
63.0205,52.9965
62.9369,53.0524
62.8383,53.0720
62.0137,53.0720
61.9151,53.0524
61.8315,52.9965
61.7756,52.9129
61.7560,52.8143
61.7560,51.5797
61.7756,51.4811
61.8315,51.3975
61.9151,51.3416
62.0137,51.3220
62.8383,51.3220
62.9369,51.3416
63.0205,51.3975
63.0764,51.4811
63.0960,51.5797
Z" /> 
<path style="fill:#000000; fill-opacity:1.0000; stroke:none;fill-rule:evenodd;"
d="M 59.6560,52.8143
59.6364,52.9129
59.5805,52.9965
59.4969,53.0524
59.3983,53.0720
58.5737,53.0720
58.4751,53.0524
58.3915,52.9965
58.3356,52.9129
58.3160,52.8143
58.3160,51.5797
58.3356,51.4811
58.3915,51.3975
58.4751,51.3416
58.5737,51.3220
59.3983,51.3220
59.4969,51.3416
59.5805,51.3975
59.6364,51.4811
59.6560,51.5797
Z" /> 
<path style="fill:#000000; fill-opacity:1.0000; stroke:none;fill-rule:evenodd;"
d="M 56.8730,52.8143
56.8534,52.9129
56.7975,52.9965
56.7139,53.0524
56.6153,53.0720
55.7907,53.0720
55.6921,53.0524
55.6085,52.9965
55.5526,52.9129
55.5330,52.8143
55.5330,51.5797
55.5526,51.4811
55.6085,51.3975
55.6921,51.3416
55.7907,51.3220
56.6153,51.3220
56.7139,51.3416
56.7975,51.3975
56.8534,51.4811
56.8730,51.5797
Z" /> 
<path style="fill:#000000; fill-opacity:1.0000; stroke:none;fill-rule:evenodd;"
d="M 53.4330,52.8143
53.4134,52.9129
53.3575,52.9965
53.2739,53.0524
53.1753,53.0720
52.3507,53.0720
52.2521,53.0524
52.1685,52.9965
52.1126,52.9129
52.0930,52.8143
52.0930,51.5797
52.1126,51.4811
52.1685,51.3975
52.2521,51.3416
52.3507,51.3220
53.1753,51.3220
53.2739,51.3416
53.3575,51.3975
53.4134,51.4811
53.4330,51.5797
Z" /> 
<path style="fill:#000000; fill-opacity:1.0000; stroke:none;fill-rule:evenodd;"
d="M 58.6917,45.1310
58.5931,45.1114
58.5095,45.0555
58.4536,44.9719
58.4340,44.8733
58.4340,44.0487
58.4536,43.9501
58.5095,43.8665
58.5931,43.8106
58.6917,43.7910
59.9263,43.7910
60.0249,43.8106
60.1085,43.8665
60.1644,43.9501
60.1840,44.0487
60.1840,44.8733
60.1644,44.9719
60.1085,45.0555
60.0249,45.1114
59.9263,45.1310
Z" /> 
<path style="fill:#000000; fill-opacity:1.0000; stroke:none;fill-rule:evenodd;"
d="M 58.6917,41.6910
58.5931,41.6714
58.5095,41.6155
58.4536,41.5319
58.4340,41.4333
58.4340,40.6087
58.4536,40.5101
58.5095,40.4265
58.5931,40.3706
58.6917,40.3510
59.9263,40.3510
60.0249,40.3706
60.1085,40.4265
60.1644,40.5101
60.1840,40.6087
60.1840,41.4333
60.1644,41.5319
60.1085,41.6155
60.0249,41.6714
59.9263,41.6910
Z" /> 
<path style="fill:#000000; fill-opacity:1.0000; stroke:none;fill-rule:evenodd;"
d="M 61.3587,45.1310
61.2601,45.1114
61.1765,45.0555
61.1206,44.9719
61.1010,44.8733
61.1010,44.0487
61.1206,43.9501
61.1765,43.8665
61.2601,43.8106
61.3587,43.7910
62.5933,43.7910
62.6919,43.8106
62.7755,43.8665
62.8314,43.9501
62.8510,44.0487
62.8510,44.8733
62.8314,44.9719
62.7755,45.0555
62.6919,45.1114
62.5933,45.1310
Z" /> 
<path style="fill:#000000; fill-opacity:1.0000; stroke:none;fill-rule:evenodd;"
d="M 61.3587,41.6910
61.2601,41.6714
61.1765,41.6155
61.1206,41.5319
61.1010,41.4333
61.1010,40.6087
61.1206,40.5101
61.1765,40.4265
61.2601,40.3706
61.3587,40.3510
62.5933,40.3510
62.6919,40.3706
62.7755,40.4265
62.8314,40.5101
62.8510,40.6087
62.8510,41.4333
62.8314,41.5319
62.7755,41.6155
62.6919,41.6714
62.5933,41.6910
Z" /> 
<path style="fill:#000000; fill-opacity:1.0000; stroke:none;fill-rule:evenodd;"
d="M 63.0960,50.4013
63.0764,50.4999
63.0205,50.5835
62.9369,50.6394
62.8383,50.6590
62.0137,50.6590
61.9151,50.6394
61.8315,50.5835
61.7756,50.4999
61.7560,50.4013
61.7560,49.1667
61.7756,49.0681
61.8315,48.9845
61.9151,48.9286
62.0137,48.9090
62.8383,48.9090
62.9369,48.9286
63.0205,48.9845
63.0764,49.0681
63.0960,49.1667
Z" /> 
<path style="fill:#000000; fill-opacity:1.0000; stroke:none;fill-rule:evenodd;"
d="M 59.6560,50.4013
59.6364,50.4999
59.5805,50.5835
59.4969,50.6394
59.3983,50.6590
58.5737,50.6590
58.4751,50.6394
58.3915,50.5835
58.3356,50.4999
58.3160,50.4013
58.3160,49.1667
58.3356,49.0681
58.3915,48.9845
58.4751,48.9286
58.5737,48.9090
59.3983,48.9090
59.4969,48.9286
59.5805,48.9845
59.6364,49.0681
59.6560,49.1667
Z" /> 
<path style="fill:#000000; fill-opacity:1.0000; stroke:none;fill-rule:evenodd;"
d="M 73.0960,48.5127
73.0952,48.5165
73.0931,48.5197
73.0898,48.5219
73.0860,48.5227
71.1860,48.5227
71.1822,48.5219
71.1789,48.5197
71.1768,48.5165
71.1760,48.5127
71.1760,47.3127
71.1768,47.3088
71.1789,47.3056
71.1822,47.3034
71.1860,47.3027
73.0860,47.3027
73.0898,47.3034
73.0931,47.3056
73.0952,47.3088
73.0960,47.3127
Z" /> 
<path style="fill:#000000; fill-opacity:1.0000; stroke:none;fill-rule:evenodd;"
d="M 73.0960,45.3127
73.0952,45.3165
73.0931,45.3197
73.0898,45.3219
73.0860,45.3227
71.1860,45.3227
71.1822,45.3219
71.1789,45.3197
71.1768,45.3165
71.1760,45.3127
71.1760,44.1127
71.1768,44.1088
71.1789,44.1056
71.1822,44.1034
71.1860,44.1027
73.0860,44.1027
73.0898,44.1034
73.0931,44.1056
73.0952,44.1088
73.0960,44.1127
Z" /> 
<path style="fill:#000000; fill-opacity:1.0000; stroke:none;fill-rule:evenodd;"
d="M 67.5080,45.3127
67.5072,45.3165
67.5051,45.3197
67.5018,45.3219
67.4980,45.3227
65.5980,45.3227
65.5942,45.3219
65.5909,45.3197
65.5888,45.3165
65.5880,45.3127
65.5880,44.1127
65.5888,44.1088
65.5909,44.1056
65.5942,44.1034
65.5980,44.1027
67.4980,44.1027
67.5018,44.1034
67.5051,44.1056
67.5072,44.1088
67.5080,44.1127
Z" /> 
<path style="fill:#000000; fill-opacity:1.0000; stroke:none;fill-rule:evenodd;"
d="M 67.5080,48.5127
67.5072,48.5165
67.5051,48.5197
67.5018,48.5219
67.4980,48.5227
65.5980,48.5227
65.5942,48.5219
65.5909,48.5197
65.5888,48.5165
65.5880,48.5127
65.5880,47.3127
65.5888,47.3088
65.5909,47.3056
65.5942,47.3034
65.5980,47.3027
67.4980,47.3027
67.5018,47.3034
67.5051,47.3056
67.5072,47.3088
67.5080,47.3127
Z" /> 
<path style="fill:#000000; fill-opacity:1.0000; stroke:none;fill-rule:evenodd;"
d="M 108.7830,56.4713
108.7822,56.4752
108.7801,56.4784
108.7768,56.4806
108.7730,56.4813
106.8730,56.4813
106.8692,56.4806
106.8659,56.4784
106.8638,56.4752
106.8630,56.4713
106.8630,55.2713
106.8638,55.2675
106.8659,55.2643
106.8692,55.2621
106.8730,55.2613
108.7730,55.2613
108.7768,55.2621
108.7801,55.2643
108.7822,55.2675
108.7830,55.2713
Z" /> 
<path style="fill:#000000; fill-opacity:1.0000; stroke:none;fill-rule:evenodd;"
d="M 108.7830,53.2713
108.7822,53.2752
108.7801,53.2784
108.7768,53.2806
108.7730,53.2813
106.8730,53.2813
106.8692,53.2806
106.8659,53.2784
106.8638,53.2752
106.8630,53.2713
106.8630,52.0713
106.8638,52.0675
106.8659,52.0643
106.8692,52.0621
106.8730,52.0613
108.7730,52.0613
108.7768,52.0621
108.7801,52.0643
108.7822,52.0675
108.7830,52.0713
Z" /> 
<path style="fill:#000000; fill-opacity:1.0000; stroke:none;fill-rule:evenodd;"
d="M 103.1950,53.2713
103.1942,53.2752
103.1921,53.2784
103.1888,53.2806
103.1850,53.2813
101.2850,53.2813
101.2812,53.2806
101.2779,53.2784
101.2758,53.2752
101.2750,53.2713
101.2750,52.0713
101.2758,52.0675
101.2779,52.0643
101.2812,52.0621
101.2850,52.0613
103.1850,52.0613
103.1888,52.0621
103.1921,52.0643
103.1942,52.0675
103.1950,52.0713
Z" /> 
<path style="fill:#000000; fill-opacity:1.0000; stroke:none;fill-rule:evenodd;"
d="M 103.1950,56.4713
103.1942,56.4752
103.1921,56.4784
103.1888,56.4806
103.1850,56.4813
101.2850,56.4813
101.2812,56.4806
101.2779,56.4784
101.2758,56.4752
101.2750,56.4713
101.2750,55.2713
101.2758,55.2675
101.2779,55.2643
101.2812,55.2621
101.2850,55.2613
103.1850,55.2613
103.1888,55.2621
103.1921,55.2643
103.1942,55.2675
103.1950,55.2713
Z" /> 
<path style="fill:#000000; fill-opacity:1.0000; stroke:none;fill-rule:evenodd;"
d="M 82.0177,56.4713
82.0170,56.4752
82.0148,56.4784
82.0116,56.4806
82.0078,56.4813
80.1077,56.4813
80.1039,56.4806
80.1007,56.4784
80.0985,56.4752
80.0977,56.4713
80.0977,55.2713
80.0985,55.2675
80.1007,55.2643
80.1039,55.2621
80.1077,55.2613
82.0078,55.2613
82.0116,55.2621
82.0148,55.2643
82.0170,55.2675
82.0177,55.2713
Z" /> 
<path style="fill:#000000; fill-opacity:1.0000; stroke:none;fill-rule:evenodd;"
d="M 82.0177,53.2713
82.0170,53.2752
82.0148,53.2784
82.0116,53.2806
82.0078,53.2813
80.1077,53.2813
80.1039,53.2806
80.1007,53.2784
80.0985,53.2752
80.0977,53.2713
80.0977,52.0713
80.0985,52.0675
80.1007,52.0643
80.1039,52.0621
80.1077,52.0613
82.0078,52.0613
82.0116,52.0621
82.0148,52.0643
82.0170,52.0675
82.0177,52.0713
Z" /> 
<path style="fill:#000000; fill-opacity:1.0000; stroke:none;fill-rule:evenodd;"
d="M 76.4297,53.2713
76.4290,53.2752
76.4268,53.2784
76.4236,53.2806
76.4197,53.2813
74.5198,53.2813
74.5159,53.2806
74.5127,53.2784
74.5105,53.2752
74.5097,53.2713
74.5097,52.0713
74.5105,52.0675
74.5127,52.0643
74.5159,52.0621
74.5198,52.0613
76.4197,52.0613
76.4236,52.0621
76.4268,52.0643
76.4290,52.0675
76.4297,52.0713
Z" /> 
<path style="fill:#000000; fill-opacity:1.0000; stroke:none;fill-rule:evenodd;"
d="M 76.4297,56.4713
76.4290,56.4752
76.4268,56.4784
76.4236,56.4806
76.4197,56.4813
74.5198,56.4813
74.5159,56.4806
74.5127,56.4784
74.5105,56.4752
74.5097,56.4713
74.5097,55.2713
74.5105,55.2675
74.5127,55.2643
74.5159,55.2621
74.5198,55.2613
76.4197,55.2613
76.4236,55.2621
76.4268,55.2643
76.4290,55.2675
76.4297,55.2713
Z" /> 
<path style="fill:#000000; fill-opacity:1.0000; stroke:none;fill-rule:evenodd;"
d="M 90.9395,56.4713
90.9387,56.4752
90.9366,56.4784
90.9333,56.4806
90.9295,56.4813
89.0295,56.4813
89.0257,56.4806
89.0224,56.4784
89.0203,56.4752
89.0195,56.4713
89.0195,55.2713
89.0203,55.2675
89.0224,55.2643
89.0257,55.2621
89.0295,55.2613
90.9295,55.2613
90.9333,55.2621
90.9366,55.2643
90.9387,55.2675
90.9395,55.2713
Z" /> 
<path style="fill:#000000; fill-opacity:1.0000; stroke:none;fill-rule:evenodd;"
d="M 90.9395,53.2713
90.9387,53.2752
90.9366,53.2784
90.9333,53.2806
90.9295,53.2813
89.0295,53.2813
89.0257,53.2806
89.0224,53.2784
89.0203,53.2752
89.0195,53.2713
89.0195,52.0713
89.0203,52.0675
89.0224,52.0643
89.0257,52.0621
89.0295,52.0613
90.9295,52.0613
90.9333,52.0621
90.9366,52.0643
90.9387,52.0675
90.9395,52.0713
Z" /> 
<path style="fill:#000000; fill-opacity:1.0000; stroke:none;fill-rule:evenodd;"
d="M 85.3515,53.2713
85.3507,53.2752
85.3486,53.2784
85.3453,53.2806
85.3415,53.2813
83.4415,53.2813
83.4377,53.2806
83.4344,53.2784
83.4323,53.2752
83.4315,53.2713
83.4315,52.0713
83.4323,52.0675
83.4344,52.0643
83.4377,52.0621
83.4415,52.0613
85.3415,52.0613
85.3453,52.0621
85.3486,52.0643
85.3507,52.0675
85.3515,52.0713
Z" /> 
<path style="fill:#000000; fill-opacity:1.0000; stroke:none;fill-rule:evenodd;"
d="M 85.3515,56.4713
85.3507,56.4752
85.3486,56.4784
85.3453,56.4806
85.3415,56.4813
83.4415,56.4813
83.4377,56.4806
83.4344,56.4784
83.4323,56.4752
83.4315,56.4713
83.4315,55.2713
83.4323,55.2675
83.4344,55.2643
83.4377,55.2621
83.4415,55.2613
85.3415,55.2613
85.3453,55.2621
85.3486,55.2643
85.3507,55.2675
85.3515,55.2713
Z" /> 
<path style="fill:#000000; fill-opacity:1.0000; stroke:none;fill-rule:evenodd;"
d="M 99.8612,56.4713
99.8605,56.4752
99.8583,56.4784
99.8551,56.4806
99.8512,56.4813
97.9513,56.4813
97.9474,56.4806
97.9442,56.4784
97.9420,56.4752
97.9412,56.4713
97.9412,55.2713
97.9420,55.2675
97.9442,55.2643
97.9474,55.2621
97.9513,55.2613
99.8512,55.2613
99.8551,55.2621
99.8583,55.2643
99.8605,55.2675
99.8612,55.2713
Z" /> 
<path style="fill:#000000; fill-opacity:1.0000; stroke:none;fill-rule:evenodd;"
d="M 99.8612,53.2713
99.8605,53.2752
99.8583,53.2784
99.8551,53.2806
99.8512,53.2813
97.9513,53.2813
97.9474,53.2806
97.9442,53.2784
97.9420,53.2752
97.9412,53.2713
97.9412,52.0713
97.9420,52.0675
97.9442,52.0643
97.9474,52.0621
97.9513,52.0613
99.8512,52.0613
99.8551,52.0621
99.8583,52.0643
99.8605,52.0675
99.8612,52.0713
Z" /> 
<path style="fill:#000000; fill-opacity:1.0000; stroke:none;fill-rule:evenodd;"
d="M 94.2732,53.2713
94.2725,53.2752
94.2703,53.2784
94.2671,53.2806
94.2632,53.2813
92.3632,53.2813
92.3594,53.2806
92.3562,53.2784
92.3540,53.2752
92.3533,53.2713
92.3533,52.0713
92.3540,52.0675
92.3562,52.0643
92.3594,52.0621
92.3632,52.0613
94.2632,52.0613
94.2671,52.0621
94.2703,52.0643
94.2725,52.0675
94.2732,52.0713
Z" /> 
<path style="fill:#000000; fill-opacity:1.0000; stroke:none;fill-rule:evenodd;"
d="M 94.2732,56.4713
94.2725,56.4752
94.2703,56.4784
94.2671,56.4806
94.2632,56.4813
92.3632,56.4813
92.3594,56.4806
92.3562,56.4784
92.3540,56.4752
92.3533,56.4713
92.3533,55.2713
92.3540,55.2675
92.3562,55.2643
92.3594,55.2621
92.3632,55.2613
94.2632,55.2613
94.2671,55.2621
94.2703,55.2643
94.2725,55.2675
94.2732,55.2713
Z" /> 
<path style="fill:#000000; fill-opacity:1.0000; stroke:none;fill-rule:evenodd;"
d="M 73.0960,56.4713
73.0952,56.4752
73.0931,56.4784
73.0898,56.4806
73.0860,56.4813
71.1860,56.4813
71.1822,56.4806
71.1789,56.4784
71.1768,56.4752
71.1760,56.4713
71.1760,55.2713
71.1768,55.2675
71.1789,55.2643
71.1822,55.2621
71.1860,55.2613
73.0860,55.2613
73.0898,55.2621
73.0931,55.2643
73.0952,55.2675
73.0960,55.2713
Z" /> 
<path style="fill:#000000; fill-opacity:1.0000; stroke:none;fill-rule:evenodd;"
d="M 73.0960,53.2713
73.0952,53.2752
73.0931,53.2784
73.0898,53.2806
73.0860,53.2813
71.1860,53.2813
71.1822,53.2806
71.1789,53.2784
71.1768,53.2752
71.1760,53.2713
71.1760,52.0713
71.1768,52.0675
71.1789,52.0643
71.1822,52.0621
71.1860,52.0613
73.0860,52.0613
73.0898,52.0621
73.0931,52.0643
73.0952,52.0675
73.0960,52.0713
Z" /> 
<path style="fill:#000000; fill-opacity:1.0000; stroke:none;fill-rule:evenodd;"
d="M 67.5080,53.2713
67.5072,53.2752
67.5051,53.2784
67.5018,53.2806
67.4980,53.2813
65.5980,53.2813
65.5942,53.2806
65.5909,53.2784
65.5888,53.2752
65.5880,53.2713
65.5880,52.0713
65.5888,52.0675
65.5909,52.0643
65.5942,52.0621
65.5980,52.0613
67.4980,52.0613
67.5018,52.0621
67.5051,52.0643
67.5072,52.0675
67.5080,52.0713
Z" /> 
<path style="fill:#000000; fill-opacity:1.0000; stroke:none;fill-rule:evenodd;"
d="M 67.5080,56.4713
67.5072,56.4752
67.5051,56.4784
67.5018,56.4806
67.4980,56.4813
65.5980,56.4813
65.5942,56.4806
65.5909,56.4784
65.5888,56.4752
65.5880,56.4713
65.5880,55.2713
65.5888,55.2675
65.5909,55.2643
65.5942,55.2621
65.5980,55.2613
67.4980,55.2613
67.5018,55.2621
67.5051,55.2643
67.5072,55.2675
67.5080,55.2713
Z" /> 
<path style="fill:#000000; fill-opacity:1.0000; stroke:none;fill-rule:evenodd;"
d="M 108.7830,48.5127
108.7822,48.5165
108.7801,48.5197
108.7768,48.5219
108.7730,48.5227
106.8730,48.5227
106.8692,48.5219
106.8659,48.5197
106.8638,48.5165
106.8630,48.5127
106.8630,47.3127
106.8638,47.3088
106.8659,47.3056
106.8692,47.3034
106.8730,47.3027
108.7730,47.3027
108.7768,47.3034
108.7801,47.3056
108.7822,47.3088
108.7830,47.3127
Z" /> 
<path style="fill:#000000; fill-opacity:1.0000; stroke:none;fill-rule:evenodd;"
d="M 108.7830,45.3127
108.7822,45.3165
108.7801,45.3197
108.7768,45.3219
108.7730,45.3227
106.8730,45.3227
106.8692,45.3219
106.8659,45.3197
106.8638,45.3165
106.8630,45.3127
106.8630,44.1127
106.8638,44.1088
106.8659,44.1056
106.8692,44.1034
106.8730,44.1027
108.7730,44.1027
108.7768,44.1034
108.7801,44.1056
108.7822,44.1088
108.7830,44.1127
Z" /> 
<path style="fill:#000000; fill-opacity:1.0000; stroke:none;fill-rule:evenodd;"
d="M 103.1950,45.3127
103.1942,45.3165
103.1921,45.3197
103.1888,45.3219
103.1850,45.3227
101.2850,45.3227
101.2812,45.3219
101.2779,45.3197
101.2758,45.3165
101.2750,45.3127
101.2750,44.1127
101.2758,44.1088
101.2779,44.1056
101.2812,44.1034
101.2850,44.1027
103.1850,44.1027
103.1888,44.1034
103.1921,44.1056
103.1942,44.1088
103.1950,44.1127
Z" /> 
<path style="fill:#000000; fill-opacity:1.0000; stroke:none;fill-rule:evenodd;"
d="M 103.1950,48.5127
103.1942,48.5165
103.1921,48.5197
103.1888,48.5219
103.1850,48.5227
101.2850,48.5227
101.2812,48.5219
101.2779,48.5197
101.2758,48.5165
101.2750,48.5127
101.2750,47.3127
101.2758,47.3088
101.2779,47.3056
101.2812,47.3034
101.2850,47.3027
103.1850,47.3027
103.1888,47.3034
103.1921,47.3056
103.1942,47.3088
103.1950,47.3127
Z" /> 
<path style="fill:#000000; fill-opacity:1.0000; stroke:none;fill-rule:evenodd;"
d="M 90.9395,48.5127
90.9387,48.5165
90.9366,48.5197
90.9333,48.5219
90.9295,48.5227
89.0295,48.5227
89.0257,48.5219
89.0224,48.5197
89.0203,48.5165
89.0195,48.5127
89.0195,47.3127
89.0203,47.3088
89.0224,47.3056
89.0257,47.3034
89.0295,47.3027
90.9295,47.3027
90.9333,47.3034
90.9366,47.3056
90.9387,47.3088
90.9395,47.3127
Z" /> 
<path style="fill:#000000; fill-opacity:1.0000; stroke:none;fill-rule:evenodd;"
d="M 90.9395,45.3127
90.9387,45.3165
90.9366,45.3197
90.9333,45.3219
90.9295,45.3227
89.0295,45.3227
89.0257,45.3219
89.0224,45.3197
89.0203,45.3165
89.0195,45.3127
89.0195,44.1127
89.0203,44.1088
89.0224,44.1056
89.0257,44.1034
89.0295,44.1027
90.9295,44.1027
90.9333,44.1034
90.9366,44.1056
90.9387,44.1088
90.9395,44.1127
Z" /> 
<path style="fill:#000000; fill-opacity:1.0000; stroke:none;fill-rule:evenodd;"
d="M 85.3515,45.3127
85.3507,45.3165
85.3486,45.3197
85.3453,45.3219
85.3415,45.3227
83.4415,45.3227
83.4377,45.3219
83.4344,45.3197
83.4323,45.3165
83.4315,45.3127
83.4315,44.1127
83.4323,44.1088
83.4344,44.1056
83.4377,44.1034
83.4415,44.1027
85.3415,44.1027
85.3453,44.1034
85.3486,44.1056
85.3507,44.1088
85.3515,44.1127
Z" /> 
<path style="fill:#000000; fill-opacity:1.0000; stroke:none;fill-rule:evenodd;"
d="M 85.3515,48.5127
85.3507,48.5165
85.3486,48.5197
85.3453,48.5219
85.3415,48.5227
83.4415,48.5227
83.4377,48.5219
83.4344,48.5197
83.4323,48.5165
83.4315,48.5127
83.4315,47.3127
83.4323,47.3088
83.4344,47.3056
83.4377,47.3034
83.4415,47.3027
85.3415,47.3027
85.3453,47.3034
85.3486,47.3056
85.3507,47.3088
85.3515,47.3127
Z" /> 
<path style="fill:#000000; fill-opacity:1.0000; stroke:none;fill-rule:evenodd;"
d="M 82.0177,48.5127
82.0170,48.5165
82.0148,48.5197
82.0116,48.5219
82.0078,48.5227
80.1077,48.5227
80.1039,48.5219
80.1007,48.5197
80.0985,48.5165
80.0977,48.5127
80.0977,47.3127
80.0985,47.3088
80.1007,47.3056
80.1039,47.3034
80.1077,47.3027
82.0078,47.3027
82.0116,47.3034
82.0148,47.3056
82.0170,47.3088
82.0177,47.3127
Z" /> 
<path style="fill:#000000; fill-opacity:1.0000; stroke:none;fill-rule:evenodd;"
d="M 82.0177,45.3127
82.0170,45.3165
82.0148,45.3197
82.0116,45.3219
82.0078,45.3227
80.1077,45.3227
80.1039,45.3219
80.1007,45.3197
80.0985,45.3165
80.0977,45.3127
80.0977,44.1127
80.0985,44.1088
80.1007,44.1056
80.1039,44.1034
80.1077,44.1027
82.0078,44.1027
82.0116,44.1034
82.0148,44.1056
82.0170,44.1088
82.0177,44.1127
Z" /> 
<path style="fill:#000000; fill-opacity:1.0000; stroke:none;fill-rule:evenodd;"
d="M 76.4297,45.3127
76.4290,45.3165
76.4268,45.3197
76.4236,45.3219
76.4197,45.3227
74.5198,45.3227
74.5159,45.3219
74.5127,45.3197
74.5105,45.3165
74.5097,45.3127
74.5097,44.1127
74.5105,44.1088
74.5127,44.1056
74.5159,44.1034
74.5198,44.1027
76.4197,44.1027
76.4236,44.1034
76.4268,44.1056
76.4290,44.1088
76.4297,44.1127
Z" /> 
<path style="fill:#000000; fill-opacity:1.0000; stroke:none;fill-rule:evenodd;"
d="M 76.4297,48.5127
76.4290,48.5165
76.4268,48.5197
76.4236,48.5219
76.4197,48.5227
74.5198,48.5227
74.5159,48.5219
74.5127,48.5197
74.5105,48.5165
74.5097,48.5127
74.5097,47.3127
74.5105,47.3088
74.5127,47.3056
74.5159,47.3034
74.5198,47.3027
76.4197,47.3027
76.4236,47.3034
76.4268,47.3056
76.4290,47.3088
76.4297,47.3127
Z" /> 
<path style="fill:#000000; fill-opacity:1.0000; stroke:none;fill-rule:evenodd;"
d="M 99.8612,48.5127
99.8605,48.5165
99.8583,48.5197
99.8551,48.5219
99.8512,48.5227
97.9513,48.5227
97.9474,48.5219
97.9442,48.5197
97.9420,48.5165
97.9412,48.5127
97.9412,47.3127
97.9420,47.3088
97.9442,47.3056
97.9474,47.3034
97.9513,47.3027
99.8512,47.3027
99.8551,47.3034
99.8583,47.3056
99.8605,47.3088
99.8612,47.3127
Z" /> 
<path style="fill:#000000; fill-opacity:1.0000; stroke:none;fill-rule:evenodd;"
d="M 99.8612,45.3127
99.8605,45.3165
99.8583,45.3197
99.8551,45.3219
99.8512,45.3227
97.9513,45.3227
97.9474,45.3219
97.9442,45.3197
97.9420,45.3165
97.9412,45.3127
97.9412,44.1127
97.9420,44.1088
97.9442,44.1056
97.9474,44.1034
97.9513,44.1027
99.8512,44.1027
99.8551,44.1034
99.8583,44.1056
99.8605,44.1088
99.8612,44.1127
Z" /> 
<path style="fill:#000000; fill-opacity:1.0000; stroke:none;fill-rule:evenodd;"
d="M 94.2732,45.3127
94.2725,45.3165
94.2703,45.3197
94.2671,45.3219
94.2632,45.3227
92.3632,45.3227
92.3594,45.3219
92.3562,45.3197
92.3540,45.3165
92.3533,45.3127
92.3533,44.1127
92.3540,44.1088
92.3562,44.1056
92.3594,44.1034
92.3632,44.1027
94.2632,44.1027
94.2671,44.1034
94.2703,44.1056
94.2725,44.1088
94.2732,44.1127
Z" /> 
<path style="fill:#000000; fill-opacity:1.0000; stroke:none;fill-rule:evenodd;"
d="M 94.2732,48.5127
94.2725,48.5165
94.2703,48.5197
94.2671,48.5219
94.2632,48.5227
92.3632,48.5227
92.3594,48.5219
92.3562,48.5197
92.3540,48.5165
92.3533,48.5127
92.3533,47.3127
92.3540,47.3088
92.3562,47.3056
92.3594,47.3034
92.3632,47.3027
94.2632,47.3027
94.2671,47.3034
94.2703,47.3056
94.2725,47.3088
94.2732,47.3127
Z" /> 
<path style="fill:#000000; fill-opacity:1.0000; stroke:none;fill-rule:evenodd;"
d="M 73.0960,64.4300
73.0952,64.4338
73.0931,64.4371
73.0898,64.4392
73.0860,64.4400
71.1860,64.4400
71.1822,64.4392
71.1789,64.4371
71.1768,64.4338
71.1760,64.4300
71.1760,63.2300
71.1768,63.2262
71.1789,63.2229
71.1822,63.2208
71.1860,63.2200
73.0860,63.2200
73.0898,63.2208
73.0931,63.2229
73.0952,63.2262
73.0960,63.2300
Z" /> 
<path style="fill:#000000; fill-opacity:1.0000; stroke:none;fill-rule:evenodd;"
d="M 73.0960,61.2300
73.0952,61.2338
73.0931,61.2371
73.0898,61.2392
73.0860,61.2400
71.1860,61.2400
71.1822,61.2392
71.1789,61.2371
71.1768,61.2338
71.1760,61.2300
71.1760,60.0300
71.1768,60.0262
71.1789,60.0229
71.1822,60.0208
71.1860,60.0200
73.0860,60.0200
73.0898,60.0208
73.0931,60.0229
73.0952,60.0262
73.0960,60.0300
Z" /> 
<path style="fill:#000000; fill-opacity:1.0000; stroke:none;fill-rule:evenodd;"
d="M 67.5080,61.2300
67.5072,61.2338
67.5051,61.2371
67.5018,61.2392
67.4980,61.2400
65.5980,61.2400
65.5942,61.2392
65.5909,61.2371
65.5888,61.2338
65.5880,61.2300
65.5880,60.0300
65.5888,60.0262
65.5909,60.0229
65.5942,60.0208
65.5980,60.0200
67.4980,60.0200
67.5018,60.0208
67.5051,60.0229
67.5072,60.0262
67.5080,60.0300
Z" /> 
<path style="fill:#000000; fill-opacity:1.0000; stroke:none;fill-rule:evenodd;"
d="M 67.5080,64.4300
67.5072,64.4338
67.5051,64.4371
67.5018,64.4392
67.4980,64.4400
65.5980,64.4400
65.5942,64.4392
65.5909,64.4371
65.5888,64.4338
65.5880,64.4300
65.5880,63.2300
65.5888,63.2262
65.5909,63.2229
65.5942,63.2208
65.5980,63.2200
67.4980,63.2200
67.5018,63.2208
67.5051,63.2229
67.5072,63.2262
67.5080,63.2300
Z" /> 
<path style="fill:#000000; fill-opacity:1.0000; stroke:none;fill-rule:evenodd;"
d="M 73.0960,40.5540
73.0952,40.5578
73.0931,40.5611
73.0898,40.5632
73.0860,40.5640
71.1860,40.5640
71.1822,40.5632
71.1789,40.5611
71.1768,40.5578
71.1760,40.5540
71.1760,39.3540
71.1768,39.3502
71.1789,39.3469
71.1822,39.3448
71.1860,39.3440
73.0860,39.3440
73.0898,39.3448
73.0931,39.3469
73.0952,39.3502
73.0960,39.3540
Z" /> 
<path style="fill:#000000; fill-opacity:1.0000; stroke:none;fill-rule:evenodd;"
d="M 73.0960,37.3540
73.0952,37.3578
73.0931,37.3611
73.0898,37.3632
73.0860,37.3640
71.1860,37.3640
71.1822,37.3632
71.1789,37.3611
71.1768,37.3578
71.1760,37.3540
71.1760,36.1540
71.1768,36.1502
71.1789,36.1469
71.1822,36.1448
71.1860,36.1440
73.0860,36.1440
73.0898,36.1448
73.0931,36.1469
73.0952,36.1502
73.0960,36.1540
Z" /> 
<path style="fill:#000000; fill-opacity:1.0000; stroke:none;fill-rule:evenodd;"
d="M 67.5080,37.3540
67.5072,37.3578
67.5051,37.3611
67.5018,37.3632
67.4980,37.3640
65.5980,37.3640
65.5942,37.3632
65.5909,37.3611
65.5888,37.3578
65.5880,37.3540
65.5880,36.1540
65.5888,36.1502
65.5909,36.1469
65.5942,36.1448
65.5980,36.1440
67.4980,36.1440
67.5018,36.1448
67.5051,36.1469
67.5072,36.1502
67.5080,36.1540
Z" /> 
<path style="fill:#000000; fill-opacity:1.0000; stroke:none;fill-rule:evenodd;"
d="M 67.5080,40.5540
67.5072,40.5578
67.5051,40.5611
67.5018,40.5632
67.4980,40.5640
65.5980,40.5640
65.5942,40.5632
65.5909,40.5611
65.5888,40.5578
65.5880,40.5540
65.5880,39.3540
65.5888,39.3502
65.5909,39.3469
65.5942,39.3448
65.5980,39.3440
67.4980,39.3440
67.5018,39.3448
67.5051,39.3469
67.5072,39.3502
67.5080,39.3540
Z" /> 
<path style="fill:#000000; fill-opacity:1.0000; stroke:none;fill-rule:evenodd;"
d="M 108.7830,40.5540
108.7822,40.5578
108.7801,40.5611
108.7768,40.5632
108.7730,40.5640
106.8730,40.5640
106.8692,40.5632
106.8659,40.5611
106.8638,40.5578
106.8630,40.5540
106.8630,39.3540
106.8638,39.3502
106.8659,39.3469
106.8692,39.3448
106.8730,39.3440
108.7730,39.3440
108.7768,39.3448
108.7801,39.3469
108.7822,39.3502
108.7830,39.3540
Z" /> 
<path style="fill:#000000; fill-opacity:1.0000; stroke:none;fill-rule:evenodd;"
d="M 108.7830,37.3540
108.7822,37.3578
108.7801,37.3611
108.7768,37.3632
108.7730,37.3640
106.8730,37.3640
106.8692,37.3632
106.8659,37.3611
106.8638,37.3578
106.8630,37.3540
106.8630,36.1540
106.8638,36.1502
106.8659,36.1469
106.8692,36.1448
106.8730,36.1440
108.7730,36.1440
108.7768,36.1448
108.7801,36.1469
108.7822,36.1502
108.7830,36.1540
Z" /> 
<path style="fill:#000000; fill-opacity:1.0000; stroke:none;fill-rule:evenodd;"
d="M 103.1950,37.3540
103.1942,37.3578
103.1921,37.3611
103.1888,37.3632
103.1850,37.3640
101.2850,37.3640
101.2812,37.3632
101.2779,37.3611
101.2758,37.3578
101.2750,37.3540
101.2750,36.1540
101.2758,36.1502
101.2779,36.1469
101.2812,36.1448
101.2850,36.1440
103.1850,36.1440
103.1888,36.1448
103.1921,36.1469
103.1942,36.1502
103.1950,36.1540
Z" /> 
<path style="fill:#000000; fill-opacity:1.0000; stroke:none;fill-rule:evenodd;"
d="M 103.1950,40.5540
103.1942,40.5578
103.1921,40.5611
103.1888,40.5632
103.1850,40.5640
101.2850,40.5640
101.2812,40.5632
101.2779,40.5611
101.2758,40.5578
101.2750,40.5540
101.2750,39.3540
101.2758,39.3502
101.2779,39.3469
101.2812,39.3448
101.2850,39.3440
103.1850,39.3440
103.1888,39.3448
103.1921,39.3469
103.1942,39.3502
103.1950,39.3540
Z" /> 
<path style="fill:#000000; fill-opacity:1.0000; stroke:none;fill-rule:evenodd;"
d="M 108.7830,64.4300
108.7822,64.4338
108.7801,64.4371
108.7768,64.4392
108.7730,64.4400
106.8730,64.4400
106.8692,64.4392
106.8659,64.4371
106.8638,64.4338
106.8630,64.4300
106.8630,63.2300
106.8638,63.2262
106.8659,63.2229
106.8692,63.2208
106.8730,63.2200
108.7730,63.2200
108.7768,63.2208
108.7801,63.2229
108.7822,63.2262
108.7830,63.2300
Z" /> 
<path style="fill:#000000; fill-opacity:1.0000; stroke:none;fill-rule:evenodd;"
d="M 108.7830,61.2300
108.7822,61.2338
108.7801,61.2371
108.7768,61.2392
108.7730,61.2400
106.8730,61.2400
106.8692,61.2392
106.8659,61.2371
106.8638,61.2338
106.8630,61.2300
106.8630,60.0300
106.8638,60.0262
106.8659,60.0229
106.8692,60.0208
106.8730,60.0200
108.7730,60.0200
108.7768,60.0208
108.7801,60.0229
108.7822,60.0262
108.7830,60.0300
Z" /> 
<path style="fill:#000000; fill-opacity:1.0000; stroke:none;fill-rule:evenodd;"
d="M 103.1950,61.2300
103.1942,61.2338
103.1921,61.2371
103.1888,61.2392
103.1850,61.2400
101.2850,61.2400
101.2812,61.2392
101.2779,61.2371
101.2758,61.2338
101.2750,61.2300
101.2750,60.0300
101.2758,60.0262
101.2779,60.0229
101.2812,60.0208
101.2850,60.0200
103.1850,60.0200
103.1888,60.0208
103.1921,60.0229
103.1942,60.0262
103.1950,60.0300
Z" /> 
<path style="fill:#000000; fill-opacity:1.0000; stroke:none;fill-rule:evenodd;"
d="M 103.1950,64.4300
103.1942,64.4338
103.1921,64.4371
103.1888,64.4392
103.1850,64.4400
101.2850,64.4400
101.2812,64.4392
101.2779,64.4371
101.2758,64.4338
101.2750,64.4300
101.2750,63.2300
101.2758,63.2262
101.2779,63.2229
101.2812,63.2208
101.2850,63.2200
103.1850,63.2200
103.1888,63.2208
103.1921,63.2229
103.1942,63.2262
103.1950,63.2300
Z" /> 
<path style="fill:#000000; fill-opacity:1.0000; stroke:none;fill-rule:evenodd;"
d="M 99.8612,64.4300
99.8605,64.4338
99.8583,64.4371
99.8551,64.4392
99.8512,64.4400
97.9513,64.4400
97.9474,64.4392
97.9442,64.4371
97.9420,64.4338
97.9412,64.4300
97.9412,63.2300
97.9420,63.2262
97.9442,63.2229
97.9474,63.2208
97.9513,63.2200
99.8512,63.2200
99.8551,63.2208
99.8583,63.2229
99.8605,63.2262
99.8612,63.2300
Z" /> 
<path style="fill:#000000; fill-opacity:1.0000; stroke:none;fill-rule:evenodd;"
d="M 99.8612,61.2300
99.8605,61.2338
99.8583,61.2371
99.8551,61.2392
99.8512,61.2400
97.9513,61.2400
97.9474,61.2392
97.9442,61.2371
97.9420,61.2338
97.9412,61.2300
97.9412,60.0300
97.9420,60.0262
97.9442,60.0229
97.9474,60.0208
97.9513,60.0200
99.8512,60.0200
99.8551,60.0208
99.8583,60.0229
99.8605,60.0262
99.8612,60.0300
Z" /> 
<path style="fill:#000000; fill-opacity:1.0000; stroke:none;fill-rule:evenodd;"
d="M 94.2732,61.2300
94.2725,61.2338
94.2703,61.2371
94.2671,61.2392
94.2632,61.2400
92.3632,61.2400
92.3594,61.2392
92.3562,61.2371
92.3540,61.2338
92.3533,61.2300
92.3533,60.0300
92.3540,60.0262
92.3562,60.0229
92.3594,60.0208
92.3632,60.0200
94.2632,60.0200
94.2671,60.0208
94.2703,60.0229
94.2725,60.0262
94.2732,60.0300
Z" /> 
<path style="fill:#000000; fill-opacity:1.0000; stroke:none;fill-rule:evenodd;"
d="M 94.2732,64.4300
94.2725,64.4338
94.2703,64.4371
94.2671,64.4392
94.2632,64.4400
92.3632,64.4400
92.3594,64.4392
92.3562,64.4371
92.3540,64.4338
92.3533,64.4300
92.3533,63.2300
92.3540,63.2262
92.3562,63.2229
92.3594,63.2208
92.3632,63.2200
94.2632,63.2200
94.2671,63.2208
94.2703,63.2229
94.2725,63.2262
94.2732,63.2300
Z" /> 
<path style="fill:#000000; fill-opacity:1.0000; stroke:none;fill-rule:evenodd;"
d="M 90.9395,64.4300
90.9387,64.4338
90.9366,64.4371
90.9333,64.4392
90.9295,64.4400
89.0295,64.4400
89.0257,64.4392
89.0224,64.4371
89.0203,64.4338
89.0195,64.4300
89.0195,63.2300
89.0203,63.2262
89.0224,63.2229
89.0257,63.2208
89.0295,63.2200
90.9295,63.2200
90.9333,63.2208
90.9366,63.2229
90.9387,63.2262
90.9395,63.2300
Z" /> 
<path style="fill:#000000; fill-opacity:1.0000; stroke:none;fill-rule:evenodd;"
d="M 90.9395,61.2300
90.9387,61.2338
90.9366,61.2371
90.9333,61.2392
90.9295,61.2400
89.0295,61.2400
89.0257,61.2392
89.0224,61.2371
89.0203,61.2338
89.0195,61.2300
89.0195,60.0300
89.0203,60.0262
89.0224,60.0229
89.0257,60.0208
89.0295,60.0200
90.9295,60.0200
90.9333,60.0208
90.9366,60.0229
90.9387,60.0262
90.9395,60.0300
Z" /> 
<path style="fill:#000000; fill-opacity:1.0000; stroke:none;fill-rule:evenodd;"
d="M 85.3515,61.2300
85.3507,61.2338
85.3486,61.2371
85.3453,61.2392
85.3415,61.2400
83.4415,61.2400
83.4377,61.2392
83.4344,61.2371
83.4323,61.2338
83.4315,61.2300
83.4315,60.0300
83.4323,60.0262
83.4344,60.0229
83.4377,60.0208
83.4415,60.0200
85.3415,60.0200
85.3453,60.0208
85.3486,60.0229
85.3507,60.0262
85.3515,60.0300
Z" /> 
<path style="fill:#000000; fill-opacity:1.0000; stroke:none;fill-rule:evenodd;"
d="M 85.3515,64.4300
85.3507,64.4338
85.3486,64.4371
85.3453,64.4392
85.3415,64.4400
83.4415,64.4400
83.4377,64.4392
83.4344,64.4371
83.4323,64.4338
83.4315,64.4300
83.4315,63.2300
83.4323,63.2262
83.4344,63.2229
83.4377,63.2208
83.4415,63.2200
85.3415,63.2200
85.3453,63.2208
85.3486,63.2229
85.3507,63.2262
85.3515,63.2300
Z" /> 
<path style="fill:#000000; fill-opacity:1.0000; stroke:none;fill-rule:evenodd;"
d="M 82.0177,64.4300
82.0170,64.4338
82.0148,64.4371
82.0116,64.4392
82.0078,64.4400
80.1077,64.4400
80.1039,64.4392
80.1007,64.4371
80.0985,64.4338
80.0977,64.4300
80.0977,63.2300
80.0985,63.2262
80.1007,63.2229
80.1039,63.2208
80.1077,63.2200
82.0078,63.2200
82.0116,63.2208
82.0148,63.2229
82.0170,63.2262
82.0177,63.2300
Z" /> 
<path style="fill:#000000; fill-opacity:1.0000; stroke:none;fill-rule:evenodd;"
d="M 82.0177,61.2300
82.0170,61.2338
82.0148,61.2371
82.0116,61.2392
82.0078,61.2400
80.1077,61.2400
80.1039,61.2392
80.1007,61.2371
80.0985,61.2338
80.0977,61.2300
80.0977,60.0300
80.0985,60.0262
80.1007,60.0229
80.1039,60.0208
80.1077,60.0200
82.0078,60.0200
82.0116,60.0208
82.0148,60.0229
82.0170,60.0262
82.0177,60.0300
Z" /> 
<path style="fill:#000000; fill-opacity:1.0000; stroke:none;fill-rule:evenodd;"
d="M 76.4297,61.2300
76.4290,61.2338
76.4268,61.2371
76.4236,61.2392
76.4197,61.2400
74.5198,61.2400
74.5159,61.2392
74.5127,61.2371
74.5105,61.2338
74.5097,61.2300
74.5097,60.0300
74.5105,60.0262
74.5127,60.0229
74.5159,60.0208
74.5198,60.0200
76.4197,60.0200
76.4236,60.0208
76.4268,60.0229
76.4290,60.0262
76.4297,60.0300
Z" /> 
<path style="fill:#000000; fill-opacity:1.0000; stroke:none;fill-rule:evenodd;"
d="M 76.4297,64.4300
76.4290,64.4338
76.4268,64.4371
76.4236,64.4392
76.4197,64.4400
74.5198,64.4400
74.5159,64.4392
74.5127,64.4371
74.5105,64.4338
74.5097,64.4300
74.5097,63.2300
74.5105,63.2262
74.5127,63.2229
74.5159,63.2208
74.5198,63.2200
76.4197,63.2200
76.4236,63.2208
76.4268,63.2229
76.4290,63.2262
76.4297,63.2300
Z" /> 
<path style="fill:#000000; fill-opacity:1.0000; stroke:none;fill-rule:evenodd;"
d="M 99.8612,40.5540
99.8605,40.5578
99.8583,40.5611
99.8551,40.5632
99.8512,40.5640
97.9513,40.5640
97.9474,40.5632
97.9442,40.5611
97.9420,40.5578
97.9412,40.5540
97.9412,39.3540
97.9420,39.3502
97.9442,39.3469
97.9474,39.3448
97.9513,39.3440
99.8512,39.3440
99.8551,39.3448
99.8583,39.3469
99.8605,39.3502
99.8612,39.3540
Z" /> 
<path style="fill:#000000; fill-opacity:1.0000; stroke:none;fill-rule:evenodd;"
d="M 99.8612,37.3540
99.8605,37.3578
99.8583,37.3611
99.8551,37.3632
99.8512,37.3640
97.9513,37.3640
97.9474,37.3632
97.9442,37.3611
97.9420,37.3578
97.9412,37.3540
97.9412,36.1540
97.9420,36.1502
97.9442,36.1469
97.9474,36.1448
97.9513,36.1440
99.8512,36.1440
99.8551,36.1448
99.8583,36.1469
99.8605,36.1502
99.8612,36.1540
Z" /> 
<path style="fill:#000000; fill-opacity:1.0000; stroke:none;fill-rule:evenodd;"
d="M 94.2732,37.3540
94.2725,37.3578
94.2703,37.3611
94.2671,37.3632
94.2632,37.3640
92.3632,37.3640
92.3594,37.3632
92.3562,37.3611
92.3540,37.3578
92.3533,37.3540
92.3533,36.1540
92.3540,36.1502
92.3562,36.1469
92.3594,36.1448
92.3632,36.1440
94.2632,36.1440
94.2671,36.1448
94.2703,36.1469
94.2725,36.1502
94.2732,36.1540
Z" /> 
<path style="fill:#000000; fill-opacity:1.0000; stroke:none;fill-rule:evenodd;"
d="M 94.2732,40.5540
94.2725,40.5578
94.2703,40.5611
94.2671,40.5632
94.2632,40.5640
92.3632,40.5640
92.3594,40.5632
92.3562,40.5611
92.3540,40.5578
92.3533,40.5540
92.3533,39.3540
92.3540,39.3502
92.3562,39.3469
92.3594,39.3448
92.3632,39.3440
94.2632,39.3440
94.2671,39.3448
94.2703,39.3469
94.2725,39.3502
94.2732,39.3540
Z" /> 
<path style="fill:#000000; fill-opacity:1.0000; stroke:none;fill-rule:evenodd;"
d="M 90.9395,40.5540
90.9387,40.5578
90.9366,40.5611
90.9333,40.5632
90.9295,40.5640
89.0295,40.5640
89.0257,40.5632
89.0224,40.5611
89.0203,40.5578
89.0195,40.5540
89.0195,39.3540
89.0203,39.3502
89.0224,39.3469
89.0257,39.3448
89.0295,39.3440
90.9295,39.3440
90.9333,39.3448
90.9366,39.3469
90.9387,39.3502
90.9395,39.3540
Z" /> 
<path style="fill:#000000; fill-opacity:1.0000; stroke:none;fill-rule:evenodd;"
d="M 90.9395,37.3540
90.9387,37.3578
90.9366,37.3611
90.9333,37.3632
90.9295,37.3640
89.0295,37.3640
89.0257,37.3632
89.0224,37.3611
89.0203,37.3578
89.0195,37.3540
89.0195,36.1540
89.0203,36.1502
89.0224,36.1469
89.0257,36.1448
89.0295,36.1440
90.9295,36.1440
90.9333,36.1448
90.9366,36.1469
90.9387,36.1502
90.9395,36.1540
Z" /> 
<path style="fill:#000000; fill-opacity:1.0000; stroke:none;fill-rule:evenodd;"
d="M 85.3515,37.3540
85.3507,37.3578
85.3486,37.3611
85.3453,37.3632
85.3415,37.3640
83.4415,37.3640
83.4377,37.3632
83.4344,37.3611
83.4323,37.3578
83.4315,37.3540
83.4315,36.1540
83.4323,36.1502
83.4344,36.1469
83.4377,36.1448
83.4415,36.1440
85.3415,36.1440
85.3453,36.1448
85.3486,36.1469
85.3507,36.1502
85.3515,36.1540
Z" /> 
<path style="fill:#000000; fill-opacity:1.0000; stroke:none;fill-rule:evenodd;"
d="M 85.3515,40.5540
85.3507,40.5578
85.3486,40.5611
85.3453,40.5632
85.3415,40.5640
83.4415,40.5640
83.4377,40.5632
83.4344,40.5611
83.4323,40.5578
83.4315,40.5540
83.4315,39.3540
83.4323,39.3502
83.4344,39.3469
83.4377,39.3448
83.4415,39.3440
85.3415,39.3440
85.3453,39.3448
85.3486,39.3469
85.3507,39.3502
85.3515,39.3540
Z" /> 
<path style="fill:#000000; fill-opacity:1.0000; stroke:none;fill-rule:evenodd;"
d="M 82.0177,40.5540
82.0170,40.5578
82.0148,40.5611
82.0116,40.5632
82.0078,40.5640
80.1077,40.5640
80.1039,40.5632
80.1007,40.5611
80.0985,40.5578
80.0977,40.5540
80.0977,39.3540
80.0985,39.3502
80.1007,39.3469
80.1039,39.3448
80.1077,39.3440
82.0078,39.3440
82.0116,39.3448
82.0148,39.3469
82.0170,39.3502
82.0177,39.3540
Z" /> 
<path style="fill:#000000; fill-opacity:1.0000; stroke:none;fill-rule:evenodd;"
d="M 82.0177,37.3540
82.0170,37.3578
82.0148,37.3611
82.0116,37.3632
82.0078,37.3640
80.1077,37.3640
80.1039,37.3632
80.1007,37.3611
80.0985,37.3578
80.0977,37.3540
80.0977,36.1540
80.0985,36.1502
80.1007,36.1469
80.1039,36.1448
80.1077,36.1440
82.0078,36.1440
82.0116,36.1448
82.0148,36.1469
82.0170,36.1502
82.0177,36.1540
Z" /> 
<path style="fill:#000000; fill-opacity:1.0000; stroke:none;fill-rule:evenodd;"
d="M 76.4297,37.3540
76.4290,37.3578
76.4268,37.3611
76.4236,37.3632
76.4197,37.3640
74.5198,37.3640
74.5159,37.3632
74.5127,37.3611
74.5105,37.3578
74.5097,37.3540
74.5097,36.1540
74.5105,36.1502
74.5127,36.1469
74.5159,36.1448
74.5198,36.1440
76.4197,36.1440
76.4236,36.1448
76.4268,36.1469
76.4290,36.1502
76.4297,36.1540
Z" /> 
<path style="fill:#000000; fill-opacity:1.0000; stroke:none;fill-rule:evenodd;"
d="M 76.4297,40.5540
76.4290,40.5578
76.4268,40.5611
76.4236,40.5632
76.4197,40.5640
74.5198,40.5640
74.5159,40.5632
74.5127,40.5611
74.5105,40.5578
74.5097,40.5540
74.5097,39.3540
74.5105,39.3502
74.5127,39.3469
74.5159,39.3448
74.5198,39.3440
76.4197,39.3440
76.4236,39.3448
76.4268,39.3469
76.4290,39.3502
76.4297,39.3540
Z" /> 
<path style="fill:#000000; fill-opacity:1.0000; stroke:none;fill-rule:evenodd;"
d="M 61.4200,45.9670
61.4208,45.9632
61.4229,45.9599
61.4262,45.9578
61.4300,45.9570
63.0300,45.9570
63.0338,45.9578
63.0371,45.9599
63.0392,45.9632
63.0400,45.9670
63.0400,48.2670
63.0392,48.2708
63.0371,48.2741
63.0338,48.2762
63.0300,48.2770
61.4300,48.2770
61.4262,48.2762
61.4229,48.2741
61.4208,48.2708
61.4200,48.2670
Z" /> 
<path style="fill:#000000; fill-opacity:1.0000; stroke:none;fill-rule:evenodd;"
d="M 58.1680,46.0670
58.1688,46.0632
58.1709,46.0599
58.1742,46.0578
58.1780,46.0570
59.6780,46.0570
59.6818,46.0578
59.6851,46.0599
59.6872,46.0632
59.6880,46.0670
59.6880,48.1670
59.6872,48.1708
59.6851,48.1741
59.6818,48.1762
59.6780,48.1770
58.1780,48.1770
58.1742,48.1762
58.1709,48.1741
58.1688,48.1708
58.1680,48.1670
Z" /> 
<path style="fill:#000000; fill-opacity:1.0000; stroke:none;fill-rule:evenodd;"
d="M 57.9550,39.0175
57.9417,39.0845
57.9037,39.1412
57.8470,39.1792
57.7800,39.1925
57.4300,39.1925
57.3630,39.1792
57.3063,39.1412
57.2683,39.0845
57.2550,39.0175
57.2550,38.1675
57.2683,38.1005
57.3063,38.0438
57.3630,38.0058
57.4300,37.9925
57.7800,37.9925
57.8470,38.0058
57.9037,38.0438
57.9417,38.1005
57.9550,38.1675
Z" /> 
<path style="fill:#000000; fill-opacity:1.0000; stroke:none;fill-rule:evenodd;"
d="M 55.2050,38.1825
55.2195,38.1098
55.2606,38.0481
55.3223,38.0070
55.3950,37.9925
55.7750,37.9925
55.8477,38.0070
55.9093,38.0481
55.9505,38.1098
55.9650,38.1825
55.9650,39.0025
55.9505,39.0752
55.9093,39.1368
55.8477,39.1780
55.7750,39.1925
55.3950,39.1925
55.3223,39.1780
55.2606,39.1368
55.2195,39.0752
55.2050,39.0025
Z" /> 
<path style="fill:#000000; fill-opacity:1.0000; stroke:none;fill-rule:evenodd;"
d="M 53.9550,38.1925
53.9702,38.1160
54.0136,38.0511
54.0785,38.0077
54.1550,37.9925
54.5550,37.9925
54.6315,38.0077
54.6964,38.0511
54.7398,38.1160
54.7550,38.1925
54.7550,38.9925
54.7398,39.0690
54.6964,39.1339
54.6315,39.1773
54.5550,39.1925
54.1550,39.1925
54.0785,39.1773
54.0136,39.1339
53.9702,39.0690
53.9550,38.9925
Z" /> 
<path style="fill:#000000; fill-opacity:1.0000; stroke:none;fill-rule:evenodd;"
d="M 56.2550,38.1675
56.2683,38.1005
56.3063,38.0438
56.3630,38.0058
56.4300,37.9925
56.7800,37.9925
56.8470,38.0058
56.9037,38.0438
56.9417,38.1005
56.9550,38.1675
56.9550,39.0175
56.9417,39.0845
56.9037,39.1412
56.8470,39.1792
56.7800,39.1925
56.4300,39.1925
56.3630,39.1792
56.3063,39.1412
56.2683,39.0845
56.2550,39.0175
Z" /> 
<path style="fill:#000000; fill-opacity:1.0000; stroke:none;fill-rule:evenodd;"
d="M 59.0050,39.0025
58.9905,39.0752
58.9493,39.1368
58.8877,39.1780
58.8150,39.1925
58.4350,39.1925
58.3623,39.1780
58.3006,39.1368
58.2595,39.0752
58.2450,39.0025
58.2450,38.1825
58.2595,38.1098
58.3006,38.0481
58.3623,38.0070
58.4350,37.9925
58.8150,37.9925
58.8877,38.0070
58.9493,38.0481
58.9905,38.1098
59.0050,38.1825
Z" /> 
<path style="fill:#000000; fill-opacity:1.0000; stroke:none;fill-rule:evenodd;"
d="M 60.2550,38.9925
60.2398,39.0690
60.1964,39.1339
60.1315,39.1773
60.0550,39.1925
59.6550,39.1925
59.5785,39.1773
59.5136,39.1339
59.4702,39.0690
59.4550,38.9925
59.4550,38.1925
59.4702,38.1160
59.5136,38.0511
59.5785,38.0077
59.6550,37.9925
60.0550,37.9925
60.1315,38.0077
60.1964,38.0511
60.2398,38.1160
60.2550,38.1925
Z" /> 
<path style="fill:#000000; fill-opacity:1.0000; stroke:none;fill-rule:evenodd;"
d="M 63.1300,38.9625
63.1110,39.0582
63.0568,39.1393
62.9757,39.1935
62.8800,39.2125
61.5800,39.2125
61.4843,39.1935
61.4032,39.1393
61.3490,39.0582
61.3300,38.9625
61.3300,38.1125
61.3490,38.0168
61.4032,37.9357
61.4843,37.8815
61.5800,37.8625
62.8800,37.8625
62.9757,37.8815
63.0568,37.9357
63.1110,38.0168
63.1300,38.1125
Z" /> 
<path style="fill:#000000; fill-opacity:1.0000; stroke:none;fill-rule:evenodd;"
d="M 63.1300,35.4575
63.1110,35.5532
63.0568,35.6343
62.9757,35.6885
62.8800,35.7075
61.5800,35.7075
61.4843,35.6885
61.4032,35.6343
61.3490,35.5532
61.3300,35.4575
61.3300,34.4575
61.3490,34.3618
61.4032,34.2807
61.4843,34.2265
61.5800,34.2075
62.8800,34.2075
62.9757,34.2265
63.0568,34.2807
63.1110,34.3618
63.1300,34.4575
Z" /> 
<path style="fill:#000000; fill-opacity:1.0000; stroke:none;fill-rule:evenodd;"
d="M 52.8800,38.9625
52.8610,39.0582
52.8068,39.1393
52.7257,39.1935
52.6300,39.2125
51.3300,39.2125
51.2343,39.1935
51.1532,39.1393
51.0990,39.0582
51.0800,38.9625
51.0800,38.1125
51.0990,38.0168
51.1532,37.9357
51.2343,37.8815
51.3300,37.8625
52.6300,37.8625
52.7257,37.8815
52.8068,37.9357
52.8610,38.0168
52.8800,38.1125
Z" /> 
<path style="fill:#000000; fill-opacity:1.0000; stroke:none;fill-rule:evenodd;"
d="M 52.8800,35.4575
52.8610,35.5532
52.8068,35.6343
52.7257,35.6885
52.6300,35.7075
51.3300,35.7075
51.2343,35.6885
51.1532,35.6343
51.0990,35.5532
51.0800,35.4575
51.0800,34.4575
51.0990,34.3618
51.1532,34.2807
51.2343,34.2265
51.3300,34.2075
52.6300,34.2075
52.7257,34.2265
52.8068,34.2807
52.8610,34.3618
52.8800,34.4575
Z" /> 
<path style="fill:#000000; fill-opacity:1.0000; stroke:none;fill-rule:evenodd;"
d="M 53.1570,50.3800
52.5070,50.3800
52.5070,48.6800
53.1570,48.6800
Z" /> 
<path style="fill:#000000; fill-opacity:1.0000; stroke:none;fill-rule:evenodd;"
d="M 54.4270,50.3800
53.7770,50.3800
53.7770,48.6800
54.4270,48.6800
Z" /> 
<path style="fill:#000000; fill-opacity:1.0000; stroke:none;fill-rule:evenodd;"
d="M 55.6970,50.3800
55.0470,50.3800
55.0470,48.6800
55.6970,48.6800
Z" /> 
<path style="fill:#000000; fill-opacity:1.0000; stroke:none;fill-rule:evenodd;"
d="M 56.9670,50.3800
56.3170,50.3800
56.3170,48.6800
56.9670,48.6800
Z" /> 
<path style="fill:#000000; fill-opacity:1.0000; stroke:none;fill-rule:evenodd;"
d="M 56.9670,43.0800
56.3170,43.0800
56.3170,41.3800
56.9670,41.3800
Z" /> 
<path style="fill:#000000; fill-opacity:1.0000; stroke:none;fill-rule:evenodd;"
d="M 55.6970,43.0800
55.0470,43.0800
55.0470,41.3800
55.6970,41.3800
Z" /> 
<path style="fill:#000000; fill-opacity:1.0000; stroke:none;fill-rule:evenodd;"
d="M 54.4270,43.0800
53.7770,43.0800
53.7770,41.3800
54.4270,41.3800
Z" /> 
<path style="fill:#000000; fill-opacity:1.0000; stroke:none;fill-rule:evenodd;"
d="M 53.1570,43.0800
52.5070,43.0800
52.5070,41.3800
53.1570,41.3800
Z" /> 
<path style="fill:#000000; fill-opacity:1.0000; stroke:none;fill-rule:evenodd;"
d="M 61.6060,54.1464
61.6142,54.0756
61.6602,53.9716
61.7406,53.8912
61.8446,53.8452
61.9154,53.8370
62.9366,53.8370
63.0074,53.8452
63.1114,53.8912
63.1918,53.9716
63.2378,54.0756
63.2460,54.1464
63.2460,55.3276
63.2378,55.3984
63.1918,55.5024
63.1114,55.5828
63.0074,55.6288
62.9366,55.6370
61.9154,55.6370
61.8446,55.6288
61.7406,55.5828
61.6602,55.5024
61.6142,55.3984
61.6060,55.3276
Z" /> 
<path style="fill:#000000; fill-opacity:1.0000; stroke:none;fill-rule:evenodd;"
d="M 58.1660,54.1464
58.1742,54.0756
58.2202,53.9716
58.3006,53.8912
58.4046,53.8452
58.4754,53.8370
59.4966,53.8370
59.5674,53.8452
59.6714,53.8912
59.7518,53.9716
59.7978,54.0756
59.8060,54.1464
59.8060,55.3276
59.7978,55.3984
59.7518,55.5024
59.6714,55.5828
59.5674,55.6288
59.4966,55.6370
58.4754,55.6370
58.4046,55.6288
58.3006,55.5828
58.2202,55.5024
58.1742,55.3984
58.1660,55.3276
Z" /> 
<path style="fill:#000000; fill-opacity:1.0000; stroke:none;fill-rule:evenodd;"
d="M 57.0230,55.2006
57.0148,55.2714
56.9688,55.3754
56.8884,55.4558
56.7844,55.5018
56.7136,55.5100
55.6924,55.5100
55.6216,55.5018
55.5176,55.4558
55.4372,55.3754
55.3912,55.2714
55.3830,55.2006
55.3830,54.0194
55.3912,53.9486
55.4372,53.8446
55.5176,53.7642
55.6216,53.7182
55.6924,53.7100
56.7136,53.7100
56.7844,53.7182
56.8884,53.7642
56.9688,53.8446
57.0148,53.9486
57.0230,54.0194
Z" /> 
<path style="fill:#000000; fill-opacity:1.0000; stroke:none;fill-rule:evenodd;"
d="M 53.5830,55.2006
53.5748,55.2714
53.5288,55.3754
53.4484,55.4558
53.3444,55.5018
53.2736,55.5100
52.2524,55.5100
52.1816,55.5018
52.0776,55.4558
51.9972,55.3754
51.9512,55.2714
51.9430,55.2006
51.9430,54.0194
51.9512,53.9486
51.9972,53.8446
52.0776,53.7642
52.1816,53.7182
52.2524,53.7100
53.2736,53.7100
53.3444,53.7182
53.4484,53.7642
53.5288,53.8446
53.5748,53.9486
53.5830,54.0194
Z" /> 
<path style="fill:#000000; fill-opacity:1.0000; stroke:none;fill-rule:evenodd;"
d="M 62.4525,67.5195
59.4525,67.5195
59.4525,65.7195
62.4525,65.7195
Z" /> 
<path style="fill:#000000; fill-opacity:1.0000; stroke:none;fill-rule:evenodd;"
d="M 54.6085,60.3045
51.6085,60.3045
51.6085,58.5045
54.6085,58.5045
Z" /> 
<path style="fill:#000000; fill-opacity:1.0000; stroke:none;fill-rule:evenodd;"
d="M 62.4525,64.1145
59.4525,64.1145
59.4525,62.3145
62.4525,62.3145
Z" /> 
<path style="fill:#000000; fill-opacity:1.0000; stroke:none;fill-rule:evenodd;"
d="M 54.7355,67.5195
51.7355,67.5195
51.7355,65.7195
54.7355,65.7195
Z" /> 
<path style="fill:#000000; fill-opacity:1.0000; stroke:none;fill-rule:evenodd;"
d="M 54.5935,57.7645
51.5935,57.7645
51.5935,55.9645
54.5935,55.9645
Z" /> 
<path style="fill:#000000; fill-opacity:1.0000; stroke:none;fill-rule:evenodd;"
d="M 62.4525,58.3995
59.4525,58.3995
59.4525,56.5995
62.4525,56.5995
Z" /> 
</g> 
</svg>
