solid OpenSCAD_Model
  facet normal 1 -0 0
    outer loop
      vertex 0.599999 0.599999 5.9
      vertex 0.599999 8.4 0
      vertex 0.599999 8.4 5.9
    endloop
  endfacet
  facet normal 1 0 0
    outer loop
      vertex 0.599999 8.4 0
      vertex 0.599999 0.599999 5.9
      vertex 0.599999 0.599999 0
    endloop
  endfacet
  facet normal -1 0 0
    outer loop
      vertex 13.4 0.599999 0
      vertex 13.4 8.4 5.9
      vertex 13.4 8.4 0
    endloop
  endfacet
  facet normal -1 -0 0
    outer loop
      vertex 13.4 8.4 5.9
      vertex 13.4 0.599999 0
      vertex 13.4 0.599999 5.9
    endloop
  endfacet
  facet normal 0 -1 0
    outer loop
      vertex 0.599999 8.4 0
      vertex 13.4 8.4 5.9
      vertex 0.599999 8.4 5.9
    endloop
  endfacet
  facet normal 0 -1 -0
    outer loop
      vertex 13.4 8.4 5.9
      vertex 0.599999 8.4 0
      vertex 13.4 8.4 0
    endloop
  endfacet
  facet normal 0 1 -0
    outer loop
      vertex 13.4 0.599999 0
      vertex 0.599999 0.599999 5.9
      vertex 13.4 0.599999 5.9
    endloop
  endfacet
  facet normal 0 1 0
    outer loop
      vertex 0.599999 0.599999 5.9
      vertex 13.4 0.599999 0
      vertex 0.599999 0.599999 0
    endloop
  endfacet
  facet normal 1 -0 0
    outer loop
      vertex 14.6 0.599999 5.9
      vertex 14.6 8.4 0
      vertex 14.6 8.4 5.9
    endloop
  endfacet
  facet normal 1 0 0
    outer loop
      vertex 14.6 8.4 0
      vertex 14.6 0.599999 5.9
      vertex 14.6 0.599999 0
    endloop
  endfacet
  facet normal -1 0 0
    outer loop
      vertex 27.4 0.599999 0
      vertex 27.4 8.4 5.9
      vertex 27.4 8.4 0
    endloop
  endfacet
  facet normal -1 -0 0
    outer loop
      vertex 27.4 8.4 5.9
      vertex 27.4 0.599999 0
      vertex 27.4 0.599999 5.9
    endloop
  endfacet
  facet normal 0 -1 0
    outer loop
      vertex 14.6 8.4 0
      vertex 27.4 8.4 5.9
      vertex 14.6 8.4 5.9
    endloop
  endfacet
  facet normal 0 -1 -0
    outer loop
      vertex 27.4 8.4 5.9
      vertex 14.6 8.4 0
      vertex 27.4 8.4 0
    endloop
  endfacet
  facet normal 0 1 -0
    outer loop
      vertex 27.4 0.599999 0
      vertex 14.6 0.599999 5.9
      vertex 27.4 0.599999 5.9
    endloop
  endfacet
  facet normal 0 1 0
    outer loop
      vertex 14.6 0.599999 5.9
      vertex 27.4 0.599999 0
      vertex 14.6 0.599999 0
    endloop
  endfacet
  facet normal 1 -0 0
    outer loop
      vertex 28.6 0.599999 5.9
      vertex 28.6 8.4 0
      vertex 28.6 8.4 5.9
    endloop
  endfacet
  facet normal 1 0 0
    outer loop
      vertex 28.6 8.4 0
      vertex 28.6 0.599999 5.9
      vertex 28.6 0.599999 0
    endloop
  endfacet
  facet normal -1 0 0
    outer loop
      vertex 41.4 0.599999 0
      vertex 41.4 8.4 5.9
      vertex 41.4 8.4 0
    endloop
  endfacet
  facet normal -1 -0 0
    outer loop
      vertex 41.4 8.4 5.9
      vertex 41.4 0.599999 0
      vertex 41.4 0.599999 5.9
    endloop
  endfacet
  facet normal 0 1 -0
    outer loop
      vertex 41.4 0.599999 0
      vertex 28.6 0.599999 5.9
      vertex 41.4 0.599999 5.9
    endloop
  endfacet
  facet normal 0 1 0
    outer loop
      vertex 28.6 0.599999 5.9
      vertex 41.4 0.599999 0
      vertex 28.6 0.599999 0
    endloop
  endfacet
  facet normal 0 -1 0
    outer loop
      vertex 28.6 8.4 0
      vertex 41.4 8.4 5.9
      vertex 28.6 8.4 5.9
    endloop
  endfacet
  facet normal 0 -1 -0
    outer loop
      vertex 41.4 8.4 5.9
      vertex 28.6 8.4 0
      vertex 41.4 8.4 0
    endloop
  endfacet
  facet normal 1 -0 0
    outer loop
      vertex 42.6 0.599999 5.9
      vertex 42.6 8.4 0
      vertex 42.6 8.4 5.9
    endloop
  endfacet
  facet normal 1 0 0
    outer loop
      vertex 42.6 8.4 0
      vertex 42.6 0.599999 5.9
      vertex 42.6 0.599999 0
    endloop
  endfacet
  facet normal -1 0 0
    outer loop
      vertex 55.4 0.599999 0
      vertex 55.4 8.4 5.9
      vertex 55.4 8.4 0
    endloop
  endfacet
  facet normal -1 -0 0
    outer loop
      vertex 55.4 8.4 5.9
      vertex 55.4 0.599999 0
      vertex 55.4 0.599999 5.9
    endloop
  endfacet
  facet normal 0 -1 0
    outer loop
      vertex 42.6 8.4 0
      vertex 55.4 8.4 5.9
      vertex 42.6 8.4 5.9
    endloop
  endfacet
  facet normal 0 -1 -0
    outer loop
      vertex 55.4 8.4 5.9
      vertex 42.6 8.4 0
      vertex 55.4 8.4 0
    endloop
  endfacet
  facet normal 0 1 -0
    outer loop
      vertex 55.4 0.599999 0
      vertex 42.6 0.599999 5.9
      vertex 55.4 0.599999 5.9
    endloop
  endfacet
  facet normal 0 1 0
    outer loop
      vertex 42.6 0.599999 5.9
      vertex 55.4 0.599999 0
      vertex 42.6 0.599999 0
    endloop
  endfacet
  facet normal 1 -0 0
    outer loop
      vertex 0.599999 9.6 5.9
      vertex 0.599999 17.4 0
      vertex 0.599999 17.4 5.9
    endloop
  endfacet
  facet normal 1 0 0
    outer loop
      vertex 0.599999 17.4 0
      vertex 0.599999 9.6 5.9
      vertex 0.599999 9.6 0
    endloop
  endfacet
  facet normal -1 0 0
    outer loop
      vertex 13.4 9.6 0
      vertex 13.4 17.4 5.9
      vertex 13.4 17.4 0
    endloop
  endfacet
  facet normal -1 -0 0
    outer loop
      vertex 13.4 17.4 5.9
      vertex 13.4 9.6 0
      vertex 13.4 9.6 5.9
    endloop
  endfacet
  facet normal 0 -1 0
    outer loop
      vertex 0.599999 17.4 0
      vertex 13.4 17.4 5.9
      vertex 0.599999 17.4 5.9
    endloop
  endfacet
  facet normal 0 -1 -0
    outer loop
      vertex 13.4 17.4 5.9
      vertex 0.599999 17.4 0
      vertex 13.4 17.4 0
    endloop
  endfacet
  facet normal 0 1 -0
    outer loop
      vertex 13.4 9.6 0
      vertex 0.599999 9.6 5.9
      vertex 13.4 9.6 5.9
    endloop
  endfacet
  facet normal 0 1 0
    outer loop
      vertex 0.599999 9.6 5.9
      vertex 13.4 9.6 0
      vertex 0.599999 9.6 0
    endloop
  endfacet
  facet normal 1 -0 0
    outer loop
      vertex 14.6 9.6 5.9
      vertex 14.6 17.4 0
      vertex 14.6 17.4 5.9
    endloop
  endfacet
  facet normal 1 0 0
    outer loop
      vertex 14.6 17.4 0
      vertex 14.6 9.6 5.9
      vertex 14.6 9.6 0
    endloop
  endfacet
  facet normal -1 0 0
    outer loop
      vertex 27.4 9.6 0
      vertex 27.4 17.4 5.9
      vertex 27.4 17.4 0
    endloop
  endfacet
  facet normal -1 -0 0
    outer loop
      vertex 27.4 17.4 5.9
      vertex 27.4 9.6 0
      vertex 27.4 9.6 5.9
    endloop
  endfacet
  facet normal 0 1 -0
    outer loop
      vertex 27.4 9.6 0
      vertex 14.6 9.6 5.9
      vertex 27.4 9.6 5.9
    endloop
  endfacet
  facet normal 0 1 0
    outer loop
      vertex 14.6 9.6 5.9
      vertex 27.4 9.6 0
      vertex 14.6 9.6 0
    endloop
  endfacet
  facet normal 0 -1 0
    outer loop
      vertex 14.6 17.4 0
      vertex 27.4 17.4 5.9
      vertex 14.6 17.4 5.9
    endloop
  endfacet
  facet normal 0 -1 -0
    outer loop
      vertex 27.4 17.4 5.9
      vertex 14.6 17.4 0
      vertex 27.4 17.4 0
    endloop
  endfacet
  facet normal 1 -0 0
    outer loop
      vertex 28.6 9.6 5.9
      vertex 28.6 17.4 0
      vertex 28.6 17.4 5.9
    endloop
  endfacet
  facet normal 1 0 0
    outer loop
      vertex 28.6 17.4 0
      vertex 28.6 9.6 5.9
      vertex 28.6 9.6 0
    endloop
  endfacet
  facet normal -1 0 0
    outer loop
      vertex 41.4 9.6 0
      vertex 41.4 17.4 5.9
      vertex 41.4 17.4 0
    endloop
  endfacet
  facet normal -1 -0 0
    outer loop
      vertex 41.4 17.4 5.9
      vertex 41.4 9.6 0
      vertex 41.4 9.6 5.9
    endloop
  endfacet
  facet normal 0 1 -0
    outer loop
      vertex 41.4 9.6 0
      vertex 28.6 9.6 5.9
      vertex 41.4 9.6 5.9
    endloop
  endfacet
  facet normal 0 1 0
    outer loop
      vertex 28.6 9.6 5.9
      vertex 41.4 9.6 0
      vertex 28.6 9.6 0
    endloop
  endfacet
  facet normal 0 -1 0
    outer loop
      vertex 28.6 17.4 0
      vertex 41.4 17.4 5.9
      vertex 28.6 17.4 5.9
    endloop
  endfacet
  facet normal 0 -1 -0
    outer loop
      vertex 41.4 17.4 5.9
      vertex 28.6 17.4 0
      vertex 41.4 17.4 0
    endloop
  endfacet
  facet normal 1 -0 0
    outer loop
      vertex 42.6 9.6 5.9
      vertex 42.6 17.4 0
      vertex 42.6 17.4 5.9
    endloop
  endfacet
  facet normal 1 0 0
    outer loop
      vertex 42.6 17.4 0
      vertex 42.6 9.6 5.9
      vertex 42.6 9.6 0
    endloop
  endfacet
  facet normal -1 0 0
    outer loop
      vertex 55.4 9.6 0
      vertex 55.4 17.4 5.9
      vertex 55.4 17.4 0
    endloop
  endfacet
  facet normal -1 -0 0
    outer loop
      vertex 55.4 17.4 5.9
      vertex 55.4 9.6 0
      vertex 55.4 9.6 5.9
    endloop
  endfacet
  facet normal 0 -1 0
    outer loop
      vertex 42.6 17.4 0
      vertex 55.4 17.4 5.9
      vertex 42.6 17.4 5.9
    endloop
  endfacet
  facet normal 0 -1 -0
    outer loop
      vertex 55.4 17.4 5.9
      vertex 42.6 17.4 0
      vertex 55.4 17.4 0
    endloop
  endfacet
  facet normal 0 1 -0
    outer loop
      vertex 55.4 9.6 0
      vertex 42.6 9.6 5.9
      vertex 55.4 9.6 5.9
    endloop
  endfacet
  facet normal 0 1 0
    outer loop
      vertex 42.6 9.6 5.9
      vertex 55.4 9.6 0
      vertex 42.6 9.6 0
    endloop
  endfacet
  facet normal 1 -0 0
    outer loop
      vertex 0.599999 18.6 5.9
      vertex 0.599999 26.4 0
      vertex 0.599999 26.4 5.9
    endloop
  endfacet
  facet normal 1 0 0
    outer loop
      vertex 0.599999 26.4 0
      vertex 0.599999 18.6 5.9
      vertex 0.599999 18.6 0
    endloop
  endfacet
  facet normal -1 0 0
    outer loop
      vertex 13.4 18.6 0
      vertex 13.4 26.4 5.9
      vertex 13.4 26.4 0
    endloop
  endfacet
  facet normal -1 -0 0
    outer loop
      vertex 13.4 26.4 5.9
      vertex 13.4 18.6 0
      vertex 13.4 18.6 5.9
    endloop
  endfacet
  facet normal 0 -1 0
    outer loop
      vertex 0.599999 26.4 0
      vertex 13.4 26.4 5.9
      vertex 0.599999 26.4 5.9
    endloop
  endfacet
  facet normal 0 -1 -0
    outer loop
      vertex 13.4 26.4 5.9
      vertex 0.599999 26.4 0
      vertex 13.4 26.4 0
    endloop
  endfacet
  facet normal 0 1 -0
    outer loop
      vertex 13.4 18.6 0
      vertex 0.599999 18.6 5.9
      vertex 13.4 18.6 5.9
    endloop
  endfacet
  facet normal 0 1 0
    outer loop
      vertex 0.599999 18.6 5.9
      vertex 13.4 18.6 0
      vertex 0.599999 18.6 0
    endloop
  endfacet
  facet normal 1 -0 0
    outer loop
      vertex 14.6 18.6 5.9
      vertex 14.6 26.4 0
      vertex 14.6 26.4 5.9
    endloop
  endfacet
  facet normal 1 0 0
    outer loop
      vertex 14.6 26.4 0
      vertex 14.6 18.6 5.9
      vertex 14.6 18.6 0
    endloop
  endfacet
  facet normal -1 0 0
    outer loop
      vertex 27.4 18.6 0
      vertex 27.4 26.4 5.9
      vertex 27.4 26.4 0
    endloop
  endfacet
  facet normal -1 -0 0
    outer loop
      vertex 27.4 26.4 5.9
      vertex 27.4 18.6 0
      vertex 27.4 18.6 5.9
    endloop
  endfacet
  facet normal 0 -1 0
    outer loop
      vertex 14.6 26.4 0
      vertex 27.4 26.4 5.9
      vertex 14.6 26.4 5.9
    endloop
  endfacet
  facet normal 0 -1 -0
    outer loop
      vertex 27.4 26.4 5.9
      vertex 14.6 26.4 0
      vertex 27.4 26.4 0
    endloop
  endfacet
  facet normal 0 1 -0
    outer loop
      vertex 27.4 18.6 0
      vertex 14.6 18.6 5.9
      vertex 27.4 18.6 5.9
    endloop
  endfacet
  facet normal 0 1 0
    outer loop
      vertex 14.6 18.6 5.9
      vertex 27.4 18.6 0
      vertex 14.6 18.6 0
    endloop
  endfacet
  facet normal 1 -0 0
    outer loop
      vertex 28.6 18.6 5.9
      vertex 28.6 26.4 0
      vertex 28.6 26.4 5.9
    endloop
  endfacet
  facet normal 1 0 0
    outer loop
      vertex 28.6 26.4 0
      vertex 28.6 18.6 5.9
      vertex 28.6 18.6 0
    endloop
  endfacet
  facet normal -1 0 0
    outer loop
      vertex 41.4 18.6 0
      vertex 41.4 26.4 5.9
      vertex 41.4 26.4 0
    endloop
  endfacet
  facet normal -1 -0 0
    outer loop
      vertex 41.4 26.4 5.9
      vertex 41.4 18.6 0
      vertex 41.4 18.6 5.9
    endloop
  endfacet
  facet normal 0 1 -0
    outer loop
      vertex 41.4 18.6 0
      vertex 28.6 18.6 5.9
      vertex 41.4 18.6 5.9
    endloop
  endfacet
  facet normal 0 1 0
    outer loop
      vertex 28.6 18.6 5.9
      vertex 41.4 18.6 0
      vertex 28.6 18.6 0
    endloop
  endfacet
  facet normal 0 -1 0
    outer loop
      vertex 28.6 26.4 0
      vertex 41.4 26.4 5.9
      vertex 28.6 26.4 5.9
    endloop
  endfacet
  facet normal 0 -1 -0
    outer loop
      vertex 41.4 26.4 5.9
      vertex 28.6 26.4 0
      vertex 41.4 26.4 0
    endloop
  endfacet
  facet normal 1 -0 0
    outer loop
      vertex 42.6 18.6 5.9
      vertex 42.6 26.4 0
      vertex 42.6 26.4 5.9
    endloop
  endfacet
  facet normal 1 0 0
    outer loop
      vertex 42.6 26.4 0
      vertex 42.6 18.6 5.9
      vertex 42.6 18.6 0
    endloop
  endfacet
  facet normal -1 0 0
    outer loop
      vertex 55.4 18.6 0
      vertex 55.4 26.4 5.9
      vertex 55.4 26.4 0
    endloop
  endfacet
  facet normal -1 -0 0
    outer loop
      vertex 55.4 26.4 5.9
      vertex 55.4 18.6 0
      vertex 55.4 18.6 5.9
    endloop
  endfacet
  facet normal 0 -1 0
    outer loop
      vertex 42.6 26.4 0
      vertex 55.4 26.4 5.9
      vertex 42.6 26.4 5.9
    endloop
  endfacet
  facet normal 0 -1 -0
    outer loop
      vertex 55.4 26.4 5.9
      vertex 42.6 26.4 0
      vertex 55.4 26.4 0
    endloop
  endfacet
  facet normal 0 1 -0
    outer loop
      vertex 55.4 18.6 0
      vertex 42.6 18.6 5.9
      vertex 55.4 18.6 5.9
    endloop
  endfacet
  facet normal 0 1 0
    outer loop
      vertex 42.6 18.6 5.9
      vertex 55.4 18.6 0
      vertex 42.6 18.6 0
    endloop
  endfacet
  facet normal 1 -0 0
    outer loop
      vertex 0.599999 27.6 5.9
      vertex 0.599999 35.4 0
      vertex 0.599999 35.4 5.9
    endloop
  endfacet
  facet normal 1 0 0
    outer loop
      vertex 0.599999 35.4 0
      vertex 0.599999 27.6 5.9
      vertex 0.599999 27.6 0
    endloop
  endfacet
  facet normal -1 0 0
    outer loop
      vertex 13.4 27.6 0
      vertex 13.4 35.4 5.9
      vertex 13.4 35.4 0
    endloop
  endfacet
  facet normal -1 -0 0
    outer loop
      vertex 13.4 35.4 5.9
      vertex 13.4 27.6 0
      vertex 13.4 27.6 5.9
    endloop
  endfacet
  facet normal 0 1 -0
    outer loop
      vertex 13.4 27.6 0
      vertex 0.599999 27.6 5.9
      vertex 13.4 27.6 5.9
    endloop
  endfacet
  facet normal 0 1 0
    outer loop
      vertex 0.599999 27.6 5.9
      vertex 13.4 27.6 0
      vertex 0.599999 27.6 0
    endloop
  endfacet
  facet normal 0 -1 0
    outer loop
      vertex 0.599999 35.4 0
      vertex 13.4 35.4 5.9
      vertex 0.599999 35.4 5.9
    endloop
  endfacet
  facet normal 0 -1 -0
    outer loop
      vertex 13.4 35.4 5.9
      vertex 0.599999 35.4 0
      vertex 13.4 35.4 0
    endloop
  endfacet
  facet normal 1 -0 0
    outer loop
      vertex 14.6 27.6 5.9
      vertex 14.6 35.4 0
      vertex 14.6 35.4 5.9
    endloop
  endfacet
  facet normal 1 0 0
    outer loop
      vertex 14.6 35.4 0
      vertex 14.6 27.6 5.9
      vertex 14.6 27.6 0
    endloop
  endfacet
  facet normal -1 0 0
    outer loop
      vertex 27.4 27.6 0
      vertex 27.4 35.4 5.9
      vertex 27.4 35.4 0
    endloop
  endfacet
  facet normal -1 -0 0
    outer loop
      vertex 27.4 35.4 5.9
      vertex 27.4 27.6 0
      vertex 27.4 27.6 5.9
    endloop
  endfacet
  facet normal 0 -1 0
    outer loop
      vertex 14.6 35.4 0
      vertex 27.4 35.4 5.9
      vertex 14.6 35.4 5.9
    endloop
  endfacet
  facet normal 0 -1 -0
    outer loop
      vertex 27.4 35.4 5.9
      vertex 14.6 35.4 0
      vertex 27.4 35.4 0
    endloop
  endfacet
  facet normal 0 1 -0
    outer loop
      vertex 27.4 27.6 0
      vertex 14.6 27.6 5.9
      vertex 27.4 27.6 5.9
    endloop
  endfacet
  facet normal 0 1 0
    outer loop
      vertex 14.6 27.6 5.9
      vertex 27.4 27.6 0
      vertex 14.6 27.6 0
    endloop
  endfacet
  facet normal 1 -0 0
    outer loop
      vertex 28.6 27.6 5.9
      vertex 28.6 35.4 0
      vertex 28.6 35.4 5.9
    endloop
  endfacet
  facet normal 1 0 0
    outer loop
      vertex 28.6 35.4 0
      vertex 28.6 27.6 5.9
      vertex 28.6 27.6 0
    endloop
  endfacet
  facet normal -1 0 0
    outer loop
      vertex 41.4 27.6 0
      vertex 41.4 35.4 5.9
      vertex 41.4 35.4 0
    endloop
  endfacet
  facet normal -1 -0 0
    outer loop
      vertex 41.4 35.4 5.9
      vertex 41.4 27.6 0
      vertex 41.4 27.6 5.9
    endloop
  endfacet
  facet normal 0 1 -0
    outer loop
      vertex 41.4 27.6 0
      vertex 28.6 27.6 5.9
      vertex 41.4 27.6 5.9
    endloop
  endfacet
  facet normal 0 1 0
    outer loop
      vertex 28.6 27.6 5.9
      vertex 41.4 27.6 0
      vertex 28.6 27.6 0
    endloop
  endfacet
  facet normal 0 -1 0
    outer loop
      vertex 28.6 35.4 0
      vertex 41.4 35.4 5.9
      vertex 28.6 35.4 5.9
    endloop
  endfacet
  facet normal 0 -1 -0
    outer loop
      vertex 41.4 35.4 5.9
      vertex 28.6 35.4 0
      vertex 41.4 35.4 0
    endloop
  endfacet
  facet normal 1 -0 0
    outer loop
      vertex 42.6 27.6 5.9
      vertex 42.6 35.4 0
      vertex 42.6 35.4 5.9
    endloop
  endfacet
  facet normal 1 0 0
    outer loop
      vertex 42.6 35.4 0
      vertex 42.6 27.6 5.9
      vertex 42.6 27.6 0
    endloop
  endfacet
  facet normal -1 0 0
    outer loop
      vertex 55.4 27.6 0
      vertex 55.4 35.4 5.9
      vertex 55.4 35.4 0
    endloop
  endfacet
  facet normal -1 -0 0
    outer loop
      vertex 55.4 35.4 5.9
      vertex 55.4 27.6 0
      vertex 55.4 27.6 5.9
    endloop
  endfacet
  facet normal 0 -1 0
    outer loop
      vertex 42.6 35.4 0
      vertex 55.4 35.4 5.9
      vertex 42.6 35.4 5.9
    endloop
  endfacet
  facet normal 0 -1 -0
    outer loop
      vertex 55.4 35.4 5.9
      vertex 42.6 35.4 0
      vertex 55.4 35.4 0
    endloop
  endfacet
  facet normal 0 1 -0
    outer loop
      vertex 55.4 27.6 0
      vertex 42.6 27.6 5.9
      vertex 55.4 27.6 5.9
    endloop
  endfacet
  facet normal 0 1 0
    outer loop
      vertex 42.6 27.6 5.9
      vertex 55.4 27.6 0
      vertex 42.6 27.6 0
    endloop
  endfacet
  facet normal 1 -0 0
    outer loop
      vertex -0.4 -0.4 8
      vertex -0.4 36.4 5.9
      vertex -0.4 36.4 8
    endloop
  endfacet
  facet normal 1 0 0
    outer loop
      vertex -0.4 36.4 5.9
      vertex -0.4 -0.4 8
      vertex -0.4 -0.4 5.9
    endloop
  endfacet
  facet normal -0 0 1
    outer loop
      vertex 0.599999 9.6 5.9
      vertex 13.4 8.4 5.9
      vertex 13.4 9.6 5.9
    endloop
  endfacet
  facet normal 0 0 1
    outer loop
      vertex 13.4 8.4 5.9
      vertex 0.599999 9.6 5.9
      vertex 0.599999 8.4 5.9
    endloop
  endfacet
  facet normal -0 0 1
    outer loop
      vertex 0.599999 18.6 5.9
      vertex 13.4 17.4 5.9
      vertex 13.4 18.6 5.9
    endloop
  endfacet
  facet normal 0 0 1
    outer loop
      vertex 13.4 17.4 5.9
      vertex 0.599999 18.6 5.9
      vertex 0.599999 17.4 5.9
    endloop
  endfacet
  facet normal -0 0 1
    outer loop
      vertex 0.599999 27.6 5.9
      vertex 13.4 26.4 5.9
      vertex 13.4 27.6 5.9
    endloop
  endfacet
  facet normal 0 0 1
    outer loop
      vertex 13.4 26.4 5.9
      vertex 0.599999 27.6 5.9
      vertex 0.599999 26.4 5.9
    endloop
  endfacet
  facet normal -0 0 1
    outer loop
      vertex 14.6 9.6 5.9
      vertex 27.4 8.4 5.9
      vertex 27.4 9.6 5.9
    endloop
  endfacet
  facet normal 0 0 1
    outer loop
      vertex 27.4 8.4 5.9
      vertex 14.6 9.6 5.9
      vertex 14.6 8.4 5.9
    endloop
  endfacet
  facet normal -0 0 1
    outer loop
      vertex 14.6 18.6 5.9
      vertex 27.4 17.4 5.9
      vertex 27.4 18.6 5.9
    endloop
  endfacet
  facet normal 0 0 1
    outer loop
      vertex 27.4 17.4 5.9
      vertex 14.6 18.6 5.9
      vertex 14.6 17.4 5.9
    endloop
  endfacet
  facet normal -0 0 1
    outer loop
      vertex 14.6 27.6 5.9
      vertex 27.4 26.4 5.9
      vertex 27.4 27.6 5.9
    endloop
  endfacet
  facet normal 0 0 1
    outer loop
      vertex 27.4 26.4 5.9
      vertex 14.6 27.6 5.9
      vertex 14.6 26.4 5.9
    endloop
  endfacet
  facet normal -0 0 1
    outer loop
      vertex 28.6 9.6 5.9
      vertex 41.4 8.4 5.9
      vertex 41.4 9.6 5.9
    endloop
  endfacet
  facet normal 0 0 1
    outer loop
      vertex 41.4 8.4 5.9
      vertex 28.6 9.6 5.9
      vertex 28.6 8.4 5.9
    endloop
  endfacet
  facet normal -0 0 1
    outer loop
      vertex 28.6 18.6 5.9
      vertex 41.4 17.4 5.9
      vertex 41.4 18.6 5.9
    endloop
  endfacet
  facet normal 0 0 1
    outer loop
      vertex 41.4 17.4 5.9
      vertex 28.6 18.6 5.9
      vertex 28.6 17.4 5.9
    endloop
  endfacet
  facet normal -0 0 1
    outer loop
      vertex 28.6 27.6 5.9
      vertex 41.4 26.4 5.9
      vertex 41.4 27.6 5.9
    endloop
  endfacet
  facet normal 0 0 1
    outer loop
      vertex 41.4 26.4 5.9
      vertex 28.6 27.6 5.9
      vertex 28.6 26.4 5.9
    endloop
  endfacet
  facet normal -0 0 1
    outer loop
      vertex 42.6 9.6 5.9
      vertex 55.4 8.4 5.9
      vertex 55.4 9.6 5.9
    endloop
  endfacet
  facet normal 0 0 1
    outer loop
      vertex 55.4 8.4 5.9
      vertex 42.6 9.6 5.9
      vertex 42.6 8.4 5.9
    endloop
  endfacet
  facet normal -0 0 1
    outer loop
      vertex 42.6 18.6 5.9
      vertex 55.4 17.4 5.9
      vertex 55.4 18.6 5.9
    endloop
  endfacet
  facet normal 0 0 1
    outer loop
      vertex 55.4 17.4 5.9
      vertex 42.6 18.6 5.9
      vertex 42.6 17.4 5.9
    endloop
  endfacet
  facet normal -0 0 1
    outer loop
      vertex 42.6 27.6 5.9
      vertex 55.4 26.4 5.9
      vertex 55.4 27.6 5.9
    endloop
  endfacet
  facet normal 0 0 1
    outer loop
      vertex 55.4 26.4 5.9
      vertex 42.6 27.6 5.9
      vertex 42.6 26.4 5.9
    endloop
  endfacet
  facet normal 0 0 1
    outer loop
      vertex 55.4 27.6 5.9
      vertex 56.4 36.4 5.9
      vertex 55.4 35.4 5.9
    endloop
  endfacet
  facet normal 0 0 1
    outer loop
      vertex 56.4 36.4 5.9
      vertex 42.6 35.4 5.9
      vertex 55.4 35.4 5.9
    endloop
  endfacet
  facet normal 0 0 1
    outer loop
      vertex 41.4 27.6 5.9
      vertex 42.6 27.6 5.9
      vertex 42.6 35.4 5.9
    endloop
  endfacet
  facet normal 0 0 1
    outer loop
      vertex 42.6 27.6 5.9
      vertex 41.4 27.6 5.9
      vertex 42.6 26.4 5.9
    endloop
  endfacet
  facet normal 0 0 1
    outer loop
      vertex 42.6 26.4 5.9
      vertex 41.4 26.4 5.9
      vertex 42.6 18.6 5.9
    endloop
  endfacet
  facet normal 0 0 1
    outer loop
      vertex 41.4 18.6 5.9
      vertex 42.6 18.6 5.9
      vertex 41.4 26.4 5.9
    endloop
  endfacet
  facet normal 0 0 1
    outer loop
      vertex 41.4 17.4 5.9
      vertex 42.6 17.4 5.9
      vertex 41.4 18.6 5.9
    endloop
  endfacet
  facet normal 0 0 1
    outer loop
      vertex 42.6 17.4 5.9
      vertex 41.4 17.4 5.9
      vertex 42.6 9.6 5.9
    endloop
  endfacet
  facet normal 0 0 1
    outer loop
      vertex 41.4 27.6 5.9
      vertex 42.6 35.4 5.9
      vertex 41.4 35.4 5.9
    endloop
  endfacet
  facet normal 0 0 1
    outer loop
      vertex 56.4 36.4 5.9
      vertex 41.4 35.4 5.9
      vertex 42.6 35.4 5.9
    endloop
  endfacet
  facet normal 0 0 1
    outer loop
      vertex 56.4 36.4 5.9
      vertex 28.6 35.4 5.9
      vertex 41.4 35.4 5.9
    endloop
  endfacet
  facet normal 0 0 1
    outer loop
      vertex 27.4 27.6 5.9
      vertex 28.6 27.6 5.9
      vertex 28.6 35.4 5.9
    endloop
  endfacet
  facet normal 0 0 1
    outer loop
      vertex 28.6 27.6 5.9
      vertex 27.4 27.6 5.9
      vertex 28.6 26.4 5.9
    endloop
  endfacet
  facet normal 0 0 1
    outer loop
      vertex 28.6 26.4 5.9
      vertex 27.4 26.4 5.9
      vertex 28.6 18.6 5.9
    endloop
  endfacet
  facet normal 0 0 1
    outer loop
      vertex 27.4 18.6 5.9
      vertex 28.6 18.6 5.9
      vertex 27.4 26.4 5.9
    endloop
  endfacet
  facet normal 0 0 1
    outer loop
      vertex 27.4 17.4 5.9
      vertex 28.6 17.4 5.9
      vertex 27.4 18.6 5.9
    endloop
  endfacet
  facet normal 0 0 1
    outer loop
      vertex 28.6 17.4 5.9
      vertex 27.4 17.4 5.9
      vertex 28.6 9.6 5.9
    endloop
  endfacet
  facet normal 0 0 1
    outer loop
      vertex 27.4 27.6 5.9
      vertex 28.6 35.4 5.9
      vertex 27.4 35.4 5.9
    endloop
  endfacet
  facet normal 0 0 1
    outer loop
      vertex 56.4 36.4 5.9
      vertex 27.4 35.4 5.9
      vertex 28.6 35.4 5.9
    endloop
  endfacet
  facet normal -0 0 1
    outer loop
      vertex -0.4 36.4 5.9
      vertex 27.4 35.4 5.9
      vertex 56.4 36.4 5.9
    endloop
  endfacet
  facet normal 0 0 1
    outer loop
      vertex 13.4 27.6 5.9
      vertex 14.6 27.6 5.9
      vertex 14.6 35.4 5.9
    endloop
  endfacet
  facet normal 0 0 1
    outer loop
      vertex 14.6 27.6 5.9
      vertex 13.4 27.6 5.9
      vertex 14.6 26.4 5.9
    endloop
  endfacet
  facet normal 0 0 1
    outer loop
      vertex 14.6 26.4 5.9
      vertex 13.4 26.4 5.9
      vertex 14.6 18.6 5.9
    endloop
  endfacet
  facet normal 0 0 1
    outer loop
      vertex 13.4 18.6 5.9
      vertex 14.6 18.6 5.9
      vertex 13.4 26.4 5.9
    endloop
  endfacet
  facet normal 0 0 1
    outer loop
      vertex 13.4 17.4 5.9
      vertex 14.6 17.4 5.9
      vertex 13.4 18.6 5.9
    endloop
  endfacet
  facet normal 0 0 1
    outer loop
      vertex 14.6 17.4 5.9
      vertex 13.4 17.4 5.9
      vertex 14.6 9.6 5.9
    endloop
  endfacet
  facet normal 0 0 1
    outer loop
      vertex 13.4 27.6 5.9
      vertex 14.6 35.4 5.9
      vertex 13.4 35.4 5.9
    endloop
  endfacet
  facet normal 0 0 1
    outer loop
      vertex 27.4 35.4 5.9
      vertex -0.4 36.4 5.9
      vertex 14.6 35.4 5.9
    endloop
  endfacet
  facet normal 0 0 1
    outer loop
      vertex 14.6 35.4 5.9
      vertex -0.4 36.4 5.9
      vertex 13.4 35.4 5.9
    endloop
  endfacet
  facet normal 0 0 1
    outer loop
      vertex -0.4 36.4 5.9
      vertex 0.599999 27.6 5.9
      vertex 0.599999 35.4 5.9
    endloop
  endfacet
  facet normal 0 0 1
    outer loop
      vertex 0.599999 27.6 5.9
      vertex -0.4 36.4 5.9
      vertex 0.599999 26.4 5.9
    endloop
  endfacet
  facet normal 0 0 1
    outer loop
      vertex 0.599999 26.4 5.9
      vertex -0.4 36.4 5.9
      vertex 0.599999 18.6 5.9
    endloop
  endfacet
  facet normal 0 0 1
    outer loop
      vertex 0.599999 18.6 5.9
      vertex -0.4 36.4 5.9
      vertex 0.599999 17.4 5.9
    endloop
  endfacet
  facet normal 0 0 1
    outer loop
      vertex -0.4 -0.4 5.9
      vertex 0.599999 17.4 5.9
      vertex -0.4 36.4 5.9
    endloop
  endfacet
  facet normal 0 0 1
    outer loop
      vertex 0.599999 17.4 5.9
      vertex -0.4 -0.4 5.9
      vertex 0.599999 9.6 5.9
    endloop
  endfacet
  facet normal 0 0 1
    outer loop
      vertex 0.599999 9.6 5.9
      vertex -0.4 -0.4 5.9
      vertex 0.599999 8.4 5.9
    endloop
  endfacet
  facet normal 0 0 1
    outer loop
      vertex 13.4 35.4 5.9
      vertex -0.4 36.4 5.9
      vertex 0.599999 35.4 5.9
    endloop
  endfacet
  facet normal 0 0 1
    outer loop
      vertex 55.4 26.4 5.9
      vertex 56.4 36.4 5.9
      vertex 55.4 27.6 5.9
    endloop
  endfacet
  facet normal 0 0 1
    outer loop
      vertex 55.4 18.6 5.9
      vertex 56.4 36.4 5.9
      vertex 55.4 26.4 5.9
    endloop
  endfacet
  facet normal 0 0 1
    outer loop
      vertex 56.4 36.4 5.9
      vertex 55.4 18.6 5.9
      vertex 56.4 -0.4 5.9
    endloop
  endfacet
  facet normal -0 0 1
    outer loop
      vertex 55.4 17.4 5.9
      vertex 56.4 -0.4 5.9
      vertex 55.4 18.6 5.9
    endloop
  endfacet
  facet normal -0 0 1
    outer loop
      vertex 55.4 9.6 5.9
      vertex 56.4 -0.4 5.9
      vertex 55.4 17.4 5.9
    endloop
  endfacet
  facet normal -0 0 1
    outer loop
      vertex 55.4 8.4 5.9
      vertex 56.4 -0.4 5.9
      vertex 55.4 9.6 5.9
    endloop
  endfacet
  facet normal -0 0 1
    outer loop
      vertex 55.4 0.599999 5.9
      vertex 56.4 -0.4 5.9
      vertex 55.4 8.4 5.9
    endloop
  endfacet
  facet normal -0 0 1
    outer loop
      vertex 42.6 0.599999 5.9
      vertex 56.4 -0.4 5.9
      vertex 55.4 0.599999 5.9
    endloop
  endfacet
  facet normal 0 0 1
    outer loop
      vertex 42.6 26.4 5.9
      vertex 41.4 27.6 5.9
      vertex 41.4 26.4 5.9
    endloop
  endfacet
  facet normal 0 0 1
    outer loop
      vertex 42.6 18.6 5.9
      vertex 41.4 18.6 5.9
      vertex 42.6 17.4 5.9
    endloop
  endfacet
  facet normal 0 0 1
    outer loop
      vertex 41.4 9.6 5.9
      vertex 42.6 9.6 5.9
      vertex 41.4 17.4 5.9
    endloop
  endfacet
  facet normal 0 0 1
    outer loop
      vertex 42.6 9.6 5.9
      vertex 41.4 9.6 5.9
      vertex 42.6 8.4 5.9
    endloop
  endfacet
  facet normal 0 0 1
    outer loop
      vertex 41.4 8.4 5.9
      vertex 42.6 8.4 5.9
      vertex 41.4 9.6 5.9
    endloop
  endfacet
  facet normal 0 0 1
    outer loop
      vertex 42.6 8.4 5.9
      vertex 41.4 8.4 5.9
      vertex 42.6 0.599999 5.9
    endloop
  endfacet
  facet normal 0 0 1
    outer loop
      vertex 41.4 0.599999 5.9
      vertex 42.6 0.599999 5.9
      vertex 41.4 8.4 5.9
    endloop
  endfacet
  facet normal -0 0 1
    outer loop
      vertex 41.4 0.599999 5.9
      vertex 56.4 -0.4 5.9
      vertex 42.6 0.599999 5.9
    endloop
  endfacet
  facet normal -0 0 1
    outer loop
      vertex 28.6 0.599999 5.9
      vertex 56.4 -0.4 5.9
      vertex 41.4 0.599999 5.9
    endloop
  endfacet
  facet normal 0 0 1
    outer loop
      vertex 28.6 26.4 5.9
      vertex 27.4 27.6 5.9
      vertex 27.4 26.4 5.9
    endloop
  endfacet
  facet normal 0 0 1
    outer loop
      vertex 28.6 18.6 5.9
      vertex 27.4 18.6 5.9
      vertex 28.6 17.4 5.9
    endloop
  endfacet
  facet normal 0 0 1
    outer loop
      vertex 27.4 9.6 5.9
      vertex 28.6 9.6 5.9
      vertex 27.4 17.4 5.9
    endloop
  endfacet
  facet normal 0 0 1
    outer loop
      vertex 28.6 9.6 5.9
      vertex 27.4 9.6 5.9
      vertex 28.6 8.4 5.9
    endloop
  endfacet
  facet normal 0 0 1
    outer loop
      vertex 27.4 8.4 5.9
      vertex 28.6 8.4 5.9
      vertex 27.4 9.6 5.9
    endloop
  endfacet
  facet normal 0 0 1
    outer loop
      vertex 28.6 8.4 5.9
      vertex 27.4 8.4 5.9
      vertex 28.6 0.599999 5.9
    endloop
  endfacet
  facet normal 0 0 1
    outer loop
      vertex 27.4 0.599999 5.9
      vertex 28.6 0.599999 5.9
      vertex 27.4 8.4 5.9
    endloop
  endfacet
  facet normal -0 0 1
    outer loop
      vertex 27.4 0.599999 5.9
      vertex 56.4 -0.4 5.9
      vertex 28.6 0.599999 5.9
    endloop
  endfacet
  facet normal 0 0 1
    outer loop
      vertex -0.4 -0.4 5.9
      vertex 27.4 0.599999 5.9
      vertex 14.6 0.599999 5.9
    endloop
  endfacet
  facet normal 0 0 1
    outer loop
      vertex 14.6 26.4 5.9
      vertex 13.4 27.6 5.9
      vertex 13.4 26.4 5.9
    endloop
  endfacet
  facet normal 0 0 1
    outer loop
      vertex 14.6 18.6 5.9
      vertex 13.4 18.6 5.9
      vertex 14.6 17.4 5.9
    endloop
  endfacet
  facet normal 0 0 1
    outer loop
      vertex 13.4 9.6 5.9
      vertex 14.6 9.6 5.9
      vertex 13.4 17.4 5.9
    endloop
  endfacet
  facet normal 0 0 1
    outer loop
      vertex 14.6 9.6 5.9
      vertex 13.4 9.6 5.9
      vertex 14.6 8.4 5.9
    endloop
  endfacet
  facet normal 0 0 1
    outer loop
      vertex 13.4 8.4 5.9
      vertex 14.6 8.4 5.9
      vertex 13.4 9.6 5.9
    endloop
  endfacet
  facet normal 0 0 1
    outer loop
      vertex 14.6 8.4 5.9
      vertex 13.4 8.4 5.9
      vertex 14.6 0.599999 5.9
    endloop
  endfacet
  facet normal 0 0 1
    outer loop
      vertex 13.4 0.599999 5.9
      vertex 14.6 0.599999 5.9
      vertex 13.4 8.4 5.9
    endloop
  endfacet
  facet normal 0 0 1
    outer loop
      vertex -0.4 -0.4 5.9
      vertex 14.6 0.599999 5.9
      vertex 13.4 0.599999 5.9
    endloop
  endfacet
  facet normal 0 0 1
    outer loop
      vertex -0.4 -0.4 5.9
      vertex 13.4 0.599999 5.9
      vertex 0.599999 0.599999 5.9
    endloop
  endfacet
  facet normal 0 0 1
    outer loop
      vertex 27.4 0.599999 5.9
      vertex -0.4 -0.4 5.9
      vertex 56.4 -0.4 5.9
    endloop
  endfacet
  facet normal 0 0 1
    outer loop
      vertex 0.599999 8.4 5.9
      vertex -0.4 -0.4 5.9
      vertex 0.599999 0.599999 5.9
    endloop
  endfacet
  facet normal 0 1 -0
    outer loop
      vertex 56.4 -0.4 5.9
      vertex -0.4 -0.4 8
      vertex 56.4 -0.4 8
    endloop
  endfacet
  facet normal 0 1 0
    outer loop
      vertex -0.4 -0.4 8
      vertex 56.4 -0.4 5.9
      vertex -0.4 -0.4 5.9
    endloop
  endfacet
  facet normal -1 0 0
    outer loop
      vertex 56.4 -0.4 5.9
      vertex 56.4 36.4 8
      vertex 56.4 36.4 5.9
    endloop
  endfacet
  facet normal -1 -0 0
    outer loop
      vertex 56.4 36.4 8
      vertex 56.4 -0.4 5.9
      vertex 56.4 -0.4 8
    endloop
  endfacet
  facet normal 0 -1 0
    outer loop
      vertex -0.4 36.4 5.9
      vertex 56.4 36.4 8
      vertex -0.4 36.4 8
    endloop
  endfacet
  facet normal 0 -1 -0
    outer loop
      vertex 56.4 36.4 8
      vertex -0.4 36.4 5.9
      vertex 56.4 36.4 5.9
    endloop
  endfacet
  facet normal -1 0 0
    outer loop
      vertex -1.8 -1.8 0
      vertex -1.8 37.8 8
      vertex -1.8 37.8 0
    endloop
  endfacet
  facet normal -1 -0 0
    outer loop
      vertex -1.8 37.8 8
      vertex -1.8 -1.8 0
      vertex -1.8 -1.8 8
    endloop
  endfacet
  facet normal 0 0 1
    outer loop
      vertex 57.8 37.8 8
      vertex 56.4 36.4 8
      vertex 57.8 -1.8 8
    endloop
  endfacet
  facet normal 0 0 1
    outer loop
      vertex 57.8 37.8 8
      vertex -0.4 36.4 8
      vertex 56.4 36.4 8
    endloop
  endfacet
  facet normal 0 0 1
    outer loop
      vertex -0.4 36.4 8
      vertex -1.8 37.8 8
      vertex -0.4 -0.4 8
    endloop
  endfacet
  facet normal -0 0 1
    outer loop
      vertex -1.8 37.8 8
      vertex -0.4 36.4 8
      vertex 57.8 37.8 8
    endloop
  endfacet
  facet normal -0 0 1
    outer loop
      vertex 56.4 -0.4 8
      vertex 57.8 -1.8 8
      vertex 56.4 36.4 8
    endloop
  endfacet
  facet normal -0 0 1
    outer loop
      vertex -0.4 -0.4 8
      vertex 57.8 -1.8 8
      vertex 56.4 -0.4 8
    endloop
  endfacet
  facet normal 0 0 1
    outer loop
      vertex -0.4 -0.4 8
      vertex -1.8 -1.8 8
      vertex 57.8 -1.8 8
    endloop
  endfacet
  facet normal 0 0 1
    outer loop
      vertex -1.8 -1.8 8
      vertex -0.4 -0.4 8
      vertex -1.8 37.8 8
    endloop
  endfacet
  facet normal 1 -0 0
    outer loop
      vertex 57.8 -1.8 8
      vertex 57.8 37.8 0
      vertex 57.8 37.8 8
    endloop
  endfacet
  facet normal 1 0 0
    outer loop
      vertex 57.8 37.8 0
      vertex 57.8 -1.8 8
      vertex 57.8 -1.8 0
    endloop
  endfacet
  facet normal 0 1 -0
    outer loop
      vertex 57.8 37.8 0
      vertex -1.8 37.8 8
      vertex 57.8 37.8 8
    endloop
  endfacet
  facet normal 0 1 0
    outer loop
      vertex -1.8 37.8 8
      vertex 57.8 37.8 0
      vertex -1.8 37.8 0
    endloop
  endfacet
  facet normal 0 0 -1
    outer loop
      vertex 0.599999 26.4 0
      vertex 13.4 27.6 0
      vertex 13.4 26.4 0
    endloop
  endfacet
  facet normal -0 0 -1
    outer loop
      vertex 13.4 27.6 0
      vertex 0.599999 26.4 0
      vertex 0.599999 27.6 0
    endloop
  endfacet
  facet normal 0 0 -1
    outer loop
      vertex 0.599999 17.4 0
      vertex 13.4 18.6 0
      vertex 13.4 17.4 0
    endloop
  endfacet
  facet normal -0 0 -1
    outer loop
      vertex 13.4 18.6 0
      vertex 0.599999 17.4 0
      vertex 0.599999 18.6 0
    endloop
  endfacet
  facet normal 0 0 -1
    outer loop
      vertex 0.599999 8.4 0
      vertex 13.4 9.6 0
      vertex 13.4 8.4 0
    endloop
  endfacet
  facet normal -0 0 -1
    outer loop
      vertex 13.4 9.6 0
      vertex 0.599999 8.4 0
      vertex 0.599999 9.6 0
    endloop
  endfacet
  facet normal 0 0 -1
    outer loop
      vertex 14.6 26.4 0
      vertex 27.4 27.6 0
      vertex 27.4 26.4 0
    endloop
  endfacet
  facet normal -0 0 -1
    outer loop
      vertex 27.4 27.6 0
      vertex 14.6 26.4 0
      vertex 14.6 27.6 0
    endloop
  endfacet
  facet normal 0 0 -1
    outer loop
      vertex 14.6 17.4 0
      vertex 27.4 18.6 0
      vertex 27.4 17.4 0
    endloop
  endfacet
  facet normal -0 0 -1
    outer loop
      vertex 27.4 18.6 0
      vertex 14.6 17.4 0
      vertex 14.6 18.6 0
    endloop
  endfacet
  facet normal 0 0 -1
    outer loop
      vertex 14.6 8.4 0
      vertex 27.4 9.6 0
      vertex 27.4 8.4 0
    endloop
  endfacet
  facet normal -0 0 -1
    outer loop
      vertex 27.4 9.6 0
      vertex 14.6 8.4 0
      vertex 14.6 9.6 0
    endloop
  endfacet
  facet normal 0 0 -1
    outer loop
      vertex 28.6 26.4 0
      vertex 41.4 27.6 0
      vertex 41.4 26.4 0
    endloop
  endfacet
  facet normal -0 0 -1
    outer loop
      vertex 41.4 27.6 0
      vertex 28.6 26.4 0
      vertex 28.6 27.6 0
    endloop
  endfacet
  facet normal 0 0 -1
    outer loop
      vertex 28.6 17.4 0
      vertex 41.4 18.6 0
      vertex 41.4 17.4 0
    endloop
  endfacet
  facet normal -0 0 -1
    outer loop
      vertex 41.4 18.6 0
      vertex 28.6 17.4 0
      vertex 28.6 18.6 0
    endloop
  endfacet
  facet normal 0 0 -1
    outer loop
      vertex 28.6 8.4 0
      vertex 41.4 9.6 0
      vertex 41.4 8.4 0
    endloop
  endfacet
  facet normal -0 0 -1
    outer loop
      vertex 41.4 9.6 0
      vertex 28.6 8.4 0
      vertex 28.6 9.6 0
    endloop
  endfacet
  facet normal 0 0 -1
    outer loop
      vertex 42.6 26.4 0
      vertex 55.4 27.6 0
      vertex 55.4 26.4 0
    endloop
  endfacet
  facet normal -0 0 -1
    outer loop
      vertex 55.4 27.6 0
      vertex 42.6 26.4 0
      vertex 42.6 27.6 0
    endloop
  endfacet
  facet normal 0 0 -1
    outer loop
      vertex 42.6 17.4 0
      vertex 55.4 18.6 0
      vertex 55.4 17.4 0
    endloop
  endfacet
  facet normal -0 0 -1
    outer loop
      vertex 55.4 18.6 0
      vertex 42.6 17.4 0
      vertex 42.6 18.6 0
    endloop
  endfacet
  facet normal 0 0 -1
    outer loop
      vertex 42.6 8.4 0
      vertex 55.4 9.6 0
      vertex 55.4 8.4 0
    endloop
  endfacet
  facet normal -0 0 -1
    outer loop
      vertex 55.4 9.6 0
      vertex 42.6 8.4 0
      vertex 42.6 9.6 0
    endloop
  endfacet
  facet normal 0 0 -1
    outer loop
      vertex 55.4 8.4 0
      vertex 57.8 -1.8 0
      vertex 55.4 0.599999 0
    endloop
  endfacet
  facet normal 0 0 -1
    outer loop
      vertex 57.8 -1.8 0
      vertex 42.6 0.599999 0
      vertex 55.4 0.599999 0
    endloop
  endfacet
  facet normal 0 0 -1
    outer loop
      vertex 41.4 8.4 0
      vertex 42.6 8.4 0
      vertex 42.6 0.599999 0
    endloop
  endfacet
  facet normal 0 0 -1
    outer loop
      vertex 42.6 8.4 0
      vertex 41.4 8.4 0
      vertex 42.6 9.6 0
    endloop
  endfacet
  facet normal 0 0 -1
    outer loop
      vertex 42.6 9.6 0
      vertex 41.4 9.6 0
      vertex 42.6 17.4 0
    endloop
  endfacet
  facet normal 0 0 -1
    outer loop
      vertex 41.4 17.4 0
      vertex 42.6 17.4 0
      vertex 41.4 9.6 0
    endloop
  endfacet
  facet normal 0 0 -1
    outer loop
      vertex 41.4 18.6 0
      vertex 42.6 18.6 0
      vertex 41.4 17.4 0
    endloop
  endfacet
  facet normal 0 0 -1
    outer loop
      vertex 42.6 18.6 0
      vertex 41.4 18.6 0
      vertex 42.6 26.4 0
    endloop
  endfacet
  facet normal 0 0 -1
    outer loop
      vertex 41.4 8.4 0
      vertex 42.6 0.599999 0
      vertex 41.4 0.599999 0
    endloop
  endfacet
  facet normal 0 0 -1
    outer loop
      vertex 57.8 -1.8 0
      vertex 41.4 0.599999 0
      vertex 42.6 0.599999 0
    endloop
  endfacet
  facet normal 0 0 -1
    outer loop
      vertex 57.8 -1.8 0
      vertex 28.6 0.599999 0
      vertex 41.4 0.599999 0
    endloop
  endfacet
  facet normal 0 0 -1
    outer loop
      vertex 27.4 8.4 0
      vertex 28.6 8.4 0
      vertex 28.6 0.599999 0
    endloop
  endfacet
  facet normal 0 0 -1
    outer loop
      vertex 28.6 8.4 0
      vertex 27.4 8.4 0
      vertex 28.6 9.6 0
    endloop
  endfacet
  facet normal 0 0 -1
    outer loop
      vertex 28.6 9.6 0
      vertex 27.4 9.6 0
      vertex 28.6 17.4 0
    endloop
  endfacet
  facet normal 0 0 -1
    outer loop
      vertex 27.4 17.4 0
      vertex 28.6 17.4 0
      vertex 27.4 9.6 0
    endloop
  endfacet
  facet normal 0 0 -1
    outer loop
      vertex 27.4 18.6 0
      vertex 28.6 18.6 0
      vertex 27.4 17.4 0
    endloop
  endfacet
  facet normal 0 0 -1
    outer loop
      vertex 28.6 18.6 0
      vertex 27.4 18.6 0
      vertex 28.6 26.4 0
    endloop
  endfacet
  facet normal 0 0 -1
    outer loop
      vertex 27.4 8.4 0
      vertex 28.6 0.599999 0
      vertex 27.4 0.599999 0
    endloop
  endfacet
  facet normal 0 0 -1
    outer loop
      vertex 57.8 -1.8 0
      vertex 27.4 0.599999 0
      vertex 28.6 0.599999 0
    endloop
  endfacet
  facet normal 0 0 -1
    outer loop
      vertex -1.8 -1.8 0
      vertex 27.4 0.599999 0
      vertex 57.8 -1.8 0
    endloop
  endfacet
  facet normal 0 0 -1
    outer loop
      vertex 13.4 8.4 0
      vertex 14.6 8.4 0
      vertex 14.6 0.599999 0
    endloop
  endfacet
  facet normal 0 0 -1
    outer loop
      vertex 14.6 8.4 0
      vertex 13.4 8.4 0
      vertex 14.6 9.6 0
    endloop
  endfacet
  facet normal 0 0 -1
    outer loop
      vertex 14.6 9.6 0
      vertex 13.4 9.6 0
      vertex 14.6 17.4 0
    endloop
  endfacet
  facet normal 0 0 -1
    outer loop
      vertex 13.4 17.4 0
      vertex 14.6 17.4 0
      vertex 13.4 9.6 0
    endloop
  endfacet
  facet normal 0 0 -1
    outer loop
      vertex 13.4 18.6 0
      vertex 14.6 18.6 0
      vertex 13.4 17.4 0
    endloop
  endfacet
  facet normal 0 0 -1
    outer loop
      vertex 14.6 18.6 0
      vertex 13.4 18.6 0
      vertex 14.6 26.4 0
    endloop
  endfacet
  facet normal 0 0 -1
    outer loop
      vertex 13.4 8.4 0
      vertex 14.6 0.599999 0
      vertex 13.4 0.599999 0
    endloop
  endfacet
  facet normal -0 0 -1
    outer loop
      vertex 27.4 0.599999 0
      vertex -1.8 -1.8 0
      vertex 14.6 0.599999 0
    endloop
  endfacet
  facet normal -0 0 -1
    outer loop
      vertex 14.6 0.599999 0
      vertex -1.8 -1.8 0
      vertex 13.4 0.599999 0
    endloop
  endfacet
  facet normal 0 0 -1
    outer loop
      vertex -1.8 -1.8 0
      vertex 0.599999 8.4 0
      vertex 0.599999 0.599999 0
    endloop
  endfacet
  facet normal -0 0 -1
    outer loop
      vertex 0.599999 8.4 0
      vertex -1.8 -1.8 0
      vertex 0.599999 9.6 0
    endloop
  endfacet
  facet normal -0 0 -1
    outer loop
      vertex 0.599999 9.6 0
      vertex -1.8 -1.8 0
      vertex 0.599999 17.4 0
    endloop
  endfacet
  facet normal -0 0 -1
    outer loop
      vertex 0.599999 17.4 0
      vertex -1.8 -1.8 0
      vertex 0.599999 18.6 0
    endloop
  endfacet
  facet normal 0 0 -1
    outer loop
      vertex -1.8 37.8 0
      vertex 0.599999 18.6 0
      vertex -1.8 -1.8 0
    endloop
  endfacet
  facet normal 0 0 -1
    outer loop
      vertex 0.599999 18.6 0
      vertex -1.8 37.8 0
      vertex 0.599999 26.4 0
    endloop
  endfacet
  facet normal 0 0 -1
    outer loop
      vertex 0.599999 26.4 0
      vertex -1.8 37.8 0
      vertex 0.599999 27.6 0
    endloop
  endfacet
  facet normal -0 0 -1
    outer loop
      vertex 13.4 0.599999 0
      vertex -1.8 -1.8 0
      vertex 0.599999 0.599999 0
    endloop
  endfacet
  facet normal 0 0 -1
    outer loop
      vertex 55.4 9.6 0
      vertex 57.8 -1.8 0
      vertex 55.4 8.4 0
    endloop
  endfacet
  facet normal 0 0 -1
    outer loop
      vertex 55.4 17.4 0
      vertex 57.8 -1.8 0
      vertex 55.4 9.6 0
    endloop
  endfacet
  facet normal 0 0 -1
    outer loop
      vertex 57.8 -1.8 0
      vertex 55.4 17.4 0
      vertex 57.8 37.8 0
    endloop
  endfacet
  facet normal 0 0 -1
    outer loop
      vertex 55.4 18.6 0
      vertex 57.8 37.8 0
      vertex 55.4 17.4 0
    endloop
  endfacet
  facet normal 0 0 -1
    outer loop
      vertex 55.4 26.4 0
      vertex 57.8 37.8 0
      vertex 55.4 18.6 0
    endloop
  endfacet
  facet normal 0 0 -1
    outer loop
      vertex 55.4 27.6 0
      vertex 57.8 37.8 0
      vertex 55.4 26.4 0
    endloop
  endfacet
  facet normal 0 0 -1
    outer loop
      vertex 55.4 35.4 0
      vertex 57.8 37.8 0
      vertex 55.4 27.6 0
    endloop
  endfacet
  facet normal 0 0 -1
    outer loop
      vertex 42.6 35.4 0
      vertex 57.8 37.8 0
      vertex 55.4 35.4 0
    endloop
  endfacet
  facet normal -0 0 -1
    outer loop
      vertex 42.6 9.6 0
      vertex 41.4 8.4 0
      vertex 41.4 9.6 0
    endloop
  endfacet
  facet normal 0 0 -1
    outer loop
      vertex 42.6 17.4 0
      vertex 41.4 17.4 0
      vertex 42.6 18.6 0
    endloop
  endfacet
  facet normal 0 0 -1
    outer loop
      vertex 41.4 26.4 0
      vertex 42.6 26.4 0
      vertex 41.4 18.6 0
    endloop
  endfacet
  facet normal 0 0 -1
    outer loop
      vertex 42.6 26.4 0
      vertex 41.4 26.4 0
      vertex 42.6 27.6 0
    endloop
  endfacet
  facet normal 0 0 -1
    outer loop
      vertex 41.4 27.6 0
      vertex 42.6 27.6 0
      vertex 41.4 26.4 0
    endloop
  endfacet
  facet normal 0 0 -1
    outer loop
      vertex 42.6 27.6 0
      vertex 41.4 27.6 0
      vertex 42.6 35.4 0
    endloop
  endfacet
  facet normal 0 0 -1
    outer loop
      vertex 41.4 35.4 0
      vertex 42.6 35.4 0
      vertex 41.4 27.6 0
    endloop
  endfacet
  facet normal 0 0 -1
    outer loop
      vertex 41.4 35.4 0
      vertex 57.8 37.8 0
      vertex 42.6 35.4 0
    endloop
  endfacet
  facet normal 0 0 -1
    outer loop
      vertex 28.6 35.4 0
      vertex 57.8 37.8 0
      vertex 41.4 35.4 0
    endloop
  endfacet
  facet normal -0 0 -1
    outer loop
      vertex 28.6 9.6 0
      vertex 27.4 8.4 0
      vertex 27.4 9.6 0
    endloop
  endfacet
  facet normal 0 0 -1
    outer loop
      vertex 28.6 17.4 0
      vertex 27.4 17.4 0
      vertex 28.6 18.6 0
    endloop
  endfacet
  facet normal 0 0 -1
    outer loop
      vertex 27.4 26.4 0
      vertex 28.6 26.4 0
      vertex 27.4 18.6 0
    endloop
  endfacet
  facet normal 0 0 -1
    outer loop
      vertex 28.6 26.4 0
      vertex 27.4 26.4 0
      vertex 28.6 27.6 0
    endloop
  endfacet
  facet normal 0 0 -1
    outer loop
      vertex 27.4 27.6 0
      vertex 28.6 27.6 0
      vertex 27.4 26.4 0
    endloop
  endfacet
  facet normal 0 0 -1
    outer loop
      vertex 28.6 27.6 0
      vertex 27.4 27.6 0
      vertex 28.6 35.4 0
    endloop
  endfacet
  facet normal 0 0 -1
    outer loop
      vertex 27.4 35.4 0
      vertex 28.6 35.4 0
      vertex 27.4 27.6 0
    endloop
  endfacet
  facet normal 0 0 -1
    outer loop
      vertex 27.4 35.4 0
      vertex 57.8 37.8 0
      vertex 28.6 35.4 0
    endloop
  endfacet
  facet normal 0 0 -1
    outer loop
      vertex -1.8 37.8 0
      vertex 27.4 35.4 0
      vertex 14.6 35.4 0
    endloop
  endfacet
  facet normal -0 0 -1
    outer loop
      vertex 14.6 9.6 0
      vertex 13.4 8.4 0
      vertex 13.4 9.6 0
    endloop
  endfacet
  facet normal 0 0 -1
    outer loop
      vertex 14.6 17.4 0
      vertex 13.4 17.4 0
      vertex 14.6 18.6 0
    endloop
  endfacet
  facet normal 0 0 -1
    outer loop
      vertex 13.4 26.4 0
      vertex 14.6 26.4 0
      vertex 13.4 18.6 0
    endloop
  endfacet
  facet normal 0 0 -1
    outer loop
      vertex 14.6 26.4 0
      vertex 13.4 26.4 0
      vertex 14.6 27.6 0
    endloop
  endfacet
  facet normal 0 0 -1
    outer loop
      vertex 13.4 27.6 0
      vertex 14.6 27.6 0
      vertex 13.4 26.4 0
    endloop
  endfacet
  facet normal 0 0 -1
    outer loop
      vertex 14.6 27.6 0
      vertex 13.4 27.6 0
      vertex 14.6 35.4 0
    endloop
  endfacet
  facet normal 0 0 -1
    outer loop
      vertex 13.4 35.4 0
      vertex 14.6 35.4 0
      vertex 13.4 27.6 0
    endloop
  endfacet
  facet normal 0 0 -1
    outer loop
      vertex -1.8 37.8 0
      vertex 14.6 35.4 0
      vertex 13.4 35.4 0
    endloop
  endfacet
  facet normal 0 0 -1
    outer loop
      vertex -1.8 37.8 0
      vertex 13.4 35.4 0
      vertex 0.599999 35.4 0
    endloop
  endfacet
  facet normal 0 0 -1
    outer loop
      vertex 27.4 35.4 0
      vertex -1.8 37.8 0
      vertex 57.8 37.8 0
    endloop
  endfacet
  facet normal 0 0 -1
    outer loop
      vertex 0.599999 27.6 0
      vertex -1.8 37.8 0
      vertex 0.599999 35.4 0
    endloop
  endfacet
  facet normal 0 -1 0
    outer loop
      vertex -1.8 -1.8 0
      vertex 57.8 -1.8 8
      vertex -1.8 -1.8 8
    endloop
  endfacet
  facet normal 0 -1 -0
    outer loop
      vertex 57.8 -1.8 8
      vertex -1.8 -1.8 0
      vertex 57.8 -1.8 0
    endloop
  endfacet
endsolid OpenSCAD_Model
