solid OpenSCAD_Model
  facet normal 1 -0 0
    outer loop
      vertex 87.6 5.1 1.2
      vertex 87.6 12.9 5.72205e-07
      vertex 87.6 12.9 1.2
    endloop
  endfacet
  facet normal 1 0 0
    outer loop
      vertex 87.6 12.9 5.72205e-07
      vertex 87.6 5.1 1.2
      vertex 87.6 5.1 5.72205e-07
    endloop
  endfacet
  facet normal -1 0 0
    outer loop
      vertex 100.4 5.1 5.72205e-07
      vertex 100.4 12.9 1.2
      vertex 100.4 12.9 5.72205e-07
    endloop
  endfacet
  facet normal -1 -0 0
    outer loop
      vertex 100.4 12.9 1.2
      vertex 100.4 5.1 5.72205e-07
      vertex 100.4 5.1 1.2
    endloop
  endfacet
  facet normal 0 1 -0
    outer loop
      vertex 100.4 5.1 5.72205e-07
      vertex 87.6 5.1 1.2
      vertex 100.4 5.1 1.2
    endloop
  endfacet
  facet normal 0 1 0
    outer loop
      vertex 87.6 5.1 1.2
      vertex 100.4 5.1 5.72205e-07
      vertex 87.6 5.1 5.72205e-07
    endloop
  endfacet
  facet normal 0 -1 0
    outer loop
      vertex 87.6 12.9 5.72205e-07
      vertex 100.4 12.9 1.2
      vertex 87.6 12.9 1.2
    endloop
  endfacet
  facet normal 0 -1 -0
    outer loop
      vertex 100.4 12.9 1.2
      vertex 87.6 12.9 5.72205e-07
      vertex 100.4 12.9 5.72205e-07
    endloop
  endfacet
  facet normal 1 -0 0
    outer loop
      vertex 101.6 5.1 1.2
      vertex 101.6 12.9 5.72205e-07
      vertex 101.6 12.9 1.2
    endloop
  endfacet
  facet normal 1 0 0
    outer loop
      vertex 101.6 12.9 5.72205e-07
      vertex 101.6 5.1 1.2
      vertex 101.6 5.1 5.72205e-07
    endloop
  endfacet
  facet normal -1 0 0
    outer loop
      vertex 114.4 5.1 5.72205e-07
      vertex 114.4 12.9 1.2
      vertex 114.4 12.9 5.72205e-07
    endloop
  endfacet
  facet normal -1 -0 0
    outer loop
      vertex 114.4 12.9 1.2
      vertex 114.4 5.1 5.72205e-07
      vertex 114.4 5.1 1.2
    endloop
  endfacet
  facet normal 0 -1 0
    outer loop
      vertex 101.6 12.9 5.72205e-07
      vertex 114.4 12.9 1.2
      vertex 101.6 12.9 1.2
    endloop
  endfacet
  facet normal 0 -1 -0
    outer loop
      vertex 114.4 12.9 1.2
      vertex 101.6 12.9 5.72205e-07
      vertex 114.4 12.9 5.72205e-07
    endloop
  endfacet
  facet normal 0 1 -0
    outer loop
      vertex 114.4 5.1 5.72205e-07
      vertex 101.6 5.1 1.2
      vertex 114.4 5.1 1.2
    endloop
  endfacet
  facet normal 0 1 0
    outer loop
      vertex 101.6 5.1 1.2
      vertex 114.4 5.1 5.72205e-07
      vertex 101.6 5.1 5.72205e-07
    endloop
  endfacet
  facet normal 1 -0 0
    outer loop
      vertex 115.6 5.1 1.2
      vertex 115.6 12.9 5.72205e-07
      vertex 115.6 12.9 1.2
    endloop
  endfacet
  facet normal 1 0 0
    outer loop
      vertex 115.6 12.9 5.72205e-07
      vertex 115.6 5.1 1.2
      vertex 115.6 5.1 5.72205e-07
    endloop
  endfacet
  facet normal -1 0 0
    outer loop
      vertex 128.4 5.1 5.72205e-07
      vertex 128.4 12.9 1.2
      vertex 128.4 12.9 5.72205e-07
    endloop
  endfacet
  facet normal -1 -0 0
    outer loop
      vertex 128.4 12.9 1.2
      vertex 128.4 5.1 5.72205e-07
      vertex 128.4 5.1 1.2
    endloop
  endfacet
  facet normal 0 -1 0
    outer loop
      vertex 115.6 12.9 5.72205e-07
      vertex 128.4 12.9 1.2
      vertex 115.6 12.9 1.2
    endloop
  endfacet
  facet normal 0 -1 -0
    outer loop
      vertex 128.4 12.9 1.2
      vertex 115.6 12.9 5.72205e-07
      vertex 128.4 12.9 5.72205e-07
    endloop
  endfacet
  facet normal 0 1 -0
    outer loop
      vertex 128.4 5.1 5.72205e-07
      vertex 115.6 5.1 1.2
      vertex 128.4 5.1 1.2
    endloop
  endfacet
  facet normal 0 1 0
    outer loop
      vertex 115.6 5.1 1.2
      vertex 128.4 5.1 5.72205e-07
      vertex 115.6 5.1 5.72205e-07
    endloop
  endfacet
  facet normal 1 -0 0
    outer loop
      vertex 129.6 5.1 1.2
      vertex 129.6 12.9 5.72205e-07
      vertex 129.6 12.9 1.2
    endloop
  endfacet
  facet normal 1 0 0
    outer loop
      vertex 129.6 12.9 5.72205e-07
      vertex 129.6 5.1 1.2
      vertex 129.6 5.1 5.72205e-07
    endloop
  endfacet
  facet normal -1 0 0
    outer loop
      vertex 142.4 5.1 5.72205e-07
      vertex 142.4 12.9 1.2
      vertex 142.4 12.9 5.72205e-07
    endloop
  endfacet
  facet normal -1 -0 0
    outer loop
      vertex 142.4 12.9 1.2
      vertex 142.4 5.1 5.72205e-07
      vertex 142.4 5.1 1.2
    endloop
  endfacet
  facet normal 0 1 -0
    outer loop
      vertex 142.4 5.1 5.72205e-07
      vertex 129.6 5.1 1.2
      vertex 142.4 5.1 1.2
    endloop
  endfacet
  facet normal 0 1 0
    outer loop
      vertex 129.6 5.1 1.2
      vertex 142.4 5.1 5.72205e-07
      vertex 129.6 5.1 5.72205e-07
    endloop
  endfacet
  facet normal 0 -1 0
    outer loop
      vertex 129.6 12.9 5.72205e-07
      vertex 142.4 12.9 1.2
      vertex 129.6 12.9 1.2
    endloop
  endfacet
  facet normal 0 -1 -0
    outer loop
      vertex 142.4 12.9 1.2
      vertex 129.6 12.9 5.72205e-07
      vertex 142.4 12.9 5.72205e-07
    endloop
  endfacet
  facet normal 1 -0 0
    outer loop
      vertex 87.6 14.1 1.2
      vertex 87.6 21.9 5.72205e-07
      vertex 87.6 21.9 1.2
    endloop
  endfacet
  facet normal 1 0 0
    outer loop
      vertex 87.6 21.9 5.72205e-07
      vertex 87.6 14.1 1.2
      vertex 87.6 14.1 5.72205e-07
    endloop
  endfacet
  facet normal -1 0 0
    outer loop
      vertex 100.4 14.1 5.72205e-07
      vertex 100.4 21.9 1.2
      vertex 100.4 21.9 5.72205e-07
    endloop
  endfacet
  facet normal -1 -0 0
    outer loop
      vertex 100.4 21.9 1.2
      vertex 100.4 14.1 5.72205e-07
      vertex 100.4 14.1 1.2
    endloop
  endfacet
  facet normal 0 1 -0
    outer loop
      vertex 100.4 14.1 5.72205e-07
      vertex 87.6 14.1 1.2
      vertex 100.4 14.1 1.2
    endloop
  endfacet
  facet normal 0 1 0
    outer loop
      vertex 87.6 14.1 1.2
      vertex 100.4 14.1 5.72205e-07
      vertex 87.6 14.1 5.72205e-07
    endloop
  endfacet
  facet normal 0 -1 0
    outer loop
      vertex 87.6 21.9 5.72205e-07
      vertex 100.4 21.9 1.2
      vertex 87.6 21.9 1.2
    endloop
  endfacet
  facet normal 0 -1 -0
    outer loop
      vertex 100.4 21.9 1.2
      vertex 87.6 21.9 5.72205e-07
      vertex 100.4 21.9 5.72205e-07
    endloop
  endfacet
  facet normal 1 -0 0
    outer loop
      vertex 101.6 14.1 1.2
      vertex 101.6 21.9 5.72205e-07
      vertex 101.6 21.9 1.2
    endloop
  endfacet
  facet normal 1 0 0
    outer loop
      vertex 101.6 21.9 5.72205e-07
      vertex 101.6 14.1 1.2
      vertex 101.6 14.1 5.72205e-07
    endloop
  endfacet
  facet normal -1 0 0
    outer loop
      vertex 114.4 14.1 5.72205e-07
      vertex 114.4 21.9 1.2
      vertex 114.4 21.9 5.72205e-07
    endloop
  endfacet
  facet normal -1 -0 0
    outer loop
      vertex 114.4 21.9 1.2
      vertex 114.4 14.1 5.72205e-07
      vertex 114.4 14.1 1.2
    endloop
  endfacet
  facet normal 0 1 -0
    outer loop
      vertex 114.4 14.1 5.72205e-07
      vertex 101.6 14.1 1.2
      vertex 114.4 14.1 1.2
    endloop
  endfacet
  facet normal 0 1 0
    outer loop
      vertex 101.6 14.1 1.2
      vertex 114.4 14.1 5.72205e-07
      vertex 101.6 14.1 5.72205e-07
    endloop
  endfacet
  facet normal 0 -1 0
    outer loop
      vertex 101.6 21.9 5.72205e-07
      vertex 114.4 21.9 1.2
      vertex 101.6 21.9 1.2
    endloop
  endfacet
  facet normal 0 -1 -0
    outer loop
      vertex 114.4 21.9 1.2
      vertex 101.6 21.9 5.72205e-07
      vertex 114.4 21.9 5.72205e-07
    endloop
  endfacet
  facet normal 1 -0 0
    outer loop
      vertex 115.6 14.1 1.2
      vertex 115.6 21.9 5.72205e-07
      vertex 115.6 21.9 1.2
    endloop
  endfacet
  facet normal 1 0 0
    outer loop
      vertex 115.6 21.9 5.72205e-07
      vertex 115.6 14.1 1.2
      vertex 115.6 14.1 5.72205e-07
    endloop
  endfacet
  facet normal -1 0 0
    outer loop
      vertex 128.4 14.1 5.72205e-07
      vertex 128.4 21.9 1.2
      vertex 128.4 21.9 5.72205e-07
    endloop
  endfacet
  facet normal -1 -0 0
    outer loop
      vertex 128.4 21.9 1.2
      vertex 128.4 14.1 5.72205e-07
      vertex 128.4 14.1 1.2
    endloop
  endfacet
  facet normal 0 -1 0
    outer loop
      vertex 115.6 21.9 5.72205e-07
      vertex 128.4 21.9 1.2
      vertex 115.6 21.9 1.2
    endloop
  endfacet
  facet normal 0 -1 -0
    outer loop
      vertex 128.4 21.9 1.2
      vertex 115.6 21.9 5.72205e-07
      vertex 128.4 21.9 5.72205e-07
    endloop
  endfacet
  facet normal 0 1 -0
    outer loop
      vertex 128.4 14.1 5.72205e-07
      vertex 115.6 14.1 1.2
      vertex 128.4 14.1 1.2
    endloop
  endfacet
  facet normal 0 1 0
    outer loop
      vertex 115.6 14.1 1.2
      vertex 128.4 14.1 5.72205e-07
      vertex 115.6 14.1 5.72205e-07
    endloop
  endfacet
  facet normal 1 -0 0
    outer loop
      vertex 129.6 14.1 1.2
      vertex 129.6 21.9 5.72205e-07
      vertex 129.6 21.9 1.2
    endloop
  endfacet
  facet normal 1 0 0
    outer loop
      vertex 129.6 21.9 5.72205e-07
      vertex 129.6 14.1 1.2
      vertex 129.6 14.1 5.72205e-07
    endloop
  endfacet
  facet normal -1 0 0
    outer loop
      vertex 142.4 14.1 5.72205e-07
      vertex 142.4 21.9 1.2
      vertex 142.4 21.9 5.72205e-07
    endloop
  endfacet
  facet normal -1 -0 0
    outer loop
      vertex 142.4 21.9 1.2
      vertex 142.4 14.1 5.72205e-07
      vertex 142.4 14.1 1.2
    endloop
  endfacet
  facet normal 0 -1 0
    outer loop
      vertex 129.6 21.9 5.72205e-07
      vertex 142.4 21.9 1.2
      vertex 129.6 21.9 1.2
    endloop
  endfacet
  facet normal 0 -1 -0
    outer loop
      vertex 142.4 21.9 1.2
      vertex 129.6 21.9 5.72205e-07
      vertex 142.4 21.9 5.72205e-07
    endloop
  endfacet
  facet normal 0 1 -0
    outer loop
      vertex 142.4 14.1 5.72205e-07
      vertex 129.6 14.1 1.2
      vertex 142.4 14.1 1.2
    endloop
  endfacet
  facet normal 0 1 0
    outer loop
      vertex 129.6 14.1 1.2
      vertex 142.4 14.1 5.72205e-07
      vertex 129.6 14.1 5.72205e-07
    endloop
  endfacet
  facet normal 1 -0 0
    outer loop
      vertex 87.6 23.1 1.2
      vertex 87.6 30.9 5.72205e-07
      vertex 87.6 30.9 1.2
    endloop
  endfacet
  facet normal 1 0 0
    outer loop
      vertex 87.6 30.9 5.72205e-07
      vertex 87.6 23.1 1.2
      vertex 87.6 23.1 5.72205e-07
    endloop
  endfacet
  facet normal -1 0 0
    outer loop
      vertex 100.4 23.1 5.72205e-07
      vertex 100.4 30.9 1.2
      vertex 100.4 30.9 5.72205e-07
    endloop
  endfacet
  facet normal -1 -0 0
    outer loop
      vertex 100.4 30.9 1.2
      vertex 100.4 23.1 5.72205e-07
      vertex 100.4 23.1 1.2
    endloop
  endfacet
  facet normal 0 -1 0
    outer loop
      vertex 87.6 30.9 5.72205e-07
      vertex 100.4 30.9 1.2
      vertex 87.6 30.9 1.2
    endloop
  endfacet
  facet normal 0 -1 -0
    outer loop
      vertex 100.4 30.9 1.2
      vertex 87.6 30.9 5.72205e-07
      vertex 100.4 30.9 5.72205e-07
    endloop
  endfacet
  facet normal 0 1 -0
    outer loop
      vertex 100.4 23.1 5.72205e-07
      vertex 87.6 23.1 1.2
      vertex 100.4 23.1 1.2
    endloop
  endfacet
  facet normal 0 1 0
    outer loop
      vertex 87.6 23.1 1.2
      vertex 100.4 23.1 5.72205e-07
      vertex 87.6 23.1 5.72205e-07
    endloop
  endfacet
  facet normal 1 -0 0
    outer loop
      vertex 101.6 23.1 1.2
      vertex 101.6 30.9 5.72205e-07
      vertex 101.6 30.9 1.2
    endloop
  endfacet
  facet normal 1 0 0
    outer loop
      vertex 101.6 30.9 5.72205e-07
      vertex 101.6 23.1 1.2
      vertex 101.6 23.1 5.72205e-07
    endloop
  endfacet
  facet normal -1 0 0
    outer loop
      vertex 114.4 23.1 5.72205e-07
      vertex 114.4 30.9 1.2
      vertex 114.4 30.9 5.72205e-07
    endloop
  endfacet
  facet normal -1 -0 0
    outer loop
      vertex 114.4 30.9 1.2
      vertex 114.4 23.1 5.72205e-07
      vertex 114.4 23.1 1.2
    endloop
  endfacet
  facet normal 0 1 -0
    outer loop
      vertex 114.4 23.1 5.72205e-07
      vertex 101.6 23.1 1.2
      vertex 114.4 23.1 1.2
    endloop
  endfacet
  facet normal 0 1 0
    outer loop
      vertex 101.6 23.1 1.2
      vertex 114.4 23.1 5.72205e-07
      vertex 101.6 23.1 5.72205e-07
    endloop
  endfacet
  facet normal 0 -1 0
    outer loop
      vertex 101.6 30.9 5.72205e-07
      vertex 114.4 30.9 1.2
      vertex 101.6 30.9 1.2
    endloop
  endfacet
  facet normal 0 -1 -0
    outer loop
      vertex 114.4 30.9 1.2
      vertex 101.6 30.9 5.72205e-07
      vertex 114.4 30.9 5.72205e-07
    endloop
  endfacet
  facet normal 1 -0 0
    outer loop
      vertex 115.6 23.1 1.2
      vertex 115.6 30.9 5.72205e-07
      vertex 115.6 30.9 1.2
    endloop
  endfacet
  facet normal 1 0 0
    outer loop
      vertex 115.6 30.9 5.72205e-07
      vertex 115.6 23.1 1.2
      vertex 115.6 23.1 5.72205e-07
    endloop
  endfacet
  facet normal -1 0 0
    outer loop
      vertex 128.4 23.1 5.72205e-07
      vertex 128.4 30.9 1.2
      vertex 128.4 30.9 5.72205e-07
    endloop
  endfacet
  facet normal -1 -0 0
    outer loop
      vertex 128.4 30.9 1.2
      vertex 128.4 23.1 5.72205e-07
      vertex 128.4 23.1 1.2
    endloop
  endfacet
  facet normal 0 1 -0
    outer loop
      vertex 128.4 23.1 5.72205e-07
      vertex 115.6 23.1 1.2
      vertex 128.4 23.1 1.2
    endloop
  endfacet
  facet normal 0 1 0
    outer loop
      vertex 115.6 23.1 1.2
      vertex 128.4 23.1 5.72205e-07
      vertex 115.6 23.1 5.72205e-07
    endloop
  endfacet
  facet normal 0 -1 0
    outer loop
      vertex 115.6 30.9 5.72205e-07
      vertex 128.4 30.9 1.2
      vertex 115.6 30.9 1.2
    endloop
  endfacet
  facet normal 0 -1 -0
    outer loop
      vertex 128.4 30.9 1.2
      vertex 115.6 30.9 5.72205e-07
      vertex 128.4 30.9 5.72205e-07
    endloop
  endfacet
  facet normal 1 -0 0
    outer loop
      vertex 129.6 23.1 1.2
      vertex 129.6 30.9 5.72205e-07
      vertex 129.6 30.9 1.2
    endloop
  endfacet
  facet normal 1 0 0
    outer loop
      vertex 129.6 30.9 5.72205e-07
      vertex 129.6 23.1 1.2
      vertex 129.6 23.1 5.72205e-07
    endloop
  endfacet
  facet normal -1 0 0
    outer loop
      vertex 142.4 23.1 5.72205e-07
      vertex 142.4 30.9 1.2
      vertex 142.4 30.9 5.72205e-07
    endloop
  endfacet
  facet normal -1 -0 0
    outer loop
      vertex 142.4 30.9 1.2
      vertex 142.4 23.1 5.72205e-07
      vertex 142.4 23.1 1.2
    endloop
  endfacet
  facet normal 0 -1 0
    outer loop
      vertex 129.6 30.9 5.72205e-07
      vertex 142.4 30.9 1.2
      vertex 129.6 30.9 1.2
    endloop
  endfacet
  facet normal 0 -1 -0
    outer loop
      vertex 142.4 30.9 1.2
      vertex 129.6 30.9 5.72205e-07
      vertex 142.4 30.9 5.72205e-07
    endloop
  endfacet
  facet normal 0 1 -0
    outer loop
      vertex 142.4 23.1 5.72205e-07
      vertex 129.6 23.1 1.2
      vertex 142.4 23.1 1.2
    endloop
  endfacet
  facet normal 0 1 0
    outer loop
      vertex 129.6 23.1 1.2
      vertex 142.4 23.1 5.72205e-07
      vertex 129.6 23.1 5.72205e-07
    endloop
  endfacet
  facet normal 1 -0 0
    outer loop
      vertex 87.6 32.1 1.2
      vertex 87.6 39.9 5.72205e-07
      vertex 87.6 39.9 1.2
    endloop
  endfacet
  facet normal 1 0 0
    outer loop
      vertex 87.6 39.9 5.72205e-07
      vertex 87.6 32.1 1.2
      vertex 87.6 32.1 5.72205e-07
    endloop
  endfacet
  facet normal -1 0 0
    outer loop
      vertex 100.4 32.1 5.72205e-07
      vertex 100.4 39.9 1.2
      vertex 100.4 39.9 5.72205e-07
    endloop
  endfacet
  facet normal -1 -0 0
    outer loop
      vertex 100.4 39.9 1.2
      vertex 100.4 32.1 5.72205e-07
      vertex 100.4 32.1 1.2
    endloop
  endfacet
  facet normal 0 -1 0
    outer loop
      vertex 87.6 39.9 5.72205e-07
      vertex 100.4 39.9 1.2
      vertex 87.6 39.9 1.2
    endloop
  endfacet
  facet normal 0 -1 -0
    outer loop
      vertex 100.4 39.9 1.2
      vertex 87.6 39.9 5.72205e-07
      vertex 100.4 39.9 5.72205e-07
    endloop
  endfacet
  facet normal 0 1 -0
    outer loop
      vertex 100.4 32.1 5.72205e-07
      vertex 87.6 32.1 1.2
      vertex 100.4 32.1 1.2
    endloop
  endfacet
  facet normal 0 1 0
    outer loop
      vertex 87.6 32.1 1.2
      vertex 100.4 32.1 5.72205e-07
      vertex 87.6 32.1 5.72205e-07
    endloop
  endfacet
  facet normal 1 -0 0
    outer loop
      vertex 101.6 32.1 1.2
      vertex 101.6 39.9 5.72205e-07
      vertex 101.6 39.9 1.2
    endloop
  endfacet
  facet normal 1 0 0
    outer loop
      vertex 101.6 39.9 5.72205e-07
      vertex 101.6 32.1 1.2
      vertex 101.6 32.1 5.72205e-07
    endloop
  endfacet
  facet normal -1 0 0
    outer loop
      vertex 114.4 32.1 5.72205e-07
      vertex 114.4 39.9 1.2
      vertex 114.4 39.9 5.72205e-07
    endloop
  endfacet
  facet normal -1 -0 0
    outer loop
      vertex 114.4 39.9 1.2
      vertex 114.4 32.1 5.72205e-07
      vertex 114.4 32.1 1.2
    endloop
  endfacet
  facet normal 0 -1 0
    outer loop
      vertex 101.6 39.9 5.72205e-07
      vertex 114.4 39.9 1.2
      vertex 101.6 39.9 1.2
    endloop
  endfacet
  facet normal 0 -1 -0
    outer loop
      vertex 114.4 39.9 1.2
      vertex 101.6 39.9 5.72205e-07
      vertex 114.4 39.9 5.72205e-07
    endloop
  endfacet
  facet normal 0 1 -0
    outer loop
      vertex 114.4 32.1 5.72205e-07
      vertex 101.6 32.1 1.2
      vertex 114.4 32.1 1.2
    endloop
  endfacet
  facet normal 0 1 0
    outer loop
      vertex 101.6 32.1 1.2
      vertex 114.4 32.1 5.72205e-07
      vertex 101.6 32.1 5.72205e-07
    endloop
  endfacet
  facet normal 1 -0 0
    outer loop
      vertex 115.6 32.1 1.2
      vertex 115.6 39.9 5.72205e-07
      vertex 115.6 39.9 1.2
    endloop
  endfacet
  facet normal 1 0 0
    outer loop
      vertex 115.6 39.9 5.72205e-07
      vertex 115.6 32.1 1.2
      vertex 115.6 32.1 5.72205e-07
    endloop
  endfacet
  facet normal -1 0 0
    outer loop
      vertex 128.4 32.1 5.72205e-07
      vertex 128.4 39.9 1.2
      vertex 128.4 39.9 5.72205e-07
    endloop
  endfacet
  facet normal -1 -0 0
    outer loop
      vertex 128.4 39.9 1.2
      vertex 128.4 32.1 5.72205e-07
      vertex 128.4 32.1 1.2
    endloop
  endfacet
  facet normal 0 1 -0
    outer loop
      vertex 128.4 32.1 5.72205e-07
      vertex 115.6 32.1 1.2
      vertex 128.4 32.1 1.2
    endloop
  endfacet
  facet normal 0 1 0
    outer loop
      vertex 115.6 32.1 1.2
      vertex 128.4 32.1 5.72205e-07
      vertex 115.6 32.1 5.72205e-07
    endloop
  endfacet
  facet normal 0 -1 0
    outer loop
      vertex 115.6 39.9 5.72205e-07
      vertex 128.4 39.9 1.2
      vertex 115.6 39.9 1.2
    endloop
  endfacet
  facet normal 0 -1 -0
    outer loop
      vertex 128.4 39.9 1.2
      vertex 115.6 39.9 5.72205e-07
      vertex 128.4 39.9 5.72205e-07
    endloop
  endfacet
  facet normal 1 -0 0
    outer loop
      vertex 129.6 32.1 1.2
      vertex 129.6 39.9 5.72205e-07
      vertex 129.6 39.9 1.2
    endloop
  endfacet
  facet normal 1 0 0
    outer loop
      vertex 129.6 39.9 5.72205e-07
      vertex 129.6 32.1 1.2
      vertex 129.6 32.1 5.72205e-07
    endloop
  endfacet
  facet normal -1 0 0
    outer loop
      vertex 142.4 32.1 5.72205e-07
      vertex 142.4 39.9 1.2
      vertex 142.4 39.9 5.72205e-07
    endloop
  endfacet
  facet normal -1 -0 0
    outer loop
      vertex 142.4 39.9 1.2
      vertex 142.4 32.1 5.72205e-07
      vertex 142.4 32.1 1.2
    endloop
  endfacet
  facet normal 0 -1 0
    outer loop
      vertex 129.6 39.9 5.72205e-07
      vertex 142.4 39.9 1.2
      vertex 129.6 39.9 1.2
    endloop
  endfacet
  facet normal 0 -1 -0
    outer loop
      vertex 142.4 39.9 1.2
      vertex 129.6 39.9 5.72205e-07
      vertex 142.4 39.9 5.72205e-07
    endloop
  endfacet
  facet normal 0 1 -0
    outer loop
      vertex 142.4 32.1 5.72205e-07
      vertex 129.6 32.1 1.2
      vertex 142.4 32.1 1.2
    endloop
  endfacet
  facet normal 0 1 0
    outer loop
      vertex 129.6 32.1 1.2
      vertex 142.4 32.1 5.72205e-07
      vertex 129.6 32.1 5.72205e-07
    endloop
  endfacet
  facet normal -1 0 0
    outer loop
      vertex 86.64 4.14 5.72205e-07
      vertex 86.64 40.86 1.2
      vertex 86.64 40.86 5.72205e-07
    endloop
  endfacet
  facet normal -1 -0 0
    outer loop
      vertex 86.64 40.86 1.2
      vertex 86.64 4.14 5.72205e-07
      vertex 86.64 4.14 1.2
    endloop
  endfacet
  facet normal -0 0 1
    outer loop
      vertex 87.6 14.1 1.2
      vertex 100.4 12.9 1.2
      vertex 100.4 14.1 1.2
    endloop
  endfacet
  facet normal 0 0 1
    outer loop
      vertex 100.4 12.9 1.2
      vertex 87.6 14.1 1.2
      vertex 87.6 12.9 1.2
    endloop
  endfacet
  facet normal -0 0 1
    outer loop
      vertex 87.6 23.1 1.2
      vertex 100.4 21.9 1.2
      vertex 100.4 23.1 1.2
    endloop
  endfacet
  facet normal 0 0 1
    outer loop
      vertex 100.4 21.9 1.2
      vertex 87.6 23.1 1.2
      vertex 87.6 21.9 1.2
    endloop
  endfacet
  facet normal -0 0 1
    outer loop
      vertex 87.6 32.1 1.2
      vertex 100.4 30.9 1.2
      vertex 100.4 32.1 1.2
    endloop
  endfacet
  facet normal 0 0 1
    outer loop
      vertex 100.4 30.9 1.2
      vertex 87.6 32.1 1.2
      vertex 87.6 30.9 1.2
    endloop
  endfacet
  facet normal -0 0 1
    outer loop
      vertex 101.6 14.1 1.2
      vertex 114.4 12.9 1.2
      vertex 114.4 14.1 1.2
    endloop
  endfacet
  facet normal 0 0 1
    outer loop
      vertex 114.4 12.9 1.2
      vertex 101.6 14.1 1.2
      vertex 101.6 12.9 1.2
    endloop
  endfacet
  facet normal -0 0 1
    outer loop
      vertex 101.6 23.1 1.2
      vertex 114.4 21.9 1.2
      vertex 114.4 23.1 1.2
    endloop
  endfacet
  facet normal 0 0 1
    outer loop
      vertex 114.4 21.9 1.2
      vertex 101.6 23.1 1.2
      vertex 101.6 21.9 1.2
    endloop
  endfacet
  facet normal -0 0 1
    outer loop
      vertex 101.6 32.1 1.2
      vertex 114.4 30.9 1.2
      vertex 114.4 32.1 1.2
    endloop
  endfacet
  facet normal 0 0 1
    outer loop
      vertex 114.4 30.9 1.2
      vertex 101.6 32.1 1.2
      vertex 101.6 30.9 1.2
    endloop
  endfacet
  facet normal -0 0 1
    outer loop
      vertex 115.6 14.1 1.2
      vertex 128.4 12.9 1.2
      vertex 128.4 14.1 1.2
    endloop
  endfacet
  facet normal 0 0 1
    outer loop
      vertex 128.4 12.9 1.2
      vertex 115.6 14.1 1.2
      vertex 115.6 12.9 1.2
    endloop
  endfacet
  facet normal -0 0 1
    outer loop
      vertex 115.6 23.1 1.2
      vertex 128.4 21.9 1.2
      vertex 128.4 23.1 1.2
    endloop
  endfacet
  facet normal 0 0 1
    outer loop
      vertex 128.4 21.9 1.2
      vertex 115.6 23.1 1.2
      vertex 115.6 21.9 1.2
    endloop
  endfacet
  facet normal -0 0 1
    outer loop
      vertex 115.6 32.1 1.2
      vertex 128.4 30.9 1.2
      vertex 128.4 32.1 1.2
    endloop
  endfacet
  facet normal 0 0 1
    outer loop
      vertex 128.4 30.9 1.2
      vertex 115.6 32.1 1.2
      vertex 115.6 30.9 1.2
    endloop
  endfacet
  facet normal -0 0 1
    outer loop
      vertex 129.6 14.1 1.2
      vertex 142.4 12.9 1.2
      vertex 142.4 14.1 1.2
    endloop
  endfacet
  facet normal 0 0 1
    outer loop
      vertex 142.4 12.9 1.2
      vertex 129.6 14.1 1.2
      vertex 129.6 12.9 1.2
    endloop
  endfacet
  facet normal -0 0 1
    outer loop
      vertex 129.6 23.1 1.2
      vertex 142.4 21.9 1.2
      vertex 142.4 23.1 1.2
    endloop
  endfacet
  facet normal 0 0 1
    outer loop
      vertex 142.4 21.9 1.2
      vertex 129.6 23.1 1.2
      vertex 129.6 21.9 1.2
    endloop
  endfacet
  facet normal -0 0 1
    outer loop
      vertex 129.6 32.1 1.2
      vertex 142.4 30.9 1.2
      vertex 142.4 32.1 1.2
    endloop
  endfacet
  facet normal 0 0 1
    outer loop
      vertex 142.4 30.9 1.2
      vertex 129.6 32.1 1.2
      vertex 129.6 30.9 1.2
    endloop
  endfacet
  facet normal 0 0 1
    outer loop
      vertex 142.4 32.1 1.2
      vertex 143.36 40.86 1.2
      vertex 142.4 39.9 1.2
    endloop
  endfacet
  facet normal 0 0 1
    outer loop
      vertex 143.36 40.86 1.2
      vertex 129.6 39.9 1.2
      vertex 142.4 39.9 1.2
    endloop
  endfacet
  facet normal 0 0 1
    outer loop
      vertex 128.4 32.1 1.2
      vertex 129.6 32.1 1.2
      vertex 129.6 39.9 1.2
    endloop
  endfacet
  facet normal 0 0 1
    outer loop
      vertex 129.6 32.1 1.2
      vertex 128.4 32.1 1.2
      vertex 129.6 30.9 1.2
    endloop
  endfacet
  facet normal 0 0 1
    outer loop
      vertex 129.6 30.9 1.2
      vertex 128.4 30.9 1.2
      vertex 129.6 23.1 1.2
    endloop
  endfacet
  facet normal 0 0 1
    outer loop
      vertex 128.4 23.1 1.2
      vertex 129.6 23.1 1.2
      vertex 128.4 30.9 1.2
    endloop
  endfacet
  facet normal 0 0 1
    outer loop
      vertex 128.4 21.9 1.2
      vertex 129.6 21.9 1.2
      vertex 128.4 23.1 1.2
    endloop
  endfacet
  facet normal 0 0 1
    outer loop
      vertex 129.6 21.9 1.2
      vertex 128.4 21.9 1.2
      vertex 129.6 14.1 1.2
    endloop
  endfacet
  facet normal 0 0 1
    outer loop
      vertex 128.4 32.1 1.2
      vertex 129.6 39.9 1.2
      vertex 128.4 39.9 1.2
    endloop
  endfacet
  facet normal 0 0 1
    outer loop
      vertex 143.36 40.86 1.2
      vertex 128.4 39.9 1.2
      vertex 129.6 39.9 1.2
    endloop
  endfacet
  facet normal 0 0 1
    outer loop
      vertex 143.36 40.86 1.2
      vertex 115.6 39.9 1.2
      vertex 128.4 39.9 1.2
    endloop
  endfacet
  facet normal 0 0 1
    outer loop
      vertex 114.4 32.1 1.2
      vertex 115.6 32.1 1.2
      vertex 115.6 39.9 1.2
    endloop
  endfacet
  facet normal 0 0 1
    outer loop
      vertex 115.6 32.1 1.2
      vertex 114.4 32.1 1.2
      vertex 115.6 30.9 1.2
    endloop
  endfacet
  facet normal 0 0 1
    outer loop
      vertex 115.6 30.9 1.2
      vertex 114.4 30.9 1.2
      vertex 115.6 23.1 1.2
    endloop
  endfacet
  facet normal 0 0 1
    outer loop
      vertex 114.4 23.1 1.2
      vertex 115.6 23.1 1.2
      vertex 114.4 30.9 1.2
    endloop
  endfacet
  facet normal 0 0 1
    outer loop
      vertex 114.4 21.9 1.2
      vertex 115.6 21.9 1.2
      vertex 114.4 23.1 1.2
    endloop
  endfacet
  facet normal 0 0 1
    outer loop
      vertex 115.6 21.9 1.2
      vertex 114.4 21.9 1.2
      vertex 115.6 14.1 1.2
    endloop
  endfacet
  facet normal 0 0 1
    outer loop
      vertex 114.4 32.1 1.2
      vertex 115.6 39.9 1.2
      vertex 114.4 39.9 1.2
    endloop
  endfacet
  facet normal 0 0 1
    outer loop
      vertex 143.36 40.86 1.2
      vertex 114.4 39.9 1.2
      vertex 115.6 39.9 1.2
    endloop
  endfacet
  facet normal -0 0 1
    outer loop
      vertex 86.64 40.86 1.2
      vertex 114.4 39.9 1.2
      vertex 143.36 40.86 1.2
    endloop
  endfacet
  facet normal 0 0 1
    outer loop
      vertex 100.4 32.1 1.2
      vertex 101.6 32.1 1.2
      vertex 101.6 39.9 1.2
    endloop
  endfacet
  facet normal 0 0 1
    outer loop
      vertex 101.6 32.1 1.2
      vertex 100.4 32.1 1.2
      vertex 101.6 30.9 1.2
    endloop
  endfacet
  facet normal 0 0 1
    outer loop
      vertex 101.6 30.9 1.2
      vertex 100.4 30.9 1.2
      vertex 101.6 23.1 1.2
    endloop
  endfacet
  facet normal 0 0 1
    outer loop
      vertex 100.4 23.1 1.2
      vertex 101.6 23.1 1.2
      vertex 100.4 30.9 1.2
    endloop
  endfacet
  facet normal 0 0 1
    outer loop
      vertex 100.4 21.9 1.2
      vertex 101.6 21.9 1.2
      vertex 100.4 23.1 1.2
    endloop
  endfacet
  facet normal 0 0 1
    outer loop
      vertex 101.6 21.9 1.2
      vertex 100.4 21.9 1.2
      vertex 101.6 14.1 1.2
    endloop
  endfacet
  facet normal 0 0 1
    outer loop
      vertex 100.4 32.1 1.2
      vertex 101.6 39.9 1.2
      vertex 100.4 39.9 1.2
    endloop
  endfacet
  facet normal 0 0 1
    outer loop
      vertex 114.4 39.9 1.2
      vertex 86.64 40.86 1.2
      vertex 101.6 39.9 1.2
    endloop
  endfacet
  facet normal 0 0 1
    outer loop
      vertex 101.6 39.9 1.2
      vertex 86.64 40.86 1.2
      vertex 100.4 39.9 1.2
    endloop
  endfacet
  facet normal 0 0 1
    outer loop
      vertex 86.64 40.86 1.2
      vertex 87.6 32.1 1.2
      vertex 87.6 39.9 1.2
    endloop
  endfacet
  facet normal 0 0 1
    outer loop
      vertex 87.6 32.1 1.2
      vertex 86.64 40.86 1.2
      vertex 87.6 30.9 1.2
    endloop
  endfacet
  facet normal 0 0 1
    outer loop
      vertex 87.6 30.9 1.2
      vertex 86.64 40.86 1.2
      vertex 87.6 23.1 1.2
    endloop
  endfacet
  facet normal 0 0 1
    outer loop
      vertex 87.6 23.1 1.2
      vertex 86.64 40.86 1.2
      vertex 87.6 21.9 1.2
    endloop
  endfacet
  facet normal 0 0 1
    outer loop
      vertex 86.64 4.14 1.2
      vertex 87.6 21.9 1.2
      vertex 86.64 40.86 1.2
    endloop
  endfacet
  facet normal 0 0 1
    outer loop
      vertex 87.6 21.9 1.2
      vertex 86.64 4.14 1.2
      vertex 87.6 14.1 1.2
    endloop
  endfacet
  facet normal 0 0 1
    outer loop
      vertex 87.6 14.1 1.2
      vertex 86.64 4.14 1.2
      vertex 87.6 12.9 1.2
    endloop
  endfacet
  facet normal 0 0 1
    outer loop
      vertex 100.4 39.9 1.2
      vertex 86.64 40.86 1.2
      vertex 87.6 39.9 1.2
    endloop
  endfacet
  facet normal 0 0 1
    outer loop
      vertex 142.4 30.9 1.2
      vertex 143.36 40.86 1.2
      vertex 142.4 32.1 1.2
    endloop
  endfacet
  facet normal 0 0 1
    outer loop
      vertex 142.4 23.1 1.2
      vertex 143.36 40.86 1.2
      vertex 142.4 30.9 1.2
    endloop
  endfacet
  facet normal 0 0 1
    outer loop
      vertex 143.36 40.86 1.2
      vertex 142.4 23.1 1.2
      vertex 143.36 4.14 1.2
    endloop
  endfacet
  facet normal -0 0 1
    outer loop
      vertex 142.4 21.9 1.2
      vertex 143.36 4.14 1.2
      vertex 142.4 23.1 1.2
    endloop
  endfacet
  facet normal -0 0 1
    outer loop
      vertex 142.4 14.1 1.2
      vertex 143.36 4.14 1.2
      vertex 142.4 21.9 1.2
    endloop
  endfacet
  facet normal -0 0 1
    outer loop
      vertex 142.4 12.9 1.2
      vertex 143.36 4.14 1.2
      vertex 142.4 14.1 1.2
    endloop
  endfacet
  facet normal -0 0 1
    outer loop
      vertex 142.4 5.1 1.2
      vertex 143.36 4.14 1.2
      vertex 142.4 12.9 1.2
    endloop
  endfacet
  facet normal -0 0 1
    outer loop
      vertex 129.6 5.1 1.2
      vertex 143.36 4.14 1.2
      vertex 142.4 5.1 1.2
    endloop
  endfacet
  facet normal 0 0 1
    outer loop
      vertex 129.6 30.9 1.2
      vertex 128.4 32.1 1.2
      vertex 128.4 30.9 1.2
    endloop
  endfacet
  facet normal 0 0 1
    outer loop
      vertex 129.6 23.1 1.2
      vertex 128.4 23.1 1.2
      vertex 129.6 21.9 1.2
    endloop
  endfacet
  facet normal 0 0 1
    outer loop
      vertex 128.4 14.1 1.2
      vertex 129.6 14.1 1.2
      vertex 128.4 21.9 1.2
    endloop
  endfacet
  facet normal 0 0 1
    outer loop
      vertex 129.6 14.1 1.2
      vertex 128.4 14.1 1.2
      vertex 129.6 12.9 1.2
    endloop
  endfacet
  facet normal 0 0 1
    outer loop
      vertex 128.4 12.9 1.2
      vertex 129.6 12.9 1.2
      vertex 128.4 14.1 1.2
    endloop
  endfacet
  facet normal 0 0 1
    outer loop
      vertex 129.6 12.9 1.2
      vertex 128.4 12.9 1.2
      vertex 129.6 5.1 1.2
    endloop
  endfacet
  facet normal 0 0 1
    outer loop
      vertex 128.4 5.1 1.2
      vertex 129.6 5.1 1.2
      vertex 128.4 12.9 1.2
    endloop
  endfacet
  facet normal -0 0 1
    outer loop
      vertex 128.4 5.1 1.2
      vertex 143.36 4.14 1.2
      vertex 129.6 5.1 1.2
    endloop
  endfacet
  facet normal -0 0 1
    outer loop
      vertex 115.6 5.1 1.2
      vertex 143.36 4.14 1.2
      vertex 128.4 5.1 1.2
    endloop
  endfacet
  facet normal 0 0 1
    outer loop
      vertex 115.6 30.9 1.2
      vertex 114.4 32.1 1.2
      vertex 114.4 30.9 1.2
    endloop
  endfacet
  facet normal 0 0 1
    outer loop
      vertex 115.6 23.1 1.2
      vertex 114.4 23.1 1.2
      vertex 115.6 21.9 1.2
    endloop
  endfacet
  facet normal 0 0 1
    outer loop
      vertex 114.4 14.1 1.2
      vertex 115.6 14.1 1.2
      vertex 114.4 21.9 1.2
    endloop
  endfacet
  facet normal 0 0 1
    outer loop
      vertex 115.6 14.1 1.2
      vertex 114.4 14.1 1.2
      vertex 115.6 12.9 1.2
    endloop
  endfacet
  facet normal 0 0 1
    outer loop
      vertex 114.4 12.9 1.2
      vertex 115.6 12.9 1.2
      vertex 114.4 14.1 1.2
    endloop
  endfacet
  facet normal 0 0 1
    outer loop
      vertex 115.6 12.9 1.2
      vertex 114.4 12.9 1.2
      vertex 115.6 5.1 1.2
    endloop
  endfacet
  facet normal 0 0 1
    outer loop
      vertex 114.4 5.1 1.2
      vertex 115.6 5.1 1.2
      vertex 114.4 12.9 1.2
    endloop
  endfacet
  facet normal -0 0 1
    outer loop
      vertex 114.4 5.1 1.2
      vertex 143.36 4.14 1.2
      vertex 115.6 5.1 1.2
    endloop
  endfacet
  facet normal 0 0 1
    outer loop
      vertex 86.64 4.14 1.2
      vertex 114.4 5.1 1.2
      vertex 101.6 5.1 1.2
    endloop
  endfacet
  facet normal 0 0 1
    outer loop
      vertex 101.6 30.9 1.2
      vertex 100.4 32.1 1.2
      vertex 100.4 30.9 1.2
    endloop
  endfacet
  facet normal 0 0 1
    outer loop
      vertex 101.6 23.1 1.2
      vertex 100.4 23.1 1.2
      vertex 101.6 21.9 1.2
    endloop
  endfacet
  facet normal 0 0 1
    outer loop
      vertex 100.4 14.1 1.2
      vertex 101.6 14.1 1.2
      vertex 100.4 21.9 1.2
    endloop
  endfacet
  facet normal 0 0 1
    outer loop
      vertex 101.6 14.1 1.2
      vertex 100.4 14.1 1.2
      vertex 101.6 12.9 1.2
    endloop
  endfacet
  facet normal 0 0 1
    outer loop
      vertex 100.4 12.9 1.2
      vertex 101.6 12.9 1.2
      vertex 100.4 14.1 1.2
    endloop
  endfacet
  facet normal 0 0 1
    outer loop
      vertex 101.6 12.9 1.2
      vertex 100.4 12.9 1.2
      vertex 101.6 5.1 1.2
    endloop
  endfacet
  facet normal 0 0 1
    outer loop
      vertex 100.4 5.1 1.2
      vertex 101.6 5.1 1.2
      vertex 100.4 12.9 1.2
    endloop
  endfacet
  facet normal 0 0 1
    outer loop
      vertex 86.64 4.14 1.2
      vertex 101.6 5.1 1.2
      vertex 100.4 5.1 1.2
    endloop
  endfacet
  facet normal 0 0 1
    outer loop
      vertex 86.64 4.14 1.2
      vertex 100.4 5.1 1.2
      vertex 87.6 5.1 1.2
    endloop
  endfacet
  facet normal 0 0 1
    outer loop
      vertex 114.4 5.1 1.2
      vertex 86.64 4.14 1.2
      vertex 143.36 4.14 1.2
    endloop
  endfacet
  facet normal 0 0 1
    outer loop
      vertex 87.6 12.9 1.2
      vertex 86.64 4.14 1.2
      vertex 87.6 5.1 1.2
    endloop
  endfacet
  facet normal 1 -0 0
    outer loop
      vertex 143.36 4.14 1.2
      vertex 143.36 40.86 5.72205e-07
      vertex 143.36 40.86 1.2
    endloop
  endfacet
  facet normal 1 0 0
    outer loop
      vertex 143.36 40.86 5.72205e-07
      vertex 143.36 4.14 1.2
      vertex 143.36 4.14 5.72205e-07
    endloop
  endfacet
  facet normal 0 1 -0
    outer loop
      vertex 143.36 40.86 5.72205e-07
      vertex 86.64 40.86 1.2
      vertex 143.36 40.86 1.2
    endloop
  endfacet
  facet normal 0 1 0
    outer loop
      vertex 86.64 40.86 1.2
      vertex 143.36 40.86 5.72205e-07
      vertex 86.64 40.86 5.72205e-07
    endloop
  endfacet
  facet normal 0 0 -1
    outer loop
      vertex 87.6 30.9 5.72205e-07
      vertex 100.4 32.1 5.72205e-07
      vertex 100.4 30.9 5.72205e-07
    endloop
  endfacet
  facet normal -0 0 -1
    outer loop
      vertex 100.4 32.1 5.72205e-07
      vertex 87.6 30.9 5.72205e-07
      vertex 87.6 32.1 5.72205e-07
    endloop
  endfacet
  facet normal 0 0 -1
    outer loop
      vertex 87.6 21.9 5.72205e-07
      vertex 100.4 23.1 5.72205e-07
      vertex 100.4 21.9 5.72205e-07
    endloop
  endfacet
  facet normal -0 0 -1
    outer loop
      vertex 100.4 23.1 5.72205e-07
      vertex 87.6 21.9 5.72205e-07
      vertex 87.6 23.1 5.72205e-07
    endloop
  endfacet
  facet normal 0 0 -1
    outer loop
      vertex 87.6 12.9 5.72205e-07
      vertex 100.4 14.1 5.72205e-07
      vertex 100.4 12.9 5.72205e-07
    endloop
  endfacet
  facet normal -0 0 -1
    outer loop
      vertex 100.4 14.1 5.72205e-07
      vertex 87.6 12.9 5.72205e-07
      vertex 87.6 14.1 5.72205e-07
    endloop
  endfacet
  facet normal 0 0 -1
    outer loop
      vertex 101.6 30.9 5.72205e-07
      vertex 114.4 32.1 5.72205e-07
      vertex 114.4 30.9 5.72205e-07
    endloop
  endfacet
  facet normal -0 0 -1
    outer loop
      vertex 114.4 32.1 5.72205e-07
      vertex 101.6 30.9 5.72205e-07
      vertex 101.6 32.1 5.72205e-07
    endloop
  endfacet
  facet normal 0 0 -1
    outer loop
      vertex 101.6 21.9 5.72205e-07
      vertex 114.4 23.1 5.72205e-07
      vertex 114.4 21.9 5.72205e-07
    endloop
  endfacet
  facet normal -0 0 -1
    outer loop
      vertex 114.4 23.1 5.72205e-07
      vertex 101.6 21.9 5.72205e-07
      vertex 101.6 23.1 5.72205e-07
    endloop
  endfacet
  facet normal 0 0 -1
    outer loop
      vertex 101.6 12.9 5.72205e-07
      vertex 114.4 14.1 5.72205e-07
      vertex 114.4 12.9 5.72205e-07
    endloop
  endfacet
  facet normal -0 0 -1
    outer loop
      vertex 114.4 14.1 5.72205e-07
      vertex 101.6 12.9 5.72205e-07
      vertex 101.6 14.1 5.72205e-07
    endloop
  endfacet
  facet normal 0 0 -1
    outer loop
      vertex 115.6 30.9 5.72205e-07
      vertex 128.4 32.1 5.72205e-07
      vertex 128.4 30.9 5.72205e-07
    endloop
  endfacet
  facet normal -0 0 -1
    outer loop
      vertex 128.4 32.1 5.72205e-07
      vertex 115.6 30.9 5.72205e-07
      vertex 115.6 32.1 5.72205e-07
    endloop
  endfacet
  facet normal 0 0 -1
    outer loop
      vertex 115.6 21.9 5.72205e-07
      vertex 128.4 23.1 5.72205e-07
      vertex 128.4 21.9 5.72205e-07
    endloop
  endfacet
  facet normal -0 0 -1
    outer loop
      vertex 128.4 23.1 5.72205e-07
      vertex 115.6 21.9 5.72205e-07
      vertex 115.6 23.1 5.72205e-07
    endloop
  endfacet
  facet normal 0 0 -1
    outer loop
      vertex 115.6 12.9 5.72205e-07
      vertex 128.4 14.1 5.72205e-07
      vertex 128.4 12.9 5.72205e-07
    endloop
  endfacet
  facet normal -0 0 -1
    outer loop
      vertex 128.4 14.1 5.72205e-07
      vertex 115.6 12.9 5.72205e-07
      vertex 115.6 14.1 5.72205e-07
    endloop
  endfacet
  facet normal 0 0 -1
    outer loop
      vertex 129.6 30.9 5.72205e-07
      vertex 142.4 32.1 5.72205e-07
      vertex 142.4 30.9 5.72205e-07
    endloop
  endfacet
  facet normal -0 0 -1
    outer loop
      vertex 142.4 32.1 5.72205e-07
      vertex 129.6 30.9 5.72205e-07
      vertex 129.6 32.1 5.72205e-07
    endloop
  endfacet
  facet normal 0 0 -1
    outer loop
      vertex 129.6 21.9 5.72205e-07
      vertex 142.4 23.1 5.72205e-07
      vertex 142.4 21.9 5.72205e-07
    endloop
  endfacet
  facet normal -0 0 -1
    outer loop
      vertex 142.4 23.1 5.72205e-07
      vertex 129.6 21.9 5.72205e-07
      vertex 129.6 23.1 5.72205e-07
    endloop
  endfacet
  facet normal 0 0 -1
    outer loop
      vertex 129.6 12.9 5.72205e-07
      vertex 142.4 14.1 5.72205e-07
      vertex 142.4 12.9 5.72205e-07
    endloop
  endfacet
  facet normal -0 0 -1
    outer loop
      vertex 142.4 14.1 5.72205e-07
      vertex 129.6 12.9 5.72205e-07
      vertex 129.6 14.1 5.72205e-07
    endloop
  endfacet
  facet normal 0 0 -1
    outer loop
      vertex 142.4 12.9 5.72205e-07
      vertex 143.36 4.14 5.72205e-07
      vertex 142.4 5.1 5.72205e-07
    endloop
  endfacet
  facet normal 0 0 -1
    outer loop
      vertex 143.36 4.14 5.72205e-07
      vertex 129.6 5.1 5.72205e-07
      vertex 142.4 5.1 5.72205e-07
    endloop
  endfacet
  facet normal 0 0 -1
    outer loop
      vertex 128.4 12.9 5.72205e-07
      vertex 129.6 12.9 5.72205e-07
      vertex 129.6 5.1 5.72205e-07
    endloop
  endfacet
  facet normal 0 0 -1
    outer loop
      vertex 129.6 12.9 5.72205e-07
      vertex 128.4 12.9 5.72205e-07
      vertex 129.6 14.1 5.72205e-07
    endloop
  endfacet
  facet normal 0 0 -1
    outer loop
      vertex 129.6 14.1 5.72205e-07
      vertex 128.4 14.1 5.72205e-07
      vertex 129.6 21.9 5.72205e-07
    endloop
  endfacet
  facet normal 0 0 -1
    outer loop
      vertex 128.4 21.9 5.72205e-07
      vertex 129.6 21.9 5.72205e-07
      vertex 128.4 14.1 5.72205e-07
    endloop
  endfacet
  facet normal 0 0 -1
    outer loop
      vertex 128.4 23.1 5.72205e-07
      vertex 129.6 23.1 5.72205e-07
      vertex 128.4 21.9 5.72205e-07
    endloop
  endfacet
  facet normal 0 0 -1
    outer loop
      vertex 129.6 23.1 5.72205e-07
      vertex 128.4 23.1 5.72205e-07
      vertex 129.6 30.9 5.72205e-07
    endloop
  endfacet
  facet normal 0 0 -1
    outer loop
      vertex 128.4 12.9 5.72205e-07
      vertex 129.6 5.1 5.72205e-07
      vertex 128.4 5.1 5.72205e-07
    endloop
  endfacet
  facet normal 0 0 -1
    outer loop
      vertex 143.36 4.14 5.72205e-07
      vertex 128.4 5.1 5.72205e-07
      vertex 129.6 5.1 5.72205e-07
    endloop
  endfacet
  facet normal 0 0 -1
    outer loop
      vertex 143.36 4.14 5.72205e-07
      vertex 115.6 5.1 5.72205e-07
      vertex 128.4 5.1 5.72205e-07
    endloop
  endfacet
  facet normal 0 0 -1
    outer loop
      vertex 114.4 12.9 5.72205e-07
      vertex 115.6 12.9 5.72205e-07
      vertex 115.6 5.1 5.72205e-07
    endloop
  endfacet
  facet normal 0 0 -1
    outer loop
      vertex 115.6 12.9 5.72205e-07
      vertex 114.4 12.9 5.72205e-07
      vertex 115.6 14.1 5.72205e-07
    endloop
  endfacet
  facet normal 0 0 -1
    outer loop
      vertex 115.6 14.1 5.72205e-07
      vertex 114.4 14.1 5.72205e-07
      vertex 115.6 21.9 5.72205e-07
    endloop
  endfacet
  facet normal 0 0 -1
    outer loop
      vertex 114.4 21.9 5.72205e-07
      vertex 115.6 21.9 5.72205e-07
      vertex 114.4 14.1 5.72205e-07
    endloop
  endfacet
  facet normal 0 0 -1
    outer loop
      vertex 114.4 23.1 5.72205e-07
      vertex 115.6 23.1 5.72205e-07
      vertex 114.4 21.9 5.72205e-07
    endloop
  endfacet
  facet normal 0 0 -1
    outer loop
      vertex 115.6 23.1 5.72205e-07
      vertex 114.4 23.1 5.72205e-07
      vertex 115.6 30.9 5.72205e-07
    endloop
  endfacet
  facet normal 0 0 -1
    outer loop
      vertex 114.4 12.9 5.72205e-07
      vertex 115.6 5.1 5.72205e-07
      vertex 114.4 5.1 5.72205e-07
    endloop
  endfacet
  facet normal 0 0 -1
    outer loop
      vertex 143.36 4.14 5.72205e-07
      vertex 114.4 5.1 5.72205e-07
      vertex 115.6 5.1 5.72205e-07
    endloop
  endfacet
  facet normal 0 0 -1
    outer loop
      vertex 86.64 4.14 5.72205e-07
      vertex 114.4 5.1 5.72205e-07
      vertex 143.36 4.14 5.72205e-07
    endloop
  endfacet
  facet normal 0 0 -1
    outer loop
      vertex 100.4 12.9 5.72205e-07
      vertex 101.6 12.9 5.72205e-07
      vertex 101.6 5.1 5.72205e-07
    endloop
  endfacet
  facet normal 0 0 -1
    outer loop
      vertex 101.6 12.9 5.72205e-07
      vertex 100.4 12.9 5.72205e-07
      vertex 101.6 14.1 5.72205e-07
    endloop
  endfacet
  facet normal 0 0 -1
    outer loop
      vertex 101.6 14.1 5.72205e-07
      vertex 100.4 14.1 5.72205e-07
      vertex 101.6 21.9 5.72205e-07
    endloop
  endfacet
  facet normal 0 0 -1
    outer loop
      vertex 100.4 21.9 5.72205e-07
      vertex 101.6 21.9 5.72205e-07
      vertex 100.4 14.1 5.72205e-07
    endloop
  endfacet
  facet normal 0 0 -1
    outer loop
      vertex 100.4 23.1 5.72205e-07
      vertex 101.6 23.1 5.72205e-07
      vertex 100.4 21.9 5.72205e-07
    endloop
  endfacet
  facet normal 0 0 -1
    outer loop
      vertex 101.6 23.1 5.72205e-07
      vertex 100.4 23.1 5.72205e-07
      vertex 101.6 30.9 5.72205e-07
    endloop
  endfacet
  facet normal 0 0 -1
    outer loop
      vertex 100.4 12.9 5.72205e-07
      vertex 101.6 5.1 5.72205e-07
      vertex 100.4 5.1 5.72205e-07
    endloop
  endfacet
  facet normal -0 0 -1
    outer loop
      vertex 114.4 5.1 5.72205e-07
      vertex 86.64 4.14 5.72205e-07
      vertex 101.6 5.1 5.72205e-07
    endloop
  endfacet
  facet normal -0 0 -1
    outer loop
      vertex 101.6 5.1 5.72205e-07
      vertex 86.64 4.14 5.72205e-07
      vertex 100.4 5.1 5.72205e-07
    endloop
  endfacet
  facet normal 0 0 -1
    outer loop
      vertex 86.64 4.14 5.72205e-07
      vertex 87.6 12.9 5.72205e-07
      vertex 87.6 5.1 5.72205e-07
    endloop
  endfacet
  facet normal -0 0 -1
    outer loop
      vertex 87.6 12.9 5.72205e-07
      vertex 86.64 4.14 5.72205e-07
      vertex 87.6 14.1 5.72205e-07
    endloop
  endfacet
  facet normal -0 0 -1
    outer loop
      vertex 87.6 14.1 5.72205e-07
      vertex 86.64 4.14 5.72205e-07
      vertex 87.6 21.9 5.72205e-07
    endloop
  endfacet
  facet normal -0 0 -1
    outer loop
      vertex 87.6 21.9 5.72205e-07
      vertex 86.64 4.14 5.72205e-07
      vertex 87.6 23.1 5.72205e-07
    endloop
  endfacet
  facet normal 0 0 -1
    outer loop
      vertex 86.64 40.86 5.72205e-07
      vertex 87.6 23.1 5.72205e-07
      vertex 86.64 4.14 5.72205e-07
    endloop
  endfacet
  facet normal 0 0 -1
    outer loop
      vertex 87.6 23.1 5.72205e-07
      vertex 86.64 40.86 5.72205e-07
      vertex 87.6 30.9 5.72205e-07
    endloop
  endfacet
  facet normal 0 0 -1
    outer loop
      vertex 87.6 30.9 5.72205e-07
      vertex 86.64 40.86 5.72205e-07
      vertex 87.6 32.1 5.72205e-07
    endloop
  endfacet
  facet normal -0 0 -1
    outer loop
      vertex 100.4 5.1 5.72205e-07
      vertex 86.64 4.14 5.72205e-07
      vertex 87.6 5.1 5.72205e-07
    endloop
  endfacet
  facet normal 0 0 -1
    outer loop
      vertex 142.4 14.1 5.72205e-07
      vertex 143.36 4.14 5.72205e-07
      vertex 142.4 12.9 5.72205e-07
    endloop
  endfacet
  facet normal 0 0 -1
    outer loop
      vertex 142.4 21.9 5.72205e-07
      vertex 143.36 4.14 5.72205e-07
      vertex 142.4 14.1 5.72205e-07
    endloop
  endfacet
  facet normal 0 0 -1
    outer loop
      vertex 143.36 4.14 5.72205e-07
      vertex 142.4 21.9 5.72205e-07
      vertex 143.36 40.86 5.72205e-07
    endloop
  endfacet
  facet normal 0 0 -1
    outer loop
      vertex 142.4 23.1 5.72205e-07
      vertex 143.36 40.86 5.72205e-07
      vertex 142.4 21.9 5.72205e-07
    endloop
  endfacet
  facet normal 0 0 -1
    outer loop
      vertex 142.4 30.9 5.72205e-07
      vertex 143.36 40.86 5.72205e-07
      vertex 142.4 23.1 5.72205e-07
    endloop
  endfacet
  facet normal 0 0 -1
    outer loop
      vertex 142.4 32.1 5.72205e-07
      vertex 143.36 40.86 5.72205e-07
      vertex 142.4 30.9 5.72205e-07
    endloop
  endfacet
  facet normal 0 0 -1
    outer loop
      vertex 142.4 39.9 5.72205e-07
      vertex 143.36 40.86 5.72205e-07
      vertex 142.4 32.1 5.72205e-07
    endloop
  endfacet
  facet normal 0 0 -1
    outer loop
      vertex 129.6 39.9 5.72205e-07
      vertex 143.36 40.86 5.72205e-07
      vertex 142.4 39.9 5.72205e-07
    endloop
  endfacet
  facet normal -0 0 -1
    outer loop
      vertex 129.6 14.1 5.72205e-07
      vertex 128.4 12.9 5.72205e-07
      vertex 128.4 14.1 5.72205e-07
    endloop
  endfacet
  facet normal 0 0 -1
    outer loop
      vertex 129.6 21.9 5.72205e-07
      vertex 128.4 21.9 5.72205e-07
      vertex 129.6 23.1 5.72205e-07
    endloop
  endfacet
  facet normal 0 0 -1
    outer loop
      vertex 128.4 30.9 5.72205e-07
      vertex 129.6 30.9 5.72205e-07
      vertex 128.4 23.1 5.72205e-07
    endloop
  endfacet
  facet normal 0 0 -1
    outer loop
      vertex 129.6 30.9 5.72205e-07
      vertex 128.4 30.9 5.72205e-07
      vertex 129.6 32.1 5.72205e-07
    endloop
  endfacet
  facet normal 0 0 -1
    outer loop
      vertex 128.4 32.1 5.72205e-07
      vertex 129.6 32.1 5.72205e-07
      vertex 128.4 30.9 5.72205e-07
    endloop
  endfacet
  facet normal 0 0 -1
    outer loop
      vertex 129.6 32.1 5.72205e-07
      vertex 128.4 32.1 5.72205e-07
      vertex 129.6 39.9 5.72205e-07
    endloop
  endfacet
  facet normal 0 0 -1
    outer loop
      vertex 128.4 39.9 5.72205e-07
      vertex 129.6 39.9 5.72205e-07
      vertex 128.4 32.1 5.72205e-07
    endloop
  endfacet
  facet normal 0 0 -1
    outer loop
      vertex 128.4 39.9 5.72205e-07
      vertex 143.36 40.86 5.72205e-07
      vertex 129.6 39.9 5.72205e-07
    endloop
  endfacet
  facet normal 0 0 -1
    outer loop
      vertex 115.6 39.9 5.72205e-07
      vertex 143.36 40.86 5.72205e-07
      vertex 128.4 39.9 5.72205e-07
    endloop
  endfacet
  facet normal -0 0 -1
    outer loop
      vertex 115.6 14.1 5.72205e-07
      vertex 114.4 12.9 5.72205e-07
      vertex 114.4 14.1 5.72205e-07
    endloop
  endfacet
  facet normal 0 0 -1
    outer loop
      vertex 115.6 21.9 5.72205e-07
      vertex 114.4 21.9 5.72205e-07
      vertex 115.6 23.1 5.72205e-07
    endloop
  endfacet
  facet normal 0 0 -1
    outer loop
      vertex 114.4 30.9 5.72205e-07
      vertex 115.6 30.9 5.72205e-07
      vertex 114.4 23.1 5.72205e-07
    endloop
  endfacet
  facet normal 0 0 -1
    outer loop
      vertex 115.6 30.9 5.72205e-07
      vertex 114.4 30.9 5.72205e-07
      vertex 115.6 32.1 5.72205e-07
    endloop
  endfacet
  facet normal 0 0 -1
    outer loop
      vertex 114.4 32.1 5.72205e-07
      vertex 115.6 32.1 5.72205e-07
      vertex 114.4 30.9 5.72205e-07
    endloop
  endfacet
  facet normal 0 0 -1
    outer loop
      vertex 115.6 32.1 5.72205e-07
      vertex 114.4 32.1 5.72205e-07
      vertex 115.6 39.9 5.72205e-07
    endloop
  endfacet
  facet normal 0 0 -1
    outer loop
      vertex 114.4 39.9 5.72205e-07
      vertex 115.6 39.9 5.72205e-07
      vertex 114.4 32.1 5.72205e-07
    endloop
  endfacet
  facet normal 0 0 -1
    outer loop
      vertex 114.4 39.9 5.72205e-07
      vertex 143.36 40.86 5.72205e-07
      vertex 115.6 39.9 5.72205e-07
    endloop
  endfacet
  facet normal 0 0 -1
    outer loop
      vertex 86.64 40.86 5.72205e-07
      vertex 114.4 39.9 5.72205e-07
      vertex 101.6 39.9 5.72205e-07
    endloop
  endfacet
  facet normal -0 0 -1
    outer loop
      vertex 101.6 14.1 5.72205e-07
      vertex 100.4 12.9 5.72205e-07
      vertex 100.4 14.1 5.72205e-07
    endloop
  endfacet
  facet normal 0 0 -1
    outer loop
      vertex 101.6 21.9 5.72205e-07
      vertex 100.4 21.9 5.72205e-07
      vertex 101.6 23.1 5.72205e-07
    endloop
  endfacet
  facet normal 0 0 -1
    outer loop
      vertex 100.4 30.9 5.72205e-07
      vertex 101.6 30.9 5.72205e-07
      vertex 100.4 23.1 5.72205e-07
    endloop
  endfacet
  facet normal 0 0 -1
    outer loop
      vertex 101.6 30.9 5.72205e-07
      vertex 100.4 30.9 5.72205e-07
      vertex 101.6 32.1 5.72205e-07
    endloop
  endfacet
  facet normal 0 0 -1
    outer loop
      vertex 100.4 32.1 5.72205e-07
      vertex 101.6 32.1 5.72205e-07
      vertex 100.4 30.9 5.72205e-07
    endloop
  endfacet
  facet normal 0 0 -1
    outer loop
      vertex 101.6 32.1 5.72205e-07
      vertex 100.4 32.1 5.72205e-07
      vertex 101.6 39.9 5.72205e-07
    endloop
  endfacet
  facet normal 0 0 -1
    outer loop
      vertex 100.4 39.9 5.72205e-07
      vertex 101.6 39.9 5.72205e-07
      vertex 100.4 32.1 5.72205e-07
    endloop
  endfacet
  facet normal 0 0 -1
    outer loop
      vertex 86.64 40.86 5.72205e-07
      vertex 101.6 39.9 5.72205e-07
      vertex 100.4 39.9 5.72205e-07
    endloop
  endfacet
  facet normal 0 0 -1
    outer loop
      vertex 86.64 40.86 5.72205e-07
      vertex 100.4 39.9 5.72205e-07
      vertex 87.6 39.9 5.72205e-07
    endloop
  endfacet
  facet normal 0 0 -1
    outer loop
      vertex 114.4 39.9 5.72205e-07
      vertex 86.64 40.86 5.72205e-07
      vertex 143.36 40.86 5.72205e-07
    endloop
  endfacet
  facet normal 0 0 -1
    outer loop
      vertex 87.6 32.1 5.72205e-07
      vertex 86.64 40.86 5.72205e-07
      vertex 87.6 39.9 5.72205e-07
    endloop
  endfacet
  facet normal 0 -1 0
    outer loop
      vertex 86.64 4.14 5.72205e-07
      vertex 143.36 4.14 1.2
      vertex 86.64 4.14 1.2
    endloop
  endfacet
  facet normal 0 -1 -0
    outer loop
      vertex 143.36 4.14 1.2
      vertex 86.64 4.14 5.72205e-07
      vertex 143.36 4.14 5.72205e-07
    endloop
  endfacet
endsolid OpenSCAD_Model
