solid OpenSCAD_Model
  facet normal 1 -0 0
    outer loop
      vertex 7.4 4.9 5.7
      vertex 7.4 13.1 0
      vertex 7.4 13.1 5.7
    endloop
  endfacet
  facet normal 1 0 0
    outer loop
      vertex 7.4 13.1 0
      vertex 7.4 4.9 5.7
      vertex 7.4 4.9 0
    endloop
  endfacet
  facet normal -1 0 0
    outer loop
      vertex 20.6 4.9 0
      vertex 20.6 13.1 5.7
      vertex 20.6 13.1 0
    endloop
  endfacet
  facet normal -1 -0 0
    outer loop
      vertex 20.6 13.1 5.7
      vertex 20.6 4.9 0
      vertex 20.6 4.9 5.7
    endloop
  endfacet
  facet normal 0 -1 0
    outer loop
      vertex 7.4 13.1 0
      vertex 20.6 13.1 5.7
      vertex 7.4 13.1 5.7
    endloop
  endfacet
  facet normal 0 -1 -0
    outer loop
      vertex 20.6 13.1 5.7
      vertex 7.4 13.1 0
      vertex 20.6 13.1 0
    endloop
  endfacet
  facet normal 0 1 -0
    outer loop
      vertex 20.6 4.9 0
      vertex 7.4 4.9 5.7
      vertex 20.6 4.9 5.7
    endloop
  endfacet
  facet normal 0 1 0
    outer loop
      vertex 7.4 4.9 5.7
      vertex 20.6 4.9 0
      vertex 7.4 4.9 0
    endloop
  endfacet
  facet normal 1 -0 0
    outer loop
      vertex 21.4 4.9 5.7
      vertex 21.4 13.1 0
      vertex 21.4 13.1 5.7
    endloop
  endfacet
  facet normal 1 0 0
    outer loop
      vertex 21.4 13.1 0
      vertex 21.4 4.9 5.7
      vertex 21.4 4.9 0
    endloop
  endfacet
  facet normal -1 0 0
    outer loop
      vertex 34.6 4.9 0
      vertex 34.6 13.1 5.7
      vertex 34.6 13.1 0
    endloop
  endfacet
  facet normal -1 -0 0
    outer loop
      vertex 34.6 13.1 5.7
      vertex 34.6 4.9 0
      vertex 34.6 4.9 5.7
    endloop
  endfacet
  facet normal 0 1 -0
    outer loop
      vertex 34.6 4.9 0
      vertex 21.4 4.9 5.7
      vertex 34.6 4.9 5.7
    endloop
  endfacet
  facet normal 0 1 0
    outer loop
      vertex 21.4 4.9 5.7
      vertex 34.6 4.9 0
      vertex 21.4 4.9 0
    endloop
  endfacet
  facet normal 0 -1 0
    outer loop
      vertex 21.4 13.1 0
      vertex 34.6 13.1 5.7
      vertex 21.4 13.1 5.7
    endloop
  endfacet
  facet normal 0 -1 -0
    outer loop
      vertex 34.6 13.1 5.7
      vertex 21.4 13.1 0
      vertex 34.6 13.1 0
    endloop
  endfacet
  facet normal 1 -0 0
    outer loop
      vertex 35.4 4.9 5.7
      vertex 35.4 13.1 0
      vertex 35.4 13.1 5.7
    endloop
  endfacet
  facet normal 1 0 0
    outer loop
      vertex 35.4 13.1 0
      vertex 35.4 4.9 5.7
      vertex 35.4 4.9 0
    endloop
  endfacet
  facet normal -1 0 0
    outer loop
      vertex 48.6 4.9 0
      vertex 48.6 13.1 5.7
      vertex 48.6 13.1 0
    endloop
  endfacet
  facet normal -1 -0 0
    outer loop
      vertex 48.6 13.1 5.7
      vertex 48.6 4.9 0
      vertex 48.6 4.9 5.7
    endloop
  endfacet
  facet normal 0 -1 0
    outer loop
      vertex 35.4 13.1 0
      vertex 48.6 13.1 5.7
      vertex 35.4 13.1 5.7
    endloop
  endfacet
  facet normal 0 -1 -0
    outer loop
      vertex 48.6 13.1 5.7
      vertex 35.4 13.1 0
      vertex 48.6 13.1 0
    endloop
  endfacet
  facet normal 0 1 -0
    outer loop
      vertex 48.6 4.9 0
      vertex 35.4 4.9 5.7
      vertex 48.6 4.9 5.7
    endloop
  endfacet
  facet normal 0 1 0
    outer loop
      vertex 35.4 4.9 5.7
      vertex 48.6 4.9 0
      vertex 35.4 4.9 0
    endloop
  endfacet
  facet normal 1 -0 0
    outer loop
      vertex 49.4 4.9 5.7
      vertex 49.4 13.1 0
      vertex 49.4 13.1 5.7
    endloop
  endfacet
  facet normal 1 0 0
    outer loop
      vertex 49.4 13.1 0
      vertex 49.4 4.9 5.7
      vertex 49.4 4.9 0
    endloop
  endfacet
  facet normal -1 0 0
    outer loop
      vertex 62.6 4.9 0
      vertex 62.6 13.1 5.7
      vertex 62.6 13.1 0
    endloop
  endfacet
  facet normal -1 -0 0
    outer loop
      vertex 62.6 13.1 5.7
      vertex 62.6 4.9 0
      vertex 62.6 4.9 5.7
    endloop
  endfacet
  facet normal 0 -1 0
    outer loop
      vertex 49.4 13.1 0
      vertex 62.6 13.1 5.7
      vertex 49.4 13.1 5.7
    endloop
  endfacet
  facet normal 0 -1 -0
    outer loop
      vertex 62.6 13.1 5.7
      vertex 49.4 13.1 0
      vertex 62.6 13.1 0
    endloop
  endfacet
  facet normal 0 1 -0
    outer loop
      vertex 62.6 4.9 0
      vertex 49.4 4.9 5.7
      vertex 62.6 4.9 5.7
    endloop
  endfacet
  facet normal 0 1 0
    outer loop
      vertex 49.4 4.9 5.7
      vertex 62.6 4.9 0
      vertex 49.4 4.9 0
    endloop
  endfacet
  facet normal 1 -0 0
    outer loop
      vertex 7.4 13.9 5.7
      vertex 7.4 22.1 0
      vertex 7.4 22.1 5.7
    endloop
  endfacet
  facet normal 1 0 0
    outer loop
      vertex 7.4 22.1 0
      vertex 7.4 13.9 5.7
      vertex 7.4 13.9 0
    endloop
  endfacet
  facet normal -1 0 0
    outer loop
      vertex 20.6 13.9 0
      vertex 20.6 22.1 5.7
      vertex 20.6 22.1 0
    endloop
  endfacet
  facet normal -1 -0 0
    outer loop
      vertex 20.6 22.1 5.7
      vertex 20.6 13.9 0
      vertex 20.6 13.9 5.7
    endloop
  endfacet
  facet normal 0 1 -0
    outer loop
      vertex 20.6 13.9 0
      vertex 7.4 13.9 5.7
      vertex 20.6 13.9 5.7
    endloop
  endfacet
  facet normal 0 1 0
    outer loop
      vertex 7.4 13.9 5.7
      vertex 20.6 13.9 0
      vertex 7.4 13.9 0
    endloop
  endfacet
  facet normal 0 -1 0
    outer loop
      vertex 7.4 22.1 0
      vertex 20.6 22.1 5.7
      vertex 7.4 22.1 5.7
    endloop
  endfacet
  facet normal 0 -1 -0
    outer loop
      vertex 20.6 22.1 5.7
      vertex 7.4 22.1 0
      vertex 20.6 22.1 0
    endloop
  endfacet
  facet normal 1 -0 0
    outer loop
      vertex 21.4 13.9 5.7
      vertex 21.4 22.1 0
      vertex 21.4 22.1 5.7
    endloop
  endfacet
  facet normal 1 0 0
    outer loop
      vertex 21.4 22.1 0
      vertex 21.4 13.9 5.7
      vertex 21.4 13.9 0
    endloop
  endfacet
  facet normal -1 0 0
    outer loop
      vertex 34.6 13.9 0
      vertex 34.6 22.1 5.7
      vertex 34.6 22.1 0
    endloop
  endfacet
  facet normal -1 -0 0
    outer loop
      vertex 34.6 22.1 5.7
      vertex 34.6 13.9 0
      vertex 34.6 13.9 5.7
    endloop
  endfacet
  facet normal 0 -1 0
    outer loop
      vertex 21.4 22.1 0
      vertex 34.6 22.1 5.7
      vertex 21.4 22.1 5.7
    endloop
  endfacet
  facet normal 0 -1 -0
    outer loop
      vertex 34.6 22.1 5.7
      vertex 21.4 22.1 0
      vertex 34.6 22.1 0
    endloop
  endfacet
  facet normal 0 1 -0
    outer loop
      vertex 34.6 13.9 0
      vertex 21.4 13.9 5.7
      vertex 34.6 13.9 5.7
    endloop
  endfacet
  facet normal 0 1 0
    outer loop
      vertex 21.4 13.9 5.7
      vertex 34.6 13.9 0
      vertex 21.4 13.9 0
    endloop
  endfacet
  facet normal 1 -0 0
    outer loop
      vertex 35.4 13.9 5.7
      vertex 35.4 22.1 0
      vertex 35.4 22.1 5.7
    endloop
  endfacet
  facet normal 1 0 0
    outer loop
      vertex 35.4 22.1 0
      vertex 35.4 13.9 5.7
      vertex 35.4 13.9 0
    endloop
  endfacet
  facet normal -1 0 0
    outer loop
      vertex 48.6 13.9 0
      vertex 48.6 22.1 5.7
      vertex 48.6 22.1 0
    endloop
  endfacet
  facet normal -1 -0 0
    outer loop
      vertex 48.6 22.1 5.7
      vertex 48.6 13.9 0
      vertex 48.6 13.9 5.7
    endloop
  endfacet
  facet normal 0 1 -0
    outer loop
      vertex 48.6 13.9 0
      vertex 35.4 13.9 5.7
      vertex 48.6 13.9 5.7
    endloop
  endfacet
  facet normal 0 1 0
    outer loop
      vertex 35.4 13.9 5.7
      vertex 48.6 13.9 0
      vertex 35.4 13.9 0
    endloop
  endfacet
  facet normal 0 -1 0
    outer loop
      vertex 35.4 22.1 0
      vertex 48.6 22.1 5.7
      vertex 35.4 22.1 5.7
    endloop
  endfacet
  facet normal 0 -1 -0
    outer loop
      vertex 48.6 22.1 5.7
      vertex 35.4 22.1 0
      vertex 48.6 22.1 0
    endloop
  endfacet
  facet normal 1 -0 0
    outer loop
      vertex 49.4 13.9 5.7
      vertex 49.4 22.1 0
      vertex 49.4 22.1 5.7
    endloop
  endfacet
  facet normal 1 0 0
    outer loop
      vertex 49.4 22.1 0
      vertex 49.4 13.9 5.7
      vertex 49.4 13.9 0
    endloop
  endfacet
  facet normal -1 0 0
    outer loop
      vertex 62.6 13.9 0
      vertex 62.6 22.1 5.7
      vertex 62.6 22.1 0
    endloop
  endfacet
  facet normal -1 -0 0
    outer loop
      vertex 62.6 22.1 5.7
      vertex 62.6 13.9 0
      vertex 62.6 13.9 5.7
    endloop
  endfacet
  facet normal 0 -1 0
    outer loop
      vertex 49.4 22.1 0
      vertex 62.6 22.1 5.7
      vertex 49.4 22.1 5.7
    endloop
  endfacet
  facet normal 0 -1 -0
    outer loop
      vertex 62.6 22.1 5.7
      vertex 49.4 22.1 0
      vertex 62.6 22.1 0
    endloop
  endfacet
  facet normal 0 1 -0
    outer loop
      vertex 62.6 13.9 0
      vertex 49.4 13.9 5.7
      vertex 62.6 13.9 5.7
    endloop
  endfacet
  facet normal 0 1 0
    outer loop
      vertex 49.4 13.9 5.7
      vertex 62.6 13.9 0
      vertex 49.4 13.9 0
    endloop
  endfacet
  facet normal 1 -0 0
    outer loop
      vertex 7.4 22.9 5.7
      vertex 7.4 31.1 0
      vertex 7.4 31.1 5.7
    endloop
  endfacet
  facet normal 1 0 0
    outer loop
      vertex 7.4 31.1 0
      vertex 7.4 22.9 5.7
      vertex 7.4 22.9 0
    endloop
  endfacet
  facet normal -1 0 0
    outer loop
      vertex 20.6 22.9 0
      vertex 20.6 31.1 5.7
      vertex 20.6 31.1 0
    endloop
  endfacet
  facet normal -1 -0 0
    outer loop
      vertex 20.6 31.1 5.7
      vertex 20.6 22.9 0
      vertex 20.6 22.9 5.7
    endloop
  endfacet
  facet normal 0 -1 0
    outer loop
      vertex 7.4 31.1 0
      vertex 20.6 31.1 5.7
      vertex 7.4 31.1 5.7
    endloop
  endfacet
  facet normal 0 -1 -0
    outer loop
      vertex 20.6 31.1 5.7
      vertex 7.4 31.1 0
      vertex 20.6 31.1 0
    endloop
  endfacet
  facet normal 0 1 -0
    outer loop
      vertex 20.6 22.9 0
      vertex 7.4 22.9 5.7
      vertex 20.6 22.9 5.7
    endloop
  endfacet
  facet normal 0 1 0
    outer loop
      vertex 7.4 22.9 5.7
      vertex 20.6 22.9 0
      vertex 7.4 22.9 0
    endloop
  endfacet
  facet normal 1 -0 0
    outer loop
      vertex 21.4 22.9 5.7
      vertex 21.4 31.1 0
      vertex 21.4 31.1 5.7
    endloop
  endfacet
  facet normal 1 0 0
    outer loop
      vertex 21.4 31.1 0
      vertex 21.4 22.9 5.7
      vertex 21.4 22.9 0
    endloop
  endfacet
  facet normal -1 0 0
    outer loop
      vertex 34.6 22.9 0
      vertex 34.6 31.1 5.7
      vertex 34.6 31.1 0
    endloop
  endfacet
  facet normal -1 -0 0
    outer loop
      vertex 34.6 31.1 5.7
      vertex 34.6 22.9 0
      vertex 34.6 22.9 5.7
    endloop
  endfacet
  facet normal 0 1 -0
    outer loop
      vertex 34.6 22.9 0
      vertex 21.4 22.9 5.7
      vertex 34.6 22.9 5.7
    endloop
  endfacet
  facet normal 0 1 0
    outer loop
      vertex 21.4 22.9 5.7
      vertex 34.6 22.9 0
      vertex 21.4 22.9 0
    endloop
  endfacet
  facet normal 0 -1 0
    outer loop
      vertex 21.4 31.1 0
      vertex 34.6 31.1 5.7
      vertex 21.4 31.1 5.7
    endloop
  endfacet
  facet normal 0 -1 -0
    outer loop
      vertex 34.6 31.1 5.7
      vertex 21.4 31.1 0
      vertex 34.6 31.1 0
    endloop
  endfacet
  facet normal 1 -0 0
    outer loop
      vertex 35.4 22.9 5.7
      vertex 35.4 31.1 0
      vertex 35.4 31.1 5.7
    endloop
  endfacet
  facet normal 1 0 0
    outer loop
      vertex 35.4 31.1 0
      vertex 35.4 22.9 5.7
      vertex 35.4 22.9 0
    endloop
  endfacet
  facet normal -1 0 0
    outer loop
      vertex 48.6 22.9 0
      vertex 48.6 31.1 5.7
      vertex 48.6 31.1 0
    endloop
  endfacet
  facet normal -1 -0 0
    outer loop
      vertex 48.6 31.1 5.7
      vertex 48.6 22.9 0
      vertex 48.6 22.9 5.7
    endloop
  endfacet
  facet normal 0 1 -0
    outer loop
      vertex 48.6 22.9 0
      vertex 35.4 22.9 5.7
      vertex 48.6 22.9 5.7
    endloop
  endfacet
  facet normal 0 1 0
    outer loop
      vertex 35.4 22.9 5.7
      vertex 48.6 22.9 0
      vertex 35.4 22.9 0
    endloop
  endfacet
  facet normal 0 -1 0
    outer loop
      vertex 35.4 31.1 0
      vertex 48.6 31.1 5.7
      vertex 35.4 31.1 5.7
    endloop
  endfacet
  facet normal 0 -1 -0
    outer loop
      vertex 48.6 31.1 5.7
      vertex 35.4 31.1 0
      vertex 48.6 31.1 0
    endloop
  endfacet
  facet normal 1 -0 0
    outer loop
      vertex 49.4 22.9 5.7
      vertex 49.4 31.1 0
      vertex 49.4 31.1 5.7
    endloop
  endfacet
  facet normal 1 0 0
    outer loop
      vertex 49.4 31.1 0
      vertex 49.4 22.9 5.7
      vertex 49.4 22.9 0
    endloop
  endfacet
  facet normal -1 0 0
    outer loop
      vertex 62.6 22.9 0
      vertex 62.6 31.1 5.7
      vertex 62.6 31.1 0
    endloop
  endfacet
  facet normal -1 -0 0
    outer loop
      vertex 62.6 31.1 5.7
      vertex 62.6 22.9 0
      vertex 62.6 22.9 5.7
    endloop
  endfacet
  facet normal 0 -1 0
    outer loop
      vertex 49.4 31.1 0
      vertex 62.6 31.1 5.7
      vertex 49.4 31.1 5.7
    endloop
  endfacet
  facet normal 0 -1 -0
    outer loop
      vertex 62.6 31.1 5.7
      vertex 49.4 31.1 0
      vertex 62.6 31.1 0
    endloop
  endfacet
  facet normal 0 1 -0
    outer loop
      vertex 62.6 22.9 0
      vertex 49.4 22.9 5.7
      vertex 62.6 22.9 5.7
    endloop
  endfacet
  facet normal 0 1 0
    outer loop
      vertex 49.4 22.9 5.7
      vertex 62.6 22.9 0
      vertex 49.4 22.9 0
    endloop
  endfacet
  facet normal 1 -0 0
    outer loop
      vertex 7.4 31.9 5.7
      vertex 7.4 40.1 0
      vertex 7.4 40.1 5.7
    endloop
  endfacet
  facet normal 1 0 0
    outer loop
      vertex 7.4 40.1 0
      vertex 7.4 31.9 5.7
      vertex 7.4 31.9 0
    endloop
  endfacet
  facet normal -1 0 0
    outer loop
      vertex 20.6 31.9 0
      vertex 20.6 40.1 5.7
      vertex 20.6 40.1 0
    endloop
  endfacet
  facet normal -1 -0 0
    outer loop
      vertex 20.6 40.1 5.7
      vertex 20.6 31.9 0
      vertex 20.6 31.9 5.7
    endloop
  endfacet
  facet normal 0 1 -0
    outer loop
      vertex 20.6 31.9 0
      vertex 7.4 31.9 5.7
      vertex 20.6 31.9 5.7
    endloop
  endfacet
  facet normal 0 1 0
    outer loop
      vertex 7.4 31.9 5.7
      vertex 20.6 31.9 0
      vertex 7.4 31.9 0
    endloop
  endfacet
  facet normal 0 -1 0
    outer loop
      vertex 7.4 40.1 0
      vertex 20.6 40.1 5.7
      vertex 7.4 40.1 5.7
    endloop
  endfacet
  facet normal 0 -1 -0
    outer loop
      vertex 20.6 40.1 5.7
      vertex 7.4 40.1 0
      vertex 20.6 40.1 0
    endloop
  endfacet
  facet normal 1 -0 0
    outer loop
      vertex 21.4 31.9 5.7
      vertex 21.4 40.1 0
      vertex 21.4 40.1 5.7
    endloop
  endfacet
  facet normal 1 0 0
    outer loop
      vertex 21.4 40.1 0
      vertex 21.4 31.9 5.7
      vertex 21.4 31.9 0
    endloop
  endfacet
  facet normal -1 0 0
    outer loop
      vertex 34.6 31.9 0
      vertex 34.6 40.1 5.7
      vertex 34.6 40.1 0
    endloop
  endfacet
  facet normal -1 -0 0
    outer loop
      vertex 34.6 40.1 5.7
      vertex 34.6 31.9 0
      vertex 34.6 31.9 5.7
    endloop
  endfacet
  facet normal 0 -1 0
    outer loop
      vertex 21.4 40.1 0
      vertex 34.6 40.1 5.7
      vertex 21.4 40.1 5.7
    endloop
  endfacet
  facet normal 0 -1 -0
    outer loop
      vertex 34.6 40.1 5.7
      vertex 21.4 40.1 0
      vertex 34.6 40.1 0
    endloop
  endfacet
  facet normal 0 1 -0
    outer loop
      vertex 34.6 31.9 0
      vertex 21.4 31.9 5.7
      vertex 34.6 31.9 5.7
    endloop
  endfacet
  facet normal 0 1 0
    outer loop
      vertex 21.4 31.9 5.7
      vertex 34.6 31.9 0
      vertex 21.4 31.9 0
    endloop
  endfacet
  facet normal 1 -0 0
    outer loop
      vertex 35.4 31.9 5.7
      vertex 35.4 40.1 0
      vertex 35.4 40.1 5.7
    endloop
  endfacet
  facet normal 1 0 0
    outer loop
      vertex 35.4 40.1 0
      vertex 35.4 31.9 5.7
      vertex 35.4 31.9 0
    endloop
  endfacet
  facet normal -1 0 0
    outer loop
      vertex 48.6 31.9 0
      vertex 48.6 40.1 5.7
      vertex 48.6 40.1 0
    endloop
  endfacet
  facet normal -1 -0 0
    outer loop
      vertex 48.6 40.1 5.7
      vertex 48.6 31.9 0
      vertex 48.6 31.9 5.7
    endloop
  endfacet
  facet normal 0 -1 0
    outer loop
      vertex 35.4 40.1 0
      vertex 48.6 40.1 5.7
      vertex 35.4 40.1 5.7
    endloop
  endfacet
  facet normal 0 -1 -0
    outer loop
      vertex 48.6 40.1 5.7
      vertex 35.4 40.1 0
      vertex 48.6 40.1 0
    endloop
  endfacet
  facet normal 0 1 -0
    outer loop
      vertex 48.6 31.9 0
      vertex 35.4 31.9 5.7
      vertex 48.6 31.9 5.7
    endloop
  endfacet
  facet normal 0 1 0
    outer loop
      vertex 35.4 31.9 5.7
      vertex 48.6 31.9 0
      vertex 35.4 31.9 0
    endloop
  endfacet
  facet normal 1 -0 0
    outer loop
      vertex 49.4 31.9 5.7
      vertex 49.4 40.1 0
      vertex 49.4 40.1 5.7
    endloop
  endfacet
  facet normal 1 0 0
    outer loop
      vertex 49.4 40.1 0
      vertex 49.4 31.9 5.7
      vertex 49.4 31.9 0
    endloop
  endfacet
  facet normal -1 0 0
    outer loop
      vertex 62.6 31.9 0
      vertex 62.6 40.1 5.7
      vertex 62.6 40.1 0
    endloop
  endfacet
  facet normal -1 -0 0
    outer loop
      vertex 62.6 40.1 5.7
      vertex 62.6 31.9 0
      vertex 62.6 31.9 5.7
    endloop
  endfacet
  facet normal 0 -1 0
    outer loop
      vertex 49.4 40.1 0
      vertex 62.6 40.1 5.7
      vertex 49.4 40.1 5.7
    endloop
  endfacet
  facet normal 0 -1 -0
    outer loop
      vertex 62.6 40.1 5.7
      vertex 49.4 40.1 0
      vertex 62.6 40.1 0
    endloop
  endfacet
  facet normal 0 1 -0
    outer loop
      vertex 62.6 31.9 0
      vertex 49.4 31.9 5.7
      vertex 62.6 31.9 5.7
    endloop
  endfacet
  facet normal 0 1 0
    outer loop
      vertex 49.4 31.9 5.7
      vertex 62.6 31.9 0
      vertex 49.4 31.9 0
    endloop
  endfacet
  facet normal 1 -0 0
    outer loop
      vertex 6.5 4 8
      vertex 6.5 41 5.7
      vertex 6.5 41 8
    endloop
  endfacet
  facet normal 1 0 0
    outer loop
      vertex 6.5 41 5.7
      vertex 6.5 4 8
      vertex 6.5 4 5.7
    endloop
  endfacet
  facet normal -0 0 1
    outer loop
      vertex 7.4 13.9 5.7
      vertex 20.6 13.1 5.7
      vertex 20.6 13.9 5.7
    endloop
  endfacet
  facet normal 0 0 1
    outer loop
      vertex 20.6 13.1 5.7
      vertex 7.4 13.9 5.7
      vertex 7.4 13.1 5.7
    endloop
  endfacet
  facet normal -0 0 1
    outer loop
      vertex 7.4 22.9 5.7
      vertex 20.6 22.1 5.7
      vertex 20.6 22.9 5.7
    endloop
  endfacet
  facet normal 0 0 1
    outer loop
      vertex 20.6 22.1 5.7
      vertex 7.4 22.9 5.7
      vertex 7.4 22.1 5.7
    endloop
  endfacet
  facet normal -0 0 1
    outer loop
      vertex 7.4 31.9 5.7
      vertex 20.6 31.1 5.7
      vertex 20.6 31.9 5.7
    endloop
  endfacet
  facet normal 0 0 1
    outer loop
      vertex 20.6 31.1 5.7
      vertex 7.4 31.9 5.7
      vertex 7.4 31.1 5.7
    endloop
  endfacet
  facet normal -0 0 1
    outer loop
      vertex 21.4 13.9 5.7
      vertex 34.6 13.1 5.7
      vertex 34.6 13.9 5.7
    endloop
  endfacet
  facet normal 0 0 1
    outer loop
      vertex 34.6 13.1 5.7
      vertex 21.4 13.9 5.7
      vertex 21.4 13.1 5.7
    endloop
  endfacet
  facet normal -0 0 1
    outer loop
      vertex 21.4 22.9 5.7
      vertex 34.6 22.1 5.7
      vertex 34.6 22.9 5.7
    endloop
  endfacet
  facet normal 0 0 1
    outer loop
      vertex 34.6 22.1 5.7
      vertex 21.4 22.9 5.7
      vertex 21.4 22.1 5.7
    endloop
  endfacet
  facet normal -0 0 1
    outer loop
      vertex 21.4 31.9 5.7
      vertex 34.6 31.1 5.7
      vertex 34.6 31.9 5.7
    endloop
  endfacet
  facet normal 0 0 1
    outer loop
      vertex 34.6 31.1 5.7
      vertex 21.4 31.9 5.7
      vertex 21.4 31.1 5.7
    endloop
  endfacet
  facet normal -0 0 1
    outer loop
      vertex 35.4 13.9 5.7
      vertex 48.6 13.1 5.7
      vertex 48.6 13.9 5.7
    endloop
  endfacet
  facet normal 0 0 1
    outer loop
      vertex 48.6 13.1 5.7
      vertex 35.4 13.9 5.7
      vertex 35.4 13.1 5.7
    endloop
  endfacet
  facet normal -0 0 1
    outer loop
      vertex 35.4 22.9 5.7
      vertex 48.6 22.1 5.7
      vertex 48.6 22.9 5.7
    endloop
  endfacet
  facet normal 0 0 1
    outer loop
      vertex 48.6 22.1 5.7
      vertex 35.4 22.9 5.7
      vertex 35.4 22.1 5.7
    endloop
  endfacet
  facet normal -0 0 1
    outer loop
      vertex 35.4 31.9 5.7
      vertex 48.6 31.1 5.7
      vertex 48.6 31.9 5.7
    endloop
  endfacet
  facet normal 0 0 1
    outer loop
      vertex 48.6 31.1 5.7
      vertex 35.4 31.9 5.7
      vertex 35.4 31.1 5.7
    endloop
  endfacet
  facet normal -0 0 1
    outer loop
      vertex 49.4 13.9 5.7
      vertex 62.6 13.1 5.7
      vertex 62.6 13.9 5.7
    endloop
  endfacet
  facet normal 0 0 1
    outer loop
      vertex 62.6 13.1 5.7
      vertex 49.4 13.9 5.7
      vertex 49.4 13.1 5.7
    endloop
  endfacet
  facet normal -0 0 1
    outer loop
      vertex 49.4 22.9 5.7
      vertex 62.6 22.1 5.7
      vertex 62.6 22.9 5.7
    endloop
  endfacet
  facet normal 0 0 1
    outer loop
      vertex 62.6 22.1 5.7
      vertex 49.4 22.9 5.7
      vertex 49.4 22.1 5.7
    endloop
  endfacet
  facet normal -0 0 1
    outer loop
      vertex 49.4 31.9 5.7
      vertex 62.6 31.1 5.7
      vertex 62.6 31.9 5.7
    endloop
  endfacet
  facet normal 0 0 1
    outer loop
      vertex 62.6 31.1 5.7
      vertex 49.4 31.9 5.7
      vertex 49.4 31.1 5.7
    endloop
  endfacet
  facet normal 0 0 1
    outer loop
      vertex 62.6 31.9 5.7
      vertex 63.5 41 5.7
      vertex 62.6 40.1 5.7
    endloop
  endfacet
  facet normal 0 0 1
    outer loop
      vertex 63.5 41 5.7
      vertex 49.4 40.1 5.7
      vertex 62.6 40.1 5.7
    endloop
  endfacet
  facet normal 0 0 1
    outer loop
      vertex 48.6 31.9 5.7
      vertex 49.4 31.9 5.7
      vertex 49.4 40.1 5.7
    endloop
  endfacet
  facet normal 0 0 1
    outer loop
      vertex 49.4 31.9 5.7
      vertex 48.6 31.9 5.7
      vertex 49.4 31.1 5.7
    endloop
  endfacet
  facet normal 0 0 1
    outer loop
      vertex 49.4 31.1 5.7
      vertex 48.6 31.1 5.7
      vertex 49.4 22.9 5.7
    endloop
  endfacet
  facet normal 0 0 1
    outer loop
      vertex 48.6 22.9 5.7
      vertex 49.4 22.9 5.7
      vertex 48.6 31.1 5.7
    endloop
  endfacet
  facet normal 0 0 1
    outer loop
      vertex 48.6 22.1 5.7
      vertex 49.4 22.1 5.7
      vertex 48.6 22.9 5.7
    endloop
  endfacet
  facet normal 0 0 1
    outer loop
      vertex 49.4 22.1 5.7
      vertex 48.6 22.1 5.7
      vertex 49.4 13.9 5.7
    endloop
  endfacet
  facet normal 0 0 1
    outer loop
      vertex 48.6 31.9 5.7
      vertex 49.4 40.1 5.7
      vertex 48.6 40.1 5.7
    endloop
  endfacet
  facet normal 0 0 1
    outer loop
      vertex 63.5 41 5.7
      vertex 48.6 40.1 5.7
      vertex 49.4 40.1 5.7
    endloop
  endfacet
  facet normal 0 0 1
    outer loop
      vertex 63.5 41 5.7
      vertex 35.4 40.1 5.7
      vertex 48.6 40.1 5.7
    endloop
  endfacet
  facet normal 0 0 1
    outer loop
      vertex 34.6 31.9 5.7
      vertex 35.4 31.9 5.7
      vertex 35.4 40.1 5.7
    endloop
  endfacet
  facet normal 0 0 1
    outer loop
      vertex 35.4 31.9 5.7
      vertex 34.6 31.9 5.7
      vertex 35.4 31.1 5.7
    endloop
  endfacet
  facet normal 0 0 1
    outer loop
      vertex 35.4 31.1 5.7
      vertex 34.6 31.1 5.7
      vertex 35.4 22.9 5.7
    endloop
  endfacet
  facet normal 0 0 1
    outer loop
      vertex 34.6 22.9 5.7
      vertex 35.4 22.9 5.7
      vertex 34.6 31.1 5.7
    endloop
  endfacet
  facet normal 0 0 1
    outer loop
      vertex 34.6 22.1 5.7
      vertex 35.4 22.1 5.7
      vertex 34.6 22.9 5.7
    endloop
  endfacet
  facet normal 0 0 1
    outer loop
      vertex 35.4 22.1 5.7
      vertex 34.6 22.1 5.7
      vertex 35.4 13.9 5.7
    endloop
  endfacet
  facet normal 0 0 1
    outer loop
      vertex 34.6 31.9 5.7
      vertex 35.4 40.1 5.7
      vertex 34.6 40.1 5.7
    endloop
  endfacet
  facet normal 0 0 1
    outer loop
      vertex 63.5 41 5.7
      vertex 34.6 40.1 5.7
      vertex 35.4 40.1 5.7
    endloop
  endfacet
  facet normal -0 0 1
    outer loop
      vertex 6.5 41 5.7
      vertex 34.6 40.1 5.7
      vertex 63.5 41 5.7
    endloop
  endfacet
  facet normal 0 0 1
    outer loop
      vertex 20.6 31.9 5.7
      vertex 21.4 31.9 5.7
      vertex 21.4 40.1 5.7
    endloop
  endfacet
  facet normal 0 0 1
    outer loop
      vertex 21.4 31.9 5.7
      vertex 20.6 31.9 5.7
      vertex 21.4 31.1 5.7
    endloop
  endfacet
  facet normal 0 0 1
    outer loop
      vertex 21.4 31.1 5.7
      vertex 20.6 31.1 5.7
      vertex 21.4 22.9 5.7
    endloop
  endfacet
  facet normal 0 0 1
    outer loop
      vertex 20.6 22.9 5.7
      vertex 21.4 22.9 5.7
      vertex 20.6 31.1 5.7
    endloop
  endfacet
  facet normal 0 0 1
    outer loop
      vertex 20.6 22.1 5.7
      vertex 21.4 22.1 5.7
      vertex 20.6 22.9 5.7
    endloop
  endfacet
  facet normal 0 0 1
    outer loop
      vertex 21.4 22.1 5.7
      vertex 20.6 22.1 5.7
      vertex 21.4 13.9 5.7
    endloop
  endfacet
  facet normal 0 0 1
    outer loop
      vertex 20.6 31.9 5.7
      vertex 21.4 40.1 5.7
      vertex 20.6 40.1 5.7
    endloop
  endfacet
  facet normal 0 0 1
    outer loop
      vertex 34.6 40.1 5.7
      vertex 6.5 41 5.7
      vertex 21.4 40.1 5.7
    endloop
  endfacet
  facet normal 0 0 1
    outer loop
      vertex 21.4 40.1 5.7
      vertex 6.5 41 5.7
      vertex 20.6 40.1 5.7
    endloop
  endfacet
  facet normal 0 0 1
    outer loop
      vertex 6.5 41 5.7
      vertex 7.4 31.9 5.7
      vertex 7.4 40.1 5.7
    endloop
  endfacet
  facet normal 0 0 1
    outer loop
      vertex 7.4 31.9 5.7
      vertex 6.5 41 5.7
      vertex 7.4 31.1 5.7
    endloop
  endfacet
  facet normal 0 0 1
    outer loop
      vertex 7.4 31.1 5.7
      vertex 6.5 41 5.7
      vertex 7.4 22.9 5.7
    endloop
  endfacet
  facet normal 0 0 1
    outer loop
      vertex 7.4 22.9 5.7
      vertex 6.5 41 5.7
      vertex 7.4 22.1 5.7
    endloop
  endfacet
  facet normal 0 0 1
    outer loop
      vertex 6.5 4 5.7
      vertex 7.4 22.1 5.7
      vertex 6.5 41 5.7
    endloop
  endfacet
  facet normal 0 0 1
    outer loop
      vertex 7.4 22.1 5.7
      vertex 6.5 4 5.7
      vertex 7.4 13.9 5.7
    endloop
  endfacet
  facet normal 0 0 1
    outer loop
      vertex 7.4 13.9 5.7
      vertex 6.5 4 5.7
      vertex 7.4 13.1 5.7
    endloop
  endfacet
  facet normal 0 0 1
    outer loop
      vertex 20.6 40.1 5.7
      vertex 6.5 41 5.7
      vertex 7.4 40.1 5.7
    endloop
  endfacet
  facet normal 0 0 1
    outer loop
      vertex 62.6 31.1 5.7
      vertex 63.5 41 5.7
      vertex 62.6 31.9 5.7
    endloop
  endfacet
  facet normal 0 0 1
    outer loop
      vertex 62.6 22.9 5.7
      vertex 63.5 41 5.7
      vertex 62.6 31.1 5.7
    endloop
  endfacet
  facet normal 0 0 1
    outer loop
      vertex 63.5 41 5.7
      vertex 62.6 22.9 5.7
      vertex 63.5 4 5.7
    endloop
  endfacet
  facet normal -0 0 1
    outer loop
      vertex 62.6 22.1 5.7
      vertex 63.5 4 5.7
      vertex 62.6 22.9 5.7
    endloop
  endfacet
  facet normal -0 0 1
    outer loop
      vertex 62.6 13.9 5.7
      vertex 63.5 4 5.7
      vertex 62.6 22.1 5.7
    endloop
  endfacet
  facet normal -0 0 1
    outer loop
      vertex 62.6 13.1 5.7
      vertex 63.5 4 5.7
      vertex 62.6 13.9 5.7
    endloop
  endfacet
  facet normal -0 0 1
    outer loop
      vertex 62.6 4.9 5.7
      vertex 63.5 4 5.7
      vertex 62.6 13.1 5.7
    endloop
  endfacet
  facet normal -0 0 1
    outer loop
      vertex 49.4 4.9 5.7
      vertex 63.5 4 5.7
      vertex 62.6 4.9 5.7
    endloop
  endfacet
  facet normal 0 0 1
    outer loop
      vertex 49.4 31.1 5.7
      vertex 48.6 31.9 5.7
      vertex 48.6 31.1 5.7
    endloop
  endfacet
  facet normal 0 0 1
    outer loop
      vertex 49.4 22.9 5.7
      vertex 48.6 22.9 5.7
      vertex 49.4 22.1 5.7
    endloop
  endfacet
  facet normal 0 0 1
    outer loop
      vertex 48.6 13.9 5.7
      vertex 49.4 13.9 5.7
      vertex 48.6 22.1 5.7
    endloop
  endfacet
  facet normal 0 0 1
    outer loop
      vertex 49.4 13.9 5.7
      vertex 48.6 13.9 5.7
      vertex 49.4 13.1 5.7
    endloop
  endfacet
  facet normal 0 0 1
    outer loop
      vertex 48.6 13.1 5.7
      vertex 49.4 13.1 5.7
      vertex 48.6 13.9 5.7
    endloop
  endfacet
  facet normal 0 0 1
    outer loop
      vertex 49.4 13.1 5.7
      vertex 48.6 13.1 5.7
      vertex 49.4 4.9 5.7
    endloop
  endfacet
  facet normal 0 0 1
    outer loop
      vertex 48.6 4.9 5.7
      vertex 49.4 4.9 5.7
      vertex 48.6 13.1 5.7
    endloop
  endfacet
  facet normal -0 0 1
    outer loop
      vertex 48.6 4.9 5.7
      vertex 63.5 4 5.7
      vertex 49.4 4.9 5.7
    endloop
  endfacet
  facet normal -0 0 1
    outer loop
      vertex 35.4 4.9 5.7
      vertex 63.5 4 5.7
      vertex 48.6 4.9 5.7
    endloop
  endfacet
  facet normal 0 0 1
    outer loop
      vertex 35.4 31.1 5.7
      vertex 34.6 31.9 5.7
      vertex 34.6 31.1 5.7
    endloop
  endfacet
  facet normal 0 0 1
    outer loop
      vertex 35.4 22.9 5.7
      vertex 34.6 22.9 5.7
      vertex 35.4 22.1 5.7
    endloop
  endfacet
  facet normal 0 0 1
    outer loop
      vertex 34.6 13.9 5.7
      vertex 35.4 13.9 5.7
      vertex 34.6 22.1 5.7
    endloop
  endfacet
  facet normal 0 0 1
    outer loop
      vertex 35.4 13.9 5.7
      vertex 34.6 13.9 5.7
      vertex 35.4 13.1 5.7
    endloop
  endfacet
  facet normal 0 0 1
    outer loop
      vertex 34.6 13.1 5.7
      vertex 35.4 13.1 5.7
      vertex 34.6 13.9 5.7
    endloop
  endfacet
  facet normal 0 0 1
    outer loop
      vertex 35.4 13.1 5.7
      vertex 34.6 13.1 5.7
      vertex 35.4 4.9 5.7
    endloop
  endfacet
  facet normal 0 0 1
    outer loop
      vertex 34.6 4.9 5.7
      vertex 35.4 4.9 5.7
      vertex 34.6 13.1 5.7
    endloop
  endfacet
  facet normal -0 0 1
    outer loop
      vertex 34.6 4.9 5.7
      vertex 63.5 4 5.7
      vertex 35.4 4.9 5.7
    endloop
  endfacet
  facet normal 0 0 1
    outer loop
      vertex 6.5 4 5.7
      vertex 34.6 4.9 5.7
      vertex 21.4 4.9 5.7
    endloop
  endfacet
  facet normal 0 0 1
    outer loop
      vertex 21.4 31.1 5.7
      vertex 20.6 31.9 5.7
      vertex 20.6 31.1 5.7
    endloop
  endfacet
  facet normal 0 0 1
    outer loop
      vertex 21.4 22.9 5.7
      vertex 20.6 22.9 5.7
      vertex 21.4 22.1 5.7
    endloop
  endfacet
  facet normal 0 0 1
    outer loop
      vertex 20.6 13.9 5.7
      vertex 21.4 13.9 5.7
      vertex 20.6 22.1 5.7
    endloop
  endfacet
  facet normal 0 0 1
    outer loop
      vertex 21.4 13.9 5.7
      vertex 20.6 13.9 5.7
      vertex 21.4 13.1 5.7
    endloop
  endfacet
  facet normal 0 0 1
    outer loop
      vertex 20.6 13.1 5.7
      vertex 21.4 13.1 5.7
      vertex 20.6 13.9 5.7
    endloop
  endfacet
  facet normal 0 0 1
    outer loop
      vertex 21.4 13.1 5.7
      vertex 20.6 13.1 5.7
      vertex 21.4 4.9 5.7
    endloop
  endfacet
  facet normal 0 0 1
    outer loop
      vertex 20.6 4.9 5.7
      vertex 21.4 4.9 5.7
      vertex 20.6 13.1 5.7
    endloop
  endfacet
  facet normal 0 0 1
    outer loop
      vertex 6.5 4 5.7
      vertex 21.4 4.9 5.7
      vertex 20.6 4.9 5.7
    endloop
  endfacet
  facet normal 0 0 1
    outer loop
      vertex 6.5 4 5.7
      vertex 20.6 4.9 5.7
      vertex 7.4 4.9 5.7
    endloop
  endfacet
  facet normal 0 0 1
    outer loop
      vertex 34.6 4.9 5.7
      vertex 6.5 4 5.7
      vertex 63.5 4 5.7
    endloop
  endfacet
  facet normal 0 0 1
    outer loop
      vertex 7.4 13.1 5.7
      vertex 6.5 4 5.7
      vertex 7.4 4.9 5.7
    endloop
  endfacet
  facet normal 0 1 -0
    outer loop
      vertex 63.5 4 5.7
      vertex 6.5 4 8
      vertex 63.5 4 8
    endloop
  endfacet
  facet normal 0 1 0
    outer loop
      vertex 6.5 4 8
      vertex 63.5 4 5.7
      vertex 6.5 4 5.7
    endloop
  endfacet
  facet normal -1 0 0
    outer loop
      vertex 63.5 4 5.7
      vertex 63.5 41 8
      vertex 63.5 41 5.7
    endloop
  endfacet
  facet normal -1 -0 0
    outer loop
      vertex 63.5 41 8
      vertex 63.5 4 5.7
      vertex 63.5 4 8
    endloop
  endfacet
  facet normal 0 -1 0
    outer loop
      vertex 6.5 41 5.7
      vertex 63.5 41 8
      vertex 6.5 41 8
    endloop
  endfacet
  facet normal 0 -1 -0
    outer loop
      vertex 63.5 41 8
      vertex 6.5 41 5.7
      vertex 63.5 41 5.7
    endloop
  endfacet
  facet normal -1 0 0
    outer loop
      vertex 6 3.5 0
      vertex 6 41.5 8
      vertex 6 41.5 0
    endloop
  endfacet
  facet normal -1 -0 0
    outer loop
      vertex 6 41.5 8
      vertex 6 3.5 0
      vertex 6 3.5 8
    endloop
  endfacet
  facet normal 0 0 1
    outer loop
      vertex 64 41.5 8
      vertex 63.5 41 8
      vertex 64 3.5 8
    endloop
  endfacet
  facet normal 0 0 1
    outer loop
      vertex 64 41.5 8
      vertex 6.5 41 8
      vertex 63.5 41 8
    endloop
  endfacet
  facet normal 0 0 1
    outer loop
      vertex 6.5 41 8
      vertex 6 41.5 8
      vertex 6.5 4 8
    endloop
  endfacet
  facet normal -0 0 1
    outer loop
      vertex 6 41.5 8
      vertex 6.5 41 8
      vertex 64 41.5 8
    endloop
  endfacet
  facet normal -0 0 1
    outer loop
      vertex 63.5 4 8
      vertex 64 3.5 8
      vertex 63.5 41 8
    endloop
  endfacet
  facet normal -0 0 1
    outer loop
      vertex 6.5 4 8
      vertex 64 3.5 8
      vertex 63.5 4 8
    endloop
  endfacet
  facet normal 0 0 1
    outer loop
      vertex 6.5 4 8
      vertex 6 3.5 8
      vertex 64 3.5 8
    endloop
  endfacet
  facet normal 0 0 1
    outer loop
      vertex 6 3.5 8
      vertex 6.5 4 8
      vertex 6 41.5 8
    endloop
  endfacet
  facet normal 1 -0 0
    outer loop
      vertex 64 3.5 8
      vertex 64 41.5 0
      vertex 64 41.5 8
    endloop
  endfacet
  facet normal 1 0 0
    outer loop
      vertex 64 41.5 0
      vertex 64 3.5 8
      vertex 64 3.5 0
    endloop
  endfacet
  facet normal 0 0 -1
    outer loop
      vertex 7.4 31.1 0
      vertex 20.6 31.9 0
      vertex 20.6 31.1 0
    endloop
  endfacet
  facet normal -0 0 -1
    outer loop
      vertex 20.6 31.9 0
      vertex 7.4 31.1 0
      vertex 7.4 31.9 0
    endloop
  endfacet
  facet normal 0 0 -1
    outer loop
      vertex 7.4 22.1 0
      vertex 20.6 22.9 0
      vertex 20.6 22.1 0
    endloop
  endfacet
  facet normal -0 0 -1
    outer loop
      vertex 20.6 22.9 0
      vertex 7.4 22.1 0
      vertex 7.4 22.9 0
    endloop
  endfacet
  facet normal 0 0 -1
    outer loop
      vertex 7.4 13.1 0
      vertex 20.6 13.9 0
      vertex 20.6 13.1 0
    endloop
  endfacet
  facet normal -0 0 -1
    outer loop
      vertex 20.6 13.9 0
      vertex 7.4 13.1 0
      vertex 7.4 13.9 0
    endloop
  endfacet
  facet normal 0 0 -1
    outer loop
      vertex 21.4 31.1 0
      vertex 34.6 31.9 0
      vertex 34.6 31.1 0
    endloop
  endfacet
  facet normal -0 0 -1
    outer loop
      vertex 34.6 31.9 0
      vertex 21.4 31.1 0
      vertex 21.4 31.9 0
    endloop
  endfacet
  facet normal 0 0 -1
    outer loop
      vertex 21.4 22.1 0
      vertex 34.6 22.9 0
      vertex 34.6 22.1 0
    endloop
  endfacet
  facet normal -0 0 -1
    outer loop
      vertex 34.6 22.9 0
      vertex 21.4 22.1 0
      vertex 21.4 22.9 0
    endloop
  endfacet
  facet normal 0 0 -1
    outer loop
      vertex 21.4 13.1 0
      vertex 34.6 13.9 0
      vertex 34.6 13.1 0
    endloop
  endfacet
  facet normal -0 0 -1
    outer loop
      vertex 34.6 13.9 0
      vertex 21.4 13.1 0
      vertex 21.4 13.9 0
    endloop
  endfacet
  facet normal 0 0 -1
    outer loop
      vertex 35.4 31.1 0
      vertex 48.6 31.9 0
      vertex 48.6 31.1 0
    endloop
  endfacet
  facet normal -0 0 -1
    outer loop
      vertex 48.6 31.9 0
      vertex 35.4 31.1 0
      vertex 35.4 31.9 0
    endloop
  endfacet
  facet normal 0 0 -1
    outer loop
      vertex 35.4 22.1 0
      vertex 48.6 22.9 0
      vertex 48.6 22.1 0
    endloop
  endfacet
  facet normal -0 0 -1
    outer loop
      vertex 48.6 22.9 0
      vertex 35.4 22.1 0
      vertex 35.4 22.9 0
    endloop
  endfacet
  facet normal 0 0 -1
    outer loop
      vertex 35.4 13.1 0
      vertex 48.6 13.9 0
      vertex 48.6 13.1 0
    endloop
  endfacet
  facet normal -0 0 -1
    outer loop
      vertex 48.6 13.9 0
      vertex 35.4 13.1 0
      vertex 35.4 13.9 0
    endloop
  endfacet
  facet normal 0 0 -1
    outer loop
      vertex 49.4 31.1 0
      vertex 62.6 31.9 0
      vertex 62.6 31.1 0
    endloop
  endfacet
  facet normal -0 0 -1
    outer loop
      vertex 62.6 31.9 0
      vertex 49.4 31.1 0
      vertex 49.4 31.9 0
    endloop
  endfacet
  facet normal 0 0 -1
    outer loop
      vertex 49.4 22.1 0
      vertex 62.6 22.9 0
      vertex 62.6 22.1 0
    endloop
  endfacet
  facet normal -0 0 -1
    outer loop
      vertex 62.6 22.9 0
      vertex 49.4 22.1 0
      vertex 49.4 22.9 0
    endloop
  endfacet
  facet normal 0 0 -1
    outer loop
      vertex 49.4 13.1 0
      vertex 62.6 13.9 0
      vertex 62.6 13.1 0
    endloop
  endfacet
  facet normal -0 0 -1
    outer loop
      vertex 62.6 13.9 0
      vertex 49.4 13.1 0
      vertex 49.4 13.9 0
    endloop
  endfacet
  facet normal 0 0 -1
    outer loop
      vertex 62.6 13.1 0
      vertex 64 3.5 0
      vertex 62.6 4.9 0
    endloop
  endfacet
  facet normal 0 0 -1
    outer loop
      vertex 64 3.5 0
      vertex 49.4 4.9 0
      vertex 62.6 4.9 0
    endloop
  endfacet
  facet normal 0 0 -1
    outer loop
      vertex 48.6 13.1 0
      vertex 49.4 13.1 0
      vertex 49.4 4.9 0
    endloop
  endfacet
  facet normal 0 0 -1
    outer loop
      vertex 49.4 13.1 0
      vertex 48.6 13.1 0
      vertex 49.4 13.9 0
    endloop
  endfacet
  facet normal 0 0 -1
    outer loop
      vertex 49.4 13.9 0
      vertex 48.6 13.9 0
      vertex 49.4 22.1 0
    endloop
  endfacet
  facet normal 0 0 -1
    outer loop
      vertex 48.6 22.1 0
      vertex 49.4 22.1 0
      vertex 48.6 13.9 0
    endloop
  endfacet
  facet normal 0 0 -1
    outer loop
      vertex 48.6 22.9 0
      vertex 49.4 22.9 0
      vertex 48.6 22.1 0
    endloop
  endfacet
  facet normal 0 0 -1
    outer loop
      vertex 49.4 22.9 0
      vertex 48.6 22.9 0
      vertex 49.4 31.1 0
    endloop
  endfacet
  facet normal 0 0 -1
    outer loop
      vertex 48.6 13.1 0
      vertex 49.4 4.9 0
      vertex 48.6 4.9 0
    endloop
  endfacet
  facet normal 0 0 -1
    outer loop
      vertex 64 3.5 0
      vertex 48.6 4.9 0
      vertex 49.4 4.9 0
    endloop
  endfacet
  facet normal 0 0 -1
    outer loop
      vertex 64 3.5 0
      vertex 35.4 4.9 0
      vertex 48.6 4.9 0
    endloop
  endfacet
  facet normal 0 0 -1
    outer loop
      vertex 34.6 13.1 0
      vertex 35.4 13.1 0
      vertex 35.4 4.9 0
    endloop
  endfacet
  facet normal 0 0 -1
    outer loop
      vertex 35.4 13.1 0
      vertex 34.6 13.1 0
      vertex 35.4 13.9 0
    endloop
  endfacet
  facet normal 0 0 -1
    outer loop
      vertex 35.4 13.9 0
      vertex 34.6 13.9 0
      vertex 35.4 22.1 0
    endloop
  endfacet
  facet normal 0 0 -1
    outer loop
      vertex 34.6 22.1 0
      vertex 35.4 22.1 0
      vertex 34.6 13.9 0
    endloop
  endfacet
  facet normal 0 0 -1
    outer loop
      vertex 34.6 22.9 0
      vertex 35.4 22.9 0
      vertex 34.6 22.1 0
    endloop
  endfacet
  facet normal 0 0 -1
    outer loop
      vertex 35.4 22.9 0
      vertex 34.6 22.9 0
      vertex 35.4 31.1 0
    endloop
  endfacet
  facet normal 0 0 -1
    outer loop
      vertex 34.6 13.1 0
      vertex 35.4 4.9 0
      vertex 34.6 4.9 0
    endloop
  endfacet
  facet normal 0 0 -1
    outer loop
      vertex 64 3.5 0
      vertex 34.6 4.9 0
      vertex 35.4 4.9 0
    endloop
  endfacet
  facet normal 0 0 -1
    outer loop
      vertex 6 3.5 0
      vertex 34.6 4.9 0
      vertex 64 3.5 0
    endloop
  endfacet
  facet normal 0 0 -1
    outer loop
      vertex 20.6 13.1 0
      vertex 21.4 13.1 0
      vertex 21.4 4.9 0
    endloop
  endfacet
  facet normal 0 0 -1
    outer loop
      vertex 21.4 13.1 0
      vertex 20.6 13.1 0
      vertex 21.4 13.9 0
    endloop
  endfacet
  facet normal 0 0 -1
    outer loop
      vertex 21.4 13.9 0
      vertex 20.6 13.9 0
      vertex 21.4 22.1 0
    endloop
  endfacet
  facet normal 0 0 -1
    outer loop
      vertex 20.6 22.1 0
      vertex 21.4 22.1 0
      vertex 20.6 13.9 0
    endloop
  endfacet
  facet normal 0 0 -1
    outer loop
      vertex 20.6 22.9 0
      vertex 21.4 22.9 0
      vertex 20.6 22.1 0
    endloop
  endfacet
  facet normal 0 0 -1
    outer loop
      vertex 21.4 22.9 0
      vertex 20.6 22.9 0
      vertex 21.4 31.1 0
    endloop
  endfacet
  facet normal 0 0 -1
    outer loop
      vertex 20.6 13.1 0
      vertex 21.4 4.9 0
      vertex 20.6 4.9 0
    endloop
  endfacet
  facet normal -0 0 -1
    outer loop
      vertex 34.6 4.9 0
      vertex 6 3.5 0
      vertex 21.4 4.9 0
    endloop
  endfacet
  facet normal -0 0 -1
    outer loop
      vertex 21.4 4.9 0
      vertex 6 3.5 0
      vertex 20.6 4.9 0
    endloop
  endfacet
  facet normal 0 0 -1
    outer loop
      vertex 6 3.5 0
      vertex 7.4 13.1 0
      vertex 7.4 4.9 0
    endloop
  endfacet
  facet normal -0 0 -1
    outer loop
      vertex 7.4 13.1 0
      vertex 6 3.5 0
      vertex 7.4 13.9 0
    endloop
  endfacet
  facet normal -0 0 -1
    outer loop
      vertex 7.4 13.9 0
      vertex 6 3.5 0
      vertex 7.4 22.1 0
    endloop
  endfacet
  facet normal -0 0 -1
    outer loop
      vertex 7.4 22.1 0
      vertex 6 3.5 0
      vertex 7.4 22.9 0
    endloop
  endfacet
  facet normal 0 0 -1
    outer loop
      vertex 6 41.5 0
      vertex 7.4 22.9 0
      vertex 6 3.5 0
    endloop
  endfacet
  facet normal 0 0 -1
    outer loop
      vertex 7.4 22.9 0
      vertex 6 41.5 0
      vertex 7.4 31.1 0
    endloop
  endfacet
  facet normal 0 0 -1
    outer loop
      vertex 7.4 31.1 0
      vertex 6 41.5 0
      vertex 7.4 31.9 0
    endloop
  endfacet
  facet normal -0 0 -1
    outer loop
      vertex 20.6 4.9 0
      vertex 6 3.5 0
      vertex 7.4 4.9 0
    endloop
  endfacet
  facet normal 0 0 -1
    outer loop
      vertex 62.6 13.9 0
      vertex 64 3.5 0
      vertex 62.6 13.1 0
    endloop
  endfacet
  facet normal 0 0 -1
    outer loop
      vertex 62.6 22.1 0
      vertex 64 3.5 0
      vertex 62.6 13.9 0
    endloop
  endfacet
  facet normal 0 0 -1
    outer loop
      vertex 64 3.5 0
      vertex 62.6 22.1 0
      vertex 64 41.5 0
    endloop
  endfacet
  facet normal 0 0 -1
    outer loop
      vertex 62.6 22.9 0
      vertex 64 41.5 0
      vertex 62.6 22.1 0
    endloop
  endfacet
  facet normal 0 0 -1
    outer loop
      vertex 62.6 31.1 0
      vertex 64 41.5 0
      vertex 62.6 22.9 0
    endloop
  endfacet
  facet normal 0 0 -1
    outer loop
      vertex 62.6 31.9 0
      vertex 64 41.5 0
      vertex 62.6 31.1 0
    endloop
  endfacet
  facet normal 0 0 -1
    outer loop
      vertex 62.6 40.1 0
      vertex 64 41.5 0
      vertex 62.6 31.9 0
    endloop
  endfacet
  facet normal 0 0 -1
    outer loop
      vertex 49.4 40.1 0
      vertex 64 41.5 0
      vertex 62.6 40.1 0
    endloop
  endfacet
  facet normal -0 0 -1
    outer loop
      vertex 49.4 13.9 0
      vertex 48.6 13.1 0
      vertex 48.6 13.9 0
    endloop
  endfacet
  facet normal 0 0 -1
    outer loop
      vertex 49.4 22.1 0
      vertex 48.6 22.1 0
      vertex 49.4 22.9 0
    endloop
  endfacet
  facet normal 0 0 -1
    outer loop
      vertex 48.6 31.1 0
      vertex 49.4 31.1 0
      vertex 48.6 22.9 0
    endloop
  endfacet
  facet normal 0 0 -1
    outer loop
      vertex 49.4 31.1 0
      vertex 48.6 31.1 0
      vertex 49.4 31.9 0
    endloop
  endfacet
  facet normal 0 0 -1
    outer loop
      vertex 48.6 31.9 0
      vertex 49.4 31.9 0
      vertex 48.6 31.1 0
    endloop
  endfacet
  facet normal 0 0 -1
    outer loop
      vertex 49.4 31.9 0
      vertex 48.6 31.9 0
      vertex 49.4 40.1 0
    endloop
  endfacet
  facet normal 0 0 -1
    outer loop
      vertex 48.6 40.1 0
      vertex 49.4 40.1 0
      vertex 48.6 31.9 0
    endloop
  endfacet
  facet normal 0 0 -1
    outer loop
      vertex 48.6 40.1 0
      vertex 64 41.5 0
      vertex 49.4 40.1 0
    endloop
  endfacet
  facet normal 0 0 -1
    outer loop
      vertex 35.4 40.1 0
      vertex 64 41.5 0
      vertex 48.6 40.1 0
    endloop
  endfacet
  facet normal -0 0 -1
    outer loop
      vertex 35.4 13.9 0
      vertex 34.6 13.1 0
      vertex 34.6 13.9 0
    endloop
  endfacet
  facet normal 0 0 -1
    outer loop
      vertex 35.4 22.1 0
      vertex 34.6 22.1 0
      vertex 35.4 22.9 0
    endloop
  endfacet
  facet normal 0 0 -1
    outer loop
      vertex 34.6 31.1 0
      vertex 35.4 31.1 0
      vertex 34.6 22.9 0
    endloop
  endfacet
  facet normal 0 0 -1
    outer loop
      vertex 35.4 31.1 0
      vertex 34.6 31.1 0
      vertex 35.4 31.9 0
    endloop
  endfacet
  facet normal 0 0 -1
    outer loop
      vertex 34.6 31.9 0
      vertex 35.4 31.9 0
      vertex 34.6 31.1 0
    endloop
  endfacet
  facet normal 0 0 -1
    outer loop
      vertex 35.4 31.9 0
      vertex 34.6 31.9 0
      vertex 35.4 40.1 0
    endloop
  endfacet
  facet normal 0 0 -1
    outer loop
      vertex 34.6 40.1 0
      vertex 35.4 40.1 0
      vertex 34.6 31.9 0
    endloop
  endfacet
  facet normal 0 0 -1
    outer loop
      vertex 34.6 40.1 0
      vertex 64 41.5 0
      vertex 35.4 40.1 0
    endloop
  endfacet
  facet normal 0 0 -1
    outer loop
      vertex 6 41.5 0
      vertex 34.6 40.1 0
      vertex 21.4 40.1 0
    endloop
  endfacet
  facet normal -0 0 -1
    outer loop
      vertex 21.4 13.9 0
      vertex 20.6 13.1 0
      vertex 20.6 13.9 0
    endloop
  endfacet
  facet normal 0 0 -1
    outer loop
      vertex 21.4 22.1 0
      vertex 20.6 22.1 0
      vertex 21.4 22.9 0
    endloop
  endfacet
  facet normal 0 0 -1
    outer loop
      vertex 20.6 31.1 0
      vertex 21.4 31.1 0
      vertex 20.6 22.9 0
    endloop
  endfacet
  facet normal 0 0 -1
    outer loop
      vertex 21.4 31.1 0
      vertex 20.6 31.1 0
      vertex 21.4 31.9 0
    endloop
  endfacet
  facet normal 0 0 -1
    outer loop
      vertex 20.6 31.9 0
      vertex 21.4 31.9 0
      vertex 20.6 31.1 0
    endloop
  endfacet
  facet normal 0 0 -1
    outer loop
      vertex 21.4 31.9 0
      vertex 20.6 31.9 0
      vertex 21.4 40.1 0
    endloop
  endfacet
  facet normal 0 0 -1
    outer loop
      vertex 20.6 40.1 0
      vertex 21.4 40.1 0
      vertex 20.6 31.9 0
    endloop
  endfacet
  facet normal 0 0 -1
    outer loop
      vertex 6 41.5 0
      vertex 21.4 40.1 0
      vertex 20.6 40.1 0
    endloop
  endfacet
  facet normal 0 0 -1
    outer loop
      vertex 6 41.5 0
      vertex 20.6 40.1 0
      vertex 7.4 40.1 0
    endloop
  endfacet
  facet normal 0 0 -1
    outer loop
      vertex 34.6 40.1 0
      vertex 6 41.5 0
      vertex 64 41.5 0
    endloop
  endfacet
  facet normal 0 0 -1
    outer loop
      vertex 7.4 31.9 0
      vertex 6 41.5 0
      vertex 7.4 40.1 0
    endloop
  endfacet
  facet normal 0 -1 0
    outer loop
      vertex 6 3.5 0
      vertex 64 3.5 8
      vertex 6 3.5 8
    endloop
  endfacet
  facet normal 0 -1 -0
    outer loop
      vertex 64 3.5 8
      vertex 6 3.5 0
      vertex 64 3.5 0
    endloop
  endfacet
  facet normal 0 1 -0
    outer loop
      vertex 64 41.5 0
      vertex 6 41.5 8
      vertex 64 41.5 8
    endloop
  endfacet
  facet normal 0 1 0
    outer loop
      vertex 6 41.5 8
      vertex 64 41.5 0
      vertex 6 41.5 0
    endloop
  endfacet
endsolid OpenSCAD_Model
