solid OpenSCAD_Model
  facet normal 1 -0 0
    outer loop
      vertex 87.4 4.9 0.7
      vertex 87.4 13.1 -0.7
      vertex 87.4 13.1 0.7
    endloop
  endfacet
  facet normal 1 0 0
    outer loop
      vertex 87.4 13.1 -0.7
      vertex 87.4 4.9 0.7
      vertex 87.4 4.9 -0.7
    endloop
  endfacet
  facet normal -1 0 0
    outer loop
      vertex 100.6 4.9 -0.7
      vertex 100.6 13.1 0.7
      vertex 100.6 13.1 -0.7
    endloop
  endfacet
  facet normal -1 -0 0
    outer loop
      vertex 100.6 13.1 0.7
      vertex 100.6 4.9 -0.7
      vertex 100.6 4.9 0.7
    endloop
  endfacet
  facet normal 0 1 -0
    outer loop
      vertex 100.6 4.9 -0.7
      vertex 87.4 4.9 0.7
      vertex 100.6 4.9 0.7
    endloop
  endfacet
  facet normal 0 1 0
    outer loop
      vertex 87.4 4.9 0.7
      vertex 100.6 4.9 -0.7
      vertex 87.4 4.9 -0.7
    endloop
  endfacet
  facet normal 0 -1 0
    outer loop
      vertex 87.4 13.1 -0.7
      vertex 100.6 13.1 0.7
      vertex 87.4 13.1 0.7
    endloop
  endfacet
  facet normal 0 -1 -0
    outer loop
      vertex 100.6 13.1 0.7
      vertex 87.4 13.1 -0.7
      vertex 100.6 13.1 -0.7
    endloop
  endfacet
  facet normal 1 -0 0
    outer loop
      vertex 101.4 4.9 0.7
      vertex 101.4 13.1 -0.7
      vertex 101.4 13.1 0.7
    endloop
  endfacet
  facet normal 1 0 0
    outer loop
      vertex 101.4 13.1 -0.7
      vertex 101.4 4.9 0.7
      vertex 101.4 4.9 -0.7
    endloop
  endfacet
  facet normal -1 0 0
    outer loop
      vertex 114.6 4.9 -0.7
      vertex 114.6 13.1 0.7
      vertex 114.6 13.1 -0.7
    endloop
  endfacet
  facet normal -1 -0 0
    outer loop
      vertex 114.6 13.1 0.7
      vertex 114.6 4.9 -0.7
      vertex 114.6 4.9 0.7
    endloop
  endfacet
  facet normal 0 1 -0
    outer loop
      vertex 114.6 4.9 -0.7
      vertex 101.4 4.9 0.7
      vertex 114.6 4.9 0.7
    endloop
  endfacet
  facet normal 0 1 0
    outer loop
      vertex 101.4 4.9 0.7
      vertex 114.6 4.9 -0.7
      vertex 101.4 4.9 -0.7
    endloop
  endfacet
  facet normal 0 -1 0
    outer loop
      vertex 101.4 13.1 -0.7
      vertex 114.6 13.1 0.7
      vertex 101.4 13.1 0.7
    endloop
  endfacet
  facet normal 0 -1 -0
    outer loop
      vertex 114.6 13.1 0.7
      vertex 101.4 13.1 -0.7
      vertex 114.6 13.1 -0.7
    endloop
  endfacet
  facet normal 1 -0 0
    outer loop
      vertex 115.4 4.9 0.7
      vertex 115.4 13.1 -0.7
      vertex 115.4 13.1 0.7
    endloop
  endfacet
  facet normal 1 0 0
    outer loop
      vertex 115.4 13.1 -0.7
      vertex 115.4 4.9 0.7
      vertex 115.4 4.9 -0.7
    endloop
  endfacet
  facet normal -1 0 0
    outer loop
      vertex 128.6 4.9 -0.7
      vertex 128.6 13.1 0.7
      vertex 128.6 13.1 -0.7
    endloop
  endfacet
  facet normal -1 -0 0
    outer loop
      vertex 128.6 13.1 0.7
      vertex 128.6 4.9 -0.7
      vertex 128.6 4.9 0.7
    endloop
  endfacet
  facet normal 0 -1 0
    outer loop
      vertex 115.4 13.1 -0.7
      vertex 128.6 13.1 0.7
      vertex 115.4 13.1 0.7
    endloop
  endfacet
  facet normal 0 -1 -0
    outer loop
      vertex 128.6 13.1 0.7
      vertex 115.4 13.1 -0.7
      vertex 128.6 13.1 -0.7
    endloop
  endfacet
  facet normal 0 1 -0
    outer loop
      vertex 128.6 4.9 -0.7
      vertex 115.4 4.9 0.7
      vertex 128.6 4.9 0.7
    endloop
  endfacet
  facet normal 0 1 0
    outer loop
      vertex 115.4 4.9 0.7
      vertex 128.6 4.9 -0.7
      vertex 115.4 4.9 -0.7
    endloop
  endfacet
  facet normal 1 -0 0
    outer loop
      vertex 129.4 4.9 0.7
      vertex 129.4 13.1 -0.7
      vertex 129.4 13.1 0.7
    endloop
  endfacet
  facet normal 1 0 0
    outer loop
      vertex 129.4 13.1 -0.7
      vertex 129.4 4.9 0.7
      vertex 129.4 4.9 -0.7
    endloop
  endfacet
  facet normal -1 0 0
    outer loop
      vertex 142.6 4.9 -0.7
      vertex 142.6 13.1 0.7
      vertex 142.6 13.1 -0.7
    endloop
  endfacet
  facet normal -1 -0 0
    outer loop
      vertex 142.6 13.1 0.7
      vertex 142.6 4.9 -0.7
      vertex 142.6 4.9 0.7
    endloop
  endfacet
  facet normal 0 1 -0
    outer loop
      vertex 142.6 4.9 -0.7
      vertex 129.4 4.9 0.7
      vertex 142.6 4.9 0.7
    endloop
  endfacet
  facet normal 0 1 0
    outer loop
      vertex 129.4 4.9 0.7
      vertex 142.6 4.9 -0.7
      vertex 129.4 4.9 -0.7
    endloop
  endfacet
  facet normal 0 -1 0
    outer loop
      vertex 129.4 13.1 -0.7
      vertex 142.6 13.1 0.7
      vertex 129.4 13.1 0.7
    endloop
  endfacet
  facet normal 0 -1 -0
    outer loop
      vertex 142.6 13.1 0.7
      vertex 129.4 13.1 -0.7
      vertex 142.6 13.1 -0.7
    endloop
  endfacet
  facet normal 1 -0 0
    outer loop
      vertex 87.4 13.9 0.7
      vertex 87.4 22.1 -0.7
      vertex 87.4 22.1 0.7
    endloop
  endfacet
  facet normal 1 0 0
    outer loop
      vertex 87.4 22.1 -0.7
      vertex 87.4 13.9 0.7
      vertex 87.4 13.9 -0.7
    endloop
  endfacet
  facet normal -1 0 0
    outer loop
      vertex 100.6 13.9 -0.7
      vertex 100.6 22.1 0.7
      vertex 100.6 22.1 -0.7
    endloop
  endfacet
  facet normal -1 -0 0
    outer loop
      vertex 100.6 22.1 0.7
      vertex 100.6 13.9 -0.7
      vertex 100.6 13.9 0.7
    endloop
  endfacet
  facet normal 0 1 -0
    outer loop
      vertex 100.6 13.9 -0.7
      vertex 87.4 13.9 0.7
      vertex 100.6 13.9 0.7
    endloop
  endfacet
  facet normal 0 1 0
    outer loop
      vertex 87.4 13.9 0.7
      vertex 100.6 13.9 -0.7
      vertex 87.4 13.9 -0.7
    endloop
  endfacet
  facet normal 0 -1 0
    outer loop
      vertex 87.4 22.1 -0.7
      vertex 100.6 22.1 0.7
      vertex 87.4 22.1 0.7
    endloop
  endfacet
  facet normal 0 -1 -0
    outer loop
      vertex 100.6 22.1 0.7
      vertex 87.4 22.1 -0.7
      vertex 100.6 22.1 -0.7
    endloop
  endfacet
  facet normal 1 -0 0
    outer loop
      vertex 101.4 13.9 0.7
      vertex 101.4 22.1 -0.7
      vertex 101.4 22.1 0.7
    endloop
  endfacet
  facet normal 1 0 0
    outer loop
      vertex 101.4 22.1 -0.7
      vertex 101.4 13.9 0.7
      vertex 101.4 13.9 -0.7
    endloop
  endfacet
  facet normal -1 0 0
    outer loop
      vertex 114.6 13.9 -0.7
      vertex 114.6 22.1 0.7
      vertex 114.6 22.1 -0.7
    endloop
  endfacet
  facet normal -1 -0 0
    outer loop
      vertex 114.6 22.1 0.7
      vertex 114.6 13.9 -0.7
      vertex 114.6 13.9 0.7
    endloop
  endfacet
  facet normal 0 -1 0
    outer loop
      vertex 101.4 22.1 -0.7
      vertex 114.6 22.1 0.7
      vertex 101.4 22.1 0.7
    endloop
  endfacet
  facet normal 0 -1 -0
    outer loop
      vertex 114.6 22.1 0.7
      vertex 101.4 22.1 -0.7
      vertex 114.6 22.1 -0.7
    endloop
  endfacet
  facet normal 0 1 -0
    outer loop
      vertex 114.6 13.9 -0.7
      vertex 101.4 13.9 0.7
      vertex 114.6 13.9 0.7
    endloop
  endfacet
  facet normal 0 1 0
    outer loop
      vertex 101.4 13.9 0.7
      vertex 114.6 13.9 -0.7
      vertex 101.4 13.9 -0.7
    endloop
  endfacet
  facet normal 1 -0 0
    outer loop
      vertex 115.4 13.9 0.7
      vertex 115.4 22.1 -0.7
      vertex 115.4 22.1 0.7
    endloop
  endfacet
  facet normal 1 0 0
    outer loop
      vertex 115.4 22.1 -0.7
      vertex 115.4 13.9 0.7
      vertex 115.4 13.9 -0.7
    endloop
  endfacet
  facet normal -1 0 0
    outer loop
      vertex 128.6 13.9 -0.7
      vertex 128.6 22.1 0.7
      vertex 128.6 22.1 -0.7
    endloop
  endfacet
  facet normal -1 -0 0
    outer loop
      vertex 128.6 22.1 0.7
      vertex 128.6 13.9 -0.7
      vertex 128.6 13.9 0.7
    endloop
  endfacet
  facet normal 0 1 -0
    outer loop
      vertex 128.6 13.9 -0.7
      vertex 115.4 13.9 0.7
      vertex 128.6 13.9 0.7
    endloop
  endfacet
  facet normal 0 1 0
    outer loop
      vertex 115.4 13.9 0.7
      vertex 128.6 13.9 -0.7
      vertex 115.4 13.9 -0.7
    endloop
  endfacet
  facet normal 0 -1 0
    outer loop
      vertex 115.4 22.1 -0.7
      vertex 128.6 22.1 0.7
      vertex 115.4 22.1 0.7
    endloop
  endfacet
  facet normal 0 -1 -0
    outer loop
      vertex 128.6 22.1 0.7
      vertex 115.4 22.1 -0.7
      vertex 128.6 22.1 -0.7
    endloop
  endfacet
  facet normal 1 -0 0
    outer loop
      vertex 129.4 13.9 0.7
      vertex 129.4 22.1 -0.7
      vertex 129.4 22.1 0.7
    endloop
  endfacet
  facet normal 1 0 0
    outer loop
      vertex 129.4 22.1 -0.7
      vertex 129.4 13.9 0.7
      vertex 129.4 13.9 -0.7
    endloop
  endfacet
  facet normal -1 0 0
    outer loop
      vertex 142.6 13.9 -0.7
      vertex 142.6 22.1 0.7
      vertex 142.6 22.1 -0.7
    endloop
  endfacet
  facet normal -1 -0 0
    outer loop
      vertex 142.6 22.1 0.7
      vertex 142.6 13.9 -0.7
      vertex 142.6 13.9 0.7
    endloop
  endfacet
  facet normal 0 -1 0
    outer loop
      vertex 129.4 22.1 -0.7
      vertex 142.6 22.1 0.7
      vertex 129.4 22.1 0.7
    endloop
  endfacet
  facet normal 0 -1 -0
    outer loop
      vertex 142.6 22.1 0.7
      vertex 129.4 22.1 -0.7
      vertex 142.6 22.1 -0.7
    endloop
  endfacet
  facet normal 0 1 -0
    outer loop
      vertex 142.6 13.9 -0.7
      vertex 129.4 13.9 0.7
      vertex 142.6 13.9 0.7
    endloop
  endfacet
  facet normal 0 1 0
    outer loop
      vertex 129.4 13.9 0.7
      vertex 142.6 13.9 -0.7
      vertex 129.4 13.9 -0.7
    endloop
  endfacet
  facet normal 1 -0 0
    outer loop
      vertex 87.4 22.9 0.7
      vertex 87.4 31.1 -0.7
      vertex 87.4 31.1 0.7
    endloop
  endfacet
  facet normal 1 0 0
    outer loop
      vertex 87.4 31.1 -0.7
      vertex 87.4 22.9 0.7
      vertex 87.4 22.9 -0.7
    endloop
  endfacet
  facet normal -1 0 0
    outer loop
      vertex 100.6 22.9 -0.7
      vertex 100.6 31.1 0.7
      vertex 100.6 31.1 -0.7
    endloop
  endfacet
  facet normal -1 -0 0
    outer loop
      vertex 100.6 31.1 0.7
      vertex 100.6 22.9 -0.7
      vertex 100.6 22.9 0.7
    endloop
  endfacet
  facet normal 0 -1 0
    outer loop
      vertex 87.4 31.1 -0.7
      vertex 100.6 31.1 0.7
      vertex 87.4 31.1 0.7
    endloop
  endfacet
  facet normal 0 -1 -0
    outer loop
      vertex 100.6 31.1 0.7
      vertex 87.4 31.1 -0.7
      vertex 100.6 31.1 -0.7
    endloop
  endfacet
  facet normal 0 1 -0
    outer loop
      vertex 100.6 22.9 -0.7
      vertex 87.4 22.9 0.7
      vertex 100.6 22.9 0.7
    endloop
  endfacet
  facet normal 0 1 0
    outer loop
      vertex 87.4 22.9 0.7
      vertex 100.6 22.9 -0.7
      vertex 87.4 22.9 -0.7
    endloop
  endfacet
  facet normal 1 -0 0
    outer loop
      vertex 101.4 22.9 0.7
      vertex 101.4 31.1 -0.7
      vertex 101.4 31.1 0.7
    endloop
  endfacet
  facet normal 1 0 0
    outer loop
      vertex 101.4 31.1 -0.7
      vertex 101.4 22.9 0.7
      vertex 101.4 22.9 -0.7
    endloop
  endfacet
  facet normal -1 0 0
    outer loop
      vertex 114.6 22.9 -0.7
      vertex 114.6 31.1 0.7
      vertex 114.6 31.1 -0.7
    endloop
  endfacet
  facet normal -1 -0 0
    outer loop
      vertex 114.6 31.1 0.7
      vertex 114.6 22.9 -0.7
      vertex 114.6 22.9 0.7
    endloop
  endfacet
  facet normal 0 -1 0
    outer loop
      vertex 101.4 31.1 -0.7
      vertex 114.6 31.1 0.7
      vertex 101.4 31.1 0.7
    endloop
  endfacet
  facet normal 0 -1 -0
    outer loop
      vertex 114.6 31.1 0.7
      vertex 101.4 31.1 -0.7
      vertex 114.6 31.1 -0.7
    endloop
  endfacet
  facet normal 0 1 -0
    outer loop
      vertex 114.6 22.9 -0.7
      vertex 101.4 22.9 0.7
      vertex 114.6 22.9 0.7
    endloop
  endfacet
  facet normal 0 1 0
    outer loop
      vertex 101.4 22.9 0.7
      vertex 114.6 22.9 -0.7
      vertex 101.4 22.9 -0.7
    endloop
  endfacet
  facet normal 1 -0 0
    outer loop
      vertex 115.4 22.9 0.7
      vertex 115.4 31.1 -0.7
      vertex 115.4 31.1 0.7
    endloop
  endfacet
  facet normal 1 0 0
    outer loop
      vertex 115.4 31.1 -0.7
      vertex 115.4 22.9 0.7
      vertex 115.4 22.9 -0.7
    endloop
  endfacet
  facet normal -1 0 0
    outer loop
      vertex 128.6 22.9 -0.7
      vertex 128.6 31.1 0.7
      vertex 128.6 31.1 -0.7
    endloop
  endfacet
  facet normal -1 -0 0
    outer loop
      vertex 128.6 31.1 0.7
      vertex 128.6 22.9 -0.7
      vertex 128.6 22.9 0.7
    endloop
  endfacet
  facet normal 0 -1 0
    outer loop
      vertex 115.4 31.1 -0.7
      vertex 128.6 31.1 0.7
      vertex 115.4 31.1 0.7
    endloop
  endfacet
  facet normal 0 -1 -0
    outer loop
      vertex 128.6 31.1 0.7
      vertex 115.4 31.1 -0.7
      vertex 128.6 31.1 -0.7
    endloop
  endfacet
  facet normal 0 1 -0
    outer loop
      vertex 128.6 22.9 -0.7
      vertex 115.4 22.9 0.7
      vertex 128.6 22.9 0.7
    endloop
  endfacet
  facet normal 0 1 0
    outer loop
      vertex 115.4 22.9 0.7
      vertex 128.6 22.9 -0.7
      vertex 115.4 22.9 -0.7
    endloop
  endfacet
  facet normal 1 -0 0
    outer loop
      vertex 129.4 22.9 0.7
      vertex 129.4 31.1 -0.7
      vertex 129.4 31.1 0.7
    endloop
  endfacet
  facet normal 1 0 0
    outer loop
      vertex 129.4 31.1 -0.7
      vertex 129.4 22.9 0.7
      vertex 129.4 22.9 -0.7
    endloop
  endfacet
  facet normal -1 0 0
    outer loop
      vertex 142.6 22.9 -0.7
      vertex 142.6 31.1 0.7
      vertex 142.6 31.1 -0.7
    endloop
  endfacet
  facet normal -1 -0 0
    outer loop
      vertex 142.6 31.1 0.7
      vertex 142.6 22.9 -0.7
      vertex 142.6 22.9 0.7
    endloop
  endfacet
  facet normal 0 -1 0
    outer loop
      vertex 129.4 31.1 -0.7
      vertex 142.6 31.1 0.7
      vertex 129.4 31.1 0.7
    endloop
  endfacet
  facet normal 0 -1 -0
    outer loop
      vertex 142.6 31.1 0.7
      vertex 129.4 31.1 -0.7
      vertex 142.6 31.1 -0.7
    endloop
  endfacet
  facet normal 0 1 -0
    outer loop
      vertex 142.6 22.9 -0.7
      vertex 129.4 22.9 0.7
      vertex 142.6 22.9 0.7
    endloop
  endfacet
  facet normal 0 1 0
    outer loop
      vertex 129.4 22.9 0.7
      vertex 142.6 22.9 -0.7
      vertex 129.4 22.9 -0.7
    endloop
  endfacet
  facet normal 1 -0 0
    outer loop
      vertex 87.4 31.9 0.7
      vertex 87.4 40.1 -0.7
      vertex 87.4 40.1 0.7
    endloop
  endfacet
  facet normal 1 0 0
    outer loop
      vertex 87.4 40.1 -0.7
      vertex 87.4 31.9 0.7
      vertex 87.4 31.9 -0.7
    endloop
  endfacet
  facet normal -1 0 0
    outer loop
      vertex 100.6 31.9 -0.7
      vertex 100.6 40.1 0.7
      vertex 100.6 40.1 -0.7
    endloop
  endfacet
  facet normal -1 -0 0
    outer loop
      vertex 100.6 40.1 0.7
      vertex 100.6 31.9 -0.7
      vertex 100.6 31.9 0.7
    endloop
  endfacet
  facet normal 0 1 -0
    outer loop
      vertex 100.6 31.9 -0.7
      vertex 87.4 31.9 0.7
      vertex 100.6 31.9 0.7
    endloop
  endfacet
  facet normal 0 1 0
    outer loop
      vertex 87.4 31.9 0.7
      vertex 100.6 31.9 -0.7
      vertex 87.4 31.9 -0.7
    endloop
  endfacet
  facet normal 0 -1 0
    outer loop
      vertex 87.4 40.1 -0.7
      vertex 100.6 40.1 0.7
      vertex 87.4 40.1 0.7
    endloop
  endfacet
  facet normal 0 -1 -0
    outer loop
      vertex 100.6 40.1 0.7
      vertex 87.4 40.1 -0.7
      vertex 100.6 40.1 -0.7
    endloop
  endfacet
  facet normal 1 -0 0
    outer loop
      vertex 101.4 31.9 0.7
      vertex 101.4 40.1 -0.7
      vertex 101.4 40.1 0.7
    endloop
  endfacet
  facet normal 1 0 0
    outer loop
      vertex 101.4 40.1 -0.7
      vertex 101.4 31.9 0.7
      vertex 101.4 31.9 -0.7
    endloop
  endfacet
  facet normal -1 0 0
    outer loop
      vertex 114.6 31.9 -0.7
      vertex 114.6 40.1 0.7
      vertex 114.6 40.1 -0.7
    endloop
  endfacet
  facet normal -1 -0 0
    outer loop
      vertex 114.6 40.1 0.7
      vertex 114.6 31.9 -0.7
      vertex 114.6 31.9 0.7
    endloop
  endfacet
  facet normal 0 1 -0
    outer loop
      vertex 114.6 31.9 -0.7
      vertex 101.4 31.9 0.7
      vertex 114.6 31.9 0.7
    endloop
  endfacet
  facet normal 0 1 0
    outer loop
      vertex 101.4 31.9 0.7
      vertex 114.6 31.9 -0.7
      vertex 101.4 31.9 -0.7
    endloop
  endfacet
  facet normal 0 -1 0
    outer loop
      vertex 101.4 40.1 -0.7
      vertex 114.6 40.1 0.7
      vertex 101.4 40.1 0.7
    endloop
  endfacet
  facet normal 0 -1 -0
    outer loop
      vertex 114.6 40.1 0.7
      vertex 101.4 40.1 -0.7
      vertex 114.6 40.1 -0.7
    endloop
  endfacet
  facet normal 1 -0 0
    outer loop
      vertex 115.4 31.9 0.7
      vertex 115.4 40.1 -0.7
      vertex 115.4 40.1 0.7
    endloop
  endfacet
  facet normal 1 0 0
    outer loop
      vertex 115.4 40.1 -0.7
      vertex 115.4 31.9 0.7
      vertex 115.4 31.9 -0.7
    endloop
  endfacet
  facet normal -1 0 0
    outer loop
      vertex 128.6 31.9 -0.7
      vertex 128.6 40.1 0.7
      vertex 128.6 40.1 -0.7
    endloop
  endfacet
  facet normal -1 -0 0
    outer loop
      vertex 128.6 40.1 0.7
      vertex 128.6 31.9 -0.7
      vertex 128.6 31.9 0.7
    endloop
  endfacet
  facet normal 0 -1 0
    outer loop
      vertex 115.4 40.1 -0.7
      vertex 128.6 40.1 0.7
      vertex 115.4 40.1 0.7
    endloop
  endfacet
  facet normal 0 -1 -0
    outer loop
      vertex 128.6 40.1 0.7
      vertex 115.4 40.1 -0.7
      vertex 128.6 40.1 -0.7
    endloop
  endfacet
  facet normal 0 1 -0
    outer loop
      vertex 128.6 31.9 -0.7
      vertex 115.4 31.9 0.7
      vertex 128.6 31.9 0.7
    endloop
  endfacet
  facet normal 0 1 0
    outer loop
      vertex 115.4 31.9 0.7
      vertex 128.6 31.9 -0.7
      vertex 115.4 31.9 -0.7
    endloop
  endfacet
  facet normal 1 -0 0
    outer loop
      vertex 129.4 31.9 0.7
      vertex 129.4 40.1 -0.7
      vertex 129.4 40.1 0.7
    endloop
  endfacet
  facet normal 1 0 0
    outer loop
      vertex 129.4 40.1 -0.7
      vertex 129.4 31.9 0.7
      vertex 129.4 31.9 -0.7
    endloop
  endfacet
  facet normal -1 0 0
    outer loop
      vertex 142.6 31.9 -0.7
      vertex 142.6 40.1 0.7
      vertex 142.6 40.1 -0.7
    endloop
  endfacet
  facet normal -1 -0 0
    outer loop
      vertex 142.6 40.1 0.7
      vertex 142.6 31.9 -0.7
      vertex 142.6 31.9 0.7
    endloop
  endfacet
  facet normal 0 -1 0
    outer loop
      vertex 129.4 40.1 -0.7
      vertex 142.6 40.1 0.7
      vertex 129.4 40.1 0.7
    endloop
  endfacet
  facet normal 0 -1 -0
    outer loop
      vertex 142.6 40.1 0.7
      vertex 129.4 40.1 -0.7
      vertex 142.6 40.1 -0.7
    endloop
  endfacet
  facet normal 0 1 -0
    outer loop
      vertex 142.6 31.9 -0.7
      vertex 129.4 31.9 0.7
      vertex 142.6 31.9 0.7
    endloop
  endfacet
  facet normal 0 1 0
    outer loop
      vertex 129.4 31.9 0.7
      vertex 142.6 31.9 -0.7
      vertex 129.4 31.9 -0.7
    endloop
  endfacet
  facet normal -1 0 0
    outer loop
      vertex 86.6 4.1 -0.7
      vertex 86.6 40.9 0.7
      vertex 86.6 40.9 -0.7
    endloop
  endfacet
  facet normal -1 -0 0
    outer loop
      vertex 86.6 40.9 0.7
      vertex 86.6 4.1 -0.7
      vertex 86.6 4.1 0.7
    endloop
  endfacet
  facet normal -0 0 1
    outer loop
      vertex 87.4 13.9 0.7
      vertex 100.6 13.1 0.7
      vertex 100.6 13.9 0.7
    endloop
  endfacet
  facet normal 0 0 1
    outer loop
      vertex 100.6 13.1 0.7
      vertex 87.4 13.9 0.7
      vertex 87.4 13.1 0.7
    endloop
  endfacet
  facet normal -0 0 1
    outer loop
      vertex 87.4 22.9 0.7
      vertex 100.6 22.1 0.7
      vertex 100.6 22.9 0.7
    endloop
  endfacet
  facet normal 0 0 1
    outer loop
      vertex 100.6 22.1 0.7
      vertex 87.4 22.9 0.7
      vertex 87.4 22.1 0.7
    endloop
  endfacet
  facet normal -0 0 1
    outer loop
      vertex 87.4 31.9 0.7
      vertex 100.6 31.1 0.7
      vertex 100.6 31.9 0.7
    endloop
  endfacet
  facet normal 0 0 1
    outer loop
      vertex 100.6 31.1 0.7
      vertex 87.4 31.9 0.7
      vertex 87.4 31.1 0.7
    endloop
  endfacet
  facet normal -0 0 1
    outer loop
      vertex 101.4 13.9 0.7
      vertex 114.6 13.1 0.7
      vertex 114.6 13.9 0.7
    endloop
  endfacet
  facet normal 0 0 1
    outer loop
      vertex 114.6 13.1 0.7
      vertex 101.4 13.9 0.7
      vertex 101.4 13.1 0.7
    endloop
  endfacet
  facet normal -0 0 1
    outer loop
      vertex 101.4 22.9 0.7
      vertex 114.6 22.1 0.7
      vertex 114.6 22.9 0.7
    endloop
  endfacet
  facet normal 0 0 1
    outer loop
      vertex 114.6 22.1 0.7
      vertex 101.4 22.9 0.7
      vertex 101.4 22.1 0.7
    endloop
  endfacet
  facet normal -0 0 1
    outer loop
      vertex 101.4 31.9 0.7
      vertex 114.6 31.1 0.7
      vertex 114.6 31.9 0.7
    endloop
  endfacet
  facet normal 0 0 1
    outer loop
      vertex 114.6 31.1 0.7
      vertex 101.4 31.9 0.7
      vertex 101.4 31.1 0.7
    endloop
  endfacet
  facet normal -0 0 1
    outer loop
      vertex 115.4 13.9 0.7
      vertex 128.6 13.1 0.7
      vertex 128.6 13.9 0.7
    endloop
  endfacet
  facet normal 0 0 1
    outer loop
      vertex 128.6 13.1 0.7
      vertex 115.4 13.9 0.7
      vertex 115.4 13.1 0.7
    endloop
  endfacet
  facet normal -0 0 1
    outer loop
      vertex 115.4 22.9 0.7
      vertex 128.6 22.1 0.7
      vertex 128.6 22.9 0.7
    endloop
  endfacet
  facet normal 0 0 1
    outer loop
      vertex 128.6 22.1 0.7
      vertex 115.4 22.9 0.7
      vertex 115.4 22.1 0.7
    endloop
  endfacet
  facet normal -0 0 1
    outer loop
      vertex 115.4 31.9 0.7
      vertex 128.6 31.1 0.7
      vertex 128.6 31.9 0.7
    endloop
  endfacet
  facet normal 0 0 1
    outer loop
      vertex 128.6 31.1 0.7
      vertex 115.4 31.9 0.7
      vertex 115.4 31.1 0.7
    endloop
  endfacet
  facet normal -0 0 1
    outer loop
      vertex 129.4 13.9 0.7
      vertex 142.6 13.1 0.7
      vertex 142.6 13.9 0.7
    endloop
  endfacet
  facet normal 0 0 1
    outer loop
      vertex 142.6 13.1 0.7
      vertex 129.4 13.9 0.7
      vertex 129.4 13.1 0.7
    endloop
  endfacet
  facet normal -0 0 1
    outer loop
      vertex 129.4 22.9 0.7
      vertex 142.6 22.1 0.7
      vertex 142.6 22.9 0.7
    endloop
  endfacet
  facet normal 0 0 1
    outer loop
      vertex 142.6 22.1 0.7
      vertex 129.4 22.9 0.7
      vertex 129.4 22.1 0.7
    endloop
  endfacet
  facet normal -0 0 1
    outer loop
      vertex 129.4 31.9 0.7
      vertex 142.6 31.1 0.7
      vertex 142.6 31.9 0.7
    endloop
  endfacet
  facet normal 0 0 1
    outer loop
      vertex 142.6 31.1 0.7
      vertex 129.4 31.9 0.7
      vertex 129.4 31.1 0.7
    endloop
  endfacet
  facet normal 0 0 1
    outer loop
      vertex 142.6 31.9 0.7
      vertex 143.4 40.9 0.7
      vertex 142.6 40.1 0.7
    endloop
  endfacet
  facet normal 0 0 1
    outer loop
      vertex 143.4 40.9 0.7
      vertex 129.4 40.1 0.7
      vertex 142.6 40.1 0.7
    endloop
  endfacet
  facet normal 0 0 1
    outer loop
      vertex 128.6 31.9 0.7
      vertex 129.4 31.9 0.7
      vertex 129.4 40.1 0.7
    endloop
  endfacet
  facet normal 0 0 1
    outer loop
      vertex 129.4 31.9 0.7
      vertex 128.6 31.9 0.7
      vertex 129.4 31.1 0.7
    endloop
  endfacet
  facet normal 0 0 1
    outer loop
      vertex 129.4 31.1 0.7
      vertex 128.6 31.1 0.7
      vertex 129.4 22.9 0.7
    endloop
  endfacet
  facet normal 0 0 1
    outer loop
      vertex 128.6 22.9 0.7
      vertex 129.4 22.9 0.7
      vertex 128.6 31.1 0.7
    endloop
  endfacet
  facet normal 0 0 1
    outer loop
      vertex 128.6 22.1 0.7
      vertex 129.4 22.1 0.7
      vertex 128.6 22.9 0.7
    endloop
  endfacet
  facet normal 0 0 1
    outer loop
      vertex 129.4 22.1 0.7
      vertex 128.6 22.1 0.7
      vertex 129.4 13.9 0.7
    endloop
  endfacet
  facet normal 0 0 1
    outer loop
      vertex 128.6 31.9 0.7
      vertex 129.4 40.1 0.7
      vertex 128.6 40.1 0.7
    endloop
  endfacet
  facet normal 0 0 1
    outer loop
      vertex 143.4 40.9 0.7
      vertex 128.6 40.1 0.7
      vertex 129.4 40.1 0.7
    endloop
  endfacet
  facet normal 0 0 1
    outer loop
      vertex 143.4 40.9 0.7
      vertex 115.4 40.1 0.7
      vertex 128.6 40.1 0.7
    endloop
  endfacet
  facet normal 0 0 1
    outer loop
      vertex 114.6 31.9 0.7
      vertex 115.4 31.9 0.7
      vertex 115.4 40.1 0.7
    endloop
  endfacet
  facet normal 0 0 1
    outer loop
      vertex 115.4 31.9 0.7
      vertex 114.6 31.9 0.7
      vertex 115.4 31.1 0.7
    endloop
  endfacet
  facet normal 0 0 1
    outer loop
      vertex 115.4 31.1 0.7
      vertex 114.6 31.1 0.7
      vertex 115.4 22.9 0.7
    endloop
  endfacet
  facet normal 0 0 1
    outer loop
      vertex 114.6 22.9 0.7
      vertex 115.4 22.9 0.7
      vertex 114.6 31.1 0.7
    endloop
  endfacet
  facet normal 0 0 1
    outer loop
      vertex 114.6 22.1 0.7
      vertex 115.4 22.1 0.7
      vertex 114.6 22.9 0.7
    endloop
  endfacet
  facet normal 0 0 1
    outer loop
      vertex 115.4 22.1 0.7
      vertex 114.6 22.1 0.7
      vertex 115.4 13.9 0.7
    endloop
  endfacet
  facet normal 0 0 1
    outer loop
      vertex 114.6 31.9 0.7
      vertex 115.4 40.1 0.7
      vertex 114.6 40.1 0.7
    endloop
  endfacet
  facet normal 0 0 1
    outer loop
      vertex 143.4 40.9 0.7
      vertex 114.6 40.1 0.7
      vertex 115.4 40.1 0.7
    endloop
  endfacet
  facet normal -0 0 1
    outer loop
      vertex 86.6 40.9 0.7
      vertex 114.6 40.1 0.7
      vertex 143.4 40.9 0.7
    endloop
  endfacet
  facet normal 0 0 1
    outer loop
      vertex 100.6 31.9 0.7
      vertex 101.4 31.9 0.7
      vertex 101.4 40.1 0.7
    endloop
  endfacet
  facet normal 0 0 1
    outer loop
      vertex 101.4 31.9 0.7
      vertex 100.6 31.9 0.7
      vertex 101.4 31.1 0.7
    endloop
  endfacet
  facet normal 0 0 1
    outer loop
      vertex 101.4 31.1 0.7
      vertex 100.6 31.1 0.7
      vertex 101.4 22.9 0.7
    endloop
  endfacet
  facet normal 0 0 1
    outer loop
      vertex 100.6 22.9 0.7
      vertex 101.4 22.9 0.7
      vertex 100.6 31.1 0.7
    endloop
  endfacet
  facet normal 0 0 1
    outer loop
      vertex 100.6 22.1 0.7
      vertex 101.4 22.1 0.7
      vertex 100.6 22.9 0.7
    endloop
  endfacet
  facet normal 0 0 1
    outer loop
      vertex 101.4 22.1 0.7
      vertex 100.6 22.1 0.7
      vertex 101.4 13.9 0.7
    endloop
  endfacet
  facet normal 0 0 1
    outer loop
      vertex 100.6 31.9 0.7
      vertex 101.4 40.1 0.7
      vertex 100.6 40.1 0.7
    endloop
  endfacet
  facet normal 0 0 1
    outer loop
      vertex 114.6 40.1 0.7
      vertex 86.6 40.9 0.7
      vertex 101.4 40.1 0.7
    endloop
  endfacet
  facet normal 0 0 1
    outer loop
      vertex 101.4 40.1 0.7
      vertex 86.6 40.9 0.7
      vertex 100.6 40.1 0.7
    endloop
  endfacet
  facet normal 0 0 1
    outer loop
      vertex 86.6 40.9 0.7
      vertex 87.4 31.9 0.7
      vertex 87.4 40.1 0.7
    endloop
  endfacet
  facet normal 0 0 1
    outer loop
      vertex 87.4 31.9 0.7
      vertex 86.6 40.9 0.7
      vertex 87.4 31.1 0.7
    endloop
  endfacet
  facet normal 0 0 1
    outer loop
      vertex 87.4 31.1 0.7
      vertex 86.6 40.9 0.7
      vertex 87.4 22.9 0.7
    endloop
  endfacet
  facet normal 0 0 1
    outer loop
      vertex 87.4 22.9 0.7
      vertex 86.6 40.9 0.7
      vertex 87.4 22.1 0.7
    endloop
  endfacet
  facet normal 0 0 1
    outer loop
      vertex 86.6 4.1 0.7
      vertex 87.4 22.1 0.7
      vertex 86.6 40.9 0.7
    endloop
  endfacet
  facet normal 0 0 1
    outer loop
      vertex 87.4 22.1 0.7
      vertex 86.6 4.1 0.7
      vertex 87.4 13.9 0.7
    endloop
  endfacet
  facet normal 0 0 1
    outer loop
      vertex 87.4 13.9 0.7
      vertex 86.6 4.1 0.7
      vertex 87.4 13.1 0.7
    endloop
  endfacet
  facet normal 0 0 1
    outer loop
      vertex 100.6 40.1 0.7
      vertex 86.6 40.9 0.7
      vertex 87.4 40.1 0.7
    endloop
  endfacet
  facet normal 0 0 1
    outer loop
      vertex 142.6 31.1 0.7
      vertex 143.4 40.9 0.7
      vertex 142.6 31.9 0.7
    endloop
  endfacet
  facet normal 0 0 1
    outer loop
      vertex 142.6 22.9 0.7
      vertex 143.4 40.9 0.7
      vertex 142.6 31.1 0.7
    endloop
  endfacet
  facet normal 0 0 1
    outer loop
      vertex 143.4 40.9 0.7
      vertex 142.6 22.9 0.7
      vertex 143.4 4.1 0.7
    endloop
  endfacet
  facet normal -0 0 1
    outer loop
      vertex 142.6 22.1 0.7
      vertex 143.4 4.1 0.7
      vertex 142.6 22.9 0.7
    endloop
  endfacet
  facet normal -0 0 1
    outer loop
      vertex 142.6 13.9 0.7
      vertex 143.4 4.1 0.7
      vertex 142.6 22.1 0.7
    endloop
  endfacet
  facet normal -0 0 1
    outer loop
      vertex 142.6 13.1 0.7
      vertex 143.4 4.1 0.7
      vertex 142.6 13.9 0.7
    endloop
  endfacet
  facet normal -0 0 1
    outer loop
      vertex 142.6 4.9 0.7
      vertex 143.4 4.1 0.7
      vertex 142.6 13.1 0.7
    endloop
  endfacet
  facet normal -0 0 1
    outer loop
      vertex 129.4 4.9 0.7
      vertex 143.4 4.1 0.7
      vertex 142.6 4.9 0.7
    endloop
  endfacet
  facet normal 0 0 1
    outer loop
      vertex 129.4 31.1 0.7
      vertex 128.6 31.9 0.7
      vertex 128.6 31.1 0.7
    endloop
  endfacet
  facet normal 0 0 1
    outer loop
      vertex 129.4 22.9 0.7
      vertex 128.6 22.9 0.7
      vertex 129.4 22.1 0.7
    endloop
  endfacet
  facet normal 0 0 1
    outer loop
      vertex 128.6 13.9 0.7
      vertex 129.4 13.9 0.7
      vertex 128.6 22.1 0.7
    endloop
  endfacet
  facet normal 0 0 1
    outer loop
      vertex 129.4 13.9 0.7
      vertex 128.6 13.9 0.7
      vertex 129.4 13.1 0.7
    endloop
  endfacet
  facet normal 0 0 1
    outer loop
      vertex 128.6 13.1 0.7
      vertex 129.4 13.1 0.7
      vertex 128.6 13.9 0.7
    endloop
  endfacet
  facet normal 0 0 1
    outer loop
      vertex 129.4 13.1 0.7
      vertex 128.6 13.1 0.7
      vertex 129.4 4.9 0.7
    endloop
  endfacet
  facet normal 0 0 1
    outer loop
      vertex 128.6 4.9 0.7
      vertex 129.4 4.9 0.7
      vertex 128.6 13.1 0.7
    endloop
  endfacet
  facet normal -0 0 1
    outer loop
      vertex 128.6 4.9 0.7
      vertex 143.4 4.1 0.7
      vertex 129.4 4.9 0.7
    endloop
  endfacet
  facet normal -0 0 1
    outer loop
      vertex 115.4 4.9 0.7
      vertex 143.4 4.1 0.7
      vertex 128.6 4.9 0.7
    endloop
  endfacet
  facet normal 0 0 1
    outer loop
      vertex 115.4 31.1 0.7
      vertex 114.6 31.9 0.7
      vertex 114.6 31.1 0.7
    endloop
  endfacet
  facet normal 0 0 1
    outer loop
      vertex 115.4 22.9 0.7
      vertex 114.6 22.9 0.7
      vertex 115.4 22.1 0.7
    endloop
  endfacet
  facet normal 0 0 1
    outer loop
      vertex 114.6 13.9 0.7
      vertex 115.4 13.9 0.7
      vertex 114.6 22.1 0.7
    endloop
  endfacet
  facet normal 0 0 1
    outer loop
      vertex 115.4 13.9 0.7
      vertex 114.6 13.9 0.7
      vertex 115.4 13.1 0.7
    endloop
  endfacet
  facet normal 0 0 1
    outer loop
      vertex 114.6 13.1 0.7
      vertex 115.4 13.1 0.7
      vertex 114.6 13.9 0.7
    endloop
  endfacet
  facet normal 0 0 1
    outer loop
      vertex 115.4 13.1 0.7
      vertex 114.6 13.1 0.7
      vertex 115.4 4.9 0.7
    endloop
  endfacet
  facet normal 0 0 1
    outer loop
      vertex 114.6 4.9 0.7
      vertex 115.4 4.9 0.7
      vertex 114.6 13.1 0.7
    endloop
  endfacet
  facet normal -0 0 1
    outer loop
      vertex 114.6 4.9 0.7
      vertex 143.4 4.1 0.7
      vertex 115.4 4.9 0.7
    endloop
  endfacet
  facet normal 0 0 1
    outer loop
      vertex 86.6 4.1 0.7
      vertex 114.6 4.9 0.7
      vertex 101.4 4.9 0.7
    endloop
  endfacet
  facet normal 0 0 1
    outer loop
      vertex 101.4 31.1 0.7
      vertex 100.6 31.9 0.7
      vertex 100.6 31.1 0.7
    endloop
  endfacet
  facet normal 0 0 1
    outer loop
      vertex 101.4 22.9 0.7
      vertex 100.6 22.9 0.7
      vertex 101.4 22.1 0.7
    endloop
  endfacet
  facet normal 0 0 1
    outer loop
      vertex 100.6 13.9 0.7
      vertex 101.4 13.9 0.7
      vertex 100.6 22.1 0.7
    endloop
  endfacet
  facet normal 0 0 1
    outer loop
      vertex 101.4 13.9 0.7
      vertex 100.6 13.9 0.7
      vertex 101.4 13.1 0.7
    endloop
  endfacet
  facet normal 0 0 1
    outer loop
      vertex 100.6 13.1 0.7
      vertex 101.4 13.1 0.7
      vertex 100.6 13.9 0.7
    endloop
  endfacet
  facet normal 0 0 1
    outer loop
      vertex 101.4 13.1 0.7
      vertex 100.6 13.1 0.7
      vertex 101.4 4.9 0.7
    endloop
  endfacet
  facet normal 0 0 1
    outer loop
      vertex 100.6 4.9 0.7
      vertex 101.4 4.9 0.7
      vertex 100.6 13.1 0.7
    endloop
  endfacet
  facet normal 0 0 1
    outer loop
      vertex 86.6 4.1 0.7
      vertex 101.4 4.9 0.7
      vertex 100.6 4.9 0.7
    endloop
  endfacet
  facet normal 0 0 1
    outer loop
      vertex 86.6 4.1 0.7
      vertex 100.6 4.9 0.7
      vertex 87.4 4.9 0.7
    endloop
  endfacet
  facet normal 0 0 1
    outer loop
      vertex 114.6 4.9 0.7
      vertex 86.6 4.1 0.7
      vertex 143.4 4.1 0.7
    endloop
  endfacet
  facet normal 0 0 1
    outer loop
      vertex 87.4 13.1 0.7
      vertex 86.6 4.1 0.7
      vertex 87.4 4.9 0.7
    endloop
  endfacet
  facet normal 1 -0 0
    outer loop
      vertex 143.4 4.1 0.7
      vertex 143.4 40.9 -0.7
      vertex 143.4 40.9 0.7
    endloop
  endfacet
  facet normal 1 0 0
    outer loop
      vertex 143.4 40.9 -0.7
      vertex 143.4 4.1 0.7
      vertex 143.4 4.1 -0.7
    endloop
  endfacet
  facet normal 0 1 -0
    outer loop
      vertex 143.4 40.9 -0.7
      vertex 86.6 40.9 0.7
      vertex 143.4 40.9 0.7
    endloop
  endfacet
  facet normal 0 1 0
    outer loop
      vertex 86.6 40.9 0.7
      vertex 143.4 40.9 -0.7
      vertex 86.6 40.9 -0.7
    endloop
  endfacet
  facet normal 0 0 -1
    outer loop
      vertex 87.4 31.1 -0.7
      vertex 100.6 31.9 -0.7
      vertex 100.6 31.1 -0.7
    endloop
  endfacet
  facet normal -0 0 -1
    outer loop
      vertex 100.6 31.9 -0.7
      vertex 87.4 31.1 -0.7
      vertex 87.4 31.9 -0.7
    endloop
  endfacet
  facet normal 0 0 -1
    outer loop
      vertex 87.4 22.1 -0.7
      vertex 100.6 22.9 -0.7
      vertex 100.6 22.1 -0.7
    endloop
  endfacet
  facet normal -0 0 -1
    outer loop
      vertex 100.6 22.9 -0.7
      vertex 87.4 22.1 -0.7
      vertex 87.4 22.9 -0.7
    endloop
  endfacet
  facet normal 0 0 -1
    outer loop
      vertex 87.4 13.1 -0.7
      vertex 100.6 13.9 -0.7
      vertex 100.6 13.1 -0.7
    endloop
  endfacet
  facet normal -0 0 -1
    outer loop
      vertex 100.6 13.9 -0.7
      vertex 87.4 13.1 -0.7
      vertex 87.4 13.9 -0.7
    endloop
  endfacet
  facet normal 0 0 -1
    outer loop
      vertex 101.4 31.1 -0.7
      vertex 114.6 31.9 -0.7
      vertex 114.6 31.1 -0.7
    endloop
  endfacet
  facet normal -0 0 -1
    outer loop
      vertex 114.6 31.9 -0.7
      vertex 101.4 31.1 -0.7
      vertex 101.4 31.9 -0.7
    endloop
  endfacet
  facet normal 0 0 -1
    outer loop
      vertex 101.4 22.1 -0.7
      vertex 114.6 22.9 -0.7
      vertex 114.6 22.1 -0.7
    endloop
  endfacet
  facet normal -0 0 -1
    outer loop
      vertex 114.6 22.9 -0.7
      vertex 101.4 22.1 -0.7
      vertex 101.4 22.9 -0.7
    endloop
  endfacet
  facet normal 0 0 -1
    outer loop
      vertex 101.4 13.1 -0.7
      vertex 114.6 13.9 -0.7
      vertex 114.6 13.1 -0.7
    endloop
  endfacet
  facet normal -0 0 -1
    outer loop
      vertex 114.6 13.9 -0.7
      vertex 101.4 13.1 -0.7
      vertex 101.4 13.9 -0.7
    endloop
  endfacet
  facet normal 0 0 -1
    outer loop
      vertex 115.4 31.1 -0.7
      vertex 128.6 31.9 -0.7
      vertex 128.6 31.1 -0.7
    endloop
  endfacet
  facet normal -0 0 -1
    outer loop
      vertex 128.6 31.9 -0.7
      vertex 115.4 31.1 -0.7
      vertex 115.4 31.9 -0.7
    endloop
  endfacet
  facet normal 0 0 -1
    outer loop
      vertex 115.4 22.1 -0.7
      vertex 128.6 22.9 -0.7
      vertex 128.6 22.1 -0.7
    endloop
  endfacet
  facet normal -0 0 -1
    outer loop
      vertex 128.6 22.9 -0.7
      vertex 115.4 22.1 -0.7
      vertex 115.4 22.9 -0.7
    endloop
  endfacet
  facet normal 0 0 -1
    outer loop
      vertex 115.4 13.1 -0.7
      vertex 128.6 13.9 -0.7
      vertex 128.6 13.1 -0.7
    endloop
  endfacet
  facet normal -0 0 -1
    outer loop
      vertex 128.6 13.9 -0.7
      vertex 115.4 13.1 -0.7
      vertex 115.4 13.9 -0.7
    endloop
  endfacet
  facet normal 0 0 -1
    outer loop
      vertex 129.4 31.1 -0.7
      vertex 142.6 31.9 -0.7
      vertex 142.6 31.1 -0.7
    endloop
  endfacet
  facet normal -0 0 -1
    outer loop
      vertex 142.6 31.9 -0.7
      vertex 129.4 31.1 -0.7
      vertex 129.4 31.9 -0.7
    endloop
  endfacet
  facet normal 0 0 -1
    outer loop
      vertex 129.4 22.1 -0.7
      vertex 142.6 22.9 -0.7
      vertex 142.6 22.1 -0.7
    endloop
  endfacet
  facet normal -0 0 -1
    outer loop
      vertex 142.6 22.9 -0.7
      vertex 129.4 22.1 -0.7
      vertex 129.4 22.9 -0.7
    endloop
  endfacet
  facet normal 0 0 -1
    outer loop
      vertex 129.4 13.1 -0.7
      vertex 142.6 13.9 -0.7
      vertex 142.6 13.1 -0.7
    endloop
  endfacet
  facet normal -0 0 -1
    outer loop
      vertex 142.6 13.9 -0.7
      vertex 129.4 13.1 -0.7
      vertex 129.4 13.9 -0.7
    endloop
  endfacet
  facet normal 0 0 -1
    outer loop
      vertex 142.6 13.1 -0.7
      vertex 143.4 4.1 -0.7
      vertex 142.6 4.9 -0.7
    endloop
  endfacet
  facet normal 0 0 -1
    outer loop
      vertex 143.4 4.1 -0.7
      vertex 129.4 4.9 -0.7
      vertex 142.6 4.9 -0.7
    endloop
  endfacet
  facet normal 0 0 -1
    outer loop
      vertex 128.6 13.1 -0.7
      vertex 129.4 13.1 -0.7
      vertex 129.4 4.9 -0.7
    endloop
  endfacet
  facet normal 0 0 -1
    outer loop
      vertex 129.4 13.1 -0.7
      vertex 128.6 13.1 -0.7
      vertex 129.4 13.9 -0.7
    endloop
  endfacet
  facet normal 0 0 -1
    outer loop
      vertex 129.4 13.9 -0.7
      vertex 128.6 13.9 -0.7
      vertex 129.4 22.1 -0.7
    endloop
  endfacet
  facet normal 0 0 -1
    outer loop
      vertex 128.6 22.1 -0.7
      vertex 129.4 22.1 -0.7
      vertex 128.6 13.9 -0.7
    endloop
  endfacet
  facet normal 0 0 -1
    outer loop
      vertex 128.6 22.9 -0.7
      vertex 129.4 22.9 -0.7
      vertex 128.6 22.1 -0.7
    endloop
  endfacet
  facet normal 0 0 -1
    outer loop
      vertex 129.4 22.9 -0.7
      vertex 128.6 22.9 -0.7
      vertex 129.4 31.1 -0.7
    endloop
  endfacet
  facet normal 0 0 -1
    outer loop
      vertex 128.6 13.1 -0.7
      vertex 129.4 4.9 -0.7
      vertex 128.6 4.9 -0.7
    endloop
  endfacet
  facet normal 0 0 -1
    outer loop
      vertex 143.4 4.1 -0.7
      vertex 128.6 4.9 -0.7
      vertex 129.4 4.9 -0.7
    endloop
  endfacet
  facet normal 0 0 -1
    outer loop
      vertex 143.4 4.1 -0.7
      vertex 115.4 4.9 -0.7
      vertex 128.6 4.9 -0.7
    endloop
  endfacet
  facet normal 0 0 -1
    outer loop
      vertex 114.6 13.1 -0.7
      vertex 115.4 13.1 -0.7
      vertex 115.4 4.9 -0.7
    endloop
  endfacet
  facet normal 0 0 -1
    outer loop
      vertex 115.4 13.1 -0.7
      vertex 114.6 13.1 -0.7
      vertex 115.4 13.9 -0.7
    endloop
  endfacet
  facet normal 0 0 -1
    outer loop
      vertex 115.4 13.9 -0.7
      vertex 114.6 13.9 -0.7
      vertex 115.4 22.1 -0.7
    endloop
  endfacet
  facet normal 0 0 -1
    outer loop
      vertex 114.6 22.1 -0.7
      vertex 115.4 22.1 -0.7
      vertex 114.6 13.9 -0.7
    endloop
  endfacet
  facet normal 0 0 -1
    outer loop
      vertex 114.6 22.9 -0.7
      vertex 115.4 22.9 -0.7
      vertex 114.6 22.1 -0.7
    endloop
  endfacet
  facet normal 0 0 -1
    outer loop
      vertex 115.4 22.9 -0.7
      vertex 114.6 22.9 -0.7
      vertex 115.4 31.1 -0.7
    endloop
  endfacet
  facet normal 0 0 -1
    outer loop
      vertex 114.6 13.1 -0.7
      vertex 115.4 4.9 -0.7
      vertex 114.6 4.9 -0.7
    endloop
  endfacet
  facet normal 0 0 -1
    outer loop
      vertex 143.4 4.1 -0.7
      vertex 114.6 4.9 -0.7
      vertex 115.4 4.9 -0.7
    endloop
  endfacet
  facet normal 0 0 -1
    outer loop
      vertex 86.6 4.1 -0.7
      vertex 114.6 4.9 -0.7
      vertex 143.4 4.1 -0.7
    endloop
  endfacet
  facet normal 0 0 -1
    outer loop
      vertex 100.6 13.1 -0.7
      vertex 101.4 13.1 -0.7
      vertex 101.4 4.9 -0.7
    endloop
  endfacet
  facet normal 0 0 -1
    outer loop
      vertex 101.4 13.1 -0.7
      vertex 100.6 13.1 -0.7
      vertex 101.4 13.9 -0.7
    endloop
  endfacet
  facet normal 0 0 -1
    outer loop
      vertex 101.4 13.9 -0.7
      vertex 100.6 13.9 -0.7
      vertex 101.4 22.1 -0.7
    endloop
  endfacet
  facet normal 0 0 -1
    outer loop
      vertex 100.6 22.1 -0.7
      vertex 101.4 22.1 -0.7
      vertex 100.6 13.9 -0.7
    endloop
  endfacet
  facet normal 0 0 -1
    outer loop
      vertex 100.6 22.9 -0.7
      vertex 101.4 22.9 -0.7
      vertex 100.6 22.1 -0.7
    endloop
  endfacet
  facet normal 0 0 -1
    outer loop
      vertex 101.4 22.9 -0.7
      vertex 100.6 22.9 -0.7
      vertex 101.4 31.1 -0.7
    endloop
  endfacet
  facet normal 0 0 -1
    outer loop
      vertex 100.6 13.1 -0.7
      vertex 101.4 4.9 -0.7
      vertex 100.6 4.9 -0.7
    endloop
  endfacet
  facet normal -0 0 -1
    outer loop
      vertex 114.6 4.9 -0.7
      vertex 86.6 4.1 -0.7
      vertex 101.4 4.9 -0.7
    endloop
  endfacet
  facet normal -0 0 -1
    outer loop
      vertex 101.4 4.9 -0.7
      vertex 86.6 4.1 -0.7
      vertex 100.6 4.9 -0.7
    endloop
  endfacet
  facet normal 0 0 -1
    outer loop
      vertex 86.6 4.1 -0.7
      vertex 87.4 13.1 -0.7
      vertex 87.4 4.9 -0.7
    endloop
  endfacet
  facet normal -0 0 -1
    outer loop
      vertex 87.4 13.1 -0.7
      vertex 86.6 4.1 -0.7
      vertex 87.4 13.9 -0.7
    endloop
  endfacet
  facet normal -0 0 -1
    outer loop
      vertex 87.4 13.9 -0.7
      vertex 86.6 4.1 -0.7
      vertex 87.4 22.1 -0.7
    endloop
  endfacet
  facet normal -0 0 -1
    outer loop
      vertex 87.4 22.1 -0.7
      vertex 86.6 4.1 -0.7
      vertex 87.4 22.9 -0.7
    endloop
  endfacet
  facet normal 0 0 -1
    outer loop
      vertex 86.6 40.9 -0.7
      vertex 87.4 22.9 -0.7
      vertex 86.6 4.1 -0.7
    endloop
  endfacet
  facet normal 0 0 -1
    outer loop
      vertex 87.4 22.9 -0.7
      vertex 86.6 40.9 -0.7
      vertex 87.4 31.1 -0.7
    endloop
  endfacet
  facet normal 0 0 -1
    outer loop
      vertex 87.4 31.1 -0.7
      vertex 86.6 40.9 -0.7
      vertex 87.4 31.9 -0.7
    endloop
  endfacet
  facet normal -0 0 -1
    outer loop
      vertex 100.6 4.9 -0.7
      vertex 86.6 4.1 -0.7
      vertex 87.4 4.9 -0.7
    endloop
  endfacet
  facet normal 0 0 -1
    outer loop
      vertex 142.6 13.9 -0.7
      vertex 143.4 4.1 -0.7
      vertex 142.6 13.1 -0.7
    endloop
  endfacet
  facet normal 0 0 -1
    outer loop
      vertex 142.6 22.1 -0.7
      vertex 143.4 4.1 -0.7
      vertex 142.6 13.9 -0.7
    endloop
  endfacet
  facet normal 0 0 -1
    outer loop
      vertex 143.4 4.1 -0.7
      vertex 142.6 22.1 -0.7
      vertex 143.4 40.9 -0.7
    endloop
  endfacet
  facet normal 0 0 -1
    outer loop
      vertex 142.6 22.9 -0.7
      vertex 143.4 40.9 -0.7
      vertex 142.6 22.1 -0.7
    endloop
  endfacet
  facet normal 0 0 -1
    outer loop
      vertex 142.6 31.1 -0.7
      vertex 143.4 40.9 -0.7
      vertex 142.6 22.9 -0.7
    endloop
  endfacet
  facet normal 0 0 -1
    outer loop
      vertex 142.6 31.9 -0.7
      vertex 143.4 40.9 -0.7
      vertex 142.6 31.1 -0.7
    endloop
  endfacet
  facet normal 0 0 -1
    outer loop
      vertex 142.6 40.1 -0.7
      vertex 143.4 40.9 -0.7
      vertex 142.6 31.9 -0.7
    endloop
  endfacet
  facet normal 0 0 -1
    outer loop
      vertex 129.4 40.1 -0.7
      vertex 143.4 40.9 -0.7
      vertex 142.6 40.1 -0.7
    endloop
  endfacet
  facet normal -0 0 -1
    outer loop
      vertex 129.4 13.9 -0.7
      vertex 128.6 13.1 -0.7
      vertex 128.6 13.9 -0.7
    endloop
  endfacet
  facet normal 0 0 -1
    outer loop
      vertex 129.4 22.1 -0.7
      vertex 128.6 22.1 -0.7
      vertex 129.4 22.9 -0.7
    endloop
  endfacet
  facet normal 0 0 -1
    outer loop
      vertex 128.6 31.1 -0.7
      vertex 129.4 31.1 -0.7
      vertex 128.6 22.9 -0.7
    endloop
  endfacet
  facet normal 0 0 -1
    outer loop
      vertex 129.4 31.1 -0.7
      vertex 128.6 31.1 -0.7
      vertex 129.4 31.9 -0.7
    endloop
  endfacet
  facet normal 0 0 -1
    outer loop
      vertex 128.6 31.9 -0.7
      vertex 129.4 31.9 -0.7
      vertex 128.6 31.1 -0.7
    endloop
  endfacet
  facet normal 0 0 -1
    outer loop
      vertex 129.4 31.9 -0.7
      vertex 128.6 31.9 -0.7
      vertex 129.4 40.1 -0.7
    endloop
  endfacet
  facet normal 0 0 -1
    outer loop
      vertex 128.6 40.1 -0.7
      vertex 129.4 40.1 -0.7
      vertex 128.6 31.9 -0.7
    endloop
  endfacet
  facet normal 0 0 -1
    outer loop
      vertex 128.6 40.1 -0.7
      vertex 143.4 40.9 -0.7
      vertex 129.4 40.1 -0.7
    endloop
  endfacet
  facet normal 0 0 -1
    outer loop
      vertex 115.4 40.1 -0.7
      vertex 143.4 40.9 -0.7
      vertex 128.6 40.1 -0.7
    endloop
  endfacet
  facet normal -0 0 -1
    outer loop
      vertex 115.4 13.9 -0.7
      vertex 114.6 13.1 -0.7
      vertex 114.6 13.9 -0.7
    endloop
  endfacet
  facet normal 0 0 -1
    outer loop
      vertex 115.4 22.1 -0.7
      vertex 114.6 22.1 -0.7
      vertex 115.4 22.9 -0.7
    endloop
  endfacet
  facet normal 0 0 -1
    outer loop
      vertex 114.6 31.1 -0.7
      vertex 115.4 31.1 -0.7
      vertex 114.6 22.9 -0.7
    endloop
  endfacet
  facet normal 0 0 -1
    outer loop
      vertex 115.4 31.1 -0.7
      vertex 114.6 31.1 -0.7
      vertex 115.4 31.9 -0.7
    endloop
  endfacet
  facet normal 0 0 -1
    outer loop
      vertex 114.6 31.9 -0.7
      vertex 115.4 31.9 -0.7
      vertex 114.6 31.1 -0.7
    endloop
  endfacet
  facet normal 0 0 -1
    outer loop
      vertex 115.4 31.9 -0.7
      vertex 114.6 31.9 -0.7
      vertex 115.4 40.1 -0.7
    endloop
  endfacet
  facet normal 0 0 -1
    outer loop
      vertex 114.6 40.1 -0.7
      vertex 115.4 40.1 -0.7
      vertex 114.6 31.9 -0.7
    endloop
  endfacet
  facet normal 0 0 -1
    outer loop
      vertex 114.6 40.1 -0.7
      vertex 143.4 40.9 -0.7
      vertex 115.4 40.1 -0.7
    endloop
  endfacet
  facet normal 0 0 -1
    outer loop
      vertex 86.6 40.9 -0.7
      vertex 114.6 40.1 -0.7
      vertex 101.4 40.1 -0.7
    endloop
  endfacet
  facet normal -0 0 -1
    outer loop
      vertex 101.4 13.9 -0.7
      vertex 100.6 13.1 -0.7
      vertex 100.6 13.9 -0.7
    endloop
  endfacet
  facet normal 0 0 -1
    outer loop
      vertex 101.4 22.1 -0.7
      vertex 100.6 22.1 -0.7
      vertex 101.4 22.9 -0.7
    endloop
  endfacet
  facet normal 0 0 -1
    outer loop
      vertex 100.6 31.1 -0.7
      vertex 101.4 31.1 -0.7
      vertex 100.6 22.9 -0.7
    endloop
  endfacet
  facet normal 0 0 -1
    outer loop
      vertex 101.4 31.1 -0.7
      vertex 100.6 31.1 -0.7
      vertex 101.4 31.9 -0.7
    endloop
  endfacet
  facet normal 0 0 -1
    outer loop
      vertex 100.6 31.9 -0.7
      vertex 101.4 31.9 -0.7
      vertex 100.6 31.1 -0.7
    endloop
  endfacet
  facet normal 0 0 -1
    outer loop
      vertex 101.4 31.9 -0.7
      vertex 100.6 31.9 -0.7
      vertex 101.4 40.1 -0.7
    endloop
  endfacet
  facet normal 0 0 -1
    outer loop
      vertex 100.6 40.1 -0.7
      vertex 101.4 40.1 -0.7
      vertex 100.6 31.9 -0.7
    endloop
  endfacet
  facet normal 0 0 -1
    outer loop
      vertex 86.6 40.9 -0.7
      vertex 101.4 40.1 -0.7
      vertex 100.6 40.1 -0.7
    endloop
  endfacet
  facet normal 0 0 -1
    outer loop
      vertex 86.6 40.9 -0.7
      vertex 100.6 40.1 -0.7
      vertex 87.4 40.1 -0.7
    endloop
  endfacet
  facet normal 0 0 -1
    outer loop
      vertex 114.6 40.1 -0.7
      vertex 86.6 40.9 -0.7
      vertex 143.4 40.9 -0.7
    endloop
  endfacet
  facet normal 0 0 -1
    outer loop
      vertex 87.4 31.9 -0.7
      vertex 86.6 40.9 -0.7
      vertex 87.4 40.1 -0.7
    endloop
  endfacet
  facet normal 0 -1 0
    outer loop
      vertex 86.6 4.1 -0.7
      vertex 143.4 4.1 0.7
      vertex 86.6 4.1 0.7
    endloop
  endfacet
  facet normal 0 -1 -0
    outer loop
      vertex 143.4 4.1 0.7
      vertex 86.6 4.1 -0.7
      vertex 143.4 4.1 -0.7
    endloop
  endfacet
endsolid OpenSCAD_Model
